<svg xmlns="http://www.w3.org/2000/svg" width="533.334" height="533.334" viewBox="0 0 533.334 533.334"><path d="M426.865 423.766c-55.555-.218-85.155-27.387-105.725-75.263l-5.885-13.063-50.713-115.625c-16.82-40.93-58.553-68.58-105.643-68.58-63.716 0-115.41 51.695-115.41 115.456 0 63.76 51.693 115.452 115.41 115.452 44.446 0 83.094-25.13 102.386-61.98l20.508 47.31c-29.12 35.506-73.373 58.118-122.893 58.118C71.137 425.588 0 354.493 0 266.69c0-87.763 71.136-158.944 158.898-158.944 66.232 0 119.706 35.374 146.875 98.048 2.06 4.862 28.73 67.23 51.993 120.312 14.41 32.855 26.697 54.646 66.54 55.992 39.15 1.345 66.018-22.483 66.018-52.608 0-29.427-20.487-36.5-55.078-48.002-62.178-20.487-94.273-41.06-94.273-90.365 0-48.092 32.725-80.166 85.893-80.166 34.634 0 59.64 15.41 76.958 46.138l-33.987 17.36c-12.807-17.923-26.932-25-44.88-25-24.955 0-42.775 17.363-42.775 40.452 0 32.772 29.32 37.72 70.317 51.174 55.185 17.97 80.836 38.5 80.836 89.758-.002 53.82-46.186 93.015-106.47 92.928z"/></svg>