<svg xmlns="http://www.w3.org/2000/svg" width="97.75" height="97.75" viewBox="0 0 97.75 97.75"><path d="M48.875 0C21.883 0 0 21.882 0 48.875S21.883 97.75 48.875 97.75 97.75 75.868 97.75 48.875 75.867 0 48.875 0zM68.16 69.34c-14.602 0-19.664-6.58-22.365-14.768l-2.7-8.44c-2.026-6.16-4.39-10.972-11.815-10.972-5.15 0-10.38 3.714-10.38 14.095 0 8.103 4.134 13.166 9.958 13.166 6.582 0 10.97-4.895 10.97-4.895l2.702 7.344s-4.557 4.47-14.094 4.47c-11.816 0-18.4-6.92-18.4-19.748 0-13.334 6.584-21.183 18.99-21.183 11.225 0 16.88 4.05 20.426 15.02l2.782 8.44c2.025 6.16 5.57 10.634 14.097 10.634 5.738 0 8.775-1.266 8.775-4.388 0-2.448-1.434-4.22-5.735-5.233l-5.742-1.35c-7.002-1.688-9.79-5.317-9.79-11.057 0-9.2 7.43-12.068 15.023-12.068 8.61 0 13.842 3.122 14.518 10.718L76.94 40.14c-.338-3.63-2.53-5.15-6.582-5.15-3.715 0-5.992 1.69-5.992 4.56 0 2.53 1.096 4.05 4.81 4.895l5.4 1.182c7.26 1.688 11.142 5.232 11.142 12.068-.003 8.44-7.09 11.646-17.558 11.646z"/></svg>