<svg version="1.2" baseProfile="tiny" xmlns="http://www.w3.org/2000/svg" width="234" height="198" viewBox="0 0 234 198"><g fill-rule="evenodd"><path d="M77.89 4.16c24.108-1.552 44.087 8.413 56.677 20.508 12.128 11.65 22.98 28.95 24.237 52.576 1.264 23.77-8.587 43.168-20.88 55.932-12.836 13.324-29.546 23.27-52.205 24.61-22.578 1.334-43.412-8.32-56.306-20.51C15.777 124.384 6.88 109.26 5.18 84.703c-1.647-23.73 8.295-43.46 20.134-55.932 5.86-6.172 12.814-12.268 21.627-16.78 8.48-4.34 19.724-7.108 30.95-7.83zm49.592 39.152c-5.576 1.23-10.354 2.204-15.288 4.102-9.355 3.598-17.73 8.96-23.864 15.66-3.275 3.578-5.28 7.916-8.576 11.187-1.954-8.483-13.405-9.893-24.237-8.948-10.624.926-20.508 6.463-20.508 16.407 0 9.14 7.157 12.356 14.54 15.287 3.962 1.572 10.395 3.187 10.814 8.204.577 6.9-5.642 10.433-11.932 10.068-2.756-4.984-3.995-12.64-9.695-14.17-5.854-1.57-10.115 1.407-10.44 5.967-.56 7.838 9.546 10.666 16.406 11.187 11.397.864 23.504-1.302 28.712-8.95 1.424-2.09 1.512-4.217 3.355-6.338 3.27 9.81 13.377 16.046 24.237 16.033 17.614-.02 35.34-14.187 33.932-32.067-.695-8.83-7.633-15.59-16.035-16.407-7.76-.756-13.963 3-20.88 5.22 4.102-14.103 13.63-23.784 27.22-27.593 1.833-.514 4.445-.33 5.965-2.237.02-3.446-1.942-3.004-3.728-2.61z"/><path d="M59.992 68.668c3.228 2.76 3.272 8.532 6.712 11.186 2.667 2.058 6.9 2.258 10.813.746-.397 4.823-1.367 9.074-1.864 13.796.27 1.226-.74.57-.746 0-2.888-2.81-6.614-5.846-11.56-7.83-4.643-1.865-10.357-2.308-11.93-6.34-2.43-6.223 2.738-11.03 8.575-11.558zM103.992 77.617c21.11-3.87 10.765 35.194.373 37.288-11.925 2.402-12.093-15.238-10.067-25.355 1.312-6.565 2.875-10.683 9.694-11.933z"/></g></svg>