<svg xmlns="http://www.w3.org/2000/svg" width="512" height="512" viewBox="0 0 512 512"><path d="M445.98 241.102c-9.043 0-17.676 1.76-25.533 4.928-5.252-57.18-55.145-102.03-116-102.03-14.893 0-29.34 2.815-42.158 7.582-4.98 1.85-6.29 3.76-6.29 7.458v201.356c0 3.883 3.12 7.117 7.062 7.498.168.018 181.768.106 182.946.106 36.45 0 65.992-28.408 65.992-63.447s-29.566-63.45-66.02-63.45zM200 368h16l8-112.11L216 144h-16l-8 111.89L200 368zm-48 0h-16l-8-81.375L136 208h16l8 80-8 80zm-80 0h16l8-64-8-64H72l-8 64 8 64zM8 336h16l8-32-8-32H8l-8 32 8 32z"/></svg>