<svg xmlns="http://www.w3.org/2000/svg" viewBox="0 0 242.667 242.667"><path d="M0 0v242.667h242.667V0H0zm37.474 153.126c-1.87 0-3.384-5.943-3.384-13.274s1.515-13.274 3.384-13.274 3.384 5.943 3.384 13.274-1.515 13.274-3.384 13.274zm16.918 7.808c-1.87 0-3.384-11.187-3.384-24.986s1.515-24.986 3.384-24.986 3.384 11.187 3.384 24.986-1.516 24.986-3.384 24.986zm16.333 0c-1.87 0-3.384-14.042-3.384-31.363 0-17.32 1.516-31.362 3.385-31.362s3.384 14.042 3.384 31.363c-.002 17.323-1.516 31.364-3.385 31.364zm17.178 0c-1.87 0-3.383-13.65-3.383-30.488s1.515-30.488 3.383-30.488c1.87 0 3.384 13.65 3.384 30.488s-1.516 30.488-3.384 30.488zm16.397 0c-1.87 0-3.384-15.382-3.384-34.356 0-18.974 1.515-34.356 3.384-34.356s3.384 15.382 3.384 34.356c0 18.975-1.516 34.356-3.384 34.356zm94.74-5.986c-7.29 3.904-15.877 4.685-15.877 4.685h-66.37V84.415s26.81-9.11 42.946 6.246c16.136 15.357 13.533 28.11 13.533 28.11s19.78-7.548 30.192 5.206c10.41 12.753 2.86 27.068-4.426 30.972z"/></svg>