<svg xmlns="http://www.w3.org/2000/svg" viewBox="0 0 508.52 508.52"><path d="M254.26 0C113.845 0 0 113.845 0 254.26s113.845 254.26 254.26 254.26 254.26-113.845 254.26-254.26S394.675 0 254.26 0zm117.436 403.288c-3.178 5.816-9.122 9.058-15.287 9.058-2.86 0-5.722-.667-8.423-2.13-40.713-22.437-86.957-34.292-133.677-34.292-28 0-55.65 4.163-82.126 12.363-9.217 2.86-19.006-2.288-21.835-11.537-2.86-9.185 2.287-28.7 11.536-31.592 29.844-9.25 60.96-13.92 92.455-13.92 52.57 0 104.66 13.348 150.523 38.615 8.454 4.608 11.537 25.013 6.833 33.435zm32.323-95.76c-3.624 7.023-10.743 18.337-18.085 18.337-3.21 0-6.388-.7-9.376-2.32-50.472-26.19-105.042-39.474-162.22-39.474-31.495 0-62.77 4.133-92.963 12.46-10.9 2.956-22.09-3.4-25.045-14.302-2.924-10.9 3.464-29.43 14.334-32.386 33.69-9.185 68.587-13.857 103.674-13.857 62.898 0 125.445 15.256 180.938 44.114 10.012 5.148 13.92 17.416 8.74 27.427zm13.506-76.692c-3.464 0-7.024-.795-10.36-2.447-60.23-30.035-125.097-45.227-192.762-45.227-35.28 0-70.43 4.29-104.533 12.713-12.52 3.083-25.14-4.513-28.222-17.004-3.115-12.46 4.513-27.555 17.004-30.638 37.726-9.376 76.66-14.11 115.72-14.11 74.975 0 146.867 16.876 213.578 50.12 11.537 5.753 16.24 19.737 10.488 31.242-4.13 8.167-12.33 15.35-20.912 15.35z" fill="#010002"/></svg>