<?xml version="1.0" standalone="no"?>
<!DOCTYPE svg PUBLIC "-//W3C//DTD SVG 20010904//EN"
 "http://www.w3.org/TR/2001/REC-SVG-20010904/DTD/svg10.dtd">
<svg version="1.0" xmlns="http://www.w3.org/2000/svg"
 width="700.000000pt" height="700.000000pt" viewBox="0 0 700.000000 700.000000"
 preserveAspectRatio="xMidYMid meet">
<metadata>
Created by potrace 1.11, written by Peter Selinger 2001-2013
</metadata>
<g transform="translate(0.000000,700.000000) scale(0.100000,-0.100000)"
fill="#000000" stroke="none">
<path d="M873 6640 c-95 -19 -184 -94 -219 -186 -18 -48 -19 -110 -19 -2324
l0 -2274 1415 -753 c877 -467 1424 -752 1437 -751 13 2 666 345 1453 763
l1430 760 -3 2270 -2 2270 -23 51 c-29 64 -92 126 -157 156 l-50 23 -2610 1
c-1435 1 -2629 -2 -2652 -6z m2726 -507 c48 -24 60 -36 85 -85 25 -52 29 -69
32 -178 3 -108 2 -120 -14 -120 -31 -1 -100 -38 -117 -64 -9 -13 -18 -44 -20
-68 -3 -39 -6 -43 -29 -41 -14 1 -26 -3 -26 -9 0 -5 -7 -7 -16 -4 -9 4 -23 1
-32 -6 -12 -11 -16 -11 -20 0 -3 10 -7 10 -19 1 -11 -10 -16 -10 -23 0 -4 8
-16 11 -29 6 -12 -3 -21 -2 -21 4 0 5 -12 9 -27 8 -24 -2 -28 2 -33 33 -13 73
-55 115 -125 125 -39 6 -44 10 -50 41 -3 18 -1 42 5 53 5 11 10 49 10 84 0
101 34 185 87 218 47 29 112 39 227 34 84 -4 109 -9 155 -32z m-2043 12 c84
-25 132 -85 141 -179 4 -43 0 -60 -24 -106 -23 -44 -39 -60 -82 -82 -49 -26
-62 -28 -162 -28 l-109 0 0 -85 0 -85 -55 0 -55 0 0 290 0 290 148 0 c102 0
164 -5 198 -15z m954 4 c97 -22 150 -87 150 -184 0 -32 -7 -72 -16 -92 -18
-36 -77 -83 -106 -83 -10 0 -18 -3 -18 -6 0 -3 38 -48 85 -100 47 -52 85 -96
85 -99 0 -3 -28 -5 -62 -4 l-63 0 -80 95 -80 94 -57 0 -58 0 0 -95 0 -95 -55
0 -55 0 0 290 0 290 143 0 c78 0 162 -5 187 -11z m2150 -44 l0 -55 -160 0
-160 0 0 -65 0 -65 155 0 155 0 0 -50 0 -50 -155 0 -155 0 0 -70 0 -70 160 0
160 0 0 -50 0 -50 -215 0 -215 0 0 290 0 290 215 0 215 0 0 -55z m726 -70 c49
-68 92 -124 95 -125 3 0 46 56 95 125 l89 124 63 1 62 0 0 -290 0 -290 -55 0
-55 0 -2 208 -3 207 -93 -122 c-51 -68 -98 -123 -105 -123 -7 1 -52 56 -102
123 l-90 122 -3 -207 -2 -208 -55 0 -55 0 0 283 c0 156 3 287 7 290 3 4 32 7
63 7 l57 0 89 -125z m-3388 -1637 l-3 -713 -165 0 c-132 0 -175 -4 -216 -18
-89 -31 -151 -112 -161 -212 -22 -213 174 -377 449 -376 l98 0 0 -169 0 -170
-24 16 c-14 8 -44 17 -67 19 -66 5 -78 45 -29 101 31 36 31 59 -1 69 -64 21
-102 -92 -59 -180 21 -44 54 -72 135 -117 l50 -28 -115 1 c-160 2 -172 5 -182
52 -34 162 -200 267 -425 267 l-63 0 0 1085 0 1085 390 0 390 0 -2 -712z
m1262 306 l0 -406 -44 -56 c-96 -124 -143 -266 -131 -397 l6 -70 -110 -27
c-142 -35 -232 -73 -375 -158 l-116 -69 0 795 0 794 385 0 385 0 0 -406z
m1280 -181 l0 -588 -81 -37 -82 -38 7 43 c20 126 19 194 -3 265 -62 205 -313
371 -563 372 l-58 0 0 285 0 285 390 0 390 0 0 -587z m1240 -98 l0 -684 -73
52 c-40 29 -100 65 -135 82 -34 16 -62 32 -62 35 0 3 29 57 65 119 77 135 98
196 98 274 -1 73 -45 169 -102 220 -86 78 -255 63 -343 -30 -35 -36 -48 -73
-48 -131 0 -34 -7 -58 -25 -84 -31 -46 -31 -68 -1 -98 48 -44 76 -3 76 111 0
102 34 169 103 205 32 17 120 20 157 6 56 -22 112 -101 124 -177 12 -71 -13
-133 -105 -260 -75 -104 -86 -116 -109 -112 -190 38 -247 48 -312 53 l-78 6 0
549 0 549 385 0 385 0 0 -685z m-1816 34 l46 -11 0 -49 c0 -45 2 -49 43 -76
23 -16 53 -46 67 -67 l25 -38 27 32 27 33 11 -43 c6 -24 9 -53 6 -65 -4 -16
-1 -25 11 -29 9 -4 18 -4 21 -2 12 12 1 101 -17 144 l-21 47 44 -49 c88 -97
111 -212 76 -379 -21 -98 -25 -109 -54 -126 -32 -20 -149 -135 -186 -183 l-21
-28 -61 41 c-33 23 -103 61 -154 86 l-94 44 0 210 0 209 33 0 c52 0 108 -20
133 -47 28 -30 32 -93 9 -133 -8 -14 -14 -35 -15 -47 0 -33 40 -72 80 -79 l35
-5 -27 23 c-33 28 -36 61 -11 130 14 39 15 53 5 87 -23 75 -110 131 -204 131
l-38 0 0 131 0 132 79 -6 c44 -3 100 -11 125 -18z m-706 -654 c-2 -1 -24 -6
-50 -9 l-48 -7 0 57 c0 66 31 177 69 249 l26 50 3 -169 c1 -93 1 -170 0 -171z
m1930 -60 c39 -19 72 -36 72 -38 0 -20 -75 -157 -84 -153 -75 33 -134 56 -148
56 -16 0 -18 11 -18 99 l0 100 53 -15 c28 -8 85 -31 125 -49z m-648 -195 c0
-206 0 -210 -19 -200 -11 5 -23 15 -26 20 -3 6 -13 10 -21 10 -11 0 -8 -9 12
-35 l26 -35 -28 -10 c-16 -6 -46 -20 -67 -31 l-39 -21 -15 22 c-44 63 -139
174 -180 210 l-47 41 45 46 c57 59 159 125 251 163 117 47 108 63 108 -180z
m896 18 c113 -119 197 -255 239 -389 l18 -56 -59 -76 c-61 -79 -74 -89 -74
-59 0 30 -45 152 -85 232 -49 98 -87 152 -154 223 l-55 58 39 75 c22 40 43 74
46 74 3 0 42 -37 85 -82z m-323 -50 c26 -11 47 -24 47 -27 0 -4 -11 -40 -25
-80 -13 -39 -33 -116 -45 -169 -31 -147 -28 -141 -56 -107 -23 29 -24 35 -24
224 l0 193 28 -7 c15 -4 48 -16 75 -27z m-3185 2 l72 0 0 -145 c0 -163 5 -153
-88 -175 -124 -29 -253 -6 -324 58 -81 73 -100 156 -48 215 42 48 77 57 205
52 61 -3 143 -5 183 -5z m3359 -132 c65 -71 144 -195 176 -275 l17 -42 -51 38
c-80 61 -181 82 -194 41 -9 -28 11 -50 44 -50 56 0 104 -22 152 -70 59 -59 62
-75 12 -49 -21 10 -57 19 -81 19 l-45 0 7 -52 c9 -64 18 -82 68 -134 l40 -41
-68 -109 c-88 -142 -237 -437 -300 -592 l-49 -123 -3 78 c-2 55 4 113 22 198
14 66 29 142 33 169 7 43 12 51 38 59 43 14 92 52 126 100 33 45 37 81 12 93
-17 7 -25 9 -64 13 -28 2 -42 53 -49 176 -4 66 -14 138 -22 160 -13 36 -12 49
3 111 25 103 113 324 128 324 5 0 26 -19 48 -42z m-2071 -53 l43 -70 1 -204 0
-203 -27 6 c-139 29 -341 32 -448 7 -46 -12 -55 -6 -92 56 -33 57 -42 152 -20
206 12 27 27 42 53 53 43 18 69 15 141 -16 47 -21 55 -22 98 -10 57 16 105 59
105 93 0 36 -26 59 -63 55 -24 -2 -32 -10 -41 -38 -10 -31 -16 -35 -48 -38
-20 -2 -60 3 -90 10 -129 33 -231 -24 -244 -137 -8 -66 18 -167 56 -223 17
-23 30 -44 30 -46 0 -2 -21 -11 -47 -21 -27 -10 -67 -29 -90 -42 l-43 -25 0
230 0 230 58 20 c309 108 401 137 487 158 55 12 109 22 119 21 12 -1 36 -28
62 -72z m629 -156 c70 -55 198 -186 237 -244 l27 -40 -21 -75 c-28 -101 -30
-273 -5 -383 35 -146 101 -277 189 -373 l41 -45 -6 -142 c-7 -147 -23 -257
-54 -364 -17 -60 -20 -64 -73 -92 l-56 -30 25 92 c21 79 25 114 25 252 1 209
-33 373 -114 552 -33 72 -139 249 -202 336 l-42 58 27 79 c44 129 37 157 -50
211 l-33 21 0 124 c0 97 3 124 13 118 6 -4 39 -29 72 -55z m694 -116 l0 -108
-45 89 c-25 48 -44 89 -42 91 11 9 65 34 76 35 9 0 12 -28 11 -107z m1187
-248 c-11 -281 -122 -529 -312 -698 -82 -73 -163 -112 -316 -153 -13 -4 -10
12 19 88 43 114 116 270 173 368 68 118 181 290 191 290 19 0 22 -57 6 -118
-31 -119 -123 -273 -239 -400 -53 -59 -58 -72 -28 -72 24 0 144 119 205 206
99 139 155 303 155 457 l0 74 67 89 67 89 9 -45 c4 -25 6 -103 3 -175z m-4328
53 c114 -42 220 -136 237 -209 l6 -26 -88 14 c-92 15 -259 54 -305 72 -27 10
-28 13 -28 89 0 43 3 82 8 86 11 12 110 -4 170 -26z m1797 -81 c45 -9 61 -17
63 -31 3 -16 0 -18 -25 -13 -15 4 -88 17 -160 29 -73 12 -133 26 -133 32 0 11
171 0 255 -17z m-388 -22 c33 -13 139 -40 234 -60 96 -19 184 -37 197 -40 20
-5 22 -11 22 -79 l0 -75 -60 25 c-136 55 -348 94 -604 110 l-110 7 30 23 c39
32 139 84 188 100 23 7 41 13 42 13 0 1 28 -10 61 -24z m1438 -149 c16 -58 40
-214 50 -326 l6 -75 -22 25 c-90 105 -140 329 -108 482 l12 53 24 -55 c13 -29
30 -77 38 -104z m-2780 -31 c50 -9 108 -19 129 -23 l40 -7 -32 -36 c-18 -20
-63 -55 -101 -78 -135 -80 -157 -116 -106 -166 18 -19 35 -25 66 -25 l41 0
-31 35 c-17 20 -31 39 -31 43 0 4 37 27 81 52 93 51 153 100 175 141 l15 29
144 0 145 0 -2 -272 -3 -272 -75 -18 c-41 -9 -113 -22 -159 -27 l-84 -10 -229
120 -228 121 0 228 0 227 78 -23 c43 -12 118 -30 167 -39z m2433 -145 c144
-221 190 -370 199 -647 6 -173 -3 -267 -38 -384 -15 -48 -26 -69 -43 -77 l-22
-10 19 82 c28 123 34 373 12 505 -30 181 -103 360 -211 522 -51 75 -54 84 -54
141 l0 62 41 -55 c23 -30 66 -92 97 -139z m-1188 130 c198 -18 324 -45 473
-102 l77 -29 0 -46 0 -45 -32 22 c-100 66 -212 96 -325 86 -186 -17 -299 -95
-339 -235 -20 -67 -13 -58 -47 -66 l-27 -7 0 216 0 216 53 0 c28 0 104 -5 167
-10z m365 -185 c102 -45 185 -140 185 -212 0 -38 -3 -44 -17 -39 -114 34 -176
41 -390 41 -123 0 -223 2 -223 5 0 13 46 89 78 128 86 105 235 136 367 77z
m765 -114 c138 -276 190 -623 130 -870 -13 -55 -30 -101 -42 -113 -11 -11 -21
-18 -23 -16 -2 2 1 37 7 78 26 187 -27 470 -123 662 -29 57 -29 60 -29 225 0
166 1 168 19 144 10 -13 38 -63 61 -110z m-715 -162 c33 -6 77 -15 98 -21 l37
-11 0 -177 c0 -136 -3 -181 -14 -195 -13 -18 -14 -13 -15 46 0 98 -30 159 -76
159 -57 0 -58 -71 -1 -90 19 -6 37 -18 40 -26 10 -26 7 -102 -4 -109 -13 -8
-87 35 -119 69 -14 14 -28 26 -32 26 -11 0 -29 -85 -29 -140 0 -36 6 -61 20
-80 l20 -28 -57 -23 c-49 -20 -76 -23 -173 -23 -128 0 -185 16 -277 77 l-48
32 -3 239 c-3 252 -2 256 43 256 16 0 24 -12 37 -58 22 -70 74 -142 130 -179
38 -25 50 -28 119 -26 l78 2 6 -29 c4 -16 4 -34 0 -40 -9 -14 21 -12 32 3 18
22 23 65 12 91 -16 35 -67 56 -134 56 -101 0 -182 61 -195 145 -5 34 -4 48 6
52 22 8 305 20 374 16 36 -3 92 -9 125 -14z m684 -295 c37 -117 51 -231 49
-389 l-1 -150 -8 110 c-7 107 -41 252 -74 315 -11 21 -15 61 -15 137 1 103 1
106 15 75 8 -18 24 -62 34 -98z m-1809 46 c0 -49 -4 -70 -12 -70 -7 0 -53 22
-102 49 l-89 49 79 17 c43 9 84 18 89 20 31 11 35 4 35 -65z m1260 -505 c0
-156 -3 -235 -10 -235 -13 0 -582 302 -577 306 1 2 20 -1 42 -6 63 -15 201
-12 269 6 79 20 167 68 225 121 25 23 47 42 49 43 1 0 2 -106 2 -235z m533 25
c2 -94 -9 -180 -24 -180 -5 0 -9 77 -8 188 1 183 2 186 16 132 8 -30 15 -93
16 -140z"/>
<path d="M3210 5880 c-12 -12 -20 -33 -20 -55 0 -40 21 -53 95 -62 35 -4 44
-1 69 26 16 17 28 32 25 34 -100 81 -134 92 -169 57z"/>
<path d="M3520 5864 c-25 -20 -47 -38 -49 -40 -9 -8 53 -64 71 -64 11 0 39 5
63 11 40 10 45 15 51 46 5 27 2 39 -17 59 -31 33 -65 30 -119 -12z"/>
<path d="M3384 5725 c-17 -46 -17 -47 4 -68 19 -19 22 -19 22 -4 0 21 17 23
22 3 3 -13 6 -13 22 -1 19 14 19 15 0 50 -10 20 -26 43 -35 51 -15 14 -19 11
-35 -31z"/>
<path d="M1320 5956 l0 -106 106 0 c103 0 106 1 135 29 40 41 41 98 1 142 -28
32 -31 32 -135 37 l-107 5 0 -107z"/>
<path d="M2290 5966 l0 -96 105 0 c99 0 108 2 130 24 31 31 40 69 26 104 -19
45 -47 56 -158 60 l-103 4 0 -96z"/>
</g>
</svg>
