<?xml version="1.0" standalone="no"?>
<!DOCTYPE svg PUBLIC "-//W3C//DTD SVG 20010904//EN"
 "http://www.w3.org/TR/2001/REC-SVG-20010904/DTD/svg10.dtd">
<svg version="1.0" xmlns="http://www.w3.org/2000/svg"
 width="700.000000pt" height="700.000000pt" viewBox="0 0 700.000000 700.000000"
 preserveAspectRatio="xMidYMid meet">
<metadata>
Created by potrace 1.11, written by Peter Selinger 2001-2013
</metadata>
<g transform="translate(0.000000,700.000000) scale(0.100000,-0.100000)"
fill="#000000" stroke="none">
<path d="M867 6639 c-90 -21 -163 -80 -207 -166 l-25 -48 0 -2285 0 -2285
1415 -752 c778 -414 1423 -753 1433 -753 11 0 664 343 1453 763 l1434 762 -2
2275 -3 2275 -23 46 c-31 64 -85 117 -151 148 l-56 26 -2615 2 c-1503 0 -2631
-3 -2653 -8z m2631 -479 c116 -15 175 -59 203 -152 5 -18 12 -84 14 -145 4
-101 2 -113 -13 -113 -31 -1 -100 -38 -117 -64 -9 -13 -18 -44 -20 -68 -3 -38
-6 -43 -27 -42 -12 1 -26 -3 -30 -9 -4 -7 -11 -7 -21 2 -13 10 -17 9 -26 -6
-9 -16 -12 -16 -21 -3 -9 13 -11 13 -20 0 -8 -12 -11 -13 -19 -1 -5 8 -16 11
-30 6 -12 -3 -21 -2 -21 4 0 5 -12 9 -27 8 -24 -2 -28 2 -34 36 -3 21 -12 49
-19 62 -15 28 -84 65 -122 65 -21 0 -27 6 -31 33 -2 17 0 43 6 57 5 14 10 59
11 100 1 60 7 87 29 132 32 66 68 88 162 98 87 10 93 10 173 0z m-1967 -10
c102 -19 163 -92 163 -194 0 -68 -11 -95 -57 -144 -42 -44 -108 -62 -224 -62
l-93 0 0 -85 0 -85 -55 0 -55 0 0 283 c0 156 3 287 7 290 10 11 254 8 314 -3z
m1024 -17 c76 -40 105 -88 105 -175 0 -70 -30 -120 -89 -150 -25 -13 -48 -24
-50 -25 -2 -2 29 -40 69 -85 41 -46 80 -91 88 -100 14 -17 11 -18 -46 -18
l-60 0 -83 95 -82 95 -58 0 -59 0 0 -95 0 -95 -55 0 -55 0 0 291 0 292 168 -5
c144 -4 173 -7 207 -25z m2105 -23 l0 -50 -162 -2 -163 -3 0 -70 0 -70 158 -3
157 -3 0 -44 0 -44 -157 -3 -158 -3 0 -65 0 -65 163 -3 162 -2 0 -50 0 -50
-215 0 -215 0 0 290 0 290 215 0 215 0 0 -50z m728 -80 c46 -63 87 -116 91
-118 4 -1 47 52 95 118 l88 120 64 0 64 0 0 -285 0 -285 -55 0 -55 0 -2 210
-3 211 -94 -126 c-51 -69 -98 -125 -105 -125 -6 1 -51 57 -101 126 l-90 125
-3 -210 -2 -211 -50 0 -50 0 0 285 0 286 62 -3 62 -3 84 -115z m-3398 -1636
l0 -715 -139 7 c-153 7 -217 -2 -287 -41 -144 -83 -152 -324 -15 -448 85 -77
207 -119 348 -121 l93 -1 0 -161 0 -162 -37 14 c-21 7 -50 13 -64 14 -48 0
-53 54 -9 93 34 31 36 39 14 61 -40 40 -85 2 -92 -77 -7 -90 34 -148 148 -208
l45 -24 -45 -3 c-25 -2 -86 -1 -137 3 l-92 7 -16 55 c-9 30 -27 72 -40 92 -67
99 -207 161 -367 161 l-78 0 0 1085 0 1085 385 0 385 0 0 -716z m1270 312 l0
-405 -50 -66 c-96 -127 -122 -201 -124 -349 l-2 -109 -92 -23 c-152 -37 -250
-79 -404 -172 -47 -29 -89 -52 -92 -52 -3 0 -6 356 -6 790 l0 790 385 0 385 0
0 -404z m1270 -184 l0 -587 -76 -37 -75 -38 8 58 c4 31 8 98 8 147 -1 80 -4
98 -33 159 -81 173 -286 299 -509 313 l-93 6 0 283 0 284 385 0 385 0 0 -588z
m1250 -97 l0 -684 -62 47 c-35 26 -96 64 -135 85 -40 21 -73 40 -73 42 0 2 21
39 46 82 110 184 135 266 110 363 -41 161 -158 243 -301 211 -113 -26 -185
-103 -185 -201 0 -44 -5 -63 -25 -90 -29 -39 -31 -61 -9 -95 39 -60 84 -14 84
85 0 160 63 240 190 240 79 0 142 -44 174 -122 22 -51 20 -143 -3 -194 -14
-31 -127 -195 -167 -243 -2 -2 -43 6 -91 18 -48 13 -141 28 -205 34 l-118 11
0 548 0 548 385 0 385 0 0 -685z m-1825 34 l50 -11 2 -51 c0 -28 5 -53 10 -54
44 -15 94 -66 117 -118 3 -5 17 3 31 19 33 36 45 24 45 -47 0 -34 5 -49 15
-54 9 -3 19 -2 23 2 13 13 3 94 -18 141 l-21 48 23 -21 c44 -41 88 -128 104
-204 16 -76 15 -88 -13 -221 l-16 -77 -77 -65 c-43 -35 -95 -87 -116 -115 -22
-28 -43 -50 -47 -51 -5 0 -29 14 -53 31 -25 17 -92 53 -150 81 l-104 50 0 209
0 209 26 0 c122 0 197 -85 149 -170 -8 -14 -14 -39 -15 -57 0 -49 55 -91 107
-81 15 3 12 7 -14 23 -38 23 -43 54 -17 122 42 110 -50 220 -190 226 l-46 2 0
129 0 129 73 -6 c40 -4 95 -12 122 -18z m-697 -654 c-2 -1 -24 -5 -50 -7 l-48
-6 0 47 c0 58 32 176 68 250 l27 56 3 -169 c1 -93 1 -170 0 -171z m1817 -16
c39 -11 185 -78 185 -85 0 -2 -16 -37 -37 -78 l-36 -73 -51 23 c-28 12 -68 26
-88 29 l-38 7 0 94 c0 103 -2 101 65 83z m-545 -235 c0 -215 0 -213 -42 -177
-26 23 -29 0 -4 -32 l24 -29 -67 -32 c-36 -18 -66 -32 -66 -31 -5 15 -106 139
-162 198 l-73 76 63 59 c64 60 166 121 260 154 29 10 55 19 60 19 4 1 7 -92 7
-205z m911 9 c26 -27 67 -78 93 -113 76 -103 166 -305 149 -334 -17 -28 -106
-136 -112 -136 -3 0 -14 29 -23 65 -37 139 -124 293 -226 397 l-56 58 39 74
40 74 25 -18 c14 -10 46 -40 71 -67z m-328 -50 c28 -14 46 -29 43 -36 -16 -38
-57 -185 -76 -271 l-22 -99 -24 29 c-23 28 -23 34 -24 222 l0 192 28 -6 c15
-4 49 -18 75 -31z m-3180 6 l57 2 0 -149 0 -149 -37 -12 c-66 -22 -202 -26
-264 -8 -138 40 -222 189 -151 267 45 51 90 61 222 54 63 -4 141 -6 173 -5z
m3411 -209 c48 -63 88 -130 116 -194 l19 -45 -46 35 c-61 47 -109 66 -158 62
-32 -2 -41 -7 -43 -25 -4 -27 30 -51 75 -51 43 -1 80 -22 133 -76 46 -48 47
-55 2 -32 -27 14 -57 19 -99 17 -48 -2 -22 -111 42 -182 19 -22 35 -44 35 -49
0 -6 -35 -68 -77 -138 -91 -150 -234 -436 -289 -577 l-39 -100 -3 75 c-2 53 4
111 22 195 14 66 29 142 34 169 6 43 11 51 34 57 70 19 158 110 158 164 0 21
-35 48 -56 44 -50 -9 -67 32 -75 180 -4 71 -13 141 -21 161 -14 32 -13 43 8
122 13 48 44 137 70 198 l47 111 34 -33 c19 -18 54 -58 77 -88z m-2130 27 l46
-74 0 -201 c0 -111 -3 -202 -7 -202 -5 1 -35 7 -68 15 -71 17 -252 19 -360 4
-77 -10 -78 -10 -105 16 -38 36 -64 123 -57 186 8 65 22 88 64 105 39 17 77
12 135 -17 45 -23 77 -24 126 -4 55 23 82 53 82 91 0 40 -19 56 -61 52 -27 -2
-34 -9 -44 -38 -15 -44 -40 -48 -136 -25 -42 11 -80 14 -101 10 -110 -24 -155
-88 -145 -207 6 -72 35 -149 69 -185 12 -13 20 -24 17 -26 -3 -2 -130 -58
-166 -74 -10 -4 -13 43 -13 219 l0 224 33 12 c212 81 563 187 634 191 6 1 32
-32 57 -72z m726 -247 c48 -47 106 -110 129 -141 38 -51 40 -59 30 -85 -6 -16
-17 -62 -25 -102 -45 -236 31 -513 190 -689 l49 -54 -6 -132 c-6 -139 -26
-274 -55 -372 -16 -52 -23 -62 -65 -88 -27 -16 -50 -27 -53 -25 -2 3 5 40 17
84 14 52 23 123 26 211 12 298 -70 557 -271 857 l-87 128 26 77 c42 128 31
171 -57 217 l-28 15 0 125 0 125 46 -33 c26 -18 86 -71 134 -118z m590 -17 l0
-98 -39 80 c-22 44 -39 80 -38 81 11 8 64 33 70 34 4 0 7 -44 7 -97z m1195
-139 c36 -428 -216 -854 -563 -950 -34 -9 -64 -15 -67 -12 -3 3 10 45 29 94
73 189 149 336 279 538 64 98 72 106 84 90 7 -10 13 -25 13 -35 0 -28 -40
-150 -67 -204 -35 -70 -125 -195 -189 -265 -30 -32 -54 -60 -54 -64 0 -3 13
-6 29 -6 51 0 211 188 284 335 50 100 69 175 76 300 l6 110 59 78 c32 42 62
77 66 77 5 0 11 -39 15 -86z m-4280 -89 c83 -40 166 -118 182 -170 l12 -37
-57 7 c-87 10 -198 34 -284 61 l-78 25 0 79 c0 78 0 79 28 82 50 6 126 -12
197 -47z m1670 -50 c93 -7 145 -22 145 -42 0 -11 -6 -14 -22 -9 -13 3 -83 16
-155 28 -73 12 -127 26 -120 30 6 4 28 5 47 3 19 -2 67 -7 105 -10z m-61 -94
c108 -23 199 -41 201 -41 3 0 5 -34 5 -75 l0 -76 -27 15 c-107 55 -380 108
-622 122 -122 7 -123 7 -100 26 47 36 115 72 177 94 l64 22 53 -23 c29 -13
141 -42 249 -64z m1194 -103 c12 -46 35 -207 47 -323 l6 -60 -21 25 c-27 33
-56 87 -79 152 -41 114 -51 216 -29 322 l11 57 27 -63 c15 -35 32 -84 38 -110z
m-2746 -21 l128 -21 -24 -30 c-13 -17 -65 -57 -117 -89 -104 -65 -118 -80
-119 -119 0 -41 35 -68 89 -68 l45 0 -27 28 c-39 41 -35 58 26 88 102 52 179
114 198 162 8 21 13 22 149 22 l140 0 0 -273 0 -273 -117 -22 c-199 -37 -170
-43 -427 93 l-226 120 0 226 0 227 78 -25 c42 -13 134 -34 204 -46z m2379
-115 c78 -113 147 -254 173 -347 60 -225 60 -536 1 -716 -15 -44 -40 -78 -50
-67 -3 2 5 51 16 109 27 137 30 358 5 479 -44 211 -130 413 -238 551 -24 31
-28 46 -28 95 l1 59 25 -30 c13 -16 56 -76 95 -133z m-1056 92 c144 -18 209
-33 338 -81 l97 -36 0 -44 0 -44 -44 30 c-104 72 -246 97 -385 67 -152 -32
-242 -109 -272 -233 -7 -26 -12 -49 -13 -50 -1 -1 -13 -4 -29 -8 l-27 -7 0
217 0 217 108 -7 c59 -3 161 -13 227 -21z m238 -164 c102 -38 197 -144 197
-220 0 -35 -3 -41 -17 -36 -128 37 -151 40 -380 40 -128 1 -233 2 -233 4 0 22
77 131 120 169 74 66 203 84 313 43z m798 -165 c47 -101 93 -254 114 -385 37
-219 -3 -558 -66 -560 -3 0 -2 24 2 53 28 199 -20 476 -117 669 l-34 68 0 167
0 168 32 -50 c17 -27 48 -86 69 -130z m-673 -130 l72 -18 0 -176 c0 -186 -12
-252 -24 -135 -8 76 -26 117 -62 140 -24 16 -26 16 -47 -4 -29 -29 -15 -72 27
-83 38 -10 46 -24 46 -81 0 -44 -2 -48 -25 -48 -14 0 -48 19 -80 46 -31 25
-59 43 -62 41 -10 -11 -23 -84 -23 -138 0 -41 5 -63 20 -81 l19 -25 -42 -16
c-166 -62 -332 -43 -474 55 l-43 29 0 239 0 240 24 6 c30 7 46 -1 46 -24 0
-32 48 -121 90 -165 60 -66 98 -81 181 -73 76 8 75 8 69 -63 -2 -24 -1 -24 22
-9 12 8 27 30 32 47 20 69 -34 110 -152 116 -105 6 -186 76 -180 155 l3 35 60
6 c33 4 143 6 245 5 143 -2 202 -6 258 -21z m-1198 -236 c0 -39 -4 -69 -8 -67
-4 2 -47 23 -95 48 l-87 45 87 21 c49 12 91 22 96 23 4 1 7 -31 7 -70z m1810
-26 c42 -130 60 -262 58 -418 l-1 -130 -7 105 c-8 113 -27 199 -66 294 -19 48
-24 77 -24 153 0 51 2 93 5 93 2 0 18 -43 35 -97z m-540 -483 c0 -126 -4 -230
-9 -230 -7 0 -550 286 -558 293 -1 1 48 1 110 -2 170 -5 280 29 397 124 30 24
56 44 58 45 1 0 2 -103 2 -230z m530 82 c7 -49 7 -96 0 -145 -19 -134 -30
-100 -29 93 1 190 8 203 29 52z"/>
<path d="M3207 5882 c-10 -10 -17 -35 -17 -55 0 -42 16 -54 85 -64 41 -5 49
-3 75 22 17 16 30 31 30 35 0 3 -22 22 -50 43 -55 41 -97 48 -123 19z"/>
<path d="M3525 5869 c-22 -16 -44 -34 -49 -39 -15 -15 43 -70 73 -70 38 0 93
18 103 32 13 21 9 57 -8 83 -23 35 -68 33 -119 -6z"/>
<path d="M3387 5735 c-22 -45 -21 -58 2 -79 15 -13 20 -14 24 -4 4 10 8 10 16
-2 9 -13 12 -13 27 2 14 14 15 21 5 46 -7 17 -23 39 -35 51 l-22 21 -17 -35z"/>
<path d="M1322 5954 l3 -109 50 -3 c138 -9 215 27 215 102 0 87 -32 109 -168
114 l-103 4 3 -108z"/>
<path d="M2290 5965 l0 -95 106 0 c103 0 106 1 135 29 32 33 37 67 14 110 -19
39 -60 51 -166 51 l-89 0 0 -95z"/>
</g>
</svg>
