<?xml version="1.0" standalone="no"?>
<!DOCTYPE svg PUBLIC "-//W3C//DTD SVG 20010904//EN"
 "http://www.w3.org/TR/2001/REC-SVG-20010904/DTD/svg10.dtd">
<svg version="1.0" xmlns="http://www.w3.org/2000/svg"
 width="700.000000pt" height="700.000000pt" viewBox="0 0 700.000000 700.000000"
 preserveAspectRatio="xMidYMid meet">
<metadata>
Created by potrace 1.11, written by Peter Selinger 2001-2013
</metadata>
<g transform="translate(0.000000,700.000000) scale(0.100000,-0.100000)"
fill="#000000" stroke="none">
<path d="M873 6640 c-95 -19 -184 -94 -219 -186 -18 -48 -19 -110 -19 -2324
l0 -2274 1415 -753 c877 -467 1424 -752 1437 -751 13 2 666 345 1453 763
l1430 760 -3 2270 -2 2270 -23 51 c-29 64 -92 126 -157 156 l-50 23 -2610 1
c-1435 1 -2629 -2 -2652 -6z m2726 -507 c48 -24 60 -36 85 -86 25 -50 30 -72
31 -145 1 -48 3 -91 5 -97 6 -25 -1 -55 -15 -55 -32 0 -96 -34 -116 -61 -12
-18 -21 -47 -22 -75 -2 -44 -3 -45 -29 -40 -17 3 -28 1 -28 -5 0 -6 -7 -8 -16
-5 -9 4 -23 1 -32 -6 -12 -11 -16 -11 -20 0 -3 10 -7 10 -19 1 -11 -10 -16
-10 -23 0 -4 8 -16 11 -29 6 -12 -3 -21 -2 -21 4 0 5 -12 9 -27 8 -24 -2 -28
2 -33 33 -13 73 -55 115 -125 125 -39 6 -44 10 -50 41 -3 18 -1 42 5 53 5 11
10 49 10 84 0 101 34 185 87 218 47 29 112 39 227 34 84 -4 109 -9 155 -32z
m-2043 12 c84 -25 132 -85 141 -179 4 -43 0 -60 -24 -106 -23 -44 -39 -60 -82
-82 -49 -26 -62 -28 -162 -28 l-109 0 0 -85 0 -85 -55 0 -55 0 0 290 0 290
148 0 c102 0 164 -5 198 -15z m954 4 c97 -22 150 -87 150 -184 0 -32 -7 -72
-16 -92 -18 -36 -77 -83 -106 -83 -10 0 -18 -3 -18 -6 0 -3 38 -48 85 -100 47
-52 85 -96 85 -99 0 -3 -28 -5 -62 -4 l-63 0 -80 95 -80 94 -57 0 -58 0 0 -95
0 -95 -55 0 -55 0 0 290 0 290 143 0 c78 0 162 -5 187 -11z m2150 -44 l0 -55
-160 0 -160 0 0 -65 0 -65 155 0 155 0 0 -50 0 -50 -155 0 -155 0 0 -70 0 -70
160 0 160 0 0 -50 0 -50 -215 0 -215 0 0 290 0 290 215 0 215 0 0 -55z m726
-70 c49 -68 91 -125 94 -125 3 0 46 56 95 125 l90 125 63 0 62 0 0 -290 0
-290 -55 0 -55 0 -2 208 -3 207 -93 -122 c-51 -68 -98 -123 -105 -123 -7 1
-52 56 -102 123 l-90 122 -3 -207 -2 -208 -55 0 -55 0 0 283 c0 156 3 287 7
290 3 4 32 7 63 7 l56 0 90 -125z m-3388 -1637 l-3 -713 -170 0 c-149 0 -176
-3 -218 -21 -59 -25 -101 -63 -130 -118 -31 -58 -31 -181 0 -248 62 -136 223
-219 426 -219 l97 -1 0 -169 0 -170 -31 16 c-16 9 -46 17 -66 19 -60 6 -70 49
-23 102 31 36 31 59 -1 69 -65 21 -102 -92 -58 -182 22 -45 48 -68 133 -114
l51 -29 -115 1 c-160 2 -172 5 -182 52 -34 162 -200 267 -425 267 l-63 0 0
1085 0 1085 390 0 390 0 -2 -712z m1262 306 l0 -406 -44 -56 c-96 -124 -143
-266 -131 -397 l6 -70 -110 -27 c-142 -35 -232 -73 -375 -158 l-116 -69 0 795
0 794 385 0 385 0 0 -406z m1280 -181 l0 -588 -81 -37 -81 -38 8 58 c16 101 9
221 -14 282 -73 187 -321 339 -554 340 l-58 0 0 285 0 285 390 0 390 0 0 -587z
m1240 -98 l0 -684 -73 52 c-40 29 -100 65 -135 82 -34 16 -62 33 -62 37 0 5
27 54 59 111 82 141 103 198 103 274 -1 101 -67 219 -146 260 -50 26 -161 21
-222 -10 -88 -45 -124 -99 -124 -185 0 -34 -7 -58 -25 -84 -31 -46 -31 -68 -1
-98 48 -44 76 -3 76 111 0 140 66 219 183 220 64 1 93 -10 131 -47 47 -48 69
-102 69 -169 0 -77 -13 -107 -112 -241 l-81 -112 -57 18 c-66 20 -163 36 -275
45 l-78 7 0 549 0 549 385 0 385 0 0 -685z m-1818 35 l46 -12 0 -46 c0 -48 1
-48 68 -96 14 -10 36 -34 47 -54 l21 -35 26 32 27 31 12 -40 c7 -23 9 -50 5
-62 -6 -19 8 -37 30 -38 14 0 0 123 -19 160 l-17 35 30 -28 c57 -54 112 -183
112 -265 0 -67 -40 -235 -60 -249 -47 -33 -122 -103 -171 -160 l-53 -61 -59
40 c-59 40 -215 118 -236 118 -8 0 -11 65 -11 215 l0 215 33 0 c52 0 108 -20
133 -47 28 -30 32 -93 9 -133 -8 -14 -14 -35 -15 -47 0 -33 40 -72 80 -79 l35
-5 -27 23 c-33 28 -36 61 -11 130 14 39 15 53 5 87 -23 75 -110 131 -204 131
l-38 0 0 131 0 132 78 -6 c42 -3 98 -10 124 -17z m-704 -655 c-2 -1 -24 -6
-50 -9 l-48 -7 0 57 c0 66 31 177 69 249 l26 50 3 -169 c1 -93 1 -170 0 -171z
m1930 -60 c39 -19 72 -37 72 -40 0 -5 -69 -146 -75 -153 -1 -1 -26 9 -56 23
-30 14 -69 28 -86 31 l-33 6 0 99 0 98 53 -15 c28 -8 85 -31 125 -49z m-648
-195 c0 -115 -4 -210 -8 -210 -5 0 -17 9 -27 20 -32 36 -49 23 -19 -15 l26
-35 -28 -10 c-16 -6 -46 -20 -67 -31 l-39 -21 -15 22 c-44 63 -139 174 -180
210 l-47 41 45 46 c57 59 159 125 251 163 117 47 108 63 108 -180z m896 18
c113 -119 197 -255 239 -389 l18 -56 -59 -76 c-61 -79 -74 -89 -74 -59 0 30
-45 152 -85 232 -49 98 -87 152 -154 223 l-56 59 40 74 c22 41 43 74 46 74 3
0 42 -37 85 -82z m-323 -50 c26 -11 47 -24 47 -27 0 -4 -11 -40 -25 -80 -13
-39 -33 -116 -45 -169 -31 -147 -28 -141 -56 -107 -23 29 -24 35 -24 224 l0
193 28 -7 c15 -4 48 -16 75 -27z m-3185 2 l72 0 0 -145 c0 -163 5 -153 -88
-175 -124 -29 -253 -6 -324 58 -81 73 -100 156 -48 215 42 48 77 57 205 52 61
-3 143 -5 183 -5z m3353 -127 c70 -73 170 -234 193 -310 6 -18 1 -16 -28 11
-44 43 -100 68 -157 74 -41 4 -48 2 -54 -17 -9 -29 10 -51 44 -51 56 0 104
-22 152 -70 59 -59 62 -75 12 -49 -21 10 -57 19 -81 19 l-45 0 7 -52 c9 -64
18 -82 68 -134 l39 -41 -80 -131 c-102 -169 -198 -359 -278 -547 l-63 -150 0
87 c0 50 8 123 20 175 11 48 25 122 32 163 13 73 14 74 48 84 43 12 136 103
146 142 6 21 2 31 -16 46 -12 10 -26 15 -31 12 -19 -11 -47 8 -62 44 -11 24
-18 76 -21 147 -2 61 -11 128 -19 150 -13 37 -13 48 3 110 26 103 114 325 128
325 4 0 24 -17 43 -37z m-2064 -58 l43 -69 0 -204 0 -204 -22 5 c-122 30 -346
34 -453 8 -46 -12 -55 -6 -92 56 -33 57 -42 152 -20 206 12 27 27 42 53 53 43
18 69 15 141 -16 47 -21 55 -22 98 -10 25 7 59 25 75 40 55 51 32 116 -37 108
-19 -2 -28 -12 -37 -38 -10 -31 -16 -35 -48 -38 -20 -2 -60 3 -90 10 -129 33
-231 -24 -244 -137 -8 -66 18 -167 56 -223 17 -23 30 -44 30 -46 0 -2 -21 -11
-47 -21 -27 -10 -67 -29 -90 -42 l-43 -25 0 230 0 230 58 20 c31 11 131 46
221 77 163 57 349 106 385 102 12 -1 36 -29 63 -72z m628 -156 c70 -55 198
-186 237 -244 l27 -40 -21 -75 c-28 -101 -30 -273 -5 -383 35 -148 116 -304
199 -384 l33 -32 -7 -133 c-7 -142 -27 -282 -56 -380 -16 -57 -19 -61 -72 -88
l-56 -28 25 91 c21 79 25 114 25 252 1 209 -33 373 -114 552 -33 72 -139 249
-202 336 l-42 58 27 79 c44 129 37 157 -50 211 l-33 21 0 124 c0 97 3 124 13
118 6 -4 39 -29 72 -55z m694 -116 l0 -108 -45 89 c-25 48 -44 89 -42 91 11 9
65 34 76 35 9 0 12 -28 11 -107z m1188 -253 c-18 -404 -260 -751 -582 -834
-32 -8 -60 -14 -61 -13 -1 1 19 56 45 122 72 183 145 322 274 518 56 86 73
105 83 96 59 -48 -70 -323 -238 -507 -53 -59 -58 -72 -28 -72 11 0 50 31 89
71 179 180 271 383 271 594 l0 76 67 87 68 86 8 -54 c5 -30 6 -107 4 -170z
m-4329 58 c114 -42 220 -136 237 -209 l6 -26 -88 14 c-92 15 -259 54 -305 72
-27 10 -28 13 -28 89 0 43 3 82 8 86 11 12 110 -4 170 -26z m1797 -81 c45 -9
61 -17 63 -31 3 -16 0 -18 -25 -13 -15 4 -88 17 -160 29 -73 12 -133 26 -133
32 0 11 171 0 255 -17z m-388 -22 c33 -13 139 -40 234 -60 96 -19 184 -37 197
-40 20 -5 22 -11 22 -79 l0 -75 -60 25 c-136 55 -348 94 -604 110 l-110 7 30
23 c39 32 139 84 188 100 23 7 41 13 42 13 0 1 28 -10 61 -24z m1438 -149 c16
-58 40 -214 50 -326 l6 -75 -22 25 c-90 105 -140 329 -108 482 l12 53 24 -55
c13 -29 30 -77 38 -104z m-2780 -31 c50 -9 108 -19 129 -23 l40 -7 -32 -36
c-18 -20 -63 -55 -101 -78 -135 -80 -157 -116 -106 -166 18 -19 35 -25 66 -25
l41 0 -31 35 c-17 20 -31 39 -31 43 0 4 37 27 81 52 93 51 153 100 175 141
l15 29 144 0 145 0 -2 -272 -3 -273 -80 -17 c-44 -10 -115 -22 -159 -28 l-79
-10 -228 122 -229 121 0 227 0 227 78 -23 c43 -12 118 -30 167 -39z m2433
-145 c144 -221 190 -370 199 -647 6 -173 -3 -267 -38 -384 -15 -48 -26 -69
-43 -77 l-22 -10 19 82 c28 123 34 373 12 505 -30 181 -103 360 -211 522 -51
75 -54 84 -54 141 l0 62 41 -55 c23 -30 66 -92 97 -139z m-1188 130 c198 -18
324 -45 473 -102 l77 -29 0 -46 0 -45 -32 22 c-100 66 -212 96 -325 86 -186
-17 -299 -95 -339 -235 -20 -67 -13 -58 -47 -66 l-27 -7 0 216 0 216 53 0 c28
0 104 -5 167 -10z m365 -185 c102 -45 185 -140 185 -212 0 -38 -3 -44 -17 -39
-114 34 -176 41 -390 41 -123 0 -223 2 -223 5 0 13 46 89 78 128 86 105 235
136 367 77z m765 -114 c138 -276 190 -623 130 -870 -13 -55 -30 -101 -42 -113
-11 -11 -21 -18 -23 -16 -2 2 1 37 7 78 26 187 -27 470 -123 662 -29 57 -29
60 -29 225 0 166 1 168 19 144 10 -13 38 -63 61 -110z m-719 -161 c30 -5 73
-15 97 -21 l42 -12 0 -176 c0 -132 -3 -182 -13 -195 -12 -16 -14 -11 -14 42
-1 103 -35 168 -84 160 -53 -8 -49 -60 7 -87 16 -8 32 -19 36 -25 11 -17 9
-104 -2 -111 -13 -8 -87 35 -119 69 -14 14 -28 26 -32 26 -11 0 -29 -93 -29
-146 0 -31 7 -54 20 -72 25 -31 21 -34 -73 -63 -131 -41 -296 -15 -414 64
l-48 32 -3 239 c-3 252 -2 256 43 256 16 0 24 -12 37 -58 22 -70 74 -142 130
-179 38 -25 50 -28 119 -26 l78 2 6 -29 c4 -16 4 -34 0 -40 -9 -14 21 -12 32
3 18 21 23 65 12 89 -17 38 -48 51 -137 58 -71 6 -87 11 -119 36 -52 43 -71
73 -75 119 l-3 40 55 6 c94 10 395 9 451 -1z m689 -298 c35 -111 50 -237 48
-392 l-1 -145 -8 110 c-7 107 -41 252 -74 315 -11 21 -15 61 -15 137 1 103 1
106 15 75 8 -18 24 -63 35 -100z m-1810 48 c0 -49 -4 -70 -12 -70 -7 0 -53 22
-102 49 l-89 49 79 17 c43 9 84 18 89 20 31 11 35 4 35 -65z m1260 -505 c0
-156 -3 -235 -10 -235 -13 0 -582 302 -577 306 1 2 20 -1 42 -6 63 -15 201
-12 269 6 79 20 167 68 225 121 25 23 47 42 49 43 1 0 2 -106 2 -235z m531 80
c12 -84 1 -207 -21 -229 -7 -7 -10 48 -9 179 1 198 8 209 30 50z"/>
<path d="M3210 5880 c-12 -12 -20 -33 -20 -55 0 -40 21 -53 95 -62 35 -4 44
-1 69 26 16 17 28 32 25 34 -100 81 -134 92 -169 57z"/>
<path d="M3520 5864 c-25 -20 -47 -38 -49 -40 -9 -8 53 -64 71 -64 11 0 39 5
63 11 40 10 45 15 51 46 5 27 2 39 -17 59 -31 33 -65 30 -119 -12z"/>
<path d="M3384 5725 c-17 -46 -17 -47 4 -68 19 -19 22 -19 22 -4 0 21 17 23
22 3 3 -13 6 -13 22 -1 19 14 19 15 0 50 -10 20 -26 43 -35 51 -15 14 -19 11
-35 -31z"/>
<path d="M1320 5956 l0 -106 106 0 c103 0 106 1 135 29 40 41 41 98 1 142 -28
32 -31 32 -135 37 l-107 5 0 -107z"/>
<path d="M2290 5966 l0 -96 105 0 c99 0 108 2 130 24 31 31 40 69 26 104 -19
45 -47 56 -158 60 l-103 4 0 -96z"/>
</g>
</svg>
