<svg viewBox="0 0 384 354" xmlns="http://www.w3.org/2000/svg" xmlns:xlink="http://www.w3.org/1999/xlink"><view viewBox="97.75 256 97.236 97.236"/><svg width="97.236" height="97.236" viewBox="0 0 97.236 97.236" x="97.75" y="256"><path d="M0 78.075h70.006l27.23-58.914H27.23"/></svg><view viewBox="128 108.308 17 17"/><svg viewBox="0 0 17 17" width="17" height="17" x="128" y="108.308"><path d="M4 12.5c-2.206 0-4-1.794-4-4s1.794-4 4-4 4 1.794 4 4-1.794 4-4 4zm0-6c-1.103 0-2 .897-2 2s.897 2 2 2 2-.897 2-2-.897-2-2-2zm9-2c-2.206 0-4 1.794-4 4s1.794 4 4 4 4-1.794 4-4-1.794-4-4-4z" fill="#030104"/></svg><view viewBox="0 256 97.75 97.75"/><svg width="97.75" height="97.75" viewBox="0 0 97.75 97.75" y="256"><path d="M48.875 0C21.883 0 0 21.882 0 48.875S21.883 97.75 48.875 97.75 97.75 75.868 97.75 48.875 75.867 0 48.875 0zM68.16 69.34c-14.602 0-19.664-6.58-22.365-14.768l-2.7-8.44c-2.026-6.16-4.39-10.972-11.815-10.972-5.15 0-10.38 3.714-10.38 14.095 0 8.103 4.134 13.166 9.958 13.166 6.582 0 10.97-4.894 10.97-4.894l2.702 7.344s-4.557 4.47-14.094 4.47c-11.816 0-18.4-6.92-18.4-19.748 0-13.334 6.584-21.183 18.99-21.183 11.225 0 16.88 4.05 20.426 15.02l2.782 8.44c2.025 6.16 5.57 10.633 14.097 10.633 5.74 0 8.776-1.266 8.776-4.388 0-2.448-1.434-4.22-5.735-5.233l-5.74-1.35c-7.003-1.688-9.79-5.317-9.79-11.057 0-9.2 7.43-12.068 15.022-12.068 8.61 0 13.842 3.122 14.518 10.718l-8.44 1.015c-.338-3.63-2.53-5.15-6.582-5.15-3.715 0-5.992 1.69-5.992 4.56 0 2.53 1.096 4.05 4.81 4.895l5.4 1.182c7.26 1.688 11.142 5.232 11.142 12.068-.003 8.44-7.09 11.646-17.558 11.646z"/></svg><view viewBox="0 0 128 128"/><svg width="128" height="128" viewBox="0 0 533.334 533.334"><path d="M426.865 423.766c-55.555-.218-85.155-27.387-105.725-75.263l-5.885-13.063-50.713-115.625c-16.82-40.93-58.553-68.58-105.643-68.58-63.717 0-115.41 51.695-115.41 115.456 0 63.76 51.692 115.453 115.41 115.453 44.445 0 83.093-25.13 102.385-61.98l20.508 47.31C252.673 402.98 208.42 425.59 158.9 425.59 71.137 425.59 0 354.494 0 266.69c0-87.763 71.136-158.944 158.898-158.944 66.232 0 119.706 35.374 146.875 98.048 2.06 4.862 28.73 67.23 51.993 120.312 14.41 32.855 26.697 54.646 66.54 55.992 39.15 1.345 66.018-22.483 66.018-52.608 0-29.427-20.487-36.5-55.078-48.002-62.178-20.487-94.273-41.06-94.273-90.365 0-48.092 32.725-80.166 85.893-80.166 34.634 0 59.64 15.41 76.958 46.138l-33.987 17.36c-12.807-17.923-26.932-25-44.88-25-24.955 0-42.775 17.363-42.775 40.452 0 32.772 29.32 37.72 70.317 51.174 55.184 17.97 80.835 38.5 80.835 89.76-.002 53.82-46.186 93.014-106.47 92.927z"/></svg><view viewBox="128 0 128 108.308"/><svg version="1.2" baseProfile="tiny" width="128" height="108.308" viewBox="0 0 234 198" x="128"><g fill-rule="evenodd"><path d="M77.89 4.16c24.108-1.552 44.087 8.413 56.677 20.508 12.128 11.65 22.98 28.95 24.237 52.576 1.264 23.77-8.587 43.168-20.88 55.932-12.836 13.324-29.546 23.27-52.205 24.61-22.58 1.334-43.413-8.32-56.307-20.51C15.777 124.384 6.88 109.26 5.18 84.703c-1.647-23.73 8.295-43.46 20.134-55.932 5.86-6.17 12.814-12.267 21.627-16.78 8.48-4.34 19.725-7.107 30.95-7.83zm49.592 39.152c-5.576 1.23-10.354 2.204-15.288 4.102-9.355 3.598-17.73 8.96-23.864 15.66-3.275 3.578-5.28 7.916-8.576 11.187C77.8 65.78 66.35 64.37 55.517 65.314 44.893 66.24 35.01 71.776 35.01 81.72c0 9.14 7.156 12.356 14.54 15.287 3.96 1.572 10.394 3.187 10.813 8.204.577 6.9-5.642 10.434-11.932 10.07-2.755-4.985-3.994-12.64-9.694-14.17-5.854-1.57-10.115 1.406-10.44 5.966-.56 7.838 9.546 10.666 16.406 11.187 11.397.864 23.504-1.302 28.712-8.95 1.424-2.09 1.512-4.217 3.355-6.338 3.27 9.81 13.376 16.046 24.236 16.033 17.614-.02 35.34-14.187 33.932-32.067-.695-8.83-7.633-15.59-16.035-16.406-7.76-.756-13.963 3-20.88 5.22 4.102-14.103 13.63-23.784 27.22-27.593 1.833-.513 4.445-.33 5.965-2.236.02-3.446-1.942-3.004-3.728-2.61z"/><path d="M59.992 68.668c3.228 2.76 3.272 8.532 6.712 11.186 2.667 2.058 6.9 2.258 10.813.746-.397 4.823-1.367 9.074-1.864 13.796.27 1.226-.74.57-.746 0-2.888-2.81-6.614-5.846-11.56-7.83-4.643-1.865-10.357-2.308-11.93-6.34-2.43-6.223 2.738-11.03 8.575-11.558zm44 8.95c21.11-3.87 10.765 35.193.373 37.287-11.925 2.402-12.093-15.238-10.067-25.355 1.312-6.565 2.875-10.683 9.694-11.933z"/></g></svg><view viewBox="0 128 128 128"/><svg viewBox="0 0 242.667 242.667" width="128" height="128" y="128"><path d="M0 0v242.667h242.667V0H0zm37.474 153.126c-1.87 0-3.384-5.943-3.384-13.274s1.515-13.274 3.384-13.274 3.384 5.943 3.384 13.274-1.515 13.274-3.384 13.274zm16.918 7.808c-1.87 0-3.384-11.187-3.384-24.986s1.515-24.986 3.384-24.986 3.384 11.187 3.384 24.986-1.516 24.986-3.384 24.986zm16.333 0c-1.87 0-3.384-14.042-3.384-31.363 0-17.32 1.517-31.36 3.386-31.36s3.384 14.04 3.384 31.362c-.002 17.323-1.516 31.364-3.385 31.364zm17.178 0c-1.87 0-3.383-13.65-3.383-30.488s1.515-30.488 3.383-30.488c1.87 0 3.384 13.65 3.384 30.488s-1.516 30.488-3.384 30.488zm16.397 0c-1.87 0-3.384-15.382-3.384-34.356 0-18.974 1.515-34.356 3.384-34.356s3.384 15.382 3.384 34.356c0 18.975-1.516 34.356-3.384 34.356zm94.74-5.986c-7.29 3.904-15.877 4.685-15.877 4.685h-66.37V84.415s26.81-9.11 42.946 6.246c16.135 15.358 13.532 28.11 13.532 28.11s19.78-7.547 30.192 5.207c10.41 12.753 2.86 27.068-4.426 30.972z"/></svg><view viewBox="128 128 128 128"/><svg width="128" height="128" viewBox="0 0 512 512" x="128" y="128"><path d="M445.98 241.102c-9.043 0-17.676 1.76-25.533 4.928-5.252-57.18-55.145-102.03-116-102.03-14.893 0-29.34 2.815-42.158 7.582-4.98 1.85-6.29 3.76-6.29 7.458v201.356c0 3.883 3.12 7.117 7.06 7.498.17.018 181.77.106 182.947.106 36.45 0 65.992-28.408 65.992-63.447s-29.567-63.45-66.02-63.45zM200 368h16l8-112.11L216 144h-16l-8 111.89L200 368zm-48 0h-16l-8-81.375L136 208h16l8 80-8 80zm-80 0h16l8-64-8-64H72l-8 64 8 64zM8 336h16l8-32-8-32H8l-8 32 8 32z"/></svg><view viewBox="256 0 128 128"/><svg viewBox="0 0 508.52 508.52" width="128" height="128" x="256"><path d="M254.26 0C113.845 0 0 113.845 0 254.26s113.845 254.26 254.26 254.26 254.26-113.845 254.26-254.26S394.675 0 254.26 0zm117.436 403.288c-3.178 5.816-9.122 9.058-15.287 9.058-2.86 0-5.723-.667-8.424-2.13-40.713-22.437-86.957-34.292-133.677-34.292-28 0-55.65 4.163-82.127 12.363-9.217 2.86-19.006-2.288-21.835-11.537-2.86-9.185 2.287-28.7 11.536-31.592 29.844-9.25 60.96-13.92 92.455-13.92 52.57 0 104.66 13.348 150.522 38.615 8.454 4.608 11.537 25.013 6.833 33.435zm32.323-95.76c-3.625 7.023-10.744 18.337-18.086 18.337-3.21 0-6.388-.7-9.376-2.32-50.472-26.19-105.042-39.474-162.22-39.474-31.495 0-62.77 4.134-92.963 12.46-10.9 2.957-22.09-3.4-25.045-14.3-2.924-10.9 3.464-29.43 14.334-32.387 33.69-9.185 68.587-13.857 103.674-13.857 62.898 0 125.445 15.256 180.938 44.114 10.012 5.148 13.92 17.416 8.74 27.427zm13.505-76.692c-3.464 0-7.024-.795-10.36-2.447-60.23-30.036-125.097-45.228-192.762-45.228-35.28 0-70.43 4.29-104.533 12.713-12.52 3.083-25.14-4.513-28.222-17.004-3.115-12.46 4.513-27.554 17.004-30.637 37.726-9.376 76.66-14.11 115.72-14.11 74.975 0 146.867 16.876 213.578 50.12 11.537 5.753 16.24 19.737 10.488 31.242-4.13 8.167-12.33 15.35-20.912 15.35z" fill="#010002"/></svg><view viewBox="194.986 256 96 96"/><svg viewBox="0 0 96 96" width="96" height="96" x="194.986" y="256"><path d="M48 0C21.488 0 0 21.49 0 48s21.488 48 48 48c26.51 0 48-21.49 48-48S74.51 0 48 0zm19.52 39.322c.02.406.028.814.028 1.224 0 12.493-9.51 26.9-26.898 26.9-5.338 0-10.307-1.567-14.49-4.25.738.09 1.49.133 2.254.133 4.43 0 8.506-1.513 11.742-4.05-4.137-.075-7.63-2.81-8.832-6.564.578.11 1.17.17 1.78.17.86 0 1.696-.116 2.49-.332-4.325-.87-7.585-4.69-7.585-9.27v-.12c1.273.71 2.732 1.134 4.28 1.184-2.536-1.697-4.204-4.59-4.204-7.87 0-1.733.465-3.356 1.28-4.753 4.66 5.72 11.628 9.483 19.485 9.878-.16-.692-.243-1.414-.243-2.155 0-5.22 4.232-9.453 9.453-9.453 2.72 0 5.177 1.148 6.9 2.985 2.155-.424 4.18-1.21 6.005-2.294-.707 2.207-2.205 4.06-4.156 5.23 1.91-.23 3.732-.736 5.43-1.488-1.268 1.894-2.87 3.56-4.72 4.892z" fill="#030104"/></svg><view viewBox="256 128 128 128"/><svg viewBox="0 0 612 612" width="128" height="128" x="256" y="128"><path d="M612 116.258c-22.525 9.98-46.694 16.75-72.088 19.772 25.93-15.527 45.777-40.155 55.184-69.41-24.322 14.378-51.17 24.82-79.775 30.48-22.905-24.438-55.49-39.66-91.63-39.66-69.332 0-125.55 56.218-125.55 125.514 0 9.828 1.11 19.427 3.25 28.606-104.324-5.24-196.833-55.223-258.75-131.174-10.82 18.51-16.98 40.078-16.98 63.1 0 43.56 22.183 81.994 55.837 104.48-20.575-.688-39.926-6.348-56.867-15.756v1.568c0 60.806 43.29 111.554 100.692 123.104-10.517 2.83-21.607 4.398-33.08 4.398-8.107 0-15.947-.803-23.634-2.333 15.985 49.907 62.336 86.2 117.253 87.194-42.945 33.656-97.097 53.657-155.914 53.657-10.134 0-20.116-.612-29.944-1.72 55.568 35.68 121.537 56.484 192.44 56.484 230.947 0 357.187-191.29 357.187-357.187l-.42-16.253c24.66-17.595 46-39.7 62.79-64.863z" fill="#010002"/></svg></svg>