<svg width="800" height="600" viewBox="0 0 800 600" xmlns="http://www.w3.org/2000/svg" xmlns:xlink="http://www.w3.org/1999/xlink"><view viewBox="0 0 200 200"/><svg width="200" height="200" viewBox="0 0 234 234"><path fill="#629AA9" d="M35.132 166.604h117.883l45.853-99.207H80.985"/></svg><view viewBox="200 0 200 200"/><svg width="200" height="200" viewBox="0 0 234 234" x="200"><path fill="#0063DC" d="M67.588 160.588C41.895 160.588 21 139.693 21 114s20.895-46.588 46.588-46.588S114.176 88.307 114.176 114s-20.894 46.588-46.588 46.588z"/><path fill="#FF0084" d="M172.412 67.412c-25.693 0-46.588 20.895-46.588 46.588s20.895 46.588 46.588 46.588S219 139.693 219 114s-20.895-46.588-46.588-46.588z"/></svg><view viewBox="0 200 200 200"/><svg width="200" height="200" viewBox="-68.125 -68.125 234 234" y="200"><path fill="#D51007" d="M50.125-65C-13.455-65-65-13.457-65 50.125S-13.455 165.25 50.125 165.25 165.25 113.707 165.25 50.125 113.706-65 50.125-65zM95.55 98.333c-34.393 0-46.317-15.505-52.68-34.788l-6.36-19.88C31.736 29.153 26.17 17.82 8.68 17.82c-12.13 0-24.453 8.748-24.453 33.2 0 19.086 9.74 31.013 23.458 31.013 15.503 0 25.843-11.53 25.843-11.53l6.36 17.297S29.158 98.334 6.692 98.334c-27.83 0-43.34-16.3-43.34-46.52 0-31.41 15.51-49.896 44.73-49.896 26.44 0 39.764 9.54 48.114 35.384L62.75 57.18c4.77 14.513 13.12 25.048 33.205 25.048 13.515 0 20.668-2.98 20.668-10.335 0-5.767-3.378-9.94-13.51-12.327l-13.524-3.18C73.092 52.41 66.53 43.862 66.53 30.342c0-21.67 17.5-28.426 35.386-28.426 20.278 0 32.602 7.354 34.194 25.246l-19.88 2.388c-.796-8.55-5.96-12.127-15.505-12.127-8.75 0-14.11 3.976-14.11 10.738 0 5.966 2.58 9.547 11.332 11.53l12.718 2.79c17.096 3.975 26.242 12.323 26.242 28.426-.006 19.877-16.7 27.43-41.356 27.43z"/></svg><view viewBox="200 200 200 200"/><svg width="200" height="200" viewBox="149.667 149.667 234 234" x="200" y="200"><path fill="#D51007" d="M327.243 323.44c-20.92-.083-32.067-10.314-39.813-28.343l-2.216-4.92-19.097-43.54c-6.333-15.413-22.05-25.824-39.78-25.824-23.994 0-43.46 19.466-43.46 43.477 0 24.01 19.466 43.474 43.46 43.474 16.736 0 31.29-9.463 38.554-23.34l7.727 17.816c-10.966 13.37-27.63 21.885-46.278 21.885-33.05 0-59.837-26.772-59.837-59.836 0-33.05 26.79-59.857 59.836-59.857 24.94 0 45.077 13.32 55.307 36.92.776 1.832 10.818 25.318 19.58 45.307 5.425 12.373 10.052 20.578 25.055 21.085 14.743.508 24.86-8.466 24.86-19.81 0-11.08-7.714-13.745-20.74-18.076-23.414-7.716-35.5-15.46-35.5-34.03 0-18.11 12.323-30.187 32.345-30.187 13.042 0 22.458 5.802 28.98 17.374l-12.8 6.536c-4.822-6.75-10.14-9.415-16.9-9.415-9.396 0-16.106 6.54-16.106 15.232 0 12.34 11.04 14.204 26.48 19.27 20.78 6.767 30.44 14.498 30.44 33.8-.002 20.27-17.393 35.028-40.094 34.995z"/></svg><view viewBox="400 0 200 200"/><svg width="200" height="200" viewBox="0 -18 234 234" x="400"><path d="M111.1-17.758c36.562-2.354 66.86 12.76 85.954 31.1 18.394 17.67 34.85 43.904 36.758 79.735 1.917 36.048-13.023 65.466-31.67 84.823-19.463 20.207-44.805 35.292-79.168 37.32-34.24 2.023-65.834-12.614-85.39-31.1-20.68-19.555-34.172-42.49-36.752-79.732-2.496-35.986 12.58-65.91 30.535-84.824C40.252 10.204 50.8.96 64.165-5.882c12.857-6.583 29.91-10.78 46.936-11.876zm75.21 59.376c-8.456 1.864-15.703 3.343-23.186 6.22-14.188 5.458-26.89 13.59-36.19 23.752-4.967 5.424-8.008 12.003-13.006 16.963-2.963-12.866-20.33-15.004-36.756-13.57-16.112 1.403-31.102 9.8-31.102 24.88 0 13.865 10.856 18.74 22.054 23.186 6.008 2.38 15.763 4.83 16.398 12.44.875 10.463-8.556 15.82-18.095 15.264-4.18-7.558-6.06-19.167-14.704-21.486-8.878-2.383-15.34 2.133-15.834 9.05-.85 11.884 14.474 16.173 24.88 16.963 17.282 1.31 35.643-1.974 43.54-13.57 2.16-3.17 2.293-6.395 5.09-9.61 4.96 14.874 20.285 24.332 36.755 24.312 26.713-.03 53.594-21.515 51.46-48.63-1.054-13.39-11.574-23.642-24.317-24.882-11.77-1.146-21.176 4.55-31.667 7.917 6.223-21.388 20.67-36.07 41.28-41.845 2.783-.78 6.743-.5 9.048-3.393.035-5.23-2.94-4.56-5.65-3.964zM83.96 80.07c4.896 4.185 4.962 12.94 10.18 16.965 4.043 3.12 10.46 3.424 16.397 1.13-.602 7.315-2.073 13.76-2.827 20.923.41 1.86-1.124.865-1.13 0-4.38-4.264-10.032-8.866-17.53-11.876-7.044-2.827-15.71-3.5-18.097-9.614C67.27 88.162 75.108 80.87 83.96 80.07zm66.728 13.573c32.017-5.87 16.325 53.372.565 56.547-18.084 3.644-18.34-23.108-15.267-38.45 1.99-9.957 4.36-16.2 14.703-18.097z"/></svg><view viewBox="400 200 200 200"/><svg width="200" height="200" viewBox="0 -18 234 234" x="400" y="200"><path fill="#F30" d="M0-18v234h234V-18H0zm36.136 147.657c-1.802 0-3.263-5.73-3.263-12.8s1.46-12.8 3.263-12.8 3.263 5.73 3.263 12.8-1.465 12.8-3.267 12.8zm16.314 7.53c-1.802 0-3.263-10.788-3.263-24.095C49.187 99.787 50.647 89 52.45 89s3.263 10.788 3.263 24.092c0 13.306-1.462 24.095-3.263 24.095zm15.75 0c-1.804 0-3.264-13.542-3.264-30.244 0-16.702 1.46-30.242 3.263-30.242 1.8 0 3.26 13.54 3.26 30.246S70 137.188 68.2 137.188zm16.564 0c-1.803 0-3.262-13.163-3.262-29.4 0-16.236 1.46-29.398 3.262-29.398 1.8 0 3.263 13.16 3.263 29.395s-1.463 29.4-3.263 29.4zm15.81 0c-1.802 0-3.263-14.832-3.263-33.13s1.46-33.128 3.267-33.128c1.803 0 3.263 14.83 3.263 33.125 0 18.297-1.46 33.13-3.264 33.13zm91.356-5.773c-7.026 3.766-15.31 4.518-15.31 4.518h-63.998V63.4s25.85-8.785 41.41 6.022c15.563 14.808 13.052 27.106 13.052 27.106s19.076-7.28 29.113 5.02c10.038 12.297 2.76 26.102-4.267 29.866z"/></svg><view viewBox="0 400 200 200"/><svg width="200" height="200" viewBox="139 139 234 234" y="400"><path fill="#F30" d="M337.793 246.017c-3.727 0-7.285.725-10.522 2.03C325.11 224.484 304.55 206 279.47 206c-6.138 0-12.09 1.16-17.374 3.125-2.053.763-2.592 1.55-2.592 3.074v82.98c0 1.6 1.287 2.93 2.91 3.09.07.004 74.91.04 75.395.04 15.02 0 27.195-11.707 27.195-26.147 0-14.44-12.184-26.15-27.206-26.15zm-101.37 52.296h6.593l3.297-46.2L243.016 206h-6.594l-3.297 46.11 3.297 46.203zm-19.782 0h-6.59l-3.297-33.535 3.298-32.402h6.595l3.298 32.97-3.297 32.967zm-32.965 0h6.594l3.296-26.375-3.297-26.375h-6.595l-3.297 26.375 3.297 26.375zM157.3 285.125h6.593l3.298-13.188-3.295-13.188H157.3l-3.3 13.185 3.297 13.187z"/></svg><view viewBox="200 400 200 200"/><svg width="200" height="200" viewBox="0 -18 234 234" x="200" y="400"><circle fill="#2EBD59" cx="118" cy="100" r="117"/><path fill="#010002" d="M118.25-17.5C53.223-17.5.5 35.223.5 100.25S53.223 218 118.25 218 236 165.277 236 100.25 183.277-17.5 118.25-17.5zm54.386 186.767c-1.472 2.693-4.225 4.194-7.08 4.194-1.323 0-2.648-.31-3.9-.98-18.854-10.393-40.27-15.884-61.907-15.884-12.97 0-25.776 1.928-38.037 5.727-4.268 1.325-8.802-1.06-10.112-5.343-1.323-4.254 1.06-13.29 5.344-14.63 13.822-4.285 28.23-6.447 42.817-6.447 24.347 0 48.47 6.183 69.708 17.883 3.915 2.135 5.342 11.584 3.165 15.485zm14.968-44.35c-1.677 3.254-4.973 8.494-8.374 8.494-1.486 0-2.958-.32-4.342-1.07-23.374-12.128-48.646-18.28-75.124-18.28-14.586 0-29.07 1.913-43.053 5.77-5.044 1.37-10.23-1.575-11.595-6.624-1.354-5.048 1.604-13.63 6.64-14.998 15.6-4.254 31.762-6.417 48.01-6.417 29.13 0 58.096 7.065 83.795 20.43 4.635 2.383 6.446 8.063 4.046 12.7zm6.255-35.515c-1.608 0-3.255-.368-4.8-1.133-27.895-13.91-57.935-20.95-89.27-20.95-16.34 0-32.618 1.99-48.41 5.888-5.8 1.43-11.644-2.09-13.07-7.874-1.444-5.77 2.09-12.76 7.873-14.19 17.472-4.34 35.5-6.534 53.59-6.534 34.722 0 68.016 7.816 98.91 23.21 5.344 2.666 7.522 9.14 4.858 14.47-1.91 3.783-5.71 7.11-9.684 7.11z"/></svg><view viewBox="400 400 200 200"/><svg width="200" height="200" viewBox="0 -18 234 234" x="400" y="400"><path fill="#55ACEE" d="M117-18.5C52.1-18.5-.5 34.105-.5 99c0 64.896 52.6 117.5 117.5 117.5 64.894 0 117.5-52.604 117.5-117.5 0-64.895-52.606-117.5-117.5-117.5zm40.262 99.602c.04.837.057 1.68.057 2.524 0 25.767-19.62 55.48-55.48 55.48-11.01 0-21.26-3.23-29.888-8.765 1.522.188 3.073.278 4.65.278 9.136 0 17.542-3.116 24.217-8.35-8.533-.154-15.735-5.793-18.216-13.538 1.192.224 2.413.35 3.67.35 1.775 0 3.5-.24 5.135-.686-8.918-1.792-15.64-9.67-15.64-19.12 0-.084 0-.164.002-.245 2.626 1.46 5.635 2.335 8.83 2.44-5.232-3.5-8.672-9.467-8.672-16.234 0-3.572.96-6.92 2.64-9.8 9.616 11.796 23.986 19.558 40.19 20.373-.333-1.43-.503-2.92-.503-4.448 0-10.77 8.73-19.497 19.497-19.497 5.608 0 10.675 2.368 14.23 6.157 4.443-.875 8.618-2.496 12.384-4.73-1.458 4.55-4.548 8.375-8.572 10.786 3.944-.475 7.702-1.52 11.2-3.07-2.612 3.906-5.92 7.342-9.732 10.09z"/></svg><view viewBox="600 0 200 200"/><svg width="200" height="200" viewBox="0 -18 234 234" x="600"><path fill="#55ACEE" d="M216 37.613c-7.287 3.23-15.107 5.42-23.322 6.397 8.39-5.023 14.81-12.99 17.854-22.457-7.87 4.652-16.555 8.03-25.81 9.86-7.41-7.905-17.952-12.83-29.646-12.83-22.432 0-40.62 18.188-40.62 40.607 0 3.18.36 6.285 1.053 9.255C81.752 66.75 51.823 50.58 31.79 26.007c-3.5 5.988-5.493 12.966-5.493 20.415 0 14.092 7.176 26.527 18.064 33.802-6.656-.222-12.917-2.054-18.398-5.097v.507c0 19.672 14.006 36.09 32.577 39.828-3.403.915-6.99 1.423-10.703 1.423-2.62 0-5.16-.26-7.644-.755 5.17 16.146 20.167 27.888 37.935 28.21-13.892 10.89-31.41 17.36-50.44 17.36-3.28 0-6.51-.2-9.69-.558 17.98 11.543 39.32 18.273 62.26 18.273 74.72 0 115.56-61.888 115.56-115.56l-.135-5.26c7.98-5.69 14.885-12.84 20.317-20.982z"/></svg></svg>