<svg width="600" height="600" viewBox="0 0 600 600" xmlns="http://www.w3.org/2000/svg" xmlns:xlink="http://www.w3.org/1999/xlink"><view viewBox="0 0 200 200"/><svg width="200" height="200" viewBox="0 0 234 234"><path fill="#629AA9" d="M35.132 166.604h117.883l45.853-99.207H80.985z"/></svg><view viewBox="200 0 200 200"/><svg width="200" height="200" viewBox="0 0 234 234" x="200"><path fill="#0063DC" d="M65.588 164.588C39.895 164.588 19 143.693 19 118s20.895-46.588 46.588-46.588S112.176 92.307 112.176 118s-20.894 46.588-46.588 46.588z"/><path fill="#FF0084" d="M170.412 71.412c-25.693 0-46.588 20.895-46.588 46.588s20.895 46.588 46.588 46.588S217 143.693 217 118s-20.895-46.588-46.588-46.588z"/></svg><view viewBox="0 200 200 200"/><svg width="200" height="200" viewBox="0 0 234 234" y="200"><path fill="#D51007" d="M-6.5-5.5v246h247v-246h-247zm169.8 170.708c-34.393 0-46.317-15.505-52.68-34.788l-6.36-19.88c-4.773-14.513-10.34-25.845-27.83-25.845-12.13 0-24.453 8.748-24.453 33.2 0 19.086 9.74 31.014 23.458 31.014 15.503 0 25.843-11.54 25.843-11.54l6.36 17.3s-10.73 10.53-33.196 10.53c-27.83 0-43.34-16.3-43.34-46.52 0-31.41 15.51-49.9 44.73-49.9 26.44 0 39.764 9.54 48.113 35.383l6.555 19.88c4.77 14.513 13.12 25.05 33.205 25.05 13.515 0 20.668-2.98 20.668-10.338 0-5.77-3.378-9.94-13.51-12.328l-13.524-3.18c-16.5-3.977-23.06-12.526-23.06-26.046 0-21.67 17.5-28.425 35.38-28.425 20.28 0 32.6 7.354 34.19 25.246l-19.878 2.39c-.798-8.55-5.96-12.123-15.507-12.123-8.75 0-14.11 3.975-14.11 10.737 0 5.965 2.58 9.546 11.333 11.53l12.717 2.79c17.1 3.973 26.244 12.32 26.244 28.423-.008 19.877-16.7 27.43-41.357 27.43z"/></svg><view viewBox="200 200 200 200"/><svg width="200" height="200" viewBox="0 0 234 234" x="200" y="200"><path d="M-6-6.296v246h248v-246H-6zm111.043 164.304c-7.897 11.597-26.258 14.884-43.542 13.572-10.4-.79-25.73-5.08-24.88-16.966.5-6.914 6.96-11.43 15.84-9.047 8.65 2.318 10.53 13.928 14.71 21.485 9.54.554 18.97-4.8 18.096-15.266-.635-7.61-10.39-10.058-16.4-12.442-11.2-4.444-22.054-9.32-22.054-23.184 0-15.082 14.99-23.48 31.104-24.883 16.425-1.433 33.79.705 36.754 13.57 4.997-4.96 8.04-11.538 13.005-16.962 9.3-10.163 22-18.294 36.19-23.75 7.48-2.88 14.73-4.358 23.184-6.222 2.71-.597 5.685-1.266 5.65 3.962-2.304 2.893-6.265 2.613-9.045 3.393-20.61 5.776-35.06 20.457-41.28 41.845 10.49-3.365 19.896-9.063 31.666-7.916 12.744 1.24 23.264 11.49 24.32 24.88 2.13 27.116-24.75 48.6-51.46 48.632-16.47.02-31.8-9.44-36.76-24.32-2.795 3.21-2.93 6.44-5.09 9.61z"/><path d="M94.868 113.33c-5.217-4.024-5.283-12.78-10.18-16.963-8.852.8-16.69 8.09-13.006 17.527 2.388 6.115 11.053 6.787 18.096 9.614 7.5 3.01 13.15 7.612 17.53 11.876.007.865 1.542 1.86 1.13 0 .755-7.162 2.226-13.607 2.828-20.922-5.936 2.293-12.354 1.99-16.398-1.13zm57.112 53.155c15.762-3.174 31.453-62.417-.564-56.546-10.342 1.89-12.71 8.14-14.703 18.09-3.07 15.34-2.817 42.09 15.268 38.45z"/></svg><view viewBox="400 0 200 200"/><svg width="200" height="200" viewBox="0 0 234 234" x="400"><path fill="#F30" d="M-3.5-2.5V239H238V-2.5H-3.5zm37.294 152.39c-1.86 0-3.368-5.915-3.368-13.21 0-7.296 1.508-13.21 3.368-13.21 1.86 0 3.367 5.914 3.367 13.21.01 7.295-1.5 13.21-3.36 13.21zm16.837 7.77c-1.86 0-3.36-11.134-3.36-24.867 0-13.73 1.51-24.864 3.37-24.864s3.37 11.13 3.37 24.86c0 13.73-1.504 24.87-3.363 24.87zm16.26 0c-1.86 0-3.37-13.976-3.37-31.212 0-17.238 1.51-31.212 3.37-31.212s3.37 13.974 3.37 31.212c0 17.24-1.502 31.213-3.362 31.213zm17.1 0c-1.86 0-3.36-13.585-3.36-30.34 0-16.758 1.506-30.342 3.366-30.342s3.368 13.583 3.368 30.34c0 16.757-1.51 30.343-3.365 30.343zm16.32 0c-1.86 0-3.364-15.306-3.364-34.19 0-18.883 1.506-34.19 3.368-34.19 1.86 0 3.37 15.307 3.37 34.19 0 18.884-1.508 34.19-3.367 34.19zm94.287-5.957c-7.25 3.886-15.8 4.662-15.8 4.662h-66.05V81.51s26.68-9.067 42.74 6.214c16.06 15.283 13.47 27.975 13.47 27.975s19.687-7.52 30.045 5.18c10.36 12.69 2.847 26.93-4.406 30.82z"/></svg><view viewBox="400 200 200 200"/><svg width="200" height="200" viewBox="0 0 234 234" x="400" y="200"><path d="M0 234h234V0H0v234z"/><path fill="#FFF" d="M158.178 65.585c-9.912-10.563-21.515-24.326-32.695-26.633-31.687-6.55-53.528 18.167-48.44 47.222 2.437 13.943 27.85 35.117 27.85 35.117s27.626 22.88 25.433 36.34c-3.64 22.35-44.216 7.12-25.432-13.32-18.362-23.71-47.856-34.27-43.584-73.85 3.71-34.482 44.29-61.164 81.14-41.18 7.02 3.805 23.91 20.186 23.91 20.186s17.927 16.218 17.277 27.04c-1.592 26.39-45.5 8.416-25.446-10.905zm-55.705 10.903c-1.48 13.65 16.59 25.06 26.65 35.117 10.14 10.14 24.358 22.132 26.634 35.116 5.086 29.04-16.738 53.78-48.442 47.23-11.018-2.27-22.83-16.04-32.695-26.63 20.07-19.302-23.84-37.274-25.43-10.9-.733 12.058 15.24 25.447 22.993 33.2 11.26 11.26 24.034 18.556 38.772 20.084 31.77 3.284 57.493-18.882 60.548-47.222 4.257-39.6-25.237-50.16-43.6-73.87 18.77-20.98-22.83-35.944-25.43-12.106z"/></svg><view viewBox="0 400 200 200"/><svg width="200" height="200" viewBox="0 0 234 234" y="400"><circle cx="118" cy="117" r="117"/><path fill="#2EBD59" d="M-6.5-3.5v242.634H240V-3.5H-6.5zM198.96 99.25c-1.85 3.657-5.52 6.872-9.362 6.872-1.55 0-3.144-.355-4.64-1.095-26.962-13.446-56-20.247-86.292-20.247-15.793 0-31.53 1.92-46.796 5.69-5.605 1.38-11.255-2.02-12.634-7.612-1.395-5.578 2.02-12.335 7.612-13.716a215 215 0 0 1 51.805-6.317c33.563 0 65.747 7.556 95.613 22.438 5.163 2.577 7.268 8.836 4.693 13.987zM52.225 114.63a176.526 176.526 0 0 1 46.412-6.202c28.158 0 56.158 6.83 81 19.748a9.088 9.088 0 0 1 3.912 12.277c-1.62 3.145-4.81 8.21-8.1 8.21-1.44 0-2.86-.313-4.2-1.04-22.6-11.722-47.03-17.67-72.62-17.67-14.1 0-28.1 1.85-41.62 5.58-4.88 1.32-9.89-1.524-11.21-6.404-1.31-4.88 1.55-13.18 6.42-14.5zm9.632 61.98c-4.125 1.28-8.508-1.026-9.774-5.166-1.28-4.112 1.025-12.85 5.165-14.144 13.36-4.14 27.29-6.23 41.39-6.23 23.533 0 46.852 5.976 67.382 17.286 3.786 2.063 5.164 11.197 3.06 14.97a7.77 7.77 0 0 1-6.843 4.053c-1.28 0-2.562-.3-3.77-.96-18.228-10.05-38.93-15.36-59.846-15.36-12.53 0-24.91 1.864-36.76 5.535z"/></svg><view viewBox="200 400 200 200"/><svg width="200" height="200" viewBox="0 0 234 234" x="200" y="400"><path fill="#55ACEE" d="M0 238.5h238.5V0H0v238.5zm64.025-107.016c1.905.358 3.857.562 5.864.562a31.27 31.27 0 0 0 8.2-1.095c-14.26-2.86-25-15.45-25-30.56V100a31.077 31.077 0 0 0 14.112 3.9c-8.363-5.59-13.86-15.12-13.86-25.94 0-5.71 1.533-11.06 4.215-15.66C72.94 81.15 95.9 93.56 121.8 94.86a31.157 31.157 0 0 1-.806-7.105c0-17.21 13.953-31.16 31.162-31.16a31.11 31.11 0 0 1 22.742 9.84 62.377 62.377 0 0 0 19.793-7.563c-2.33 7.275-7.27 13.387-13.7 17.24a62.344 62.344 0 0 0 17.9-4.905 63.24 63.24 0 0 1-15.55 16.128 80.68 80.68 0 0 1 .09 4.034c0 41.18-31.35 88.66-88.663 88.66-17.596 0-33.975-5.166-47.765-14.01 2.43.293 4.91.437 7.43.437 14.603 0 28.038-4.98 38.705-13.344-13.635-.243-25.146-9.256-29.11-21.634z"/></svg></svg>