<svg xmlns="http://www.w3.org/2000/svg" viewBox="0 0 252 252"><path fill="#535236" d="M114.363 251.927l113.927-60.575V13.288c0-6.627-5.373-12-12-12H11.687c-6.627 0-12 5.373-12 12v178.76L112.442 252h1.96l-.04-.073z"/><path fill="#F0B514" d="M28.653 37.125v6.824h-4.37V20.763c3.608 0 7.317-.034 10.928-.034 11.395 0 11.428 16.297 0 16.396h-6.556zm0-4.007h6.558c5.6 0 5.567-8.215 0-8.215h-6.556v8.215zm54.754 10.828h-5l-6.725-7.748h-4.438v7.75h-4.37V20.732c3.676 0 7.352.033 11.028.033 5.464.033 8.345 3.675 8.345 7.683 0 3.18-1.458 6.392-5.86 7.288l7.02 7.913v.297zM67.247 24.84v7.42h6.656c2.783 0 3.975-1.855 3.975-3.71s-1.226-3.71-3.975-3.71h-6.657zm94.57 19.106H144.46v-23.18h17.356v4.24h-13.014v5.33h12.55v4.07h-12.556v5.232h13.014v4.307h.006zm40.378-16.788l-7.55 10.066h-.86l-7.385-10.1v16.858h-4.373V20.798h5.035l7.254 9.97 7.254-9.968h5v23.188h-4.375v-16.83zm-77.884 2.568c-1.18-5.048-1.787-9.424-12.007-9.424-10.63 0-10.118 3.167-11.86 8.225.682 2.073.465 4.476-.645 6.338.106.9.274 1.79.544 2.637 4.55.053 6.754 2.313 6.622 5.864.067.027.146.05.226.077l-.263.468.895.498.102-.186.54.365.417-.646c.17.04.337.088.517.12l-.177.24.81.66.553-.74c.24.025.49.036.74.05l-.228.26.77.742.728-.83-.155-.15c.178 0 .344-.02.517-.027l-.196.193.725.832.77-.75-.297-.34c.237-.026.463-.074.692-.11l.662.887.812-.667-.34-.453c.178-.045.354-.093.53-.146l.562.878.54-.37.1.18.896-.497-.45-.81c.036-.01.08-.024.113-.04-.177-3.426 1.826-5.59 6.013-5.95.195-.67.34-1.353.438-2.04-.69-1.668-.767-3.61-.22-5.34l.003.007zm-19.38 6.376l-1.532-.456-.424-2.7 1.383-1.602 2.194-.172 4.096 3.047-2.39 2.45h-1.236l-2.09-.57zm7.846 5.372l-.53-2.302-.577 2.302-1.413-1.716.49-1.55.91-1.87 1.205 1.238 1.38 2.615-1.464 1.28v.005zm8.578-5.827l-1.538.456-2.088.58h-1.235l-2.39-2.45 4.09-3.047 2.19.172 1.39 1.598-.424 2.7.004-.01z"/><g fill="#F0B514"><path d="M192.14 155.69c-1.08-1.06-2.08-2.184-2.997-3.367-.918-1.18-1.352-3.058-1.303-5.63 2.092-.616 4.434.056 7.023 2.015-.902-1.66-2.19-3.16-3.86-4.51-1.675-1.347-3.304-1.846-4.892-1.5-.353.06-.736-.045-1.143-.313-.408-.267-.64-.586-.7-.958-.145-.924.183-1.45.98-1.578 1.425-.23 3.007.11 4.75 1.02 1.737.91 3.243 2.212 4.517 3.906-.9-2.798-2.26-5.62-4.078-8.462-1.818-2.84-3.893-5.263-6.215-7.266-1.16 2.462-2.253 5.058-3.28 7.782-1.027 2.727-1.816 5.51-2.37 8.35.28.62.513 1.224.698 1.81.184.59.336 1.254.453 1.994.19 1.203.237 2.502.14 3.893-.1 1.39-.05 2.688.14 3.892.16 1.02.515 1.96 1.062 2.82.548.86 1.43 1.102 2.647.716 1.05.31 1.603.93 1.66 1.87-.94 2.14-2.035 3.693-3.297 4.653-1.262.96-2.69 1.567-4.295 1.82-.45 3.49-1.055 6.86-1.814 10.113-.256 1.09-.55 2.17-.836 3.255v6.388c.146-.016.296-.02.44-.04 4.288-11.504 9.812-22.395 16.574-32.68zm-.417-46.627c2.42-3.138 4.424-5.878 6.016-8.22 1.59-2.34 2.172-4.852 1.744-7.54-.307-1.942-1.273-3.71-2.893-5.304-1.62-1.593-3.812-2.17-6.57-1.73-1.78.284-3.265 1.257-4.462 2.917-1.196 1.664-1.685 3.757-1.466 6.284.043.848-.01 1.807-.16 2.874-.15 1.07-.662 1.72-1.537 1.954-.342.15-.764-.07-1.268-.655-.503-.582-.784-1.06-.843-1.43-.146-.926.213-1.814 1.082-2.665.868-.85 1.177-1.776.927-2.78-.28-1.188-.205-2.293.23-3.312.43-1.016 1.02-1.894 1.77-2.63.748-.736 1.63-1.35 2.648-1.845 1.017-.494 1.968-.812 2.86-.954 3.82-.61 6.666.196 8.523 2.414 1.857 2.22 2.984 4.58 3.38 7.077.353 2.22-.16 4.748-1.534 7.576-1.378 2.83-3.12 5.93-5.23 9.304 4.062 1.67 7.772 3.97 11.137 6.883V62.446h-30.954v44.134c1-.008 2-.007 3.002.024 4.722.15 9.253.968 13.595 2.46zm1.557 27.512c2.13 3.932 3.54 7.788 4.23 11.567.83-1.08 1.685-2.166 2.562-3.254.875-1.088 1.73-2.174 2.563-3.256-1.268-4.543-3.12-8.59-5.55-12.143-2.435-3.55-5.214-6.548-8.337-8.993l-1.695 3.117-1.695 3.117c3.154 2.63 5.796 5.913 7.923 9.844zm-11.717-9.62c-2.177-1.373-4.322-2.22-6.436-2.548v15.306c.82.898 1.567 1.878 2.225 2.96 1.105-6.247 2.51-11.488 4.21-15.718zm16.43 25.097c.45 5.718-.49 10.993-2.825 15.825-2.334 4.834-5.98 9.45-10.94 13.844l-1.577-.46c3.148-3.155 5.816-6.477 8-9.956 2.186-3.48 3.688-7.23 4.51-11.254-.34-.99-.74-1.78-1.197-2.373-3.357 4.714-6.395 9.587-9.105 14.62-2.715 5.037-4.965 10.26-6.752 15.67l.668-.108c4.61-.83 8.627-2.68 12.05-5.55s6.188-6.28 8.298-10.223c2.112-3.942 3.564-8.16 4.356-12.65s.867-8.774.22-12.85l-.263-1.665c-.906 1.19-1.813 2.377-2.72 3.564-.906 1.19-1.813 2.378-2.72 3.565zm-22.866 16.344v1.252c.05-.39.114-.773.16-1.166-.057-.022-.105-.06-.16-.086zm1.477-45.96c2.088.52 4.037 1.302 5.844 2.342.55-1.132 1.06-2.232 1.53-3.305.466-1.07.99-2.08 1.57-3.026-3.413-2.08-6.888-3.476-10.42-4.193v7.893c.495.073.987.166 1.476.288zm-44.168-36.738c2.895.536 5.637 1.547 8.23 3.03 2.59 1.487 4.843 3.407 6.755 5.757 1.914 2.354 3.084 5.158 3.51 8.41.16 1.59.096 3.188-.197 4.8-.29 1.613-.533 3.242-.73 4.885 2.063-1.25 4.233-2.29 6.51-3.126V62.446H125.56V85.36c2.157-.21 4.444-.112 6.878.338zm24.076 62.985v-9.178c-1.275.403-2.487.943-3.617 1.656 1.403 2.504 2.606 5.01 3.617 7.524zm-6.418-30.353c-3.82 1.797-7.03 4.278-9.63 7.444 1.894 1.58 3.65 3.318 5.274 5.208 1.62 1.893 3.09 3.818 4.404 5.777 1.736-1.133 3.574-1.994 5.518-2.59-.326-.415-.678-.85-1.053-1.307-.375-.453-.78-.93-1.203-1.422l.764-.12c.494.388.992.8 1.498 1.233.304.265.568.508.846.758v-17.35c-2.405.702-4.546 1.492-6.418 2.37zm-4.397 46.47c-.455-2.867-1.55-6.017-3.277-9.442-1.072 3.588-1.373 6.862-.904 9.824.44 2.777 1.156 5.276 2.146 7.488.988 2.216 2.21 4.157 3.66 5.82-.19-2.338-.42-4.65-.69-6.935-.273-2.28-.58-4.534-.935-6.755zm-18.81 43.57c-.332-2.09-.78-4.026-1.33-5.83v15.903l.774-.41c.05-.19.11-.367.154-.56.724-3.197.86-6.232.404-9.104zm2.5-6.662c-.752-5.087-2.03-9.575-3.83-13.464v8.798c1.546 3.1 2.65 6.72 3.31 10.87.395 2.5.437 4.914.122 7.24-.075.546-.167 1.08-.27 1.61l.417-.224c.38-1.586.604-3.23.655-4.93.11-3.623-.025-6.922-.406-9.9z"/><path d="M131.344 98.897c2.295.965 3.65 2.74 4.06 5.333.15.926-.044 1.857-.58 2.796-.536.94-.77 1.927-.694 2.958.043.848.38 1.388 1.01 1.618.63.233 1.158.552 1.588.957-1.207.19-2.248.03-3.127-.49-.875-.52-1.38-1.19-1.51-2.014-.174-1.097.055-2.097.688-2.996s.83-1.8.598-2.704c-.365-1.725-1.393-2.878-3.078-3.455-1.69-.575-3.244-.75-4.668-.522-.025.005-.047.013-.07.018v16.89c1.146.415 2.278.856 3.376 1.356 3.246 1.477 6.215 3.235 8.91 5.27 2.69-3.75 5.89-6.868 9.598-9.358.344-1.855.738-3.676 1.188-5.457.447-1.78.568-3.6.363-5.467-.28-2.326-.938-4.357-1.973-6.092-1.037-1.73-2.31-3.238-3.814-4.517l.09.555c.383.7.746 1.402 1.084 2.105.34.707.584 1.52.73 2.446.146.926.086 1.98-.182 3.16l-1.49-.76c.373-.53.484-1.26.338-2.187-.088-.558-.22-1.1-.395-1.628-.176-.53-.385-.978-.623-1.344-.19.536-.48 1.012-.87 1.427-.39.418-.784.81-1.18 1.177-1.054-2.615-2.68-4.226-4.874-4.84-.64-1.72-.676-3.104-.11-4.156-3.374-1.14-6.764-1.57-10.167-1.307v10.295c1.78-.242 3.71.064 5.783.93zm-.088 101.66c.793 4.43.81 8.98.045 13.66-.07.442-.17.88-.266 1.314l1.615-.857c.333-.854.646-1.717.913-2.597 1.645-5.435 1.947-11.72.906-18.864-.63-3.978-1.68-7.99-3.14-12.026-1.46-4.04-3.377-7.766-5.74-11.186-.01-.01-.023-.02-.033-.027v13.744c2.673 4.645 4.58 10.25 5.7 16.842zm16.52-14.877c-2.353-2.186-4.397-4.873-6.134-8.062-1.738-3.187-2.967-7.05-3.686-11.584-.793-4.998-.236-10.118 1.668-15.356-1.893-2.734-4.082-5.327-6.568-7.78-2.34-2.302-4.842-4.338-7.5-6.13v10.19c.766.537 1.586 1.064 2.51 1.576 1.2.663 1.836 1.512 1.908 2.542.012 1.233-.234 2.555-.738 3.963-.508 1.41-1.014 2.816-1.52 4.227 3.092 3.968 5.86 8.2 8.307 12.698 2.447 4.5 4.215 9.6 5.305 15.312 1.115 5.896 1.29 11.16.52 15.79-.46 2.773-1.12 5.34-1.935 7.743l4.587-2.438c1-2.856 1.74-5.76 2.213-8.712.73-4.578 1.086-9.236 1.064-13.98z"/><path d="M138.592 187.287c-.793-5.57-2.55-10.603-5.27-15.104-2.287-3.784-4.887-7.498-7.766-11.154v5.2c.65.803 1.28 1.623 1.88 2.477l.73 1.165c4.452 6.79 7.19 13.993 8.218 21.61.893 6.786.535 13.438-1.076 19.96-.18.726-.386 1.435-.604 2.138l2.1-1.116c1.104-2.948 1.888-6.206 2.31-9.814.5-4.3.327-9.425-.522-15.363zm-33.234-86.17c-1.48 2.18-2.613 5.093-3.404 8.73l-.134.02c-.195 1.076-.272 2.036-.227 2.884-.032.386-.04.77-.023 1.144.013.378.056.798.13 1.26l.268-.042c1.336-.212 2.66-.37 3.972-.485V100.36c-.207.24-.4.494-.582.76zm-5.288 105.975c-2.387 1.33-4.783 2.187-7.185 2.57-4.018.545-7.8.294-11.34-.756-.357-.105-.695-.24-1.045-.358l24.547 13.052c.29-.128.585-.246.893-.35v-18.9c-1.71 1.923-3.66 3.516-5.87 4.744zm-.882-91.395l-.31-1.944c-.484-3.054-.176-6.14.927-9.26 1.1-3.115 2.813-5.975 5.138-8.576.315-.353.663-.68.996-1.02v-32.45H74.982v63.477c2.535-1.656 5.243-3.29 8.152-4.893 4.234-2.333 9.586-4.11 16.052-5.332z"/><path d="M79.896 182.12c-.032.955-.01 1.663.063 2.126.233 1.48 1.11 2.837 2.627 4.065 1.516 1.23 2.764 1.767 3.745 1.61 1.244-.2 2.7-.073 4.368.37 1.667.448 2.598 1.274 2.788 2.476.104.65.038 1.396-.192 2.24-.23.842-.88 1.348-1.95 1.52.283-.52.406-1.037.37-1.555-.037-.514-.09-1.003-.164-1.47-.088-.554-.575-.736-1.456-.55-.883.19-1.637.334-2.258.433-1.246.198-2.443-.014-3.59-.638-1.148-.623-2.17-1.456-3.065-2.502-.896-1.043-1.65-2.204-2.262-3.483-.61-1.277-1.013-2.52-1.204-3.724l-.088-.556c-.888.18-1.767.378-2.644.58v19.315c2.027 1.638 4.29 2.938 6.82 3.854 3 1.086 6.237 1.352 9.707.8 1.87-.298 3.9-.998 6.097-2.11-.43-.404-.814-.817-1.155-1.24-.338-.42-.554-.91-.642-1.463-.22-1.39-.17-2.653.15-3.796.32-1.14.57-2.297.75-3.465 3.464 3.435 5.672 4.698 6.622 3.785.075-.674.105-1.343.092-2.006-.016-.66-.072-1.317-.175-1.966-.133-.833-.68-1.267-1.644-1.303-.963-.035-1.534-.61-1.71-1.723-.073-.46.02-.88.28-1.253.26-.376.612-.6 1.058-.67.8-.127 1.5.26 2.1 1.16.6.9.972 1.817 1.118 2.74.294 1.854.314 3.7.06 5.544.533-.684 1-1.432 1.43-2.21V183.32c-3.86-1.273-7.884-1.946-12.077-2.004-4.937-.066-9.594.203-13.967.803zm10.312-17.8c-5.2-.764-10.268-1.128-15.224-1.137v17.354c.844-.163 1.688-.324 2.537-.46.153-3.06 1.276-5.612 3.37-7.653 2.093-2.043 4.785-3.325 8.078-3.85 3.558-.568 6.625-.51 9.195.17 2.57.684 4.743 1.736 6.52 3.16.442.355.86.727 1.257 1.114v-3.965c-4.863-2.325-10.106-3.906-15.732-4.734zm-11.234-18.21c-.486-2.486-.32-4.6.498-6.346.818-1.742 2.562-2.827 5.23-3.252 1.334-.213 2.657-.07 3.97.434 1.31.503 2.64.696 3.99.575.534-.084.89-.282 1.067-.595.176-.314.3-.69.367-1.128s.146-.806.235-1.105c.09-.298.31-.475.668-.532.71-.114 1.386-.033 2.023.238.636.272 1.004.73 1.106 1.368.11 1.29-.344 2.3-1.37 3.022-1.027.726-2.02 1.21-2.984 1.457-1.676.362-3.105.122-4.288-.72-1.183-.838-2.44-1.154-3.775-.94-1.958.312-3.157 1.228-3.6 2.748-.443 1.522-.55 3.01-.318 4.47.25 1.574.68 2.86 1.294 3.852s1.334 1.804 2.165 2.43c.52-.176 1.045-.31 1.58-.393.533-.087 1.02-.164 1.467-.236 6.484-1.034 12.36-.73 17.636.897V136.3c-1.31-2.016-2.585-4.088-3.795-6.27l-.667.105c-3.737.596-7.295 1.448-10.678 2.558-3.38 1.108-6.797 2.293-10.244 3.554-1.83.67-3.69 1.337-5.572 2v18.34c2.384-1.444 4.9-2.618 7.558-3.5-1.822-1.704-3.01-4.028-3.568-6.978z"/><path d="M105.94 166.215v-6.105c-.71-.184-1.416-.364-2.117-.52-3.595-.803-6.985-1.473-10.17-2.012-3.186-.535-5.927-1.426-8.222-2.674-1.942.404-3.86 1.112-5.75 2.127-1.642.88-3.203 1.917-4.694 3.095v.544c5.783-.06 11.627.412 17.54 1.432 4.736.82 9.206 2.195 13.414 4.115zm-4.482 6.49c-3.005-2.558-6.867-3.46-11.582-2.71-2.033.42-3.946 1.578-5.742 3.48-1.798 1.898-3.067 3.953-3.812 6.157 4.21-.48 8.707-.604 13.487-.37 4.21.208 8.255.904 12.13 2.087v-3.25c-1.105-1.99-2.597-3.79-4.483-5.396zM90.41 154.393c1.706.394 3.58.712 5.626.954 2.044.245 4.268.6 6.668 1.073 1.043.204 2.125.462 3.234.756v-1.555c-4.575-1.37-9.746-1.787-15.527-1.226zm-60.84-5.323c2.262.162 4.392.65 6.392 1.474 1.998.82 3.747 2.062 5.242 3.72 1.495 1.66 2.462 3.88 2.902 6.655l.088.555c2.12.137 4.23.227 6.338.27 1.588.036 3.205.027 4.836 0v-.512c-1.652-.58-3.167-1.37-4.543-2.382-1.807-1.323-2.856-2.913-3.15-4.765-.147-.925-.09-2 .172-3.23.26-1.227.836-1.913 1.726-2.055.267-.04.655-.032 1.168.03.51.06.82.417.923 1.063.118.74-.265 1.346-1.148 1.817-.882.476-1.243 1.22-1.083 2.238.104.648.333 1.23.69 1.74.442-.07.89-.117 1.344-.144.452-.02 1.01.054 1.68.23.797.3 1.54.728 2.225 1.284v-13.646c-1.48.143-3 .197-4.575.14-2.662-.096-5.204-.595-7.625-1.49-2.424-.896-4.505-2.223-6.244-3.987-1.74-1.764-2.837-4.08-3.29-6.95-.368-2.312.14-4.72 1.522-7.218 1.382-2.498 3.992-4.008 7.832-4.53 2.237-.27 4.564-.26 6.983.024 1.86.223 3.657.22 5.396.006v-56.96H24.41v86.703c1.623-.177 3.34-.21 5.158-.08z"/><path d="M41.282 161.227l-.11-.694c-.22-1.388-.935-2.72-2.14-4-1.208-1.278-2.638-2.403-4.297-3.373-1.66-.967-3.414-1.685-5.267-2.15-1.805-.45-3.49-.557-5.055-.326v6.75c1.21.453 2.446.882 3.743 1.258 4.11 1.196 8.486 2.04 13.126 2.535zm6.536-35.564c-2.247-.354-4.4-.413-6.46-.18-1.795.193-3.238.873-4.328 2.043-1.092 1.17-1.49 2.396-1.195 3.678.352 1.65 1.03 3.038 2.028 4.16 1 1.122 2.165 2.005 3.5 2.646 1.332.643 2.74 1.036 4.223 1.18 1.48.143 2.844.114 4.092-.084 2.02-.322 3.912-.783 5.69-1.367v-12.25c-.36.075-.717.152-1.11.215-2.05.325-4.195.31-6.44-.043zm-3.872 38.555c-.404 1.488-1.208 2.733-2.42 3.73-1.208 1-2.44 1.863-3.694 2.583-1.254.725-2.35 1.28-3.294 1.665-.94.39-1.39.72-1.347.998.018.664.334 1.23.956 1.7.622.468 1.157.953 1.6 1.453-3.218.42-4.988-.392-5.31-2.43-.163-1.017.206-1.86 1.103-2.524.9-.66 1.956-1.33 3.17-2 1.22-.667 2.423-1.403 3.618-2.213 1.193-.808 2.052-1.868 2.574-3.186-6.22-.615-11.7-1.815-16.486-3.565v18.3l18.102 9.623c1.783-.087 3.51-.263 5.176-.528 2.135-.34 4.232-.768 6.294-1.287.464-.116.922-.244 1.383-.365v-21.816c-.63.02-1.262.044-1.883.054-3.324.055-6.5-.01-9.54-.19zM48.13 190.6c-.37.058-.75.092-1.122.142l8.36 4.444v-6.222c-.318.09-.638.19-.955.278-2.054.566-4.147 1.017-6.282 1.357z"/></g><path d="M175.127-9h30.955v-74.782l-30.955 16.46M125.557-9h30.955v-48.426l-30.955 16.46M74.984-9h30.955v-28.336l-30.957-16.46M24.413-9h30.955v-55.225l-30.955-16.46" fill="#535236"/></svg>