<svg xmlns="http://www.w3.org/2000/svg" viewBox="0 0 252 252"><path fill="#535236" d="M114.363 251.927l113.927-60.575V13.288c0-6.627-5.373-12-12-12H11.687c-6.627 0-12 5.373-12 12v178.76L112.442 252h1.96l-.04-.073z"/><path fill="#F0B514" d="M28.653 37.125v6.824h-4.37V20.76c3.608 0 7.317-.034 10.928-.034 11.4 0 11.43 16.296 0 16.395H28.66zm0-4.007h6.558c5.6 0 5.57-8.215 0-8.215H28.66v8.215zm54.754 10.828h-5l-6.725-7.748h-4.438v7.75h-4.37V20.732c3.676 0 7.352.033 11.028.033 5.464.033 8.345 3.675 8.345 7.683 0 3.18-1.458 6.392-5.86 7.288l7.02 7.913v.293zM67.247 24.84v7.42h6.656c2.783 0 3.975-1.855 3.975-3.71s-1.226-3.71-3.975-3.71h-6.657zm94.57 19.106H144.46v-23.18h17.356v4.24h-13.014v5.33h12.55v4.07h-12.556v5.232h13.014v4.307h.006zm40.378-16.788l-7.55 10.066h-.86l-7.385-10.1v16.858h-4.373V20.798h5.035l7.254 9.97 7.254-9.968h5v23.188h-4.375v-16.83zm-77.884 2.568c-1.18-5.048-1.783-9.424-12.003-9.424-10.63 0-10.118 3.167-11.86 8.225.682 2.073.465 4.476-.645 6.338.106.9.274 1.79.544 2.637 4.55.053 6.754 2.313 6.622 5.864.067.027.146.05.226.077l-.26.468.894.5.102-.184.54.365.417-.646c.17.04.337.088.517.12l-.178.24.81.66.553-.74c.24.025.49.036.74.05l-.23.26.77.742.728-.83-.155-.15c.178 0 .344-.02.517-.027l-.197.192.727.834.77-.75-.297-.34c.236-.026.462-.074.69-.11l.663.887.812-.667-.34-.453c.178-.047.354-.095.53-.148l.562.878.54-.37.1.18.896-.496-.45-.81c.036-.01.08-.024.113-.04-.18-3.426 1.824-5.59 6.01-5.95.194-.67.34-1.353.437-2.04-.69-1.668-.767-3.61-.22-5.34l.003.007zm-19.38 6.376l-1.53-.456-.422-2.7 1.383-1.602 2.194-.172 4.096 3.047-2.39 2.45h-1.238l-2.09-.57zm7.85 5.372l-.53-2.302-.577 2.302-1.412-1.716.49-1.55.91-1.87 1.206 1.238 1.38 2.615-1.464 1.28v.01zm8.578-5.827l-1.538.456-2.09.58h-1.235l-2.39-2.45 4.09-3.047 2.19.172 1.39 1.598-.424 2.7.006-.01z"/><g fill="#F0B514"><path d="M192.14 155.69c-1.08-1.06-2.08-2.184-2.997-3.367-.918-1.18-1.352-3.058-1.303-5.63 2.092-.616 4.434.056 7.023 2.015-.902-1.66-2.19-3.16-3.86-4.51-1.675-1.347-3.304-1.846-4.892-1.5-.35.06-.732-.045-1.14-.313-.41-.267-.64-.586-.7-.958-.144-.924.184-1.45.98-1.578 1.426-.23 3.008.11 4.75 1.02 1.738.91 3.244 2.21 4.518 3.902-.9-2.798-2.26-5.62-4.078-8.462-1.82-2.84-3.894-5.262-6.216-7.265-1.16 2.462-2.253 5.058-3.28 7.782-1.027 2.726-1.816 5.51-2.37 8.35.28.62.513 1.223.698 1.81.185.59.337 1.253.454 1.993.19 1.204.237 2.503.14 3.894-.1 1.39-.05 2.688.14 3.892.16 1.02.515 1.96 1.062 2.82.548.86 1.43 1.102 2.647.716 1.05.31 1.603.93 1.66 1.87-.94 2.14-2.035 3.693-3.297 4.653-1.262.96-2.69 1.567-4.295 1.82-.45 3.49-1.054 6.86-1.813 10.113-.256 1.09-.55 2.17-.836 3.255v6.388c.147-.013.297-.02.44-.04 4.29-11.5 9.813-22.392 16.575-32.68zm-.417-46.627c2.42-3.138 4.424-5.878 6.016-8.22 1.59-2.34 2.17-4.852 1.74-7.54-.307-1.942-1.273-3.71-2.893-5.304-1.62-1.597-3.813-2.17-6.57-1.73-1.78.28-3.266 1.253-4.463 2.913-1.196 1.664-1.685 3.757-1.466 6.284.043.847-.01 1.806-.16 2.873-.15 1.07-.66 1.72-1.537 1.955-.34.15-.763-.07-1.267-.655-.503-.582-.784-1.06-.843-1.43-.146-.926.213-1.814 1.082-2.665.868-.85 1.177-1.776.927-2.78-.28-1.188-.205-2.293.23-3.312.43-1.016 1.02-1.894 1.77-2.63s1.63-1.35 2.65-1.845c1.016-.493 1.97-.81 2.86-.953 3.82-.61 6.665.196 8.522 2.414 1.857 2.22 2.984 4.58 3.38 7.08.353 2.22-.16 4.745-1.534 7.573-1.38 2.83-3.12 5.93-5.23 9.304 4.06 1.67 7.77 3.97 11.136 6.882V62.446H175.12v44.134c1-.005 2-.004 3.002.027 4.722.15 9.253.968 13.595 2.46zm1.557 27.512c2.13 3.932 3.54 7.788 4.23 11.567.83-1.08 1.685-2.166 2.562-3.254.875-1.088 1.73-2.174 2.563-3.256-1.268-4.543-3.12-8.59-5.55-12.143-2.435-3.55-5.214-6.55-8.337-8.997l-1.695 3.117-1.695 3.118c3.154 2.63 5.796 5.912 7.923 9.843zm-11.717-9.62c-2.177-1.373-4.322-2.22-6.436-2.548v15.306c.82.898 1.567 1.878 2.225 2.96 1.105-6.247 2.51-11.488 4.21-15.718zm16.43 25.097c.45 5.718-.49 10.993-2.825 15.825-2.334 4.834-5.98 9.45-10.94 13.844l-1.577-.46c3.15-3.15 5.82-6.473 8-9.952 2.19-3.48 3.69-7.23 4.51-11.254-.34-.99-.74-1.78-1.193-2.372-3.357 4.715-6.395 9.588-9.105 14.62-2.715 5.038-4.965 10.26-6.752 15.67l.668-.107c4.61-.83 8.627-2.68 12.05-5.55s6.188-6.28 8.298-10.223c2.112-3.943 3.564-8.16 4.356-12.65s.865-8.775.22-12.85l-.265-1.666c-.906 1.19-1.813 2.377-2.72 3.564-.906 1.19-1.813 2.378-2.72 3.565zm-22.866 16.344v1.252c.05-.39.114-.773.16-1.166-.057-.022-.105-.06-.16-.086zm1.477-45.96c2.088.52 4.037 1.302 5.844 2.342.55-1.132 1.06-2.232 1.53-3.305.466-1.07.99-2.08 1.57-3.026-3.413-2.08-6.888-3.476-10.42-4.193v7.893c.495.073.987.166 1.476.288zm-44.168-36.738c2.895.536 5.637 1.547 8.23 3.03 2.59 1.487 4.843 3.407 6.755 5.757 1.918 2.354 3.088 5.158 3.51 8.41.16 1.59.1 3.188-.193 4.8-.29 1.613-.533 3.242-.73 4.885 2.063-1.25 4.233-2.29 6.51-3.126V62.446H125.56V85.36c2.157-.21 4.444-.112 6.878.338zm24.076 62.985v-9.178c-1.275.403-2.487.943-3.617 1.656 1.403 2.508 2.606 5.01 3.617 7.528zm-6.418-30.353c-3.82 1.797-7.03 4.278-9.63 7.444 1.894 1.58 3.65 3.318 5.274 5.208 1.62 1.893 3.09 3.818 4.404 5.777 1.736-1.137 3.574-1.998 5.518-2.59-.326-.42-.678-.85-1.053-1.31-.375-.454-.78-.93-1.203-1.42l.764-.12c.494.385.992.8 1.498 1.23.304.265.568.51.846.76v-17.35c-2.405.7-4.546 1.49-6.418 2.37zm-4.397 46.47c-.455-2.867-1.55-6.017-3.277-9.442-1.072 3.588-1.373 6.862-.904 9.824.44 2.777 1.156 5.276 2.146 7.488.988 2.216 2.21 4.157 3.66 5.82-.19-2.338-.42-4.65-.69-6.935-.273-2.28-.58-4.534-.935-6.755zm-18.81 43.57c-.332-2.09-.78-4.026-1.33-5.83v15.903l.774-.41c.05-.19.11-.367.158-.56.724-3.197.86-6.232.404-9.104zm2.5-6.662c-.752-5.087-2.03-9.575-3.83-13.464v8.798c1.546 3.1 2.65 6.72 3.31 10.87.395 2.5.437 4.914.122 7.24-.08.546-.17 1.08-.27 1.61l.413-.224c.38-1.586.604-3.23.655-4.93.11-3.623-.025-6.922-.406-9.9z"/><path d="M131.344 98.897c2.295.965 3.65 2.74 4.06 5.333.15.926-.044 1.857-.58 2.796-.536.94-.77 1.927-.694 2.958.043.848.38 1.388 1.01 1.618.63.233 1.158.552 1.588.957-1.207.19-2.248.03-3.127-.49-.87-.52-1.38-1.19-1.51-2.018-.17-1.097.06-2.097.69-2.996s.83-1.8.6-2.705c-.365-1.724-1.393-2.877-3.08-3.454-1.69-.575-3.243-.75-4.67-.522-.022.005-.044.013-.07.018v16.89c1.15.415 2.28.856 3.38 1.356 3.245 1.476 6.214 3.234 8.91 5.27 2.69-3.75 5.89-6.87 9.597-9.36.344-1.854.738-3.675 1.188-5.456.447-1.78.568-3.6.363-5.467-.28-2.326-.938-4.357-1.973-6.092-1.037-1.73-2.31-3.238-3.814-4.517l.09.555c.38.7.745 1.403 1.083 2.106.34.708.584 1.52.73 2.447.146.926.086 1.98-.182 3.16l-1.49-.76c.375-.53.486-1.26.34-2.187-.09-.558-.22-1.1-.395-1.628-.176-.53-.385-.978-.623-1.344-.19.536-.48 1.012-.87 1.427-.39.42-.78.81-1.18 1.178-1.05-2.615-2.68-4.226-4.87-4.84-.64-1.72-.677-3.104-.11-4.156-3.375-1.14-6.765-1.57-10.168-1.307V97.96c1.78-.242 3.71.064 5.784.93zm-.088 101.66c.793 4.43.81 8.98.045 13.66-.07.442-.17.88-.262 1.314l1.615-.853c.334-.854.647-1.717.914-2.597 1.645-5.436 1.947-11.72.906-18.865-.63-3.978-1.68-7.99-3.14-12.026-1.46-4.04-3.378-7.768-5.74-11.188-.01-.01-.024-.02-.034-.026v13.744c2.672 4.646 4.58 10.25 5.7 16.843zm16.52-14.877c-2.353-2.186-4.397-4.873-6.134-8.062-1.738-3.187-2.967-7.05-3.686-11.584-.793-4.998-.236-10.118 1.668-15.356-1.893-2.734-4.082-5.327-6.568-7.78-2.34-2.302-4.842-4.338-7.5-6.13v10.19c.766.537 1.586 1.064 2.51 1.576 1.2.663 1.836 1.512 1.908 2.542.012 1.233-.234 2.555-.738 3.963-.508 1.41-1.014 2.812-1.52 4.223 3.092 3.968 5.86 8.2 8.307 12.698 2.447 4.5 4.215 9.6 5.305 15.313 1.115 5.896 1.29 11.16.52 15.79-.46 2.773-1.12 5.34-1.935 7.743l4.587-2.44c1-2.855 1.74-5.76 2.213-8.71.73-4.58 1.086-9.237 1.064-13.98z"/><path d="M138.592 187.287c-.793-5.57-2.55-10.603-5.27-15.104-2.287-3.784-4.887-7.498-7.766-11.154v5.2c.65.8 1.28 1.62 1.88 2.473l.73 1.165c4.452 6.79 7.19 13.993 8.218 21.61.893 6.786.535 13.44-1.076 19.96-.18.726-.386 1.435-.604 2.14l2.1-1.118c1.104-2.948 1.888-6.206 2.31-9.814.5-4.3.327-9.427-.522-15.365zm-33.234-86.17c-1.48 2.18-2.613 5.093-3.404 8.73l-.134.02c-.195 1.076-.272 2.036-.227 2.884-.032.39-.04.77-.023 1.148.013.378.056.798.13 1.26l.268-.042c1.336-.212 2.66-.37 3.972-.485v-14.27c-.207.24-.4.495-.582.76zm-5.288 105.975c-2.387 1.33-4.783 2.187-7.185 2.57-4.018.545-7.8.294-11.34-.756-.357-.105-.695-.24-1.045-.358l24.547 13.052c.29-.128.585-.246.893-.35v-18.9c-1.71 1.923-3.66 3.516-5.87 4.744zm-.882-91.395l-.31-1.944c-.484-3.054-.176-6.14.927-9.26 1.1-3.115 2.813-5.975 5.138-8.576.315-.353.663-.68.996-1.02v-32.45H74.98v63.477c2.535-1.656 5.243-3.29 8.152-4.893 4.234-2.33 9.586-4.11 16.052-5.33z"/><path d="M79.896 182.12c-.032.955-.01 1.663.063 2.126.23 1.48 1.11 2.837 2.623 4.065 1.516 1.23 2.764 1.77 3.745 1.61 1.244-.2 2.7-.07 4.37.37 1.665.45 2.596 1.278 2.786 2.48.104.65.038 1.396-.192 2.24-.23.84-.88 1.348-1.95 1.52.283-.52.406-1.037.37-1.555-.037-.514-.09-1.003-.164-1.47-.086-.554-.573-.736-1.454-.55-.883.19-1.637.334-2.258.433-1.246.198-2.443-.014-3.59-.638-1.148-.624-2.17-1.457-3.065-2.503-.895-1.043-1.65-2.204-2.26-3.483-.61-1.277-1.01-2.52-1.203-3.724l-.088-.557c-.89.18-1.77.378-2.646.58v19.315c2.027 1.638 4.29 2.938 6.82 3.854 3 1.087 6.237 1.353 9.707.8 1.87-.297 3.9-.997 6.1-2.11-.43-.403-.815-.816-1.156-1.24-.338-.42-.554-.91-.642-1.462-.22-1.39-.17-2.653.15-3.796.32-1.14.57-2.297.75-3.465 3.465 3.432 5.673 4.695 6.623 3.782.075-.674.105-1.343.092-2.006-.016-.66-.072-1.317-.175-1.966-.133-.832-.68-1.266-1.644-1.302-.965-.036-1.536-.61-1.71-1.724-.075-.46.02-.88.28-1.253.26-.373.61-.6 1.056-.67.8-.124 1.5.26 2.1 1.16.6.9.972 1.82 1.118 2.74.294 1.857.314 3.7.06 5.547.533-.684 1-1.432 1.43-2.21V183.32c-3.86-1.273-7.884-1.946-12.077-2.004-4.937-.066-9.594.203-13.967.803zm10.312-17.8c-5.2-.764-10.268-1.128-15.224-1.137v17.354c.844-.163 1.688-.324 2.537-.46.157-3.06 1.28-5.612 3.37-7.653 2.097-2.043 4.79-3.325 8.08-3.85 3.56-.568 6.627-.51 9.197.17 2.57.684 4.743 1.736 6.52 3.16.442.355.86.727 1.257 1.114v-3.965c-4.862-2.325-10.105-3.906-15.73-4.734zm-11.234-18.21c-.486-2.486-.32-4.6.498-6.346.818-1.742 2.562-2.827 5.23-3.252 1.334-.213 2.657-.07 3.97.434 1.31.503 2.64.696 3.99.575.534-.08.89-.28 1.067-.59.172-.315.3-.69.363-1.13s.146-.806.235-1.105c.09-.298.31-.475.67-.532.71-.113 1.384-.032 2.02.24.637.27 1.005.73 1.107 1.367.11 1.29-.344 2.3-1.37 3.02-1.027.725-2.02 1.21-2.984 1.456-1.675.362-3.104.122-4.287-.72-1.183-.838-2.44-1.154-3.775-.94-1.956.312-3.155 1.228-3.6 2.748-.44 1.522-.55 3.01-.316 4.47.25 1.574.68 2.86 1.294 3.852s1.334 1.804 2.165 2.43c.52-.176 1.046-.31 1.58-.393.534-.087 1.02-.164 1.468-.236 6.483-1.034 12.36-.73 17.635.897V136.3c-1.31-2.016-2.585-4.088-3.795-6.27l-.667.105c-3.736.596-7.294 1.448-10.677 2.558-3.38 1.108-6.797 2.293-10.244 3.554-1.83.67-3.69 1.337-5.57 2v18.34c2.384-1.444 4.9-2.618 7.56-3.5-1.824-1.704-3.01-4.028-3.57-6.978z"/><path d="M105.94 166.215v-6.105c-.71-.184-1.416-.364-2.117-.52-3.595-.803-6.985-1.473-10.17-2.012-3.186-.535-5.927-1.426-8.222-2.674-1.94.404-3.86 1.112-5.75 2.127-1.64.88-3.2 1.92-4.69 3.1v.543c5.783-.06 11.627.413 17.54 1.433 4.736.82 9.206 2.195 13.414 4.115zm-4.482 6.49c-3.005-2.558-6.867-3.46-11.582-2.71-2.033.42-3.946 1.578-5.742 3.48-1.798 1.898-3.067 3.953-3.812 6.157 4.21-.48 8.707-.604 13.487-.37 4.21.208 8.25.904 12.13 2.087v-3.25c-1.11-1.99-2.6-3.79-4.487-5.4zM90.41 154.393c1.706.394 3.58.712 5.626.954 2.044.245 4.268.6 6.668 1.073 1.043.204 2.125.462 3.234.756v-1.555c-4.575-1.37-9.746-1.783-15.527-1.222zm-60.84-5.323c2.262.162 4.392.65 6.392 1.474 1.998.82 3.747 2.062 5.242 3.72 1.495 1.66 2.462 3.88 2.902 6.655l.088.55c2.12.138 4.23.228 6.338.27 1.588.037 3.205.028 4.836 0v-.51c-1.652-.58-3.167-1.37-4.543-2.38-1.807-1.325-2.856-2.915-3.15-4.767-.147-.925-.09-2 .172-3.23.26-1.227.836-1.913 1.726-2.055.267-.04.655-.034 1.168.03.51.06.82.415.927 1.06.118.74-.265 1.347-1.148 1.818-.883.475-1.244 1.22-1.084 2.237.104.648.333 1.23.69 1.74.442-.07.89-.117 1.344-.144.45-.02 1.01.054 1.68.23.796.3 1.54.73 2.224 1.284V143.41c-1.48.144-3 .198-4.575.14-2.664-.095-5.206-.594-7.627-1.49-2.424-.895-4.505-2.222-6.244-3.986-1.74-1.764-2.84-4.08-3.29-6.95-.37-2.312.14-4.72 1.52-7.218 1.382-2.498 3.992-4.008 7.832-4.53 2.237-.27 4.564-.26 6.983.024 1.86.224 3.657.22 5.396.007v-56.96H24.41v86.703c1.623-.177 3.34-.21 5.158-.08z"/><path d="M41.282 161.227l-.11-.694c-.22-1.388-.935-2.72-2.14-4-1.208-1.278-2.638-2.403-4.297-3.373-1.66-.967-3.414-1.685-5.267-2.15-1.805-.45-3.49-.557-5.055-.326v6.75c1.21.453 2.446.882 3.743 1.258 4.11 1.196 8.486 2.04 13.126 2.535zm6.536-35.564c-2.247-.354-4.4-.413-6.46-.18-1.795.193-3.238.873-4.328 2.043-1.092 1.17-1.49 2.396-1.195 3.678.352 1.65 1.03 3.038 2.028 4.16 1 1.122 2.165 2.005 3.5 2.646 1.332.643 2.74 1.036 4.223 1.18 1.48.143 2.844.114 4.092-.084 2.02-.322 3.912-.783 5.69-1.367v-12.25c-.36.07-.717.15-1.11.21-2.05.326-4.195.31-6.44-.042zm-3.872 38.555c-.404 1.488-1.208 2.733-2.42 3.73-1.208 1-2.44 1.863-3.694 2.583-1.254.73-2.35 1.28-3.294 1.67-.94.39-1.39.72-1.347.997.02.664.338 1.23.96 1.7.62.468 1.157.953 1.6 1.453-3.22.42-4.99-.393-5.31-2.43-.163-1.018.206-1.86 1.103-2.525.9-.66 1.957-1.33 3.17-2 1.22-.667 2.424-1.403 3.62-2.213 1.192-.807 2.05-1.867 2.573-3.185-6.22-.615-11.7-1.815-16.486-3.565v18.3l18.1 9.622c1.783-.087 3.51-.263 5.176-.528 2.135-.34 4.232-.768 6.294-1.287.463-.118.92-.246 1.382-.367v-21.816c-.63.02-1.26.044-1.882.054-3.324.056-6.5-.01-9.54-.19zM48.13 190.6c-.37.058-.75.092-1.122.142l8.36 4.444v-6.222c-.318.09-.638.19-.955.278-2.054.566-4.147 1.017-6.282 1.357z"/></g><path d="M175.127-9h30.955v-74.782l-30.955 16.46M125.557-9h30.955v-48.426l-30.955 16.46M74.984-9h30.955v-28.336l-30.96-16.46M24.41-9h30.96v-55.225l-30.955-16.46" fill="#535236"/></svg>