<svg version="1.2" baseProfile="tiny" xmlns="http://www.w3.org/2000/svg" width="234" height="234" viewBox="0 0 234 234"><path d="M116.7 231.803C52.406 231.803.098 180.37.098 117.153.098 53.933 52.405 2.5 116.7 2.5c64.3 0 116.61 51.433 116.61 114.652 0 63.22-52.31 114.65-116.607 114.65z"/><path fill="#999B9E" d="M116.7 3c64.02 0 116.11 51.213 116.11 114.152 0 62.942-52.088 114.15-116.107 114.15C52.69 231.302.598 180.094.598 117.152.598 54.212 52.688 3 116.7 3m0-1C52.13 2-.403 53.657-.403 117.152c0 63.494 52.533 115.15 117.104 115.15 64.58 0 117.11-51.656 117.11-115.15C233.81 53.657 181.277 2 116.7 2z"/><path d="M2.09 116.794v.358c0 .64.005 1.277.016 1.915l.665-.013c-.01-.633-.01-1.266-.01-1.902v-.356l-.663-.002zm.077-3.822c-.023.636-.042 1.272-.054 1.91l.665.012c.013-.633.03-1.266.054-1.897l-.665-.025zm.206-3.822c-.045.636-.085 1.272-.12 1.91l.666.036c.03-.634.07-1.267.11-1.9l-.664-.046zm.335-3.812c-.067.633-.128 1.27-.184 1.905l.663.058c.056-.63.117-1.26.184-1.89l-.66-.07zm.465-3.8c-.087.632-.17 1.265-.25 1.898l.663.08c.077-.63.16-1.258.247-1.885l-.66-.09zm.595-3.78c-.11.627-.214 1.256-.314 1.888l.658.104c.1-.627.204-1.253.313-1.877l-.657-.115zM4.493 94c-.132.624-.258 1.25-.378 1.875l.653.126c.12-.62.246-1.24.376-1.86l-.65-.14zm.854-3.73c-.153.62-.3 1.24-.444 1.86l.65.15c.14-.62.288-1.236.44-1.852l-.646-.158zm.98-3.7c-.173.613-.343 1.228-.506 1.845l.65.17c.16-.612.33-1.223.505-1.832l-.64-.183zm1.108-3.664c-.195.606-.385 1.215-.57 1.827l.638.193c.184-.608.372-1.213.566-1.816l-.64-.204zm1.233-3.623c-.216.6-.427 1.202-.632 1.806l.63.21c.205-.6.414-1.2.628-1.8l-.626-.224zm1.353-3.572c-.23.59-.46 1.19-.69 1.78l.63.24c.226-.59.454-1.18.688-1.766l-.62-.246zm1.48-3.51c-.256.582-.507 1.166-.75 1.753l.612.257c.244-.583.493-1.164.747-1.742l-.61-.267zm1.59-3.467c-.275.573-.545 1.15-.81 1.727l.604.278c.264-.574.533-1.146.806-1.716l-.6-.29zm1.71-3.413c-.296.564-.584 1.13-.87 1.7l.596.298c.284-.564.572-1.13.864-1.69l-.59-.307zm1.823-3.355c-.313.555-.622 1.11-.926 1.67l.585.318c.3-.555.61-1.11.92-1.66l-.58-.327zm1.94-3.29c-.334.54-.66 1.088-.984 1.637l.572.337c.32-.546.644-1.088.975-1.63l-.568-.346zm2.047-3.226c-.35.53-.698 1.066-1.04 1.604l.56.356c.34-.533.684-1.065 1.03-1.594l-.553-.366zm2.154-3.157c-.367.52-.732 1.043-1.09 1.57l.55.374c.356-.522.718-1.042 1.084-1.56l-.544-.383zm2.262-3.083c-.386.51-.767 1.02-1.144 1.533l.538.394c.376-.51.755-1.02 1.14-1.522l-.53-.403zm2.364-3.01c-.404.494-.8.992-1.196 1.493l.523.41c.393-.498.79-.993 1.188-1.485l-.516-.42zm2.463-2.927c-.417.48-.833.964-1.243 1.452l.51.43c.407-.485.82-.966 1.235-1.445l-.502-.44zm2.562-2.845c-.435.467-.866.938-1.293 1.412l.496.443c.424-.47.852-.937 1.284-1.4l-.486-.456zm2.654-2.757c-.45.456-.9.91-1.34 1.37l.48.46c.44-.455.88-.91 1.33-1.36l-.475-.47zM37.81 35c-.465.437-.927.878-1.385 1.322l.464.478c.46-.443.916-.88 1.38-1.314L37.81 35zm2.833-2.576c-.48.42-.956.847-1.428 1.276l.447.493c.47-.427.943-.85 1.42-1.27l-.44-.5zm2.917-2.48c-.493.405-.983.813-1.47 1.227l.432.51c.484-.41.97-.812 1.46-1.22l-.422-.51zm3-2.383c-.506.39-1.01.79-1.51 1.18l.415.52c.497-.39.997-.78 1.5-1.17l-.405-.53zm3.08-2.28c-.522.37-1.038.75-1.55 1.13l.396.54c.51-.38 1.02-.753 1.54-1.123l-.39-.54zm3.15-2.18c-.53.36-1.06.72-1.584 1.08l.376.55c.52-.36 1.047-.717 1.577-1.07l-.37-.554zm3.227-2.07c-.548.338-1.087.68-1.626 1.025l.36.56c.537-.343 1.074-.682 1.614-1.02l-.35-.563zm3.29-1.962c-.556.32-1.108.642-1.656.97l.34.57c.548-.324 1.097-.645 1.648-.963l-.33-.576zm3.355-1.855c-.567.3-1.13.605-1.69.913l.324.584c.555-.308 1.114-.61 1.676-.91l-.31-.587zm3.416-1.742c-.574.28-1.146.567-1.716.858l.302.593c.564-.287 1.134-.57 1.705-.85l-.294-.598zm3.477-1.63c-.585.264-1.167.53-1.745.8l.28.605c.577-.27 1.155-.533 1.736-.794l-.273-.607zm3.53-1.51c-.594.244-1.185.49-1.77.743l.26.61c.584-.25 1.172-.496 1.76-.737l-.25-.617zm3.58-1.39c-.603.223-1.2.45-1.798.68l.24.62c.592-.23 1.19-.454 1.786-.676l-.23-.624zm3.623-1.27c-.607.2-1.213.41-1.817.62l.22.63c.6-.213 1.205-.42 1.81-.62l-.21-.63zm3.66-1.15c-.612.18-1.223.367-1.83.557l.2.636c.604-.19 1.21-.377 1.82-.557l-.19-.636zm3.69-1.023c-.618.16-1.233.327-1.848.497l.18.64c.61-.167 1.22-.332 1.836-.492l-.17-.643zm3.72-.9c-.624.14-1.244.286-1.863.435l.156.648c.618-.15 1.235-.292 1.855-.432l-.146-.65zm3.75-.772c-.63.12-1.255.245-1.878.37l.134.655c.622-.127 1.244-.25 1.868-.37l-.125-.653zm3.77-.65c-.63.1-1.26.2-1.89.31l.114.658c.623-.106 1.25-.21 1.877-.306l-.1-.657zm3.792-.52c-.634.077-1.267.16-1.898.246l.09.66c.627-.087 1.256-.17 1.887-.245l-.08-.663zm3.806-.398c-.637.056-1.27.118-1.906.184l.07.664c.63-.066 1.26-.126 1.894-.183l-.06-.66zm3.816-.27c-.64.034-1.275.074-1.91.12l.047.665c.63-.047 1.264-.086 1.9-.122l-.038-.665zm3.824-.147c-.64.013-1.276.03-1.913.057l.027.667c.633-.023 1.267-.043 1.902-.057l-.016-.667zm3.828-.023c-.416-.003-.835-.005-1.253-.005h-.66l.005.667.657-.004c.418 0 .833.003 1.248.006l.008-.665zm3.82.103c-.635-.026-1.27-.05-1.907-.067l-.018.667c.63.017 1.264.04 1.894.066l.03-.667zm3.82.23c-.636-.05-1.27-.092-1.91-.13l-.04.665c.635.04 1.268.08 1.9.13l.05-.665zm3.81.353c-.633-.07-1.268-.135-1.905-.193l-.06.663c.63.06 1.263.122 1.892.19l.072-.66zm3.795.48c-.63-.09-1.26-.176-1.896-.256l-.084.66c.63.08 1.26.164 1.89.254l.09-.66zm3.78.605c-.627-.11-1.255-.217-1.888-.32l-.104.66c.63.1 1.254.206 1.88.316l.114-.654zm3.76.73c-.627-.13-1.25-.26-1.88-.38l-.125.653c.623.12 1.243.25 1.864.38l.14-.65zm3.73.856c-.62-.152-1.24-.3-1.86-.442l-.15.648c.62.143 1.235.29 1.85.44l.16-.644zm3.7.98c-.617-.173-1.23-.34-1.85-.505l-.17.642c.614.16 1.227.33 1.835.5l.183-.64zm3.663 1.103c-.61-.194-1.22-.382-1.83-.567l-.192.64c.61.182 1.215.37 1.818.562l.204-.634zm3.623 1.224c-.6-.212-1.2-.42-1.81-.625l-.212.63c.6.202 1.2.41 1.796.622l.225-.627zm3.583 1.347c-.593-.232-1.188-.46-1.786-.686l-.234.625c.597.225 1.19.45 1.778.685l.243-.62zm3.53 1.46c-.584-.25-1.17-.5-1.756-.74l-.256.615c.584.24 1.166.49 1.746.74l.265-.612zm3.472 1.577c-.575-.27-1.15-.54-1.73-.8l-.276.604c.576.262 1.15.527 1.72.797l.285-.6zm3.42 1.69c-.565-.29-1.134-.58-1.705-.86l-.293.597c.567.28 1.132.567 1.693.856l.307-.59zm3.36 1.802c-.553-.31-1.112-.615-1.673-.916l-.317.586c.56.3 1.112.6 1.664.91l.327-.58h-.002zm3.303 1.914c-.545-.33-1.093-.65-1.643-.97l-.334.574c.55.32 1.093.64 1.633.967l.344-.57zm3.24 2.022c-.536-.348-1.073-.69-1.61-1.027l-.356.565c.535.337 1.07.677 1.6 1.02l.364-.56zm3.17 2.13c-.523-.365-1.05-.725-1.578-1.08l-.37.552c.524.352 1.047.71 1.566 1.072l.38-.547zm3.096 2.233c-.51-.38-1.02-.756-1.54-1.13l-.39.54c.518.37 1.028.746 1.535 1.126l.396-.536zm3.027 2.338c-.498-.395-1-.79-1.503-1.18l-.408.528c.5.39 1 .78 1.493 1.177l.414-.52zm2.945 2.44c-.483-.415-.97-.825-1.462-1.23l-.422.51c.486.405.973.814 1.453 1.226l.436-.51zm2.863 2.533c-.47-.43-.943-.855-1.42-1.28l-.443.5c.477.42.945.845 1.413 1.273l.45-.496zm2.78 2.63c-.457-.447-.917-.89-1.38-1.327l-.46.48c.463.435.92.874 1.37 1.32l.468-.478zm2.69 2.72c-.44-.46-.886-.92-1.335-1.373l-.472.467c.446.452.89.906 1.325 1.364l.48-.46zm2.596 2.807c-.425-.477-.855-.948-1.29-1.416l-.486.453c.43.465.857.934 1.28 1.406l.495-.444zM205.03 45c-.41-.49-.823-.975-1.24-1.457l-.504.434c.416.48.826.962 1.233 1.45l.51-.428zm2.406 2.977c-.393-.503-.79-1.002-1.19-1.498l-.52.41c.4.495.795.99 1.186 1.49l.524-.41zm2.306 3.056c-.374-.518-.755-1.03-1.14-1.54l-.532.4c.383.507.76 1.017 1.135 1.53l.536-.39zm2.203 3.132c-.358-.528-.723-1.054-1.09-1.576l-.544.38c.37.52.73 1.04 1.09 1.562l.55-.374zm2.096 3.206c-.34-.54-.68-1.07-1.03-1.61l-.554.37c.35.53.69 1.064 1.03 1.602l.563-.355zm1.99 3.28c-.32-.55-.65-1.1-.98-1.643l-.57.347c.33.54.66 1.088.98 1.637l.575-.336zm1.88 3.34c-.303-.56-.612-1.12-.924-1.68l-.58.33c.31.555.616 1.11.92 1.67l.584-.32zm1.76 3.41c-.283-.573-.572-1.143-.865-1.71l-.592.307c.295.562.58 1.13.865 1.698l.597-.295zm1.647 3.465c-.265-.58-.535-1.16-.81-1.74l-.602.287c.275.574.54 1.15.804 1.73l.607-.276zm1.527 3.52c-.245-.59-.494-1.18-.75-1.765l-.61.265c.253.584.5 1.17.743 1.757l.617-.253zm1.404 3.574c-.225-.6-.453-1.2-.69-1.793l-.62.246c.234.59.463 1.186.686 1.78l.62-.23zm1.282 3.62c-.204-.61-.413-1.214-.628-1.817l-.63.223c.215.6.42 1.2.625 1.803l.632-.21zm1.156 3.66c-.185-.614-.372-1.226-.564-1.836l-.635.2c.192.607.38 1.215.562 1.827l.635-.19zm1.028 3.696c-.16-.617-.325-1.233-.496-1.847l-.64.177c.17.61.334 1.224.493 1.837l.647-.166zm.9 3.72c-.14-.622-.284-1.244-.433-1.862l-.645.158c.15.617.29 1.235.43 1.854l.65-.145zm.773 3.75c-.12-.627-.242-1.254-.37-1.88l-.653.136c.13.62.25 1.244.365 1.867l.654-.125zm.64 3.774c-.097-.63-.197-1.26-.304-1.89l-.66.11c.107.625.208 1.25.306 1.878l.655-.1zm.514 3.79c-.073-.634-.153-1.267-.24-1.9l-.66.09c.087.63.165 1.258.24 1.89l.66-.08zm.38 3.81c-.05-.64-.11-1.273-.17-1.907l-.66.066c.06.63.12 1.26.17 1.892l.66-.057zm.257 3.82c-.03-.64-.07-1.277-.11-1.912l-.664.044c.04.63.08 1.267.11 1.9l.667-.03zm.12 3.824c-.01-.64-.022-1.28-.043-1.915l-.666.02c.02.63.036 1.266.046 1.9l.666-.01zm-.004 3.825c.016-.64.02-1.276.02-1.916h-.665c0 .636-.007 1.27-.02 1.903l.667.013zm-.132 3.82c.036-.638.064-1.274.086-1.91l-.666-.025c-.024.634-.053 1.268-.087 1.9l.667.034zm-.262 3.82c.056-.637.104-1.27.148-1.91l-.665-.046c-.042.634-.093 1.267-.146 1.898l.664.056zm-.394 3.803c.078-.63.148-1.265.214-1.9l-.663-.067c-.063.63-.135 1.26-.212 1.89l.663.078zm-.523 3.793c.1-.63.19-1.26.28-1.894l-.66-.09c-.088.625-.18 1.252-.277 1.88l.66.1zm-.653 3.772c.12-.627.233-1.254.343-1.885l-.656-.11c-.107.626-.223 1.25-.34 1.87l.654.127zm-.782 3.745c.14-.62.276-1.24.406-1.87l-.65-.133c-.13.62-.265 1.24-.404 1.86l.65.148zm-.91 3.72c.16-.615.317-1.233.47-1.854l-.645-.158c-.15.617-.31 1.23-.47 1.844l.644.17zm-1.04 3.684c.185-.61.36-1.226.536-1.84l-.64-.18c-.174.61-.35 1.22-.53 1.826l.636.19zm-1.163 3.644c.205-.604.403-1.21.598-1.817l-.637-.202c-.19.605-.39 1.208-.59 1.808l.63.214zm-1.29 3.604c.226-.597.445-1.195.66-1.797l-.626-.227c-.216.6-.434 1.194-.657 1.787l.622.237zm-1.406 3.544c.243-.585.483-1.174.72-1.766l-.62-.246c-.235.588-.47 1.174-.716 1.757l.615.257zm-1.527 3.497c.263-.58.522-1.16.78-1.742l-.615-.267c-.25.58-.51 1.157-.775 1.732l.608.275zm-1.645 3.442c.28-.57.56-1.14.835-1.715l-.6-.286c-.27.57-.55 1.14-.83 1.706l.595.297zm-1.766 3.39c.302-.56.6-1.123.894-1.69l-.59-.307c-.295.56-.59 1.12-.893 1.676l.586.317zm-1.876 3.324c.32-.55.64-1.1.95-1.655l-.58-.327c-.312.553-.63 1.1-.947 1.647l.575.338zm-1.99 3.26c.34-.54.676-1.08 1.008-1.624l-.57-.347c-.33.54-.663 1.075-1.003 1.61l.562.356zm-2.1 3.196c.357-.527.71-1.058 1.06-1.59l-.556-.365c-.347.53-.698 1.06-1.055 1.58l.55.378zm-2.205 3.122c.376-.513.746-1.03 1.115-1.55l-.544-.385c-.364.52-.735 1.034-1.11 1.546l.538.394zm-2.31 3.05c.394-.5.78-1.006 1.167-1.515l-.53-.4c-.383.507-.772 1.01-1.16 1.508l.523.41zm-2.41 2.97c.41-.49.814-.98 1.218-1.475l-.52-.416c-.398.49-.8.98-1.21 1.467l.513.427zm-2.51 2.89c.43-.475.85-.952 1.268-1.434l-.502-.436c-.415.48-.835.952-1.26 1.424l.496.447zm-2.6 2.806c.44-.46.88-.924 1.31-1.392l-.49-.454c-.43.464-.864.925-1.304 1.383l.48.463zm-2.7 2.716c.458-.444.91-.894 1.36-1.347l-.472-.47c-.447.45-.898.897-1.352 1.34l.466.477zm-2.785 2.628c.474-.43.94-.863 1.407-1.302l-.46-.484c-.46.434-.925.865-1.395 1.293l.45.492zm-2.87 2.533c.486-.413.968-.83 1.446-1.252l-.44-.5c-.475.42-.956.836-1.44 1.248l.434.507zm-2.956 2.44c.5-.397.994-.8 1.487-1.207l-.422-.512c-.49.403-.982.804-1.48 1.2l.416.522zm-3.037 2.337c.515-.38 1.02-.766 1.53-1.154l-.407-.527c-.505.386-1.01.77-1.52 1.15l.396.532zm-3.11 2.237c.525-.362 1.047-.73 1.564-1.103l-.385-.54c-.52.37-1.035.738-1.56 1.1l.38.546zm-3.186 2.133c.54-.347 1.07-.697 1.603-1.053l-.37-.554c-.528.356-1.06.704-1.594 1.05l.36.56zm-3.255 2.025c.55-.328 1.09-.66 1.636-1l-.35-.564c-.54.337-1.082.668-1.63.995l.346.57zm-3.32 1.916c.557-.31 1.11-.624 1.666-.943l-.33-.576c-.55.315-1.103.63-1.66.936l.325.582zm-3.39 1.805c.57-.293 1.14-.587 1.7-.89l-.312-.586c-.562.3-1.124.592-1.69.88l.302.595zm-3.443 1.69c.577-.27 1.154-.55 1.73-.83l-.297-.6c-.57.283-1.14.557-1.72.827l.285.603zm-3.503 1.576c.59-.256 1.176-.514 1.76-.776l-.275-.606c-.58.26-1.16.516-1.747.766l.26.61zm-3.552 1.455c.598-.234 1.19-.473 1.782-.715l-.255-.612c-.59.24-1.18.477-1.77.71l.24.62zm-3.6 1.337c.605-.214 1.207-.43 1.807-.654l-.23-.627c-.598.223-1.198.44-1.798.65l.22.63zm-3.646 1.217c.614-.194 1.224-.39 1.83-.59l-.21-.637c-.604.2-1.21.4-1.817.59l.2.637zm-3.667 1.09c.617-.174 1.23-.35 1.84-.53l-.19-.64c-.603.18-1.214.356-1.826.525l.178.643zm-3.7.964c.62-.15 1.24-.307 1.855-.468l-.17-.646c-.612.16-1.23.317-1.844.467l.158.646zm-3.733.845c.625-.13 1.25-.27 1.87-.405l-.146-.65c-.62.14-1.235.275-1.86.406l.14.65zm-3.76.717c.63-.107 1.257-.223 1.884-.343l-.123-.65c-.622.114-1.246.23-1.87.338l.113.656zm-3.78.594c.63-.09 1.264-.182 1.894-.28l-.102-.66c-.624.1-1.25.19-1.882.28l.093.66zm-3.8.467c.637-.068 1.27-.14 1.9-.218l-.08-.666c-.627.08-1.26.15-1.89.217l.07.667zm-3.812.342c.637-.05 1.273-.104 1.907-.16l-.055-.663c-.63.055-1.263.107-1.896.152l.047.666zm-3.82.21c.638-.026 1.275-.057 1.91-.09l-.037-.668c-.63.038-1.263.067-1.9.094l.028.662zm-3.827.09c.64-.005 1.28-.016 1.916-.03l-.014-.664c-.633.015-1.267.02-1.9.03l.002.662zm-3.822-.035c.636.016 1.272.027 1.91.034l.007-.667c-.63-.004-1.27-.015-1.9-.033l-.014.67zm-3.82-.16c.637.037 1.274.07 1.912.098l.027-.667c-.635-.027-1.268-.058-1.9-.095l-.04.664zm-3.815-.284c.63.058 1.27.11 1.904.158l.05-.666c-.634-.044-1.266-.1-1.896-.156l-.063.66zm-3.808-.41c.632.08 1.266.154 1.9.22l.072-.66c-.63-.068-1.26-.138-1.89-.22l-.082.663zm-3.79-.535c.63.1 1.26.194 1.893.283l.092-.66c-.63-.09-1.257-.185-1.883-.285l-.106.66zm-3.768-.663c.625.12 1.252.238 1.88.346l.117-.657c-.623-.11-1.25-.225-1.87-.344l-.125.653zm-3.746-.787c.62.142 1.243.28 1.87.41l.135-.652c-.62-.13-1.24-.264-1.858-.405l-.15.646zm-3.72-.913c.618.163 1.236.32 1.856.473l.16-.65c-.618-.148-1.232-.307-1.845-.466l-.17.64zm-3.683-1.034c.61.183 1.222.36 1.837.532l.18-.64c-.61-.174-1.22-.354-1.825-.534l-.193.64zm-3.65-1.16c.603.203 1.21.4 1.82.594l.2-.633c-.605-.19-1.21-.388-1.81-.59l-.21.63zm-3.61-1.278c.6.222 1.198.44 1.8.652l.223-.63c-.6-.21-1.196-.43-1.79-.65l-.233.625zm-3.56-1.4c.59.242 1.18.48 1.775.713l.243-.62c-.59-.23-1.18-.47-1.767-.71l-.254.615zm-3.5-1.51c.58.26 1.16.515 1.743.77l.263-.61c-.58-.254-1.16-.51-1.733-.77l-.275.61zm-3.45-1.63c.57.28 1.143.557 1.72.83l.28-.605c-.57-.27-1.14-.545-1.705-.824l-.295.6zm-3.394-1.74c.56.3 1.124.594 1.69.884l.304-.594c-.563-.29-1.123-.58-1.68-.88l-.314.588zm-3.336-1.855c.55.318 1.104.63 1.66.94l.325-.582c-.554-.308-1.105-.62-1.65-.935l-.336.576zM55.8 213.15c.54.336 1.083.67 1.63.996l.342-.57c-.545-.323-1.085-.653-1.62-.99l-.354.568zm-3.207-2.07c.526.353 1.06.702 1.594 1.05l.36-.56c-.53-.345-1.06-.69-1.586-1.045l-.37.554zm-3.14-2.18c.516.37 1.036.74 1.56 1.103l.38-.548c-.52-.36-1.038-.726-1.55-1.096l-.39.54zm-3.066-2.282c.503.39 1.01.772 1.522 1.153l.392-.532c-.508-.378-1.012-.76-1.514-1.146l-.407.526zm-2.99-2.383c.493.408.987.81 1.485 1.207l.417-.52c-.5-.395-.99-.794-1.48-1.196l-.42.51zm-2.907-2.48c.477.424.957.84 1.443 1.255l.43-.506c-.48-.413-.96-.828-1.433-1.247l-.44.5zm-2.827-2.573c.465.437.93.87 1.403 1.3l.447-.492c-.467-.428-.932-.858-1.393-1.293l-.457.485zm-2.737-2.67c.45.452.9.9 1.357 1.346l.466-.476c-.46-.442-.91-.888-1.357-1.338l-.47.47zm-2.65-2.76c.434.467.872.93 1.312 1.39l.48-.46c-.44-.457-.876-.92-1.307-1.384l-.485.455zm-2.554-2.85c.418.48.84.96 1.266 1.432l.496-.443c-.423-.472-.843-.95-1.258-1.425l-.504.436zm-2.46-2.933c.402.494.808.985 1.218 1.474l.51-.427c-.407-.488-.81-.976-1.21-1.47l-.518.42zm-2.362-3.015c.386.51.775 1.014 1.168 1.517l.524-.41c-.392-.5-.78-1-1.162-1.51l-.53.406zm-2.26-3.092c.368.522.74 1.04 1.117 1.556l.54-.393c-.376-.513-.746-1.027-1.11-1.547l-.546.38zm-2.15-3.165c.35.534.704 1.065 1.064 1.592l.55-.377c-.357-.525-.71-1.052-1.058-1.583l-.556.366zm-2.048-3.238c.333.543.67 1.09 1.01 1.625l.563-.356c-.34-.537-.678-1.076-1.008-1.618l-.57.345zm-1.938-3.31c.313.557.632 1.11.954 1.66l.575-.335c-.32-.548-.638-1.1-.95-1.652l-.58.327zm-1.825-3.37c.29.566.59 1.13.894 1.69l.59-.315c-.303-.56-.6-1.12-.894-1.684l-.59.31zm-1.71-3.434c.272.576.553 1.15.84 1.723l.594-.296c-.28-.568-.56-1.14-.83-1.712l-.603.286zm-1.596-3.49c.26.584.52 1.17.786 1.75l.606-.278c-.263-.576-.522-1.156-.777-1.74l-.61.266zm-1.47-3.546c.237.596.478 1.19.72 1.78l.618-.257c-.244-.586-.482-1.176-.716-1.768l-.62.243zm-1.35-3.593c.217.602.437 1.203.66 1.8l.625-.23c-.224-.597-.44-1.194-.655-1.794l-.63.223zm-1.224-3.64c.196.61.394 1.22.6 1.824l.632-.212c-.203-.6-.4-1.204-.595-1.81l-.634.2zm-1.1-3.684c.173.618.35 1.233.535 1.847l.636-.19c-.18-.61-.356-1.222-.53-1.835l-.64.175zm-.97-3.703c.15.62.308 1.24.47 1.857l.645-.17c-.16-.61-.317-1.225-.467-1.84l-.648.156zm-.84-3.733c.13.628.266 1.25.406 1.87l.65-.143c-.14-.617-.275-1.237-.404-1.86l-.652.136zm-.72-3.76c.107.63.22 1.258.34 1.884l.653-.123c-.12-.624-.23-1.248-.34-1.873l-.654.112zm-.584-3.782c.086.633.178 1.264.275 1.894l.66-.1c-.096-.628-.19-1.256-.273-1.885l-.66.09zm-.454-3.8c.065.635.136 1.27.21 1.9l.662-.078c-.075-.63-.145-1.26-.21-1.892l-.66.068zM2.34 124.8c.048.638.097 1.273.15 1.908l.665-.05c-.053-.63-.1-1.263-.144-1.897l-.663.047zm-.19-3.822c.02.64.05 1.28.08 1.91l.666-.03c-.032-.63-.06-1.262-.08-1.9l-.666.026zm180.537-51.49l.283 93.41-66.08 38.38-66.38-37.854-.286-93.932s0-15 15.658-15c14.31 0 84.06.61 100.11.61 16.044 0 16.69 14.39 16.69 14.39zM24.1 100.838l-2.252 3.614 1.93 3.957-4.43-.937-3.326 3.14-.425-4.6-3.95-2.367 4.15-1.747.882-4.536 2.97 3.69m9.47-17.815l-2.94 3.083 1.103 4.263-4.16-1.802-3.896 2.405.504-4.578-3.397-3.094 4.43-.898 1.788-4.265 2.156 4.19m12.82-15.58l-3.49 2.454.244 4.39-3.72-2.587-4.29 1.593 1.398-4.39-2.714-3.71h4.508l2.584-3.83 1.293 4.55m15.62-12.802l-3.893 1.74-.598 4.35-3.155-3.268-4.507.744 2.21-4.038-1.95-4.18 4.427.876 3.31-3.23.354 4.69m17.817-9.54l-4.136.963-1.442 4.18-2.448-3.82-4.567-.137 2.95-3.556-1.112-4.48 4.168 1.707 3.89-2.477-.58 4.607m19.33-5.9l-4.247.15-2.21 3.83-1.66-4.223-4.44-1.006 3.56-2.932-.22-4.61 3.742 2.48 4.314-1.65-1.474 4.372m20.116-2.02l-4.2-.68-2.91 3.34-.818-4.463-4.16-1.85 4.07-2.19.68-4.57 3.2 3.16 4.53-.82-2.28 4.04m20.133 1.957l-3.994-1.492-3.5 2.693.067-4.54-3.724-2.634 4.412-1.337 1.534-4.338 2.53 3.72 4.617-.04-3.026 3.637m19.396 5.77l-3.645-2.252-3.95 1.94.933-4.432-3.158-3.323 4.584-.443 2.34-3.95 1.773 4.15 4.544.873-3.68 2.974m17.91 9.35l-3.12-2.93-4.246 1.13 1.766-4.17-2.44-3.886 4.574.482 3.067-3.43.932 4.432 4.262 1.748-4.164 2.202m15.76 12.62l-2.494-3.47-4.38.283 2.54-3.744-1.653-4.28 4.4 1.36 3.67-2.768.065 4.52 3.863 2.543-4.523 1.352m13.03 15.438l-1.78-3.886-4.37-.56 3.23-3.19-.81-4.504 4.078 2.16 4.124-2.006-.806 4.44 3.3 3.23-4.7.465m9.806 17.65l-1.01-4.145-4.18-1.385 3.78-2.5.067-4.574 3.596 2.91 4.45-1.17-1.643 4.19 2.598 3.815-4.69-.463m6.17 19.217l-.19-4.24-3.85-2.18 4.2-1.71.947-4.46 2.97 3.54 4.604-.286-2.43 3.79 1.77 4.27-4.47-1.4m2.23 20.074l.636-4.21-3.333-2.875 4.453-.856 1.82-4.178 2.21 4.047 4.57.64-3.138 3.23.88 4.53-4.083-2.254m-1.864 20.114l1.48-3.99-2.694-3.488 4.53.04 2.63-3.733 1.34 4.407 4.35 1.537-3.72 2.54.053 4.62-3.642-3.02m-5.795 19.35l2.252-3.62-1.927-3.96 4.436.948 3.315-3.142.428 4.6 3.956 2.356-4.154 1.756-.884 4.528-2.968-3.678m-9.48 17.812l2.942-3.09-1.1-4.257 4.147 1.8 3.905-2.407-.5 4.582 3.392 3.104-4.43.89-1.78 4.26-2.16-4.2m-12.817 15.592l3.485-2.46-.238-4.39 3.714 2.595 4.3-1.6-1.4 4.386 2.717 3.717h-4.52l-2.58 3.823-1.284-4.535m-15.632 12.785l3.883-1.74.63-4.357 3.143 3.286 4.505-.753-2.214 4.048 1.95 4.175-4.418-.875-3.308 3.23-.357-4.688m-17.82 9.534l4.15-.95 1.433-4.182 2.447 3.82 4.554.13-2.94 3.557 1.116 4.486-4.164-1.702-3.89 2.466.586-4.6m-19.334 5.89l4.25-.152 2.21-3.83 1.667 4.225 4.44 1.01-3.57 2.922.223 4.623-3.754-2.475-4.306 1.65 1.484-4.376m-20.12 2.02l4.194.673 2.92-3.334.806 4.464 4.16 1.842-4.064 2.195-.68 4.57-3.2-3.17-4.537.83 2.293-4.03m-20.14-1.965l3.983 1.48 3.51-2.69-.058 4.534 3.725 2.638-4.42 1.34-1.543 4.345-2.54-3.72-4.606.04 3.02-3.644m-19.38-5.77l3.63 2.254 3.96-1.95-.93 4.44 3.154 3.313-4.592.444-2.343 3.96-1.774-4.152-4.528-.864 3.654-2.98M82.69 203.8l3.116 2.915 4.243-1.13-1.77 4.176 2.45 3.88-4.587-.463-3.058 3.423-.934-4.43-4.273-1.75 4.165-2.204m-15.76-12.628l2.493 3.478 4.386-.29-2.54 3.75 1.65 4.288-4.4-1.352-3.673 2.765-.057-4.53-3.86-2.54 4.52-1.346m-13.02-15.44l1.78 3.89 4.37.56-3.227 3.18.796 4.513-4.07-2.17-4.138 2.02.82-4.447-3.3-3.23 4.69-.456m-9.81-17.66l1.02 4.143 4.182 1.38-3.775 2.498-.084 4.587-3.583-2.91-4.454 1.17 1.652-4.19-2.608-3.816 4.69.465m-6.17-19.22l.2 4.247 3.838 2.17-4.194 1.724-.96 4.45-2.96-3.536-4.61.28 2.42-3.782-1.746-4.27 4.452 1.394m-2.217-20.064l-.648 4.195 3.35 2.887-4.466.858-1.82 4.174-2.21-4.047-4.566-.64 3.125-3.24-.88-4.527 4.092 2.26m1.852-20.103l-1.467 3.98 2.693 3.487-4.527-.04-2.63 3.735-1.347-4.417-4.36-1.533 3.725-2.54-.056-4.622 3.653 3.02" fill="#FFF"/><path d="M58.743 90.324h19.31v80.997L58.93 160.68m51.183-70.66l-19.692.304v87.143l19.7 10.962m63.746-98.11H154.57v80.995l19.1-10.64m-51.18 27.75l19.71-10.964V90.32l-19.71-.304M70.58 62.354H58.87v23.678h5.396v-8.43h6.66c2.573 0 4.565-.657 5.95-1.98 1.383-1.32 2.084-3.212 2.084-5.657 0-2.493-.7-4.393-2.115-5.69-1.428-1.29-3.523-1.923-6.27-1.923zM72.64 72.5c-.65.546-1.673.81-3.075.81h-5.253v-6.834h5.512c1.256 0 2.193.296 2.84.864.62.58.94 1.438.94 2.55 0 1.2-.325 2.076-.966 2.613zm27.54 10.234v-.104l-.09-2.79c-.08-1.584-.342-2.76-.818-3.506-.51-.755-1.31-1.308-2.448-1.683 1.267-.34 2.228-.99 2.9-1.97.678-.96.998-2.17.998-3.61 0-2.275-.684-3.97-2.07-5.064-1.37-1.1-3.503-1.642-6.36-1.642H79.566v23.68h5.418v-9.21h5.705c1.43 0 2.42.247 2.98.766.534.504.85 1.5.898 2.966l.084 2.49c.01.676.087 1.258.183 1.756.1.484.252.894.45 1.22h5.902v-.72c-.637-.31-.96-1.17-1.014-2.58zm-5.83-10.8c-.644.504-1.67.76-3.044.76h-6.32V66.43h6.574c1.254 0 2.183.257 2.815.802.628.513.945 1.307.945 2.333 0 1.08-.317 1.874-.97 2.372z"/><path d="M113.66 61.724c-3.94 0-7.047 1.123-9.368 3.374-2.296 2.244-3.46 5.29-3.46 9.112 0 3.824 1.164 6.86 3.46 9.12 2.32 2.236 5.43 3.366 9.367 3.366 3.9 0 7.02-1.13 9.35-3.367 2.335-2.26 3.49-5.3 3.49-9.12 0-3.82-1.15-6.85-3.49-9.12-2.33-2.243-5.45-3.373-9.357-3.373zm5.438 18.558c-1.287 1.443-3.118 2.164-5.44 2.164-2.325 0-4.122-.72-5.4-2.164-1.298-1.45-1.942-3.452-1.942-6.073 0-2.62.645-4.64 1.942-6.08 1.278-1.45 3.075-2.165 5.4-2.165 2.322 0 4.153.712 5.44 2.172 1.306 1.432 1.963 3.46 1.963 6.063 0 2.624-.65 4.626-1.96 6.075zm27.747 5.754v-4.384h-14.407v-6.09h12.583v-4.04h-12.58v-5.045h13.77v-4.12h-19.07v23.68m33.41-5.657l-5.23-18.022h-8.003v23.678h5.093v-19.11l5.4 19.11h5.54l5.31-19.11v19.11h5.095V62.358h-8.05"/></svg>