<svg version="1.2" baseProfile="tiny" xmlns="http://www.w3.org/2000/svg" width="234" height="234" viewBox="0 0 234 234"><path d="M116.7 231.803C52.406 231.803.098 180.37.098 117.153.098 53.933 52.405 2.5 116.7 2.5c64.3 0 116.61 51.433 116.61 114.652 0 63.22-52.31 114.65-116.607 114.65z"/><path fill="#999B9E" d="M116.7 3c64.02 0 116.11 51.213 116.11 114.152 0 62.942-52.088 114.15-116.107 114.15C52.69 231.302.598 180.094.598 117.152.598 54.212 52.688 3 116.7 3m0-1C52.13 2-.403 53.657-.403 117.152c0 63.494 52.533 115.15 117.104 115.15 64.576 0 117.11-51.656 117.11-115.15C233.808 53.657 181.273 2 116.7 2z"/><path d="M2.09 116.794v.358c0 .64.005 1.277.016 1.915l.665-.013c-.01-.633-.012-1.266-.012-1.902v-.356l-.665-.002zm.077-3.822c-.023.636-.042 1.272-.054 1.91l.665.012c.013-.633.03-1.266.054-1.897l-.665-.025zm.206-3.822c-.045.636-.085 1.272-.12 1.91l.666.036c.03-.634.07-1.267.114-1.9l-.664-.046zm.335-3.812c-.067.633-.128 1.27-.184 1.905l.663.058c.056-.63.117-1.26.184-1.89l-.66-.07zm.465-3.8c-.087.632-.17 1.265-.25 1.898l.663.08c.077-.63.16-1.258.247-1.885l-.66-.09zm.595-3.78c-.11.627-.214 1.256-.314 1.888l.658.104c.1-.627.204-1.253.313-1.877l-.657-.115zM4.493 94c-.132.624-.258 1.25-.378 1.875l.653.126c.12-.62.246-1.24.376-1.86l-.65-.14zm.854-3.73c-.153.62-.3 1.24-.444 1.86l.65.15c.14-.62.288-1.236.44-1.852l-.646-.158zm.98-3.7c-.173.613-.343 1.228-.506 1.845l.648.17c.162-.612.33-1.223.503-1.832l-.64-.183zm1.108-3.664c-.195.606-.385 1.215-.57 1.827l.638.193c.184-.608.372-1.213.566-1.816l-.638-.204zm1.233-3.623c-.216.6-.427 1.202-.632 1.806l.63.21c.205-.6.414-1.2.628-1.795l-.626-.225zm1.353-3.572c-.23.59-.46 1.186-.69 1.78l.627.237c.225-.592.453-1.18.687-1.767l-.62-.247zm1.476-3.515c-.255.582-.506 1.166-.75 1.753l.613.257c.243-.583.492-1.164.746-1.742l-.61-.267zm1.592-3.467c-.275.573-.545 1.15-.81 1.727l.604.278c.264-.574.533-1.146.806-1.716l-.6-.288zm1.71-3.413c-.296.564-.584 1.13-.87 1.7l.596.298c.284-.564.572-1.13.864-1.69l-.59-.307zm1.823-3.355c-.313.553-.622 1.11-.926 1.67l.585.316c.3-.555.61-1.11.92-1.66l-.58-.327zm1.94-3.29c-.334.54-.66 1.086-.984 1.635l.574.338c.32-.545.644-1.087.975-1.628l-.568-.346zm2.047-3.228c-.35.53-.696 1.067-1.04 1.605l.563.356c.34-.533.683-1.065 1.03-1.594l-.554-.367zm2.156-3.156c-.367.52-.732 1.043-1.09 1.57l.55.374c.356-.523.718-1.043 1.084-1.56l-.543-.384zm2.262-3.083c-.386.51-.767 1.02-1.144 1.533l.538.394c.375-.51.754-1.02 1.138-1.523l-.53-.403zm2.365-3.005c-.405.495-.8.993-1.197 1.494l.523.41c.393-.498.79-.993 1.188-1.485l-.516-.42zm2.462-2.926c-.417.48-.833.964-1.243 1.452l.51.43c.406-.485.82-.966 1.234-1.445l-.502-.44zm2.562-2.845c-.435.467-.866.938-1.293 1.412l.496.443c.425-.47.853-.937 1.285-1.4l-.486-.456zm2.654-2.757c-.45.452-.897.908-1.34 1.367l.48.462c.44-.458.883-.91 1.332-1.36l-.474-.47zM37.812 35c-.465.437-.927.878-1.385 1.322l.464.478c.458-.443.916-.88 1.378-1.314L37.813 35zm2.833-2.576c-.48.42-.956.847-1.428 1.276l.447.493c.47-.427.943-.85 1.42-1.27l-.44-.5zm2.917-2.48c-.493.405-.983.813-1.47 1.227l.432.51c.484-.41.97-.816 1.46-1.22l-.422-.514zm3-2.383c-.506.39-1.01.786-1.51 1.18l.415.52c.497-.39.997-.782 1.5-1.17l-.405-.53zm3.08-2.28c-.522.37-1.038.75-1.55 1.13l.396.535c.51-.378 1.02-.752 1.54-1.122l-.39-.54zm3.15-2.18c-.53.357-1.06.715-1.584 1.078l.376.548c.52-.36 1.047-.717 1.577-1.07l-.37-.554zm3.227-2.072c-.546.336-1.085.678-1.624 1.023l.36.56c.535-.343 1.072-.682 1.612-1.02l-.35-.563zm3.29-1.964c-.554.32-1.106.642-1.654.97l.34.57c.546-.324 1.095-.645 1.646-.963l-.332-.576zm3.357-1.855c-.567.3-1.13.604-1.69.912l.324.584c.556-.307 1.115-.61 1.677-.908l-.31-.587zm3.416-1.743c-.575.28-1.147.566-1.717.857l.302.593c.564-.288 1.134-.572 1.705-.852l-.293-.597zm3.476-1.63c-.585.263-1.167.53-1.745.8l.28.604c.577-.27 1.155-.534 1.736-.795l-.272-.608zm3.53-1.51c-.594.243-1.185.49-1.77.742l.26.61c.584-.25 1.172-.495 1.76-.736l-.25-.617zm3.58-1.392c-.603.224-1.2.45-1.798.682l.24.62c.593-.23 1.19-.455 1.787-.677l-.23-.625zm3.623-1.27c-.608.202-1.214.41-1.818.62l.22.63c.6-.212 1.203-.418 1.808-.62l-.21-.63zm3.66-1.15c-.613.18-1.224.368-1.83.558l.198.636c.605-.19 1.21-.376 1.82-.556l-.19-.636zm3.688-1.022c-.617.16-1.232.327-1.847.497l.18.64c.61-.168 1.22-.333 1.836-.493l-.17-.644zm3.72-.9c-.623.14-1.243.286-1.862.435l.156.648c.616-.15 1.233-.292 1.853-.432l-.146-.65zm3.75-.772c-.628.12-1.254.244-1.877.37l.134.654c.622-.126 1.244-.25 1.868-.37l-.125-.652zm3.77-.65c-.63.1-1.26.2-1.89.31l.115.657c.623-.106 1.25-.21 1.877-.306l-.102-.657zm3.793-.522c-.634.078-1.267.16-1.898.247l.09.66c.627-.088 1.256-.17 1.887-.246l-.08-.663zm3.806-.397c-.637.056-1.27.118-1.906.184l.07.663c.63-.066 1.26-.126 1.894-.183l-.06-.662zm3.816-.27c-.64.034-1.275.074-1.91.12l.047.665c.63-.047 1.264-.086 1.9-.122l-.038-.665zm3.824-.147c-.64.014-1.276.032-1.913.058l.027.667c.633-.023 1.267-.043 1.902-.057l-.016-.667zm3.828-.022c-.416-.003-.835-.005-1.253-.005h-.66l.003.667.657-.002c.417 0 .832.003 1.247.006l.008-.665zm3.82.103c-.635-.026-1.27-.05-1.907-.067l-.016.667c.632.017 1.266.04 1.896.066l.03-.667zm3.82.23c-.636-.05-1.27-.092-1.91-.13l-.04.665c.635.038 1.268.08 1.9.128l.05-.664zm3.81.353c-.633-.07-1.268-.135-1.905-.193l-.06.663c.63.06 1.263.123 1.892.192l.072-.662zm3.795.48c-.63-.09-1.26-.176-1.896-.256l-.084.66c.63.08 1.258.164 1.887.254l.092-.66zm3.78.605c-.627-.11-1.255-.217-1.888-.32l-.104.66c.63.1 1.256.206 1.88.316l.116-.655zm3.757.73c-.624-.13-1.248-.26-1.877-.38l-.126.653c.623.12 1.243.248 1.864.378l.14-.65zm3.73.856c-.618-.153-1.24-.3-1.86-.443l-.15.648c.62.143 1.238.29 1.853.44l.157-.644zm3.7.98c-.614-.174-1.23-.342-1.846-.506l-.17.644c.613.16 1.226.33 1.834.5l.183-.64zm3.666 1.102c-.61-.194-1.22-.382-1.83-.567l-.192.64c.608.182 1.214.37 1.817.562l.206-.634zm3.623 1.224c-.6-.214-1.2-.423-1.81-.627l-.212.63c.6.203 1.2.41 1.796.623l.223-.627zm3.583 1.345c-.593-.233-1.188-.462-1.786-.687l-.234.624c.595.225 1.188.45 1.776.685l.243-.62zm3.53 1.46c-.584-.25-1.17-.5-1.756-.742l-.256.616c.586.24 1.168.488 1.748.74l.265-.613zm3.472 1.576c-.575-.27-1.15-.54-1.73-.8l-.276.605c.576.262 1.15.527 1.72.797l.285-.6zm3.42 1.69c-.565-.29-1.134-.58-1.705-.86l-.293.598c.567.28 1.132.566 1.693.855l.307-.59zm3.36 1.803c-.553-.31-1.112-.615-1.673-.916l-.315.587c.56.298 1.112.6 1.664.91l.327-.582h-.002zm3.303 1.914c-.545-.328-1.093-.65-1.643-.97l-.334.575c.55.32 1.095.64 1.635.967l.343-.57zm3.24 2.023c-.536-.347-1.073-.69-1.61-1.026l-.356.564c.537.337 1.07.677 1.603 1.02l.363-.56zm3.17 2.13c-.523-.364-1.05-.724-1.578-1.08l-.37.553c.524.352 1.047.71 1.566 1.072l.38-.547zm3.096 2.234c-.51-.38-1.022-.757-1.54-1.13l-.39.54c.516.37 1.026.745 1.533 1.125l.396-.537zm3.025 2.337c-.498-.396-1-.79-1.503-1.18l-.408.527c.5.39 1 .78 1.493 1.175l.415-.52zm2.945 2.44c-.484-.416-.97-.826-1.463-1.23l-.424.51c.486.404.973.813 1.453 1.225l.434-.507zm2.862 2.532c-.47-.43-.943-.855-1.42-1.28l-.443.5c.477.42.945.845 1.413 1.273l.45-.494zm2.78 2.63c-.457-.447-.917-.89-1.38-1.327l-.46.48c.463.437.92.876 1.37 1.32l.468-.476zm2.69 2.72c-.44-.46-.886-.92-1.335-1.373l-.474.467c.446.452.89.906 1.325 1.364l.482-.46zm2.596 2.807c-.425-.477-.855-.948-1.288-1.416l-.488.452c.43.465.857.934 1.28 1.406l.495-.443zM205.03 45c-.41-.49-.823-.975-1.24-1.457l-.504.434c.416.48.826.962 1.233 1.45l.51-.428zm2.406 2.977c-.393-.503-.79-1.002-1.19-1.498l-.52.415c.4.494.795.99 1.186 1.49l.524-.41zm2.306 3.056c-.374-.518-.755-1.03-1.14-1.54l-.532.4c.383.507.76 1.017 1.135 1.53l.536-.39zm2.203 3.132c-.358-.528-.723-1.054-1.09-1.576l-.544.38c.37.52.73 1.04 1.086 1.566l.55-.374zm2.096 3.206c-.34-.54-.683-1.075-1.032-1.61l-.556.365c.35.532.69 1.065 1.03 1.603l.563-.355zm1.99 3.28c-.32-.553-.65-1.1-.98-1.647l-.57.347c.33.54.656 1.087.976 1.636l.575-.336zm1.876 3.34c-.303-.562-.612-1.122-.924-1.68l-.58.328c.31.553.616 1.11.92 1.67l.584-.318zm1.762 3.406c-.284-.573-.573-1.143-.866-1.71l-.592.307c.293.562.58 1.13.863 1.698l.597-.295zm1.646 3.465c-.265-.58-.535-1.16-.81-1.74l-.602.287c.275.574.54 1.15.804 1.73l.608-.276zm1.527 3.52c-.245-.59-.494-1.18-.75-1.765l-.61.266c.253.584.5 1.17.743 1.757l.617-.254zm1.404 3.574c-.225-.6-.453-1.198-.69-1.792l-.62.246c.234.59.463 1.185.686 1.78l.62-.232zm1.282 3.62c-.203-.608-.412-1.213-.627-1.816l-.63.222c.213.6.42 1.2.623 1.803l.632-.21zm1.157 3.66c-.185-.613-.372-1.225-.564-1.835l-.637.2c.192.606.38 1.214.562 1.826l.637-.19zm1.028 3.697c-.16-.617-.325-1.233-.496-1.847l-.64.178c.17.61.334 1.224.493 1.837l.645-.167zm.9 3.72c-.14-.622-.284-1.244-.433-1.862l-.647.157c.15.616.29 1.234.43 1.853l.65-.146zm.773 3.75c-.12-.627-.242-1.254-.37-1.88l-.653.136c.13.62.25 1.244.365 1.867l.656-.124zm.64 3.774c-.097-.63-.197-1.26-.304-1.89l-.66.112c.107.625.208 1.25.306 1.878l.657-.1zm.514 3.792c-.075-.634-.155-1.267-.24-1.898l-.66.09c.085.627.163 1.256.238 1.887l.662-.078zm.38 3.81c-.05-.638-.11-1.273-.173-1.907l-.66.066c.062.63.12 1.26.172 1.894l.663-.057zm.255 3.82c-.03-.64-.07-1.277-.11-1.912l-.664.044c.04.63.078 1.265.11 1.9l.665-.033zm.12 3.824c-.01-.64-.022-1.28-.043-1.915l-.666.02c.02.633.036 1.268.046 1.903l.666-.01zm-.004 3.825c.014-.637.02-1.274.02-1.914h-.667c0 .636-.007 1.27-.02 1.903l.667.013zm-.134 3.82c.035-.636.063-1.272.085-1.91l-.666-.023c-.023.634-.052 1.268-.086 1.9l.666.034zm-.263 3.82c.056-.635.104-1.27.148-1.908l-.665-.046c-.043.634-.094 1.267-.147 1.898l.663.056zm-.394 3.805c.077-.63.147-1.265.213-1.9l-.663-.067c-.064.63-.136 1.26-.213 1.89l.663.078zm-.524 3.793c.1-.63.19-1.26.278-1.894l-.66-.09c-.087.625-.178 1.252-.276 1.88l.66.1zm-.654 3.772c.12-.626.233-1.253.343-1.884l-.655-.11c-.108.626-.224 1.25-.342 1.87l.655.127zm-.782 3.746c.14-.62.275-1.24.405-1.87l-.65-.133c-.13.62-.266 1.24-.405 1.86l.65.146zm-.91 3.72c.16-.615.316-1.233.47-1.854l-.646-.158c-.15.617-.308 1.23-.47 1.844l.645.17zm-1.04 3.684c.184-.61.36-1.225.535-1.838l-.642-.182c-.173.612-.35 1.22-.53 1.827l.637.19zm-1.164 3.645c.204-.605.402-1.21.597-1.818l-.637-.202c-.19.604-.39 1.207-.59 1.807l.63.213zm-1.29 3.603c.225-.597.444-1.195.66-1.797l-.627-.225c-.215.6-.433 1.194-.656 1.787l.623.236zm-1.407 3.544c.244-.586.484-1.175.72-1.767l-.62-.246c-.234.588-.47 1.174-.715 1.757l.615.257zm-1.526 3.496c.264-.58.523-1.16.78-1.742l-.614-.267c-.25.58-.51 1.157-.773 1.732l.608.277zm-1.644 3.442c.283-.568.563-1.14.837-1.714l-.6-.286c-.27.57-.55 1.14-.83 1.707l.595.297zm-1.764 3.39c.303-.56.602-1.122.895-1.688l-.59-.308c-.294.56-.59 1.12-.892 1.676l.586.318zm-1.875 3.325c.32-.55.64-1.1.952-1.656l-.58-.327c-.313.552-.63 1.1-.948 1.646l.575.338zm-1.988 3.26c.34-.54.675-1.08 1.007-1.625l-.568-.346c-.33.54-.664 1.076-1.004 1.61l.563.357zm-2.1 3.195c.356-.526.71-1.057 1.06-1.59l-.557-.364c-.347.53-.698 1.058-1.055 1.58l.55.377zm-2.206 3.123c.377-.515.747-1.032 1.116-1.552l-.545-.385c-.364.52-.735 1.034-1.108 1.546l.537.394zm-2.308 3.048c.394-.5.78-1.006 1.167-1.515l-.53-.4c-.383.507-.772 1.01-1.16 1.508l.523.41zm-2.41 2.97c.41-.488.814-.978 1.218-1.475l-.52-.416c-.398.49-.8.98-1.21 1.467l.513.427zm-2.51 2.89c.43-.475.85-.952 1.268-1.434l-.502-.436c-.415.48-.835.953-1.26 1.425l.496.447zm-2.6 2.806c.44-.46.88-.924 1.312-1.392l-.49-.454c-.432.465-.865.926-1.305 1.384l.48.462zm-2.7 2.716c.458-.445.91-.895 1.36-1.348l-.472-.47c-.447.45-.898.897-1.352 1.34l.466.477zm-2.785 2.627c.474-.43.94-.863 1.407-1.302l-.46-.484c-.46.434-.925.865-1.395 1.293l.45.493zm-2.87 2.533c.486-.415.968-.83 1.446-1.254l-.44-.5c-.475.42-.956.836-1.438 1.248l.432.507zm-2.956 2.437c.5-.397.995-.8 1.488-1.207l-.422-.513c-.49.402-.982.803-1.48 1.198l.416.523zm-3.036 2.337c.514-.38 1.02-.767 1.53-1.155l-.408-.527c-.505.387-1.01.77-1.52 1.15l.396.533zm-3.112 2.236c.526-.363 1.048-.73 1.565-1.104l-.385-.54c-.517.37-1.034.736-1.56 1.098l.382.546zm-3.185 2.132c.54-.347 1.07-.697 1.603-1.053l-.37-.554c-.527.356-1.06.704-1.593 1.05l.36.56zm-3.255 2.025c.55-.328 1.093-.66 1.637-1l-.35-.564c-.54.336-1.082.667-1.63.994l.346.57zm-3.32 1.916c.558-.31 1.113-.625 1.667-.944l-.33-.576c-.55.315-1.103.63-1.66.936l.325.582zm-3.39 1.804c.57-.293 1.14-.587 1.702-.89l-.313-.586c-.562.3-1.124.593-1.69.88l.302.596zm-3.442 1.69c.578-.27 1.155-.55 1.73-.83l-.296-.6c-.57.283-1.143.557-1.72.827l.283.604zm-3.502 1.576c.59-.256 1.176-.514 1.76-.776l-.275-.606c-.58.26-1.16.517-1.746.767l.26.612zm-3.552 1.455c.598-.233 1.19-.472 1.782-.714l-.255-.613c-.588.24-1.18.477-1.77.71l.24.62zm-3.6 1.338c.605-.214 1.207-.43 1.807-.654l-.23-.626c-.597.222-1.197.438-1.797.65l.22.628zm-3.646 1.217c.615-.193 1.225-.39 1.83-.59l-.21-.636c-.603.2-1.21.398-1.816.59l.2.636zm-3.666 1.09c.615-.173 1.228-.348 1.84-.53l-.19-.638c-.605.18-1.216.356-1.828.525l.178.642zm-3.703.965c.62-.15 1.24-.306 1.856-.467l-.17-.646c-.612.16-1.23.316-1.844.466l.157.646zm-3.732.846c.625-.13 1.25-.27 1.87-.404l-.146-.65c-.62.14-1.236.274-1.86.405l.138.65zm-3.76.718c.63-.107 1.257-.223 1.884-.343l-.124-.65c-.623.114-1.247.23-1.87.338l.112.656zm-3.78.594c.63-.09 1.264-.182 1.894-.28l-.103-.66c-.624.1-1.25.19-1.882.28l.093.66zm-3.8.467c.637-.068 1.27-.14 1.9-.218l-.08-.665c-.627.078-1.26.148-1.89.216l.07.666zm-3.812.342c.637-.05 1.273-.103 1.907-.158l-.057-.664c-.63.055-1.263.107-1.896.152l.047.667zm-3.82.21c.638-.025 1.275-.056 1.91-.09l-.037-.667c-.63.038-1.264.067-1.9.094l.027.662zm-3.827.09c.64-.004 1.278-.015 1.915-.03l-.014-.663c-.632.015-1.266.02-1.9.03l.003.662zm-3.823-.034c.636.016 1.272.027 1.91.034l.007-.666c-.633-.004-1.27-.015-1.9-.033l-.016.67zm-3.82-.16c.637.037 1.274.07 1.912.098l.027-.667c-.635-.027-1.268-.058-1.9-.095l-.04.663zm-3.815-.284c.632.057 1.27.11 1.906.157l.05-.665c-.634-.044-1.266-.1-1.896-.156l-.063.66zm-3.806-.41c.632.08 1.266.153 1.9.22l.072-.662c-.63-.067-1.26-.137-1.89-.22l-.082.664zm-3.79-.536c.63.1 1.26.194 1.893.283l.092-.66c-.63-.09-1.257-.184-1.883-.284l-.106.66zm-3.768-.663c.625.122 1.252.238 1.88.346l.117-.656c-.625-.108-1.25-.225-1.87-.344l-.127.653zm-3.746-.787c.62.142 1.243.28 1.87.41l.135-.652c-.62-.13-1.24-.265-1.858-.406l-.15.647zm-3.718-.913c.616.164 1.234.32 1.854.474l.16-.65c-.618-.148-1.232-.307-1.845-.466l-.17.64zm-3.685-1.033c.61.184 1.222.36 1.837.533l.18-.64c-.61-.172-1.22-.352-1.827-.532l-.192.64zm-3.65-1.16c.603.204 1.21.4 1.82.595l.2-.635c-.605-.19-1.21-.388-1.81-.59l-.21.63zm-3.61-1.277c.6.224 1.198.44 1.8.654l.223-.63c-.598-.21-1.195-.43-1.788-.65l-.234.625zm-3.56-1.4c.59.244 1.18.48 1.775.715l.244-.62c-.59-.23-1.18-.47-1.767-.71l-.254.615zm-3.5-1.51c.58.26 1.16.517 1.743.77l.264-.61c-.58-.252-1.16-.508-1.733-.77l-.275.61zm-3.45-1.628c.57.28 1.143.557 1.72.828l.28-.603c-.57-.27-1.14-.545-1.705-.824l-.294.6zm-3.394-1.74c.56.3 1.124.594 1.69.884l.304-.594c-.563-.29-1.123-.58-1.68-.88l-.314.587zm-3.336-1.855c.55.318 1.104.63 1.66.94l.325-.582c-.553-.308-1.104-.62-1.65-.935l-.335.577zm-3.274-1.964c.54.335 1.083.668 1.63.995l.342-.57c-.545-.323-1.085-.653-1.62-.99l-.354.568zm-3.207-2.072c.526.354 1.06.703 1.594 1.05l.36-.56c-.53-.344-1.06-.69-1.585-1.044l-.37.554zm-3.14-2.178c.516.37 1.036.738 1.56 1.102l.38-.548c-.52-.36-1.038-.726-1.55-1.096l-.39.542zm-3.066-2.283c.504.39 1.012.773 1.523 1.154l.395-.535c-.508-.378-1.012-.76-1.514-1.146l-.406.525zm-2.988-2.382c.492.408.986.81 1.484 1.207l.417-.52c-.496-.395-.988-.794-1.476-1.196l-.422.51zm-2.908-2.48c.477.424.957.84 1.443 1.255l.43-.506c-.48-.413-.96-.828-1.433-1.247l-.44.5zm-2.827-2.573c.465.437.93.87 1.403 1.3l.448-.492c-.467-.428-.932-.858-1.393-1.293l-.457.486zm-2.737-2.67c.45.452.902.9 1.358 1.346l.466-.476c-.456-.442-.907-.888-1.354-1.338l-.47.47zm-2.65-2.76c.435.467.873.93 1.313 1.39l.48-.46c-.44-.457-.876-.92-1.307-1.384l-.488.455zm-2.553-2.85c.418.48.84.96 1.266 1.432l.496-.443c-.423-.475-.843-.95-1.258-1.428l-.504.436zm-2.46-2.933c.402.496.808.987 1.218 1.476l.51-.427c-.407-.487-.81-.975-1.21-1.47l-.518.42zm-2.362-3.013c.386.51.775 1.014 1.168 1.517l.524-.41c-.392-.5-.78-1-1.162-1.51l-.53.406zm-2.26-3.092c.368.522.74 1.04 1.117 1.556l.538-.393c-.375-.512-.745-1.026-1.11-1.546l-.545.38zm-2.154-3.165c.35.534.704 1.065 1.064 1.592l.55-.377c-.357-.525-.71-1.052-1.058-1.583l-.556.366zm-2.048-3.238c.333.543.67 1.09 1.01 1.625l.563-.356c-.34-.537-.678-1.076-1.008-1.618l-.57.345zm-1.938-3.31c.313.557.632 1.11.954 1.66l.575-.335c-.32-.548-.638-1.1-.95-1.652l-.58.327zm-1.825-3.37c.295.566.594 1.13.898 1.69l.59-.315c-.303-.56-.6-1.12-.894-1.684l-.59.31zm-1.71-3.434c.276.578.557 1.152.84 1.725l.598-.296c-.28-.568-.56-1.14-.83-1.712l-.603.286zm-1.592-3.49c.26.586.52 1.17.786 1.752l.605-.278c-.263-.576-.522-1.156-.777-1.74l-.61.266zm-1.47-3.544c.237.596.478 1.19.72 1.78l.618-.257c-.244-.586-.482-1.176-.716-1.768l-.62.244zm-1.35-3.593c.217.602.437 1.203.66 1.8l.625-.23c-.224-.597-.44-1.194-.655-1.794l-.63.223zm-1.224-3.64c.195.61.393 1.22.598 1.824l.632-.213c-.203-.6-.4-1.205-.595-1.812l-.634.2zm-1.1-3.684c.172.618.35 1.233.534 1.847l.636-.19c-.182-.61-.358-1.222-.53-1.835l-.642.176zm-.97-3.703c.15.62.307 1.24.468 1.857l.645-.17c-.16-.61-.317-1.226-.467-1.842l-.646.157zm-.842-3.733c.13.627.266 1.25.406 1.87l.65-.144c-.14-.617-.275-1.237-.404-1.86l-.652.136zM3.7 136.2c.108.63.22 1.258.34 1.884l.654-.124c-.12-.624-.23-1.248-.34-1.873l-.654.112zm-.583-3.782c.086.633.178 1.264.275 1.894l.658-.1c-.096-.627-.188-1.255-.273-1.884l-.66.09zm-.454-3.8c.065.635.136 1.27.21 1.9l.662-.078c-.075-.63-.145-1.26-.21-1.892l-.66.068zm-.322-3.814c.046.637.095 1.272.15 1.907l.663-.053c-.053-.63-.1-1.263-.144-1.897l-.666.045zm-.19-3.823c.02.64.047 1.278.08 1.91l.664-.03c-.032-.63-.06-1.265-.08-1.9l-.666.023zm180.535-51.49l.283 93.41-66.078 38.377-66.38-37.854-.287-93.932s0-15 15.658-15c14.31 0 84.06.61 100.11.61 16.044 0 16.69 14.39 16.69 14.39zM24.1 100.834l-2.252 3.615 1.93 3.957-4.43-.936-3.326 3.14-.425-4.6-3.95-2.368 4.15-1.747.882-4.535 2.97 3.688m9.472-17.814l-2.94 3.084 1.105 4.264-4.16-1.802-3.896 2.404.505-4.577-3.398-3.094 4.43-.898 1.788-4.265 2.155 4.19m12.82-15.58l-3.49 2.453.245 4.39-3.72-2.586-4.29 1.593 1.397-4.39-2.715-3.712h4.508l2.584-3.83 1.294 4.552m15.622-12.798l-3.893 1.74-.597 4.35-3.154-3.268-4.507.744 2.21-4.037-1.95-4.18 4.426.874 3.31-3.23.355 4.69m17.817-9.54l-4.137.963-1.443 4.182-2.448-3.823-4.567-.137 2.95-3.557-1.112-4.48 4.167 1.707 3.89-2.478-.58 4.607m19.328-5.9l-4.246.152-2.212 3.83-1.663-4.224-4.44-1.007 3.563-2.932-.22-4.61 3.742 2.478 4.314-1.65-1.474 4.373m20.116-2.018l-4.2-.68-2.91 3.34-.817-4.463-4.16-1.85 4.07-2.19.68-4.57 3.2 3.16 4.53-.82-2.28 4.04m20.132 1.957l-3.994-1.492-3.5 2.693.067-4.54-3.724-2.634 4.412-1.338 1.534-4.338 2.533 3.72 4.616-.04-3.025 3.638m19.395 5.77l-3.644-2.252-3.952 1.94.934-4.433-3.158-3.322 4.585-.442 2.34-3.95 1.774 4.15 4.544.873-3.68 2.974m17.91 9.35l-3.12-2.93-4.246 1.13 1.765-4.17-2.44-3.886 4.573.482 3.065-3.43.933 4.432 4.264 1.748-4.164 2.202m15.76 12.62l-2.493-3.47-4.38.283 2.54-3.745-1.652-4.28 4.4 1.357 3.67-2.767.064 4.52 3.862 2.542-4.522 1.352M181.63 49.93l-1.78-3.886-4.37-.56 3.23-3.19-.81-4.503 4.078 2.158 4.124-2.004-.804 4.44 3.3 3.23-4.702.465m9.807 17.65l-1.01-4.144-4.18-1.385 3.782-2.5.066-4.575 3.595 2.91 4.45-1.17-1.642 4.19 2.597 3.815-4.69-.465m6.17 19.216l-.19-4.24-3.85-2.18 4.2-1.71.947-4.46 2.97 3.54 4.604-.285-2.432 3.79 1.77 4.27-4.468-1.4m2.23 20.074l.636-4.21-3.333-2.876 4.454-.857L212.2 84.9l2.21 4.048 4.57.64-3.138 3.23.88 4.53-4.082-2.254m-1.864 20.114l1.48-3.99-2.694-3.488 4.53.04 2.63-3.732 1.342 4.407 4.35 1.536-3.72 2.54.052 4.62-3.642-3.02m-5.796 19.35l2.252-3.62-1.927-3.96 4.435.946 3.314-3.142.428 4.6 3.956 2.356-4.153 1.755-.886 4.528-2.968-3.678m-9.48 17.812l2.943-3.09-1.1-4.257 4.148 1.8 3.905-2.407-.5 4.583 3.392 3.104-4.43.888-1.78 4.26-2.16-4.198m-12.817 15.592l3.485-2.46-.238-4.39 3.714 2.596 4.3-1.6-1.4 4.388 2.716 3.717h-4.52l-2.58 3.823-1.285-4.535m-15.632 12.784l3.883-1.74.628-4.358 3.142 3.286 4.505-.753-2.214 4.046 1.948 4.175-4.418-.874-3.308 3.23-.357-4.688m-17.82 9.534l4.152-.95 1.432-4.183 2.446 3.82 4.555.128-2.94 3.558 1.114 4.487-4.163-1.703-3.89 2.465.586-4.6m-19.335 5.89l4.25-.152 2.21-3.83 1.667 4.225 4.44 1.01-3.573 2.924.224 4.623-3.754-2.475-4.305 1.65 1.484-4.377m-20.118 2.02l4.193.673 2.92-3.334.805 4.463 4.16 1.842-4.063 2.196-.68 4.57-3.2-3.17-4.537.83 2.293-4.03m-20.14-1.965l3.983 1.482 3.51-2.692-.058 4.535 3.725 2.637-4.42 1.34-1.543 4.344-2.538-3.72-4.607.04 3.02-3.643m-19.38-5.77l3.63 2.254 3.96-1.95-.93 4.44 3.153 3.313-4.593.444-2.343 3.96-1.774-4.152-4.527-.865 3.654-2.98M82.69 203.8l3.116 2.915 4.243-1.13-1.77 4.176 2.453 3.878-4.586-.465-3.058 3.423-.934-4.43-4.274-1.75 4.166-2.203m-15.76-12.628l2.493 3.478 4.387-.29-2.54 3.75 1.65 4.288-4.4-1.352-3.674 2.764-.057-4.53-3.86-2.54 4.52-1.346M51.78 184.37l1.78 3.89 4.37.56-3.227 3.18.796 4.512-4.07-2.17-4.134 2.02.82-4.447-3.3-3.23 4.69-.456m-9.81-17.657l1.02 4.143 4.182 1.38-3.775 2.498-.084 4.585-3.583-2.91-4.454 1.17 1.652-4.19-2.608-3.816 4.69.463m-6.17-19.22l.2 4.247 3.838 2.17-4.194 1.722-.96 4.45-2.96-3.536-4.606.28 2.42-3.782-1.747-4.27 4.452 1.394m-2.217-20.063l-.648 4.195 3.35 2.885-4.465.858-1.82 4.174-2.21-4.045-4.566-.64 3.124-3.24-.88-4.527 4.092 2.26m1.852-20.103l-1.466 3.98 2.693 3.487-4.527-.04-2.63 3.735-1.346-4.417-4.36-1.532 3.726-2.54-.055-4.622 3.654 3.02" fill="#FFF"/><path d="M58.743 90.324h19.31v80.997L58.93 160.68m51.183-70.66l-19.692.304v87.143l19.696 10.962m63.746-98.108h-19.295v80.997l19.1-10.64m-51.178 27.75l19.71-10.964V90.324l-19.71-.305M70.58 62.355H58.87v23.678h5.396v-8.43h6.66c2.573 0 4.565-.657 5.95-1.98 1.383-1.32 2.084-3.212 2.084-5.657 0-2.493-.7-4.393-2.115-5.69-1.428-1.29-3.523-1.923-6.27-1.923zM72.64 72.5c-.65.546-1.673.81-3.075.81h-5.253v-6.834h5.512c1.256 0 2.193.296 2.84.864.62.58.94 1.438.94 2.55 0 1.2-.325 2.076-.966 2.613zm27.54 10.234v-.104l-.09-2.79c-.08-1.584-.342-2.76-.818-3.506-.51-.755-1.31-1.308-2.448-1.683 1.267-.343 2.228-.99 2.9-1.97.678-.96.998-2.17.998-3.613 0-2.276-.684-3.968-2.07-5.065-1.37-1.1-3.503-1.642-6.36-1.642H79.566v23.678h5.418V76.83h5.705c1.434 0 2.42.247 2.985.766.533.505.85 1.5.897 2.967l.084 2.49c.01.676.087 1.258.183 1.756.1.484.252.894.45 1.222h5.902v-.72c-.636-.312-.96-1.17-1.013-2.58zm-5.83-10.8c-.644.504-1.67.76-3.044.76h-6.32V66.43h6.574c1.254 0 2.183.257 2.815.802.628.513.945 1.307.945 2.333 0 1.08-.317 1.874-.97 2.372z"/><path d="M113.66 61.724c-3.94 0-7.047 1.123-9.368 3.374-2.296 2.244-3.46 5.29-3.46 9.112 0 3.824 1.164 6.86 3.46 9.12 2.32 2.236 5.43 3.366 9.367 3.366 3.902 0 7.02-1.13 9.352-3.367 2.337-2.26 3.488-5.298 3.488-9.12 0-3.817-1.15-6.85-3.487-9.115-2.332-2.244-5.45-3.374-9.356-3.374zm5.438 18.558c-1.287 1.443-3.118 2.164-5.44 2.164-2.325 0-4.122-.72-5.4-2.164-1.298-1.45-1.942-3.452-1.942-6.073 0-2.62.645-4.64 1.942-6.078 1.278-1.45 3.075-2.163 5.4-2.163 2.322 0 4.153.712 5.44 2.172 1.306 1.433 1.963 3.46 1.963 6.064 0 2.623-.654 4.625-1.96 6.074zm27.747 5.754v-4.384h-14.407v-6.09h12.583v-4.04h-12.58v-5.045h13.77v-4.12h-19.07v23.68m33.41-5.657l-5.235-18.022h-8.002v23.678h5.093v-19.11l5.4 19.11h5.54l5.312-19.11v19.11h5.095V62.358h-8.05"/></svg>