<svg xmlns="http://www.w3.org/2000/svg" viewBox="0 0 252 252"><path fill="#535236" d="M126.338 239.25l102.986-54.757V23.53c0-5.99-4.858-10.847-10.848-10.847H33.523c-5.99 0-10.848 4.857-10.848 10.848v161.6l101.927 54.196h1.77l-.034-.065z"/><path fill="#F0B514" d="M47.56 45.08v6.167h-3.95v-20.96c3.26 0 6.614-.032 9.878-.032 10.304 0 10.332 14.73 0 14.82h-5.92l-.008.004zm0-3.623h5.93c5.06 0 5.034-7.426 0-7.426h-5.922v7.43h-.008zm49.495 9.787h-4.52l-6.08-7.003h-4.01v7.01h-3.95V30.26c3.32 0 6.644.03 9.967.03 4.94.03 7.544 3.322 7.544 6.945 0 2.874-1.318 5.778-5.298 6.588l6.346 7.153v.268zm-14.608-17.27v6.707h6.016c2.516 0 3.594-1.67 3.594-3.35s-1.11-3.35-3.594-3.35h-6.016zm85.487 17.27h-15.69V30.29h15.69v3.834H156.17v4.818h11.344v3.68h-11.35v4.728h11.766v3.893h.004zm36.5-15.175l-6.823 9.09h-.77l-6.673-9.13v15.24h-3.953V30.31h4.55l6.56 9.015 6.557-9.01h4.52v20.96h-3.955V36.07zm-70.405 2.32c-1.07-4.57-1.61-8.52-10.85-8.52-9.61 0-9.15 2.86-10.72 7.43.61 1.872.42 4.043-.58 5.73.1.81.25 1.614.5 2.38 4.11.047 6.1 2.09 5.98 5.3.06.024.13.044.21.07l-.24.423.806.452.09-.164.49.334.377-.58c.153.037.31.082.47.11l-.162.216.73.6.5-.67c.218.024.444.034.67.046l-.21.236.698.67.654-.75-.14-.137c.163 0 .312-.02.468-.023l-.18.177.657.753.693-.678-.27-.308c.21-.027.415-.07.623-.1l.596.8.732-.607-.308-.41c.162-.044.32-.09.478-.14l.51.797.49-.336.09.166.81-.45-.405-.73c.033-.01.07-.02.103-.037-.164-3.1 1.65-5.055 5.432-5.38.174-.605.306-1.223.395-1.844-.627-1.51-.695-3.265-.2-4.83v.007-.02zm-17.52 5.76l-1.39-.41-.38-2.44 1.26-1.45 1.99-.157 3.704 2.754-2.16 2.216h-1.12l-1.89-.515h-.018zM123.6 49l-.48-2.08-.515 2.08-1.275-1.553.445-1.4.822-1.69 1.093 1.12 1.248 2.362L123.62 49v.01l-.017-.006zm7.756-5.27l-1.393.414-1.89.524h-1.11l-2.16-2.215L128.5 39.7l1.98.155 1.257 1.445-.38 2.44.01-.01-.01.002z"/><g fill="#F0B514"><path d="M195.522 152.256c-.978-.958-1.882-1.974-2.71-3.043-.83-1.067-1.222-2.764-1.18-5.09 1.893-.557 4.01.052 6.35 1.822-.814-1.5-1.978-2.856-3.488-4.077-1.516-1.217-2.986-1.67-4.423-1.356-.31.055-.66-.04-1.03-.283-.37-.24-.57-.53-.63-.87-.13-.84.17-1.31.89-1.43 1.29-.21 2.72.1 4.297.92 1.573.82 2.938 1.997 4.086 3.525-.814-2.53-2.042-5.08-3.69-7.648-1.644-2.567-3.515-4.764-5.613-6.57-1.05 2.222-2.034 4.572-2.963 7.03-.92 2.46-1.637 4.98-2.143 7.55.256.56.474 1.102.636 1.635.17.53.308 1.13.416 1.8.174 1.082.218 2.26.127 3.515-.09 1.255-.044 2.43.13 3.516.143.923.466 1.77.956 2.55.495.778 1.292.994 2.394.646.95.28 1.45.84 1.5 1.69-.85 1.934-1.837 3.337-2.977 4.204-1.14.87-2.433 1.417-3.884 1.646-.406 3.157-.95 6.2-1.64 9.143-.23.983-.5 1.96-.753 2.94v5.775c.135-.014.27-.02.4-.037 3.877-10.395 8.87-20.24 14.98-29.54l-.024.02zm-.377-42.15c2.187-2.836 4-5.312 5.438-7.43 1.438-2.115 1.962-4.386 1.572-6.815-.278-1.75-1.156-3.35-2.62-4.79-1.464-1.442-3.453-1.96-5.94-1.56-1.608.254-2.956 1.13-4.04 2.63-1.08 1.5-1.524 3.39-1.327 5.678.038.76-.01 1.627-.145 2.595-.134.967-.596 1.554-1.388 1.763-.31.136-.692-.062-1.147-.593-.455-.53-.71-.96-.765-1.295-.132-.837.19-1.64.978-2.41.79-.77 1.07-1.604.85-2.512-.253-1.073-.19-2.072.21-2.99.39-.92.922-1.715 1.6-2.378.68-.665 1.472-1.22 2.395-1.67.916-.446 1.78-.73 2.586-.86 3.455-.553 6.023.18 7.704 2.183 1.68 2.007 2.694 4.14 3.054 6.4.317 2.007-.146 4.29-1.388 6.848-1.25 2.56-2.824 5.36-4.73 8.41 3.67 1.51 7.02 3.59 10.07 6.22V67.96h-27.98v39.896c.902-.008 1.81-.007 2.71.022 4.27.135 8.364.875 12.29 2.224l.02.003zm1.406 24.872c1.93 3.554 3.21 7.04 3.83 10.457.75-.977 1.52-1.96 2.32-2.942.79-.983 1.564-1.966 2.317-2.944-1.146-4.11-2.82-7.77-5.017-10.98-2.2-3.21-4.714-5.92-7.538-8.14l-1.53 2.81-1.533 2.81c2.85 2.38 5.24 5.345 7.16 8.9v.02zm-10.59-8.697c-1.96-1.24-3.9-2-5.81-2.3v13.84c.74.815 1.417 1.7 2.01 2.68 1-5.647 2.27-10.385 3.807-14.21zm14.86 22.69c.408 5.17-.44 9.94-2.552 14.31-2.11 4.37-5.407 8.54-9.89 12.517l-1.426-.416c2.847-2.847 5.26-5.85 7.23-8.994 1.98-3.148 3.337-6.537 4.078-10.17-.307-.897-.67-1.61-1.074-2.14-3.026 4.263-5.775 8.665-8.224 13.212-2.45 4.556-4.485 9.273-6.105 14.164l.605-.09c4.17-.75 7.804-2.422 10.896-5.016 3.09-2.597 5.596-5.68 7.502-9.24 1.906-3.566 3.224-7.38 3.94-11.44.72-4.06.782-7.93.2-11.612l-.24-1.51-2.46 3.224c-.817 1.077-1.64 2.15-2.457 3.226l-.014-.02zm-20.67 14.78v1.13c.048-.35.105-.7.147-1.052-.053-.02-.096-.053-.146-.077zm1.336-41.545c1.888.47 3.65 1.177 5.285 2.116.495-1.022.957-2.02 1.38-2.986.42-.97.897-1.88 1.42-2.738-3.086-1.88-6.23-3.14-9.42-3.79v7.135c.448.067.89.15 1.334.26zm-39.927-33.21c2.62.485 5.1 1.4 7.44 2.74 2.343 1.344 4.38 3.08 6.11 5.204 1.732 2.13 2.79 4.663 3.17 7.603.144 1.44.09 2.883-.172 4.34-.262 1.458-.48 2.93-.66 4.416 1.87-1.13 3.832-2.07 5.887-2.827v-42.5h-27.99v20.71c1.95-.188 4.02-.1 6.22.307h-.01zm21.764 56.937v-8.297c-1.15.362-2.246.85-3.27 1.495 1.27 2.27 2.356 4.528 3.27 6.807v-.006zm-5.8-27.44c-3.453 1.626-6.354 3.868-8.705 6.73 1.713 1.428 3.3 3 4.77 4.708 1.46 1.71 2.793 3.45 3.98 5.223 1.57-1.03 3.23-1.807 4.987-2.34-.295-.38-.612-.77-.95-1.184-.34-.418-.706-.84-1.088-1.284l.686-.11c.447.343.898.723 1.355 1.11.275.234.515.46.765.687v-15.69c-2.174.633-4.11 1.347-5.8 2.143zM153.55 160.5c-.413-2.59-1.4-5.437-2.963-8.534-.97 3.243-1.24 6.204-.816 8.88.4 2.51 1.047 4.77 1.94 6.77.895 2.004 2 3.758 3.31 5.26-.172-2.112-.38-4.202-.623-6.27-.25-2.06-.525-4.096-.845-6.105zm-17.01 39.383c-.3-1.89-.705-3.64-1.203-5.27v14.376l.7-.37c.046-.175.1-.334.145-.51.66-2.89.776-5.632.37-8.23l-.013.003zm2.26-6.023c-.68-4.598-1.835-8.655-3.463-12.17v7.952c1.397 2.802 2.396 6.074 2.993 9.825.356 2.26.395 4.44.11 6.545-.073.49-.155.97-.245 1.45l.37-.2c.345-1.437.543-2.92.59-4.46.098-3.275-.028-6.257-.37-8.95h.015z"/><path d="M140.564 100.918c2.075.872 3.3 2.477 3.67 4.82.136.838-.04 1.68-.524 2.528-.483.85-.694 1.742-.628 2.674.04.766.344 1.255.914 1.462.57.21 1.047.5 1.435.866-1.09.17-2.03.026-2.82-.443-.782-.47-1.243-1.076-1.36-1.827-.15-.994.055-1.898.624-2.71.57-.815.75-1.628.54-2.45-.324-1.565-1.254-2.605-2.782-3.128-1.527-.52-2.93-.678-4.22-.47-.02.003-.037.01-.063.018v15.268c1.04.374 2.06.772 3.055 1.224 2.936 1.334 5.62 2.923 8.053 4.764 2.43-3.39 5.323-6.21 8.678-8.46.32-1.677.67-3.324 1.078-4.933.41-1.6.52-3.25.337-4.94-.253-2.1-.85-3.94-1.78-5.5-.935-1.563-2.087-2.923-3.446-4.08l.08.5c.346.63.675 1.265.98 1.9.308.64.53 1.375.66 2.21.13.837.08 1.79-.165 2.858l-1.348-.687c.343-.48.44-1.14.31-1.98-.08-.505-.2-.994-.354-1.473-.16-.48-.35-.888-.563-1.22-.173.485-.435.914-.786 1.29-.354.38-.705.73-1.066 1.066-.95-2.364-2.425-3.824-4.404-4.375-.58-1.554-.61-2.805-.1-3.76-3.046-1.03-6.11-1.42-9.19-1.18v9.31c1.61-.215 3.357.06 5.23.844l-.03.025zm-.08 91.896c.717 4.003.732 8.118.04 12.348-.063.4-.152.797-.233 1.188l1.47-.768c.31-.77.59-1.546.83-2.342 1.49-4.907 1.77-10.594.828-17.05-.57-3.596-1.52-7.22-2.84-10.868-1.32-3.65-3.055-7.022-5.187-10.114-.01-.01-.022-.02-.03-.023v12.42c2.415 4.2 4.14 9.267 5.15 15.227l-.02-.018zm14.933-13.448c-2.125-1.977-3.974-4.405-5.543-7.287-1.572-2.89-2.684-6.38-3.332-10.48-.717-4.52-.213-9.148 1.508-13.88-1.713-2.47-3.69-4.818-5.937-7.03-2.117-2.08-4.38-3.92-6.78-5.54v9.21c.69.482 1.434.96 2.27 1.422 1.083.6 1.66 1.366 1.724 2.298.012 1.115-.212 2.31-.667 3.583-.46 1.274-.917 2.54-1.374 3.814 2.796 3.59 5.297 7.414 7.51 11.48s3.81 8.68 4.795 13.84c1.01 5.325 1.17 10.09.47 14.273-.41 2.506-1.01 4.83-1.75 6.998l4.15-2.2c.91-2.585 1.57-5.206 2-7.874.66-4.14.98-8.353.96-12.638v.012z"/><path d="M147.115 180.818c-.715-5.034-2.304-9.585-4.763-13.652-2.067-3.422-4.417-6.778-7.02-10.083v4.7c.587.724 1.156 1.465 1.698 2.232l.66 1.05c4.025 6.137 6.5 12.646 7.43 19.533.808 6.13.482 12.15-.973 18.044-.164.65-.35 1.293-.546 1.934l1.9-1.012c1-2.667 1.71-5.615 2.09-8.877.457-3.887.3-8.522-.47-13.89v.02zm-30.04-77.893c-1.338 1.97-2.362 4.604-3.078 7.89l-.122.02c-.176.972-.246 1.84-.205 2.607-.03.352-.036.696-.02 1.04.012.342.05.722.117 1.138l.242-.036c1.2-.19 2.4-.335 3.59-.434v-12.9c-.19.216-.36.452-.53.687v-.012zm-4.782 95.797c-2.158 1.202-4.323 1.977-6.495 2.323-3.632.493-7.05.267-10.25-.684-.323-.09-.628-.21-.944-.32l22.19 11.8c.26-.11.528-.22.806-.31v-17.09c-1.546 1.74-3.31 3.18-5.307 4.29v-.004zm-.797-82.618l-.28-1.758c-.437-2.76-.158-5.55.838-8.37.994-2.816 2.543-5.402 4.645-7.753.28-.32.59-.615.9-.922V67.97H89.61v57.38c2.292-1.497 4.74-2.975 7.37-4.423 3.827-2.107 8.665-3.716 14.51-4.818l.003-.01z"/><path d="M94.057 176.148c-.03.862-.01 1.503.058 1.92.207 1.34 1.002 2.566 2.37 3.676 1.363 1.112 2.494 1.6 3.38 1.456 1.12-.182 2.44-.063 3.95.334 1.5.407 2.34 1.157 2.512 2.242.092.587.036 1.266-.172 2.024-.208.76-.795 1.22-1.762 1.375.252-.47.364-.932.334-1.402-.036-.46-.082-.904-.15-1.33-.08-.495-.52-.658-1.315-.495-.8.17-1.48.307-2.042.396-1.128.183-2.21-.01-3.245-.578-1.04-.56-1.96-1.312-2.772-2.26-.812-.94-1.492-1.988-2.044-3.146-.55-1.154-.92-2.278-1.09-3.366l-.08-.502c-.81.162-1.6.342-2.4.525v17.46c1.83 1.477 3.88 2.652 6.165 3.48 2.712.984 5.637 1.223 8.773.722 1.69-.27 3.525-.9 5.514-1.91-.388-.36-.736-.74-1.043-1.12-.308-.38-.5-.82-.58-1.32-.2-1.26-.156-2.4.133-3.43.29-1.03.518-2.08.68-3.13 3.13 3.1 5.125 4.24 5.984 3.42.07-.61.096-1.22.083-1.82-.015-.6-.065-1.19-.16-1.777-.12-.75-.613-1.143-1.483-1.173-.87-.034-1.388-.55-1.546-1.56-.065-.417.02-.796.254-1.133.235-.338.55-.544.955-.606.723-.11 1.356.237 1.9 1.05.543.813.88 1.646 1.012 2.478.268 1.68.286 3.347.056 5.016.48-.618.9-1.295 1.29-1.997v-12.42c-3.49-1.15-7.126-1.76-10.918-1.81-4.466-.06-8.675.18-12.628.723l.02-.016zm9.322-16.09c-4.71-.69-9.29-1.02-13.77-1.026v15.686c.76-.146 1.523-.292 2.29-.415.144-2.767 1.157-5.073 3.046-6.918 1.9-1.848 4.33-3.005 7.304-3.48 3.22-.514 5.994-.46 8.317.153 2.326.618 4.296 1.57 5.896 2.856.398.32.778.657 1.14 1.007v-3.58c-4.394-2.1-9.13-3.53-14.22-4.28h-.01zm-10.16-16.46c-.44-2.248-.29-4.16.45-5.738.74-1.574 2.312-2.555 4.73-2.94 1.2-.19 2.4-.062 3.582.393 1.184.456 2.386.63 3.607.52.482-.07.804-.252.964-.532.154-.28.27-.62.326-1.02.056-.39.128-.72.21-.99.082-.27.28-.42.605-.48.643-.1 1.25-.022 1.827.22.57.246.905.66.995 1.24.1 1.166-.31 2.08-1.236 2.73-.93.66-1.824 1.094-2.696 1.32-1.515.325-2.808.107-3.877-.65-1.073-.76-2.207-1.04-3.416-.85-1.77.28-2.85 1.11-3.252 2.485-.4 1.378-.496 2.72-.286 4.04.23 1.425.618 2.586 1.17 3.483.557.9 1.21 1.628 1.96 2.198.47-.163.946-.28 1.43-.357l1.33-.214c5.855-.94 11.17-.66 15.937.806v-14.53c-1.186-1.822-2.34-3.695-3.434-5.67l-.606.097c-3.377.54-6.594 1.31-9.65 2.312-3.057 1-6.144 2.07-9.26 3.21-1.655.6-3.335 1.21-5.035 1.81v16.57c2.158-1.305 4.43-2.366 6.837-3.163-1.65-1.54-2.72-3.64-3.23-6.308h.027z"/><path d="M117.6 161.77v-5.52c-.642-.164-1.28-.327-1.914-.468-3.25-.726-6.314-1.332-9.194-1.818-2.88-.484-5.357-1.29-7.432-2.417-1.753.364-3.49 1.004-5.198 1.922-1.482.79-2.893 1.73-4.24 2.8v.5c5.235-.06 10.514.38 15.856 1.3 4.284.74 8.325 1.98 12.13 3.72l-.008-.02zm-4.05 5.868c-2.717-2.313-6.21-3.128-10.47-2.45-1.84.38-3.568 1.427-5.192 3.146-1.625 1.716-2.772 3.573-3.446 5.566 3.807-.434 7.87-.547 12.192-.335 3.805.188 7.458.817 10.965 1.887v-2.938c-1.01-1.8-2.35-3.427-4.06-4.88l.01.004zm-9.988-16.555c1.542.357 3.236.646 5.085.864 1.848.22 3.858.542 6.028.97.943.184 1.92.417 2.923.683v-1.406c-4.136-1.238-8.81-1.608-14.035-1.103zm-54.997-4.81c2.045.146 3.97.587 5.778 1.332 1.806.74 3.387 1.862 4.738 3.36 1.36 1.502 2.23 3.51 2.63 6.017l.08.498c1.92.118 3.827.2 5.73.244 1.44.027 2.9.018 4.37 0v-.462c-1.49-.523-2.86-1.237-4.103-2.15-1.634-1.2-2.582-2.64-2.85-4.313-.13-.85-.08-1.81.158-2.92.235-1.12.756-1.74 1.56-1.87.24-.038.593-.038 1.057.025.46.055.74.37.84.96.108.67-.235 1.21-1.04 1.645-.795.425-1.12 1.103-.976 2.016.1.59.31 1.11.625 1.574.4-.062.806-.107 1.22-.13.41-.02.916.05 1.52.21.725.27 1.394.66 2.017 1.16v-12.327c-1.336.132-2.71.18-4.135.126-2.41-.085-4.705-.536-6.895-1.35-2.19-.806-4.07-2.005-5.643-3.6s-2.564-3.69-2.97-6.283c-.333-2.088.127-4.268 1.375-6.524 1.25-2.26 3.61-3.627 7.08-4.097 2.02-.245 4.123-.237 6.31.02 1.68.206 3.307.2 4.88.01V67.97h-28v78.376c1.466-.16 3.02-.19 4.66-.072l.003-.002z"/><path d="M59.152 157.26l-.1-.625c-.2-1.255-.846-2.46-1.934-3.616-1.092-1.16-2.385-2.18-3.885-3.05s-3.086-1.53-4.76-1.95c-1.632-.41-3.156-.506-4.57-.297v6.1c1.094.41 2.21.8 3.384 1.14 3.715 1.08 7.67 1.842 11.865 2.29zm5.908-32.147c-2.03-.32-3.977-.373-5.84-.162-1.62.18-2.925.79-3.91 1.85-.988 1.06-1.348 2.17-1.08 3.33.317 1.49.93 2.747 1.832 3.76.904 1.017 1.957 1.81 3.164 2.39 1.204.58 2.477.94 3.817 1.07 1.337.13 2.57.105 3.7-.075 1.826-.29 3.535-.707 5.143-1.234v-11.08c-.326.064-.65.137-1.004.19-1.853.29-3.792.28-5.822-.045v.013zm-3.5 34.853c-.365 1.345-1.092 2.47-2.188 3.37-1.092.905-2.205 1.685-3.338 2.337-1.133.66-2.125 1.156-2.978 1.51-.85.352-1.257.65-1.218.902.02.606.308 1.113.868 1.536.56.43 1.05.87 1.447 1.33-2.91.38-4.51-.352-4.8-2.195-.145-.914.188-1.683 1.003-2.28.813-.596 1.77-1.2 2.865-1.81 1.11-.6 2.2-1.262 3.28-2 1.078-.73 1.855-1.684 2.33-2.875-5.62-.556-10.573-1.64-14.9-3.22v16.54l16.36 8.696c1.616-.076 3.177-.234 4.68-.48 1.93-.306 3.827-.693 5.69-1.16.42-.103.83-.22 1.25-.33V160.11c-.57.02-1.14.038-1.7.047-3.002.056-5.87-.006-8.62-.17l-.022-.012zm3.783 23.847c-.335.053-.678.083-1.015.13l7.558 4.015v-5.624c-.288.083-.578.173-.864.252-1.857.513-3.75.92-5.68 1.227z"/></g></svg>