<svg xmlns="http://www.w3.org/2000/svg" width="252" height="252" viewBox="0 0 252 252"><path opacity=".75" fill="#535236" d="M125.475-.21c-47.897 0-92.627 28.263-113.383 71.4-21.07 43.768-14.42 97.142 16.555 134.505 30.888 37.258 81.725 53.795 128.607 41.545 45.955-12.006 82.18-50.33 91.524-96.915 9.52-47.443-9.78-97.143-48.632-125.913C178.623 8.487 152.25-.21 125.476-.21c-69.336 0 69.335 0 0 0zm122.01 120.855c.017.612.052 1.225.052 1.837-1.925.053-1.872.28-1.94-1.82.155-.14 1.887-.052 1.887-.017 0 .07 0-.018 0 0zm-.105-1.942c-1.242.07-1.854.56-1.942-.823-.088-1.4.578-.98 1.82-1.067.053.63.088 1.26.122 1.89 0 0-.034-.63 0 0zm-.402-5.355c.052.525.104 1.05.14 1.592-1.225.105-1.838.63-1.96-.77-.104-1.19-.14-.927.858-1.015.437-.052.91-.315.962.193 0 0-.018-.105 0 0zm-.473-4.043l.157 1.19c0 .175.053.367.07.56.053.105-1.645.472-1.855.35-.262-2.083-.28-1.872 1.628-2.1 0 .017 0 0 0 0zm-.56-3.693c.104.613.192 1.19.28 1.803-1.226.175-1.786.735-2.013-.647-.193-1.19-.193-.91.787-1.067.1 0 .92-.21.94-.08 0 0 0-.01 0 0zm-.666-3.71c0 .035.52 1.768.19 1.82-1.84.333-1.68.472-2.07-1.522.14-.158 1.85-.35 1.87-.298 0 0 0-.017 0 0zm-.56-2.677c0 .21.14.612.15.77-1.21.262-1.75.84-2.05-.508-.3-1.365.43-1.05 1.62-1.33.104.35.174.7.26 1.068 0 0-.087-.368 0 0zm-.9-3.78c0 .018.33 1.313.21.858-1.21.297-1.72.91-2.07-.455-.35-1.348.4-1.068 1.59-1.383l.26.98s-.09-.333 0 0zm-1.28-4.603c.26.542.35 1.208.52 1.803-1.19.333-1.68.962-2.087-.385-.595-2.1 1.56-.42 1.56-1.418 0 .018 0 0 0 0zm-1.09-3.447c.24.49.363 1.103.52 1.627-1.173.368-1.662 1.015-2.082-.315-.37-1.138-.334-.875.61-1.172.264-.105.84-.472.946-.14.017 0-.018-.053 0 0zm-1.14-3.325c0 .438.313.928.47 1.365-1.174.402-1.63 1.05-2.1-.263-.404-1.12-.37-.857.576-1.208.613-.21.822-.542 1.05.106 0 .017-.05-.14 0 0zm-29.73 117.653c-1.157-.228-3.677-1.277-4.76-.945-1.157.367-2.66 2.607-3.554 3.482-.125-1.662-.266-3.324-.388-4.987-.054-.647-3.467-2.17-4.114-2.572 1-.43 3.57-1.03 4.183-1.87.67-.91.51-3.53.686-4.69.84.88 2.278 3.17 3.38 3.54 1.12.37 3.66-.61 4.85-.8-.595 1.09-2.345 3.15-2.38 4.36-.035 1.21 1.575 3.36 2.1 4.5zm5.43-135.083c-1.664-.158-3.326-.333-4.988-.49-.648-.07-2.748 3.01-3.256 3.57-.26-1.085-.367-3.658-1.085-4.463-.735-.805-3.43-1.137-4.497-1.487.996-.665 3.517-1.663 4.076-2.695.56-1.033.052-3.71.07-4.917.96.787 2.676 2.87 3.866 3.132s3.585-.945 4.793-1.26c-.42 1.085-1.906 3.395-1.767 4.515.14 1.19 2.083 3.08 2.783 4.095zm16.536 39.288c-1.45-.805-2.888-1.593-4.34-2.398-.56-.315-3.71 1.715-4.376 2.03.16-1.067 1.07-3.553.685-4.533-.4-1.05-2.714-2.345-3.59-3.097 1.19-.228 3.886-.193 4.796-.928s1.49-3.395 1.96-4.498c.597 1.103 1.385 3.658 2.38 4.357 1 .7 3.695.51 4.92.69-.82.84-3.06 2.38-3.37 3.48-.334 1.19.7 3.68.945 4.9zm-6.31-20.458c-1.576-.49-3.17-.998-4.743-1.488-.613-.192-3.29 2.415-3.886 2.87-.05-1.085.35-3.675-.21-4.567-.61-.963-3.133-1.768-4.147-2.345 1.12-.455 3.78-.945 4.533-1.837.753-.893.77-3.623 1.016-4.795.804.962 2.08 3.325 3.2 3.815 1.12.473 3.71-.228 4.953-.315-.63.998-2.537 2.94-2.625 4.077-.087 1.19 1.42 3.43 1.91 4.585zM210.1 181.283c.91-.648 3.27-1.68 3.745-2.643.49-.98-.2-3.605-.27-4.726.99.7 2.83 2.643 4.01 2.8 1.17.158 3.48-1.295 4.63-1.715-.386 1.18-1.698 3.53-1.506 4.72.19 1.19 2.19 2.99 2.92 4.01-1.174 0-3.87-.55-4.866 0-1.05.59-2.08 3.08-2.783 4.11l-1.363-4.83c-.175-.63-3.816-1.47-4.533-1.73zm9.048-17.517c.77-.806 2.89-2.293 3.17-3.326.28-1.05-.895-3.482-1.19-4.584 1.1.473 3.29 2.012 4.46 1.94 1.174-.086 3.17-1.958 4.2-2.59-.14 1.244-.96 3.8-.54 4.937.436 1.137 2.73 2.502 3.655 3.342-1.155.23-3.902.23-4.76.963-.928.787-1.435 3.447-1.907 4.586-.77-1.488-1.54-2.976-2.294-4.463-.297-.59-4.043-.68-4.795-.8zm13.406-15.226c-1.05-1.295-2.1-2.607-3.15-3.902-.402-.508-4.077.14-4.83.175.595-.945 2.362-2.817 2.433-3.902.07-1.1-1.57-3.23-2.06-4.27 1.17.25 3.64 1.33 4.78 1.02 1.14-.31 2.7-2.55 3.57-3.37.12 1.24-.19 3.92.46 4.96.65 1.015 3.2 1.907 4.25 2.537-1.063.457-3.78 1-4.46 1.89-.77.964-.75 3.676-.98 4.884zm2.17-21.315c-1.295-1.067-2.59-2.135-3.868-3.202-.508-.42-3.973.945-4.708 1.138.367-1.01 1.768-3.27 1.593-4.3-.19-1.12-2.186-2.83-2.903-3.76 1.21.02 3.84.58 4.89.04 1.05-.54 2.14-3.02 2.84-4.02.37 1.19.61 3.868 1.45 4.74s3.52 1.245 4.69 1.665c-.96.663-3.5 1.73-4.003 2.73-.56 1.1.017 3.76.035 4.985zm4.094-47.093c.14.49.49 1.243.684 1.75-1.155.438-1.593 1.103-2.1-.192-.44-1.12-.386-.84.542-1.225 0 .017.858-.35.875-.333 0 .018 0 0 0 0zm-.716-1.75c-1.14.473-1.56 1.155-2.1-.123-.543-1.28.227-1.12 1.364-1.61l.73 1.73s-.25-.58 0 0zm-1.855-4.2c.103.246.226.49.33.736-1.12.507-1.52 1.208-2.117-.052-.595-1.26.193-1.12 1.313-1.663.158.332.314.665.472.98 0 .017-.16-.315 0 0zm-1.297-2.677c-1.103.542-1.488 1.26-2.117 0-.63-1.242.157-1.137 1.26-1.697.297.577.577 1.137.857 1.697 0 0-.28-.56 0 0zm-2.047-3.955c0 .123.28.508.314.595-1.084.578-1.435 1.295-2.1.07-.665-1.225.123-1.137 1.208-1.732.19.35.38.7.57 1.067 0 0-.2-.35 0 0zm-2.17-3.833c.14.245.28.508.437.753.21.35.245.35-.21.612-1.47.84-1.242.63-2.152-.91.124-.315 1.314-.77 1.628-.962.086.175.192.332.296.507 0 0-.104-.175 0 0zM229.46 61.6c-1.05.647-1.364 1.382-2.1.21-.735-1.172.052-1.138 1.103-1.803.314.508.664 1.05.997 1.593 0 0-.333-.542 0 0zm-3.08-4.725c.386.385.753 1.12 1.032 1.54-1.032.683-1.313 1.417-2.1.263-.665-.998-.56-.735.263-1.313.052-.017.753-.56.805-.49 0 0 0-.018 0 0zm-1.96-2.8c.21.438.596.822.857 1.208-1.015.717-1.277 1.47-2.082.333-.805-1.138-.018-1.138.98-1.873.088.122.175.227.245.332 0 .017-.07-.105 0 0zm-2.047-2.747c.14.28.524.7.682.893-.997.76-1.225 1.51-2.064.41-.85-1.1-.05-1.14.93-1.89.14.19.3.4.46.6 0 .02-.16-.19 0 0zm-2.73-3.43c.297.384.595.77.928 1.137.25.315-.89 1.4-1.29 1.4-.47-.595-1.52-1.155-.8-1.75.21-.175.97-1.033 1.18-.788 0 0-.034-.035 0 0zm-1.54-1.838c.07.087.157.175.228.262-.94.805-1.13 1.575-2.04.525-.91-1.05-.12-1.138.81-1.943.33.386.67.77 1.02 1.156 0 0-.35-.385 0 0zm-3.553-3.955c.455.438.858.928 1.278 1.382-.91.823-1.086 1.61-2.03.578-.945-.998-.157-1.103.752-1.96 0 .018 0 0 0 0zm-2.625-2.712c.438.438.875.893 1.33 1.348-.893.86-1.032 1.65-2.013.65-.98-1-.192-1.12.683-1.99.104.12 0 0 0 0zm-2.712-2.643c.455.438.91.857 1.365 1.313 0 .123-.596.612-.666.683-.7.717-.455.857-1.33.035-.997-.98-.227-1.12.63-2.03.315.32 0 0 0 0zm-2.8-2.538c.472.42.944.84 1.4 1.26-.84.91-.93 1.697-1.96.77-1.033-.927-.263-1.102.56-2.03.297.246 0 0 0 0zm-2.852-2.467c.49.402.97.805 1.44 1.225-.8.945-.87 1.732-1.94.822-1.07-.91-.3-1.102.51-2.047.09.07 0 0 0 0zm-6.35 18.97c-.82 1.383-1.62 2.765-2.45 4.147-.45-1.015-1.05-3.535-1.9-4.182-.87-.665-3.58-.455-4.7-.613.86-.84 3.117-2.31 3.48-3.43.35-1.12-.662-3.658-.872-4.848 1.454.77 2.89 1.52 4.34 2.29.597.31 3.8-1.79 4.5-2.14-.21 1.15-1.227 3.71-.876 4.78.383 1.15 2.66 2.6 3.55 3.48-1.68.17-3.36.35-5.06.51zm-2.92 166.145c-1.08-.46-3.34-1.96-4.48-1.84-1.22.12-3.13 1.98-4.18 2.66.21-1.63.42-3.256.61-4.884.09-.63-2.99-2.818-3.53-3.31 1.05-.243 3.71-.313 4.48-1.03.82-.772 1.18-3.397 1.54-4.498.65 1.014 1.63 3.534 2.65 4.11s3.69.105 4.9.14c-.79.964-2.89 2.644-3.165 3.833-.28 1.19.89 3.61 1.19 4.82zm-68.47.592c-22.45-12.81-44.92-25.62-67.37-38.43-1.433-.805-4.08-1.436-4.093-3.238-.02-4.234-.02-8.452-.037-12.67-.053-16.258-.105-32.515-.14-48.772l-.11-37.222c0-2.764.332-5.407 1.364-7.997 3.22-8.103 10.73-9.712 18.64-9.695 34.79.104 69.6.63 104.387.646 8.525 0 15.77 4.41 17.817 12.95.505 2.1.42 4.13.42 6.265.032 13.77.085 27.54.12 41.31.053 15.49.09 30.97.14 46.48 0 3.01.02 6.03.036 9.05 0 .82-6.754 3.95-7.453 4.35-21.27 12.3-42.49 24.62-63.72 36.96zM55.44 37.622c1.085.458 3.343 1.96 4.48 1.84 1.225-.123 3.133-1.995 4.2-2.66-.21 1.627-.42 3.27-.613 4.9-.087.63 2.975 2.8 3.518 3.307-1.05.24-3.692.31-4.462 1.03-.822.77-1.172 3.39-1.558 4.5-.647-1.02-1.61-3.54-2.643-4.12-1.015-.58-3.71-.11-4.917-.14.805-.96 2.905-2.65 3.185-3.84.28-1.19-.893-3.62-1.19-4.83zm18.935-11.67c.98.648 2.888 2.556 4.025 2.66 1.225.124 3.465-1.33 4.638-1.784-.525 1.557-1.05 3.097-1.575 4.655-.192.595 2.38 3.325 2.817 3.92-1.085.035-3.692-.385-4.567.158-.962.6-1.802 3.12-2.38 4.13-.438-1.12-.91-3.78-1.785-4.55-.893-.77-3.605-.82-4.777-1.08.97-.79 3.35-2.05 3.84-3.15.51-1.12-.17-3.71-.23-4.95zm98.314 4.76c1.19.368 3.55 1.66 4.74 1.45s2.96-2.24 3.95-2.972c.01 1.172-.49 3.885.07 4.865.59 1.05 3.11 2.047 4.16 2.73-1.61.472-3.21.962-4.82 1.435-.613.192-1.42 3.833-1.663 4.55-.647-.91-1.715-3.272-2.677-3.728-.98-.473-3.59.228-4.71.297.685-1 2.59-2.87 2.73-4.03.126-1.17-1.362-3.47-1.8-4.6zm27.93-1.35c.29.248.91.56 1.06.84.52.42.28.51-.18 1.07-.88 1.067-.98.42-2.05-.42-.04-.332.93-1.19 1.15-1.487 0 .017 0 0 0 0zm-3.03-2.272c.51.368 1.01.752 1.52 1.138-.76.98-.77 1.785-1.89.945-1.12-.858-.35-1.103.36-2.083.33.227 0 0 0 0zm-3.08-2.205c.52.35 1.03.718 1.54 1.085-.72 1.015-.72 1.802-1.86.997-1.14-.787-.39-1.05.31-2.082.35.245 0 0 0 0zm-3.13-2.082c.52.332 1.05.682 1.57 1.032-.69 1.033-.65 1.82-1.82 1.067-1.17-.77-.44-1.067.24-2.1.36.228 0 0 0 0zm-3.22-1.995c.54.333 1.08.647 1.61.98-.65 1.05-.6 1.837-1.79 1.12-1.19-.736-.46-1.05.17-2.1.54.315 0 0 0 0zm-3.28-1.908c.54.315 1.1.613 1.64.945-.618 1.067-.548 1.855-1.75 1.172-1.21-.7-.49-1.032.1-2.117.35.192 0 0 0 0zm-3.33-1.785c.56.28 1.12.577 1.66.892-.58 1.085-.49 1.873-1.72 1.225-1.226-.665-.51-1.032.052-2.117.07.035 0 0 0 0zm-3.38-1.698c.56.28 1.14.542 1.7.84-.56 1.103-.42 1.89-1.68 1.278-1.26-.613-.56-.997-.02-2.118.456.228 0 0 0 0zm-3.43-1.592c.574.262 1.14.525 1.713.787-.526 1.12-.37 1.908-1.647 1.33-1.26-.577-.578-.98-.07-2.117zm-3.486-1.47c.577.245 1.173.473 1.75.717-.49 1.138-.315 1.908-1.593 1.383-1.294-.525-.63-.945-.157-2.1.576.245 0 0 0 0zm-3.517-1.365c.595.227 1.173.438 1.77.665-.455 1.155-.245 1.925-1.558 1.435s-.648-.945-.21-2.1c.58.21 0 0 0 0zm-3.57-1.26c.595.192 1.19.402 1.786.612-.403 1.173-.193 1.925-1.506 1.47-1.31-.437-.68-.91-.28-2.082.176.052 0 0 0 0zm-3.605-1.138c.61.175 1.203.368 1.8.56-.368 1.173-.124 1.943-1.454 1.522-1.33-.42-.7-.91-.35-2.082.61.176 0 0 0 0zm-3.64-1.032c.61.175 1.203.333 1.82.507-.337 1.19-.07 1.942-1.42 1.575-1.33-.385-.72-.892-.4-2.082.03 0 0 0 0 0zm-3.66-.928c.593.14 1.19.28 1.783.438.172.245-.28 1.365-.37 1.715-.054.228-1.87-.193-1.804-.438.126-.577.25-1.137.39-1.715zm4.48 17.22c1.102-1.224 2.203-2.467 3.31-3.69.242 1.154.26 3.9.995 4.776.79.91 3.45 1.417 4.588 1.89-1.47.788-2.957 1.557-4.428 2.345-.58.298-.63 4.042-.736 4.795-.803-.77-2.31-2.887-3.36-3.15-1.065-.28-3.48.928-4.565 1.225.455-1.085 2.013-3.342 1.908-4.48-.123-1.208-1.96-3.132-2.625-4.183 1.63.14 3.27.298 4.92.473zM149.59 5.83c.613.123 1.242.262 1.855.385-.263 1.208.053 1.942-1.313 1.645-1.382-.28-.786-.823-.542-2.03zm-3.728-.683c.63.105 1.243.228 1.854.333-.227 1.208.123 1.942-1.26 1.697-1.364-.245-.804-.805-.594-2.03.542.087 0 0 0 0zm-3.727-.578c.63.08 1.242.17 1.873.28-.193 1.22.175 1.92-1.208 1.73-1.382-.21-.84-.79-.665-2.02.613.09 0 0 0 0zm-3.762-.46l1.872.21c-.14 1.22.228 1.92-1.155 1.77-1.365-.14-.84-.74-.717-1.98.63.07 0 0 0 0zm.997 11.16c.455 1.06 1.015 3.78 1.907 4.46.963.75 3.676.7 4.9.94-1.295 1.05-2.607 2.1-3.902 3.165-.508.402.175 4.095.21 4.85-.945-.597-2.835-2.365-3.92-2.417-1.103-.05-3.237 1.594-4.253 2.085.245-1.174 1.33-3.64.998-4.78-.315-1.137-2.556-2.695-3.396-3.57 1.243-.123 3.92.175 4.935-.473 1.01-.667 1.89-3.204 2.52-4.27zm-4.76-11.5l1.89.16c-.105 1.22.297 1.92-1.103 1.8-1.38-.12-.875-.72-.788-1.96.52.03 0 0 0 0zm-3.762-.23c.63.012 1.26.05 1.89.082-.07 1.242.35 1.907-1.032 1.837-1.42-.05-.93-.68-.858-1.924.314.02 0 0 0 0zm-3.78-.11c.63 0 1.26.02 1.89.034-.036 1.242.42 1.89-.98 1.872-1.4-.037-.928-.667-.91-1.91.63.02 0 0 0 0zm-3.448 0c.63 0 1.242-.018 1.873-.018 0 1.26.42 2.065-1.068 1.89-.647-.07-.805.245-.805-.47 0-.106-.035-1.4 0-1.4zm-3.78.122c.63 0 1.243-.05 1.873-.07.035 1.243.525 1.873-.875 1.925-1.19.05-.927.086-.98-.91 0-.037-.07-.947-.018-.947zm-3.657.227c.577 0 1.172-.085 1.75-.12.07 1.242.577 1.854-.823 1.942-1.19.087-.927.123-.998-.875-.017-.228-.227-.928.07-.946.018 0-.035 0 0 0zm-3.256.28c.28 0 .578-.084.858-.084.175-.035.367-.088.385.104.105 1.21.595 1.7-.77 1.84-1.382.14-.998-.56-1.12-1.786.21-.02.437-.055.647-.07 0 0-.21.015 0 0zm2.573 15.19c.542-1.555 1.103-3.11 1.645-4.67.647.96 1.715 3.5 2.73 4.01 1.085.543 3.728-.034 4.97-.034-1.068 1.294-2.135 2.572-3.22 3.867-.42.51.945 3.975 1.138 4.71-1.05-.382-3.238-1.765-4.305-1.61-1.085.16-2.87 2.208-3.763 2.908.018-1.21.595-3.834.07-4.883-.525-1.05-3.028-2.136-4.008-2.836 1.576-.49 3.168-.98 4.743-1.457zm-6.79-14.68l1.172-.156c.175-.035.333-.035.508-.07.035 0 .123.91.14.945.123 1 .385.892-.805 1.05-1.19.16-.91.175-1.05-.805-.052-.262-.315-.91.035-.962 0 0-.07.016 0 0zm-3.71.58c.542 0 1.138-.19 1.663-.26.192 1.224.752 1.784-.63 2.012-1.173.196-.91.21-1.068-.77-.07-.33-.35-.91.035-.98 0 0-.07 0 0 0zm-1.89 24.204c-1.067-.175-3.552-1.103-4.515-.735-1.068.4-2.363 2.71-3.133 3.603-.21-1.19-.157-3.886-.875-4.814-.717-.926-3.377-1.504-4.48-1.994 1.103-.595 3.675-1.365 4.375-2.363.7-1 .542-3.676.735-4.918.84.822 2.345 3.08 3.448 3.394 1.172.35 3.64-.663 4.882-.873-.805 1.436-1.61 2.87-2.432 4.29-.315.577 1.68 3.744 1.995 4.41zm-1.995-23.48c.42 0 1.417-.28 1.82-.35.228 1.224.805 1.766-.56 2.03-1.172.227-.91.227-1.103-.753-.017-.035-.245-.91-.157-.927 0 0-.017 0 0 0zm-3.622.804c.577-.14 1.155-.264 1.75-.404.262 1.21.857 1.733-.508 2.05-1.172.26-.893.26-1.12-.72-.052-.157-.35-.875-.122-.927 0-.017-.035 0 0 0zm-3.168.79c.385-.126.875-.23 1.225-.32.298 1.21.91 1.716-.438 2.066-1.347.35-1.067-.403-1.382-1.593.192-.06.385-.11.595-.16 0 0-.21.05 0 0zm-3.727 1.05c.438-.09.875-.267 1.313-.39.34 1.19.97 1.68-.36 2.084-1.33.4-1.08-.37-1.43-1.54.14-.07.32-.106.49-.16 0 0-.17.054 0 0zm-3.553 1.12c.42-.14.823-.266 1.243-.405.385 1.18 1.015 1.65-.315 2.09s-1.085-.33-1.488-1.483c.193-.07.368-.14.56-.193 0 0-.192.05 0 0zm-3.815 1.33c.49-.16.98-.37 1.47-.545.42 1.18 1.067 1.63-.245 2.1-1.313.49-1.103-.28-1.522-1.43.087-.05.192-.09.297-.12 0 0-.105.038 0 0zm-3.29 1.274c.175 0 1.803-.718 1.225-.49.455 1.154 1.12 1.592-.175 2.1-1.295.524-1.103-.263-1.575-1.4.157-.07.333-.14.525-.21 0 0-.192.07 0 0zm-3.36 1.416c.245-.14 1.208-.524 1.085-.472.49 1.136 1.172 1.556-.105 2.1-1.277.56-1.12-.23-1.627-1.35.21-.086.42-.19.647-.28 0 0-.227.09 0 0zm-3.99 1.84c.49 0 1.225-.576 1.627-.77.525 1.12 1.208 1.506-.052 2.12-1.085.506-.823.454-1.243-.456-.07-.14-.525-.806-.332-.893 0 0-.035 0 0 0zm-2.887 1.436c.315-.21.945-.474 1.103-.56.56 1.102 1.26 1.47.017 2.117-1.242.63-1.137-.157-1.697-1.242.19-.123.384-.21.577-.315 0 0-.193.104 0 0zm-3.71 1.994c.438 0 1.137-.63 1.47-.805.595 1.084 1.313 1.434.087 2.1-1.05.577-.787.506-1.277-.37-.175-.296-.63-.734-.28-.926 0 0-.07.03 0 0zm-2.748 1.592c.297-.192.612-.367.91-.542.63 1.068 1.348 1.4.158 2.1-1.208.718-1.138-.087-1.768-1.138.227-.14.455-.28.7-.42.018-.017-.245.14 0 0zm-3.868 2.398c.49-.35 1.033-.665 1.558-.98.647 1.05 1.382 1.348.21 2.1-1.015.647-.752.542-1.295-.297-.053-.07-.578-.77-.473-.822 0-.017-.017 0 0 0zm-3.15 2.1c.474-.315.946-.63 1.418-.962.28-.158.91 1.12 1.085 1.382 0 0-1.138 1.627-1.732.752-.105-.122-.858-1.102-.77-1.172 0 0-.018 0 0 0zm-2.52 1.785c.176-.176.44-.316.63-.456.193-.057.21-.32.37-.09.716 1 1.364 1.153.26 1.98-1.136.82-1.136.014-1.87-.98.208-.16.418-.32.61-.46 0 0-.192.14 0 0zm-2.1 1.574c.752.98 1.505 1.203.402 2.06-1.11.856-1.14.05-1.91-.91.49-.386 1-.77 1.5-1.156 0 0-.51.386 0 0zM33.705 187.84c1.663.156 3.325.332 4.987.49.647.07 2.748-3.01 3.255-3.57.263 1.084.368 3.656 1.103 4.462s3.43 1.138 4.498 1.487c-.998.66-3.5 1.66-4.06 2.69-.577 1.03-.07 3.726-.087 4.934-.96-.79-2.67-2.87-3.85-3.134-1.19-.262-3.58.946-4.79 1.26.44-1.084 1.93-3.394 1.79-4.515-.17-1.207-2.13-3.08-2.83-4.11zM36.12 80.57c-.998-.682-2.835-2.642-4.008-2.782-1.172-.158-3.482 1.295-4.62 1.715.367-1.19 1.697-3.535 1.505-4.725s-2.188-2.992-2.922-3.99c1.172 0 3.867.542 4.847 0 1.05-.595 2.083-3.098 2.783-4.13.455 1.61.927 3.22 1.382 4.83.175.613 3.815 1.453 4.515 1.715-.91.63-3.29 1.68-3.763 2.643-.48.98.21 3.604.28 4.724zm-5.565 10.15c-.77.805-2.888 2.275-3.167 3.325-.28 1.05.91 3.5 1.19 4.585-1.103-.472-3.308-2.03-4.48-1.942-1.173.087-3.167 1.942-4.2 2.59.14-1.225.962-3.797.542-4.935-.42-1.12-2.748-2.502-3.657-3.325 1.155-.228 3.902-.228 4.777-.962.927-.788 1.435-3.448 1.925-4.585.77 1.49 1.522 2.98 2.292 4.47.298.58 4.043.68 4.778.79zm-13.388 15.225c1.05 1.313 2.1 2.608 3.167 3.92.402.507 4.078-.14 4.83-.175-.595.91-2.415 2.835-2.433 3.885-.03 1.137 1.58 3.22 2.09 4.252-1.17-.245-3.64-1.33-4.77-1.015-1.14.315-2.69 2.555-3.582 3.377-.122-1.25.193-3.92-.454-4.96-.647-1.03-3.185-1.91-4.252-2.56 1.07-.46 3.78-1 4.464-1.88.75-.943.716-3.656.96-4.863zm-2.187 21.297l3.885 3.203c.507.42 3.955-.928 4.69-1.12-.368 1.015-1.75 3.255-1.575 4.287.192 1.12 2.188 2.835 2.905 3.763-1.207-.018-3.832-.578-4.882-.035-1.05.543-2.135 3.027-2.835 4.025-.368-1.19-.612-3.867-1.453-4.76-.84-.875-3.518-1.243-4.69-1.646.962-.67 3.5-1.74 4.008-2.73.542-1.09-.035-3.75-.053-4.99zm3.132 26.197l-.945-4.89c1.453.8 2.905 1.61 4.357 2.39.56.31 3.71-1.72 4.393-2.05-.158 1.065-1.067 3.55-.7 4.513.403 1.05 2.73 2.346 3.605 3.1-1.19.227-3.885.19-4.813.926-.91.737-1.47 3.397-1.96 4.5-.6-1.103-1.39-3.657-2.38-4.356-1-.7-3.68-.523-4.92-.682 1.12-1.135 2.24-2.307 3.36-3.464zm5.373 15.59c1.575.49 3.15.98 4.725 1.48.612.19 3.29-2.42 3.885-2.87.052 1.08-.35 3.69.21 4.56.612.96 3.115 1.77 4.13 2.33-1.12.45-3.763.96-4.515 1.85s-.788 3.604-1.032 4.795c-.805-.964-2.065-3.326-3.185-3.8-1.12-.47-3.71.23-4.953.3.63-.996 2.52-2.94 2.607-4.076.105-1.208-1.4-3.43-1.872-4.585zm23.607-104.7c-.84-.88-2.275-3.15-3.395-3.52-1.12-.37-3.657.61-4.847.8.595-1.09 2.345-3.14 2.38-4.34s-1.575-3.38-2.1-4.5c1.155.22 3.675 1.27 4.76.94 1.155-.37 2.66-2.61 3.552-3.488.123 1.663.245 3.326.385 4.99.052.645 3.465 2.17 4.095 2.57-1.015.456-3.535 1.016-4.2 1.873-.647.84-.472 3.535-.63 4.655zm.176-32.48c.455-.39.91-.76 1.365-1.14.788.96 1.54 1.17.473 2.06-.927.77-.683.63-1.33-.13-.124-.14-.7-.65-.508-.806 0 0-.036.017 0 0zm-1.54 1.29c.805.92 1.575 1.12.542 2.04-1.05.93-1.138.12-1.96-.79l1.418-1.26s-.473.42 0 0zm-3.815 3.44c.333-.32.647-.6.998-.93.84.91 1.61 1.066.6 2.03-1.01.944-1.12.16-1.98-.736.12-.125.26-.247.39-.37 0 0-.12.123 0 0zm-3.08 2.99c.438-.44.875-.876 1.33-1.314.857.895 1.645 1.017.665 2.015-.857.84-.613.7-1.33 0-.018-.035-.683-.682-.665-.7.017 0 0 0 0 0zm-2.118 2.204c.245-.3.542-.56.805-.84.893.855 1.68.98.717 1.976-.962 1.016-1.12.228-2.012-.612.14-.176.315-.35.49-.526 0 0-.175.174 0 0zm-2.345 2.54c.123-.193.402-.455.56-.613.07-.02.665.613.7.63.735.665.875.44.087 1.33-.927 1.033-1.102.263-2.03-.54.21-.28.456-.544.683-.806 0 0-.227.267 0 0zM31.22 48c.42-.472.805-.96 1.208-1.434.945.805 1.732.857.84 1.942-.77.925-.56.75-1.33.12 0-.034-.735-.594-.718-.63.017-.017 0 0 0 0zm-1.19 1.47c.963.77 1.768.807.893 1.91-.857 1.102-1.085.332-2.065-.42l1.172-1.488s-.385.49 0 0zm-3.115 4.08l.402-.56c.438-.63.508-.456 1.155.034 1.103.823.455.962-.35 2.065-.333.01-1.225-.9-1.522-1.11.105-.14.21-.28.315-.44 0 0-.105.15 0 0zm-2.485 3.534c.333-.525.717-1.032 1.067-1.558 1.015.718 1.802.7 1.015 1.855-.787 1.14-1.067.39-2.082-.29 0-.02 0 0 0 0zm-1.977 2.975c.175 0 .788-1.23.91-1.4 1.033.68 1.82.64 1.068 1.82-.64 1.01-.45.8-1.29.28-.28-.2-.89-.37-.68-.7.02 0-.03.05 0 0zm-1.103 1.78c1.05.64 1.855.59 1.12 1.78-.718 1.19-1.033.47-2.1-.16.315-.56.648-1.11.98-1.63 0 0-.332.52 0 0zm-2.31 3.9c.052-.18.35-.6.368-.65 1.067.61 1.872.52 1.172 1.75-.683 1.21-1.033.49-2.1-.11.192-.332.385-.665.56-.997.018-.02-.175.33 0 0zm-2.31 4.3c0-.33.735-1.42.857-1.648 1.085.577 1.873.472 1.243 1.715-.56 1.07-.385.86-1.277.403-.035-.035-.858-.4-.823-.47zm-1.592 3.22c0-.35.595-1.247.735-1.51 1.103.543 1.89.42 1.295 1.68-.525 1.086-.35.86-1.26.44-.298-.157-.946-.245-.77-.613 0 0-.035.07 0 0zm-1.523 3.34c.087-.21.192-.42.28-.63.56-1.12.42-.77 1.627-.21.962.44-.438 1.853-.438 1.835-.542-.227-1.067-.47-1.61-.7.053-.103.09-.21.14-.296 0 0-.05.09 0 0zm-1.347 3.19c.123-.37.367-.878.473-1.158 1.14.473 1.93.297 1.39 1.592-.52 1.294-.96.612-2.1.157.09-.19.16-.4.25-.592 0 0-.09.19 0 0zm-1.593 4.13c.228-.598.438-1.176.665-1.77 1.155.44 1.925.244 1.435 1.54-.648 1.75-1.837-.298-2.1.23 0-.02 0 0 0 0zM9.59 87.04c.123-.386.315-.963.455-1.35 1.172.404 1.925.176 1.488 1.506-.455 1.33-.91.685-2.1.3.052-.14.105-.3.157-.46 0 0-.052.16 0 0zm-.735 2.26c1.172.367 1.942.122 1.54 1.452s-.893.7-2.083.35c.175-.595.368-1.208.543-1.802 0 0-.175.594 0 0zm-1.54 5.442c.158-.613.315-1.208.49-1.82 1.19.333 1.942.053 1.575 1.4-.315 1.155-.192.91-1.155.665-.017 0-.928-.23-.91-.25 0-.016-.018 0 0 0zm-.91 3.657c.105-.61.315-1.21.42-1.82 1.208.3 1.942 0 1.61 1.35-.28 1.17-.158.91-1.138.7 0 0-.892-.18-.892-.23.017 0 0 0 0 0zm-.403 1.87c1.208.264 1.942-.07 1.663 1.296-.28 1.365-.823.79-2.03.54.105-.61.227-1.22.367-1.835 0 0-.122.614 0 0zm-.98 5.164c.087-.49.158-.98.245-1.455 1.225.21 1.942-.123 1.697 1.243-.228 1.38-.805.803-2.012.61.035-.124.053-.263.07-.403 0 0-.017.14 0 0zm-.612 4.13l.262-1.858c1.225.175 1.925-.19 1.732 1.19-.157 1.19-.07.93-1.067.805-.017 0-.927-.09-.927-.14 0-.02 0 0 0 0zm-.332 2.745c0-.26.07-.61.087-.84 1.225.14 1.925-.245 1.768 1.137-.158 1.383-.752.86-1.978.735.052-.35.087-.7.123-1.034 0 0-.036.33 0 0zm-.403 4.515c0-.524.088-1.12.123-1.61 1.225.106 1.908-.3 1.803 1.086-.08 1.19-.01.928-1.01.858-.4-.016-.94.16-.91-.33 0 0 0 .086 0 0zm-.21 4.044c.035-.63.053-1.243.088-1.873 1.242.07 1.907-.37 1.837 1.03-.07 1.384-.7.91-1.925.84 0-.016 0 0 0 0zm-.088 3.78c0-.63.018-1.26.035-1.89 1.242.034 1.89-.42 1.873.98-.035 1.207.035.926-.963.926 0 0-.945 0-.945-.02s0 .02 0 0zm.018 3.394c-.018-.472-.018-.962-.018-1.45.63 0 1.26-.02 1.89-.02-.63-.017-1.26-.017-1.89-.034.63 0 1.26-.015 1.89-.015-.63 0-1.26.018-1.89.018 1.225.02 1.873-.437 1.908.945.018 1.365-.665.928-1.873.945 0-.12-.017-.26-.017-.382 0 0 0 .124 0 0zm.158 4.13c0-.21-.07-1.627-.088-1.837 1.925-.07 1.855-.315 1.978 1.784-.158.124-1.89.07-1.89.054zm.21 3.08c0-.366-.07-.82-.088-1.154 1.243-.084 1.838-.592 1.96.81.105 1.38-.577.97-1.802 1.08-.036-.25-.053-.49-.07-.74 0 0 .017.242 0 0zm.367 3.973c-.087-.35-.07-.754-.123-1.12 0-.334 1.54-.65 1.855-.44.21 2.083.228 1.855-1.68 2.065 0-.156-.017-.332-.052-.506 0 0 .017.17 0 0zm.49 3.744c-.105-.42-.123-.91-.192-1.347 1.225-.156 1.802-.7 1.995.684.193 1.39-.507 1.02-1.732 1.19-.01-.17-.05-.35-.07-.52 0 0 .02.177 0 0zm.367 2.4c1.225-.19 1.785-.77 2.013.61.245 1.385-.49 1.035-1.697 1.245l-.316-1.855s.105.61 0 0zm.875 4.76c-.052-.244-.105-.49-.157-.75-.087-.37-.035-.318.42-.405 1.663-.334 1.365-.193 1.75 1.557-.21.262-1.487.314-1.855.385-.053-.24-.105-.5-.158-.78 0 0 .053.28 0 0zm1.015 4.5c-.157-.615-.297-1.228-.438-1.84 1.2-.28 1.73-.875 2.04.49.33 1.347-.42 1.05-1.61 1.347-.02-.07 0 0 0 0zm.473 1.89c-.035-.14 1.47-.44 1.68-.51.245-.07.718 1.732.49 1.802l-1.68.473c-.175-.597-.333-1.174-.49-1.77 0 0 .157.595 0 0zm1.487 5.195c-.175-.526-.333-1.068-.49-1.61 1.19-.35 1.68-.98 2.083.35.35 1.14.333.874-.63 1.172-.298.09-.84.46-.963.09 0-.02.018.05 0 0zm.648 1.994c1.173-.385 1.645-1.033 2.083.297.455 1.313-.315 1.103-1.487 1.506-.19-.614-.4-1.208-.59-1.803 0 0 .2.597 0 0zm1.243 3.57c1.155-.42 1.61-1.086 2.1.227s-.28 1.103-1.435 1.54c-.246-.595-.455-1.173-.665-1.767 0 0 .21.596 0 0zm1.82 4.707c-.14-.402-.316-.787-.473-1.19 1.155-.454 1.575-1.14 2.1.157.525 1.294-.245 1.12-1.382 1.592-.088-.177-.158-.37-.246-.56 0 0 .088.19 0 0zm1.75 4.026c-.263-.578-.508-1.156-.77-1.716 1.137-.49 1.54-1.19 2.1.087.577 1.276-.21 1.12-1.33 1.627-.228-.49 0 0 0 0zm1.627 3.412c-.28-.56-.56-1.138-.822-1.697 1.12-.52 1.505-1.22 2.118.04.6 1.26-.19 1.14-1.29 1.66-.23-.44 0 0 0 0zm.84 1.697c1.103-.56 1.47-1.276 2.117-.034s-.14 1.14-1.225 1.713l-.892-1.68s.298.56 0 0zm2.713 4.97c-.315-.54-.612-1.084-.928-1.644 1.085-.597 1.417-1.315 2.1-.106.595 1.05.508.787-.367 1.277.017.02-.805.49-.805.474-.018-.016 0 0 0 0zm1.312 2.26c-.105-.21-.245-.403-.368-.613 1.068-.63 1.383-1.36 2.1-.17.718 1.19-.07 1.14-1.12 1.786-.192-.33-.402-.664-.612-.997 0 0 .21.332 0 0zm2.502 3.97c-.21-.332-.438-.664-.647-.996-.035-.054-.245-.316-.245-.37.018-.104.735-.473.805-.507.84-.544.647-.736 1.295.28.647.996.56.75-.28 1.293-.332.228-.665.683-.928.298 0 0 .053.07 0 0zm1.698 2.52c-.175-.174-.438-.646-.508-.734 1.015-.7 1.295-1.437 2.083-.3s0 1.14-1.015 1.856c-.175-.28-.367-.543-.56-.82 0 0 .193.28 0 0zm1.855 2.61c-.07-.16-.263-.177-.07-.334.98-.72 1.155-1.385 1.96-.28.823 1.12.035 1.14-.962 1.89-.298-.42-.613-.86-.928-1.28 0 0 .315.42 0 0zm3.185 4.163c-.42-.402-.735-.928-1.102-1.4.98-.752 1.207-1.52 2.065-.42.735.945.612.7-.158 1.313-.123.12-.647.7-.805.505 0 0 .035.035 0 0zm2.275 2.766c-.315-.42-.683-.804-1.015-1.21.945-.784 1.155-1.555 2.047-.49.893 1.07.105 1.14-.84 1.945-.052-.087-.122-.156-.192-.244 0 0 .07.088 0 0zm1.733 1.995c-.087-.087-.21-.227-.28-.314.928-.822 1.103-1.592 2.03-.543.927 1.032.14 1.14-.77 1.96-.333-.37-.665-.736-.98-1.104-.018-.018.315.368 0 0zm3.202 3.482c-.333-.34-.63-.67-.963-1.02.91-.84 1.05-1.63 2.013-.616s.175 1.12-.718 1.98c-.087-.107-.21-.23-.332-.35 0 0 .122.12 0 0zm3.028 3.04c-.455-.44-.893-.89-1.348-1.33.875-.878 1.015-1.66 1.995-.68.998 1 .21 1.132-.647 2.01-.368-.35 0 0 0 0zm2.73 2.61c-.473-.42-.928-.86-1.382-1.3.857-.89.962-1.68 1.977-.735 1.032.946.244 1.12-.595 2.03-.176-.174 0 0 0 0zm2.835 2.5c-.473-.42-.945-.825-1.417-1.245.822-.926.91-1.714 1.96-.787 1.032.91.262 1.102-.543 2.03-.088-.07 0 0 0 0zm2.904 2.43c-.507-.35-.98-.806-1.452-1.208.787-.947.857-1.75 1.925-.86s.297 1.1-.473 2.063c-.017-.017 0 0 0 0zm2.975 2.33c-.42-.318-1.05-.86-1.505-1.158.77-.964.805-1.77 1.908-.91 1.102.855.332 1.083-.403 2.063-.49-.366 0 0 0 0zm3.028 2.24c-.508-.37-1.015-.738-1.54-1.106.735-.997.735-1.785 1.872-.98 1.156.823.403 1.086-.332 2.084-.367-.265 0 0 0 0zm3.115 2.15c-.525-.35-1.05-.7-1.558-1.068.7-1.017.683-1.82 1.837-1.034 1.156.786.42 1.066-.28 2.1-.227-.16 0 0 0 0zm-3.272-16.818c-1.487.716-2.958 1.45-4.445 2.17.21-1.156 1.242-3.71.875-4.797-.385-1.153-2.66-2.606-3.553-3.48 1.663-.16 3.325-.333 4.987-.49.648-.07 2.135-3.5 2.52-4.165.473 1.014 1.05 3.534 1.908 4.18.875.65 3.587.46 4.708.614-.857.84-3.115 2.31-3.465 3.43-.368 1.12.647 3.655.857 4.862-1.47-.77-2.94-1.54-4.392-2.33zm6.457 18.86c-.542-.33-1.067-.665-1.593-1.015.665-1.033.63-1.84 1.803-1.086 1.172.75.438 1.05-.21 2.1-.035-.02 0 0 0 0zm3.237 1.96c-.542-.315-1.085-.63-1.627-.96.63-1.05.578-1.857 1.768-1.14 1.207.7.472 1.015-.14 2.1zm3.29 1.84c-.56-.28-1.12-.614-1.663-.91.613-1.087.508-1.874 1.733-1.19 1.243.663.526 1.013-.07 2.1-.017 0 0 0 0 0zm3.36 1.75c-.49-.28-1.19-.597-1.68-.86.58-1.1.456-1.89 1.698-1.24 1.243.63.525.995-.017 2.1-.018 0 0 0 0 0zm-2.59-9.47c-.018-1.17.508-3.885-.052-4.883-.595-1.05-3.115-2.046-4.147-2.73 1.61-.47 3.202-.96 4.813-1.433.62-.193 1.4-3.85 1.65-4.568.65.91 1.72 3.27 2.68 3.743.98.47 3.59-.247 4.73-.317-.66.98-2.62 2.907-2.73 4.044-.12 1.207 1.33 3.447 1.79 4.62-1.19-.37-3.552-1.663-4.742-1.452-1.205.21-2.99 2.24-3.97 2.977zm5.985 11.113c-.577-.264-1.137-.543-1.715-.806.542-1.12.402-1.89 1.663-1.294 1.277.577.578.98.052 2.1-.175-.088 0 0 0 0zm3.466 1.54c-.508-.21-1.015-.44-1.522-.665-.123-.21.105-1.6.542-1.82 1.924.85 1.732.7.98 2.48-.386-.18 0 0 0 0zm3.5 1.417c-.56-.22-1.19-.49-1.75-.7.472-1.13.28-1.92 1.575-1.4 1.295.53.612.95.175 2.1-.578-.22 0 0 0 0zm3.534 1.32c-.525-.174-1.277-.523-1.785-.65.438-1.15.228-1.92 1.54-1.45 1.313.49.666.94.245 2.1-.21-.07 0 0 0 0zm3.588 1.21c-.595-.19-1.208-.386-1.803-.596.402-1.173.158-1.925 1.488-1.505 1.33.453.682.93.315 2.1-.158-.055 0 0 0 0zm3.623 1.1l-1.82-.524c.35-1.19.105-1.943 1.435-1.54 1.347.385.717.874.385 2.064-.613-.175 0 0 0 0zm3.64.98l-1.838-.472c.315-1.19.035-1.94 1.382-1.59 1.366.35.77.86.455 2.067-.472-.122 0 0 0 0zm-3.71-13.334c-1.104 1.225-2.19 2.45-3.29 3.675-.246-1.154-.263-3.9-1-4.776-.786-.91-3.446-1.416-4.602-1.89 1.47-.786 2.96-1.56 4.43-2.344.58-.298.65-4.044.75-4.778.81.75 2.31 2.87 3.36 3.135 1.07.28 3.49-.927 4.57-1.225-.45 1.085-2.03 3.36-1.91 4.497.13 1.21 1.98 3.133 2.65 4.184-1.66-.14-3.3-.3-4.95-.473zm7.402 14.19c-1.977-.436-1.942 0-1.522-1.783.245-1.033 1.89.07 1.89.07-.123.577-.246 1.155-.368 1.714-.595-.12 0 0 0 0zm3.693.755c-.613-.122-1.243-.23-1.855-.37.245-1.21-.088-1.94 1.295-1.662 1.364.264.787.823.56 2.03-.613-.104 0 0 0 0zm3.727.63c-.63-.104-1.243-.19-1.873-.3.21-1.224-.14-1.925 1.242-1.714 1.384.23.824.81.63 2.016-.63-.09 0 0 0 0zm-3.22-12.41c1.295-1.05 2.59-2.12 3.885-3.17.507-.402-.158-4.1-.193-4.85.945.58 2.835 2.36 3.903 2.43 1.103.058 3.237-1.59 4.27-2.1-.245 1.178-1.313 3.66-.998 4.78.315 1.14 2.555 2.697 3.395 3.57-1.243.12-3.92-.173-4.953.47-1.015.65-1.89 3.21-2.52 4.27-.455-1.06-1.015-3.78-1.908-4.46-.96-.75-3.656-.7-4.88-.94zm6.965 12.93c-.63-.07-1.242-.154-1.872-.242.175-1.225-.21-1.925 1.19-1.75 1.382.175.84.77.682 1.995zm3.762.406c-.595-.14-1.277-.12-1.873-.19.14-1.224-.27-1.923 1.12-1.782 1.38.14.85.75.75 1.978zm3.763.28c-.63-.03-1.26-.083-1.89-.12.087-1.224-.315-1.91 1.067-1.82 1.4.09.91.718.823 1.94-.613-.03 0 0 0 0zm3.78.18c-.63-.02-1.26-.038-1.89-.07.053-1.245-.385-1.91 1.015-1.857s.91.683.875 1.925c-.018 0 0 0 0 0zm3.623.05c-.578 0-1.155 0-1.732-.02.035-1.837-.263-1.87 1.732-1.87.157.14.384 1.89 0 1.89-.018 0 .052 0 0 0zm3.937-.07l-1.89.05c-.018-1.24-.49-1.87.893-1.906 1.4-.035.96.63.997 1.854-.07.02 0 0 0 0zm3.763-.177c-.403 0-.806.07-1.19.07-.175.016-.368.016-.543.033-.157 0-.367-1.68-.21-1.89.752-.03 1.82-.56 1.89.39-.017.124.105 1.4.053 1.4-.017 0 0 0 0 0zm-.595-7.507c-.647-.96-1.732-3.5-2.73-4.004-1.084-.548-3.727.03-4.952.03 1.07-1.296 2.14-2.59 3.21-3.87.42-.506-.93-3.97-1.12-4.706 1.02.38 3.26 1.764 4.29 1.59 1.12-.193 2.86-2.19 3.78-2.905-.01 1.21-.59 3.833-.07 4.883.53 1.05 3.03 2.132 4.01 2.833-1.19.367-3.88.594-4.76 1.435-.85.876-1.22 3.536-1.64 4.71zm3.884 7.265c-.455 0-.928.086-1.383.12-.104-1.223-.61-1.835.788-1.96 1.382-.12.98.56 1.103 1.805-.176 0-.35.017-.508.034 0 0 .176-.02 0 0zm3.938-.42c-.508 0-1.05.12-1.557.174-.14-1.225-.666-1.82.717-1.98 1.19-.14.91-.155 1.033.824.07.495.35.915-.193.985 0 0 .105-.016 0 0zm4.043-.56c-.613.103-1.242.19-1.855.28-.175-1.227-.717-1.804.665-2.015 1.365-.21 1.05.523 1.19 1.73zm2.31-.387c-.123.054-.3.054-.44.07-.21-1.224-.77-1.784.596-2.03 1.365-.244 1.033.474 1.26 1.68-.454.106-.926.194-1.417.28 0 0 .49-.086 0 0zm3.29-.63c-.245-1.206-.84-1.75.524-2.047 1.365-.3 1.05.435 1.313 1.643-.613.156-1.224.28-1.838.4 0 0 .614-.12 0 0zm3.693-.803c-.28-1.21-.89-1.716.48-2.066 1.35-.33 1.07.405 1.37 1.61-.61.16-1.22.3-1.83.458 0 0 .61-.16 0 0zm4.96-1.296c-.42.14-.85.23-1.27.35-.31-1.19-.94-1.694.4-2.062 1.35-.367 1.07.368 1.42 1.56-.19.05-.37.1-.54.155-.02 0 .175-.053 0 0zm-3.43-11.653l-.73 4.917c-.84-.822-2.34-3.1-3.44-3.413-1.173-.33-3.658.668-4.883.896.807-1.436 1.63-2.854 2.434-4.29.315-.542-1.68-3.73-2.012-4.41 1.07.176 3.537 1.104 4.517.72 1.068-.4 2.38-2.71 3.15-3.588.21 1.17.14 3.885.876 4.81.72.93 3.38 1.508 4.48 1.98-1.455.806-2.925 1.59-4.38 2.38zm5.78 10.972c-.36-1.19-1-1.66.33-2.08s1.09.33 1.47 1.52c-.59.174-1.2.37-1.8.56 0 0 .6-.19 0 0zm3.99-1.296c-.12.053-.26.105-.38.14-.052-.017-.3-.875-.3-.892-.313-.943-.56-.804.58-1.19 1.313-.453 1.103.317 1.506 1.47-.474.14-.947.316-1.4.474 0 0 .453-.16 0 0zm.42-22.016c1.09-.035 3.69.386 4.57-.16.96-.592 1.8-3.11 2.38-4.13.44 1.12.91 3.78 1.788 4.55.895.77 3.607.826 4.78 1.088-.964.79-3.36 2.03-3.85 3.15s.174 3.73.243 4.988c-.995-.65-2.885-2.556-4.04-2.66-1.226-.105-3.465 1.33-4.64 1.767.527-1.553 1.053-3.092 1.577-4.65.23-.594-2.36-3.34-2.8-3.94zm4.41 20.25c-.56.19-1.1.42-1.66.63-.44-1.156-1.1-1.594.21-2.102 1.12-.42.84-.384 1.21.544.07.16.47.84.246.93-.02 0 .033-.02 0 0zm2.64-1.086c-.26.106-.52.23-.78.335-.472-1.135-1.14-1.555.14-2.1 1.295-.54 1.12.248 1.61 1.385-.333.123-.647.263-.962.386 0 0 .318-.122 0 0zm2.68-1.154c-.51-1.14-1.19-1.524.07-2.1 1.26-.58 1.12.21 1.65 1.33-.56.243-1.14.51-1.714.77 0 0 .574-.26 0 0zm5.13-2.43c-.56.276-1.12.56-1.694.84-.545-1.124-1.244-1.49.016-2.12 1.066-.525.805-.456 1.26.42 0 .016.42.86.42.86-.02 0 0 0 0 0zm3.34-1.75c-.54.294-1.1.59-1.66.89-.58-1.104-1.293-1.45-.05-2.118 1.05-.56.787-.49 1.276.387 0 0 .456.824.438.84-.016 0 0 0 0 0zm2.087-1.16c-.12.087-.28.157-.42.23-.61-1.088-1.33-1.42-.12-2.103 1.207-.7 1.137.102 1.75 1.17-.402.23-.806.477-1.21.7 0 0 .404-.223 0 0zm3.957-2.36c-.386.19-.72.487-1.103.68-.646-1.05-1.364-1.365-.19-2.1 1.19-.735 1.14.07 1.8 1.103-.172.103-.35.21-.505.314 0 0 .156-.11 0 0zm3.655-2.36c-.523.35-1.05.683-1.57 1.033-.67-1.037-1.42-1.33-.25-2.1.998-.67.735-.56 1.295.26.02.033.545.785.527.803 0 .017 0 0 0 0zm2.925-2.01c-.457.312-.895.644-1.35.942-.7-1.014-1.453-1.276-.316-2.082.98-.7.734-.58 1.312.227.21.296.7.645.35.91 0 0 .07-.054 0 0zm3.183-2.365c-.524.268-.98.758-1.47 1.108-.734-.995-1.486-1.24-.384-2.08.96-.72.717-.61 1.312.19.07.07.648.716.54.787 0 0 .02 0 0 0zm2.75-2.15c-.35.35-.823.667-1.208.965-.77-.963-1.54-1.19-.44-2.065 1.086-.877 1.14-.07 1.926.873l-.28.228c-.015 0 .09-.07 0 0zm1.714-1.42c-.786-.94-1.574-1.133-.51-2.043 1.07-.91 1.14-.103 1.945.824-.472.4-.944.82-1.434 1.224 0 0 .49-.42 0 0zm3.395-2.953c-.155.16-.365.334-.522.475-.822-.93-1.61-1.104-.576-2.03 1.03-.945 1.137-.14 1.977.77-.297.26-.577.524-.875.786 0 0 .3-.26 0 0zm2.68-2.5c-.14.14-.28.28-.42.403-.857-.894-1.627-1.05-.63-2.014.997-.966 1.12-.178 1.995.7-.314.313-.63.61-.945.91-.034.05.315-.3 0 0zm2.73-2.694c-.105.17-.315.31-.455.47-.875-.877-1.66-1-.683-1.998.98-1 1.12-.21 2.013.645-.3.28-.595.578-.875.876 0 0 .28-.3 0 0zm3.15-3.33c-.35.334-.647.72-.98 1.07-.91-.84-1.696-.945-.752-1.978.946-1.035 1.104-.248 2.03.574-.105.11-.21.215-.296.337-.02 0 .087-.123 0 0zm2.626-2.99c-.3.455-.734.84-1.084 1.26-.93-.805-1.73-.89-.82-1.94.79-.91.56-.736 1.33-.106.28.23.86.457.58.79 0 0 .05-.07 0 0zm2.12-2.57c-.123.07-1.26 1.56-.753.926-.96-.79-1.75-.84-.873-1.928s1.1-.316 2.063.454c-.16.19-.297.366-.437.54 0 0 .14-.175 0 0zm2.73-3.52c-.368.51-.754 1-1.14 1.506-.978-.756-1.784-.79-.927-1.89 1.35-1.77 1.243.994 2.065.38 0 .02.018 0 0 0zm2.222-3.06c-.37.503-.72 1.03-1.085 1.54-1-.72-1.802-.74-1-1.877.808-1.12 1.106-.38 2.085.334 0 .016 0 0 0 0zm1.61-2.366c0 .177-.455.685-.543.808-1.018-.7-1.82-.664-1.05-1.836.77-1.155 1.065-.42 2.1.262l-.51.77s.173-.266 0 0zm2.328-3.62c-.28.4-.524.84-.788 1.26-1.05-.666-1.84-.613-1.104-1.804.737-1.19 1.05-.455 2.1.193-.07.122-.14.244-.21.35 0 0 .07-.106 0 0zm1.208-1.996s-1.57-.754-1.64-.93c1.07-1.8.91-1.627 2.575-.664-.316.525-.613 1.07-.927 1.592 0 0 .314-.543 0 0zm2.68-4.78c0 .367-.663 1.225-.82 1.52-1.082-.594-1.87-.506-1.205-1.73.577-1.05.384-.84 1.276-.385.21.12.91.313.753.594 0 0 .016-.054 0 0zm1.648-3.22c-.23.47-.477.928-.7 1.4-1.107-.56-1.89-.44-1.26-1.7.63-1.24.993-.54 2.113 0-.07.107-.1.21-.154.3 0 0 .054-.09 0 0zm.96-1.996c-1.12-.522-1.908-.383-1.31-1.643.574-1.26.98-.577 2.115-.07-.26.58-.543 1.155-.804 1.715 0 0 .26-.56 0 0zm1.75-3.865c-.35.7-.788.175-1.47-.123-.98-.42.4-1.853.4-1.853.54.226 1.083.454 1.61.663-.176.438-.35.875-.54 1.313 0 0 .19-.44 0 0zm1.42-3.45c-.055.124-.106.264-.16.386-1.156-.454-1.927-.26-1.42-1.556s.946-.63 2.1-.193l-.524 1.367s.175-.454 0 0zm1.8-4.9c-.228.58-.4 1.174-.61 1.77-1.176-.42-1.928-.21-1.47-1.52.63-1.79 1.835.24 2.08-.25 0 0 .02-.017 0 0zm1.12-3.394c-.16.49-.28 1.017-.474 1.506-.035.09-1.697-.316-1.82-.508.228-.72.123-1.91 1.03-1.63.37.107 1.4.177 1.26.63 0 0 .02-.07 0 0zm1.12-3.78c-.21.544-.334 1.174-.49 1.734-1.19-.35-1.94-.09-1.56-1.42.333-1.153.193-.91 1.173-.645.106.033.928.156.876.332-.02.016 0-.018 0 0zm.593-2.256c-.052.05-.07.28-.09.367-1.19-.312-1.94-.02-1.59-1.38.35-1.366.858-.753 2.065-.456-.14.49-.263.98-.385 1.47 0 0 .124-.505 0 0zm1.12-4.76l-.313 1.436c-1.207-.28-1.94.035-1.645-1.33.26-1.17.14-.927 1.12-.717.593.14.96-.02.84.61 0 0 .015-.14 0 0zm.806-4.113c-.105.615-.23 1.24-.35 1.857-1.21-.23-1.94.105-1.68-1.276.244-1.364.82-.804 2.03-.58-.12.63 0 0 0 0zm.49-2.972c.016.28-.16 1.05-.176 1.104-1.224-.19-1.94.158-1.714-1.225.21-1.38.79-.82 2.013-.645-.056.26-.09.526-.127.77 0 0 .036-.244 0 0zm.594-4.496c-.09.61-.16 1.24-.23 1.87-1.222-.16-1.92.23-1.764-1.17.176-1.38.79-.86 1.996-.7 0 .016 0 0 0 0zm.37-3.73c0 .61-.105 1.24-.175 1.84-1.23-.12-1.928.28-1.788-1.104.107-1.19.02-.928 1.018-.84.055-.017.965.02.947.106 0 0 0-.02 0 0zm.245-3.5c0 .526-.07 1.05-.09 1.56-1.247-.09-1.91.33-1.82-1.05.07-1.19 0-.928.993-.876.474.035.93-.175.91.37 0 .016 0-.107 0 0zm.102-2.203c-.364-.02-1.624.155-1.89-.07.07-2.1.02-1.856 1.945-1.82l-.054 1.89s.02-.63 0 0zm.07-3.78c-.574 0-1.17 0-1.75-.02-.015 0-.714-1.854.35-1.87 1.82 0 1.42-.07 1.4 1.89 0 0 0-.56 0 0z"/><path opacity=".75" fill="#535236" d="M68.757 169.418l19.058 10.604v-72.835c0-.91.473-7.91-.385-7.91H68.565c.07 23.048.123 46.113.192 69.16v.98zm31.395 16.73c6.545 3.64 13.09 7.28 19.635 10.937V98.98c-5.985.087-11.97.192-17.938.28-1.12.018-1.68-.385-1.68.718v45.675c-.02 13.492-.02 27-.02 40.494zm63.946-6.126c5.32-2.976 10.657-5.933 15.978-8.907.612-.35 3.063-1.173 3.063-1.995 0-1.383 0-2.782.01-4.165.03-14.28.09-28.578.12-42.857.01-7.613.03-15.225.07-22.82h-18.02c-1.24 0-1.21-.192-1.21.963v47.66c-.02 10.71-.02 21.42-.02 32.13zm-31.99 17.063c5.337-2.976 10.675-5.933 15.994-8.907.473-.263 3.64-1.575 3.64-2.152V99.873c0-1.085-.98-.613-1.977-.63-5.88-.088-11.778-.175-17.676-.28v72.38c.01 8.593.01 17.167.01 25.742zM79.92 71.837h-9.065c-.157 0-2.607-.018-2.607.018v22.61c0 .647-.228.98.438.98h4.882c.105 0 .053-7.455.053-8.26 0-.28 7.2-.105 8.26-.245 6.01-.752 8.93-8.925 4.27-13.195-1.66-1.505-4.04-1.908-6.23-1.908 0 0 2.73 0 0 0zm2.048 10.116c-1.698 1.435-5.495.805-7.56.805-.928 0-.735-.052-.735-.98v-4.48c0-.7-.315-1.347.455-1.347h3.903c1.21 0 2.49-.08 3.56.56 1.68 1 1.91 4.17.39 5.45-.65.54.65-.54 0 0z"/><path opacity=".75" fill="#535236" d="M109.428 92.155c0-3.115.192-6.895-3.343-8.067 3.167-.857 4.235-3.99 3.78-7-.438-2.853-2.503-4.48-5.233-5.005-3.237-.63-6.86-.263-10.15-.263-1.12 0-5.617-.752-5.617.613v22.802c0 .473 2.502.21 2.94.21.787 0 2.467.49 2.467-.472v-5.285c0-.525-.368-3.027 0-3.413.455-.472 3.92 0 4.62 0 1.942 0 4.217-.123 4.76 2.188.49 2.1-.105 4.393.63 6.422.42 1.173 3.657.543 4.76.543.315 0 1.382.192 1.382-.193.018-.98-.944-1.82-.996-3.08 0-.035.052 1.4 0 0zm-5.81-10.762c-1.82 1.417-5.828.752-7.98.752-.945 0-1.365.333-1.365-.647v-4.252c0-.91-.315-1.348.63-1.348h4.235c1.172 0 2.485-.123 3.605.28 1.977.717 2.625 3.867.875 5.215-.648.49.647-.508 0 0z"/><path opacity=".75" fill="#535236" d="M122.868 71.208c-7.385 0-12.792 4.953-12.792 12.442 0 7.49 5.407 12.442 12.792 12.442 7.384 0 12.81-4.97 12.81-12.442s-5.444-12.442-12.81-12.442c-3.92 0 3.902 0 0 0zm5.425 18.497c-2.625 2.94-8.19 2.958-10.798 0-2.712-3.027-2.73-9.083 0-12.11 2.607-2.958 8.208-2.94 10.798.017 2.747 3.01 2.73 9.066 0 12.093-1.277 1.435 1.295-1.435 0 0zm27.65 5.74v-4.13c0-.525-1.82-.245-2.24-.245h-10.868c-.962 0-1.26.298-1.26-.7v-5.18c0-.402 7.175-.192 7.944-.192h4.23c.82 0 .37-2.433.37-3.115 0-1.208-.2-.91-1.37-.91h-10.37c-1.3 0-.81-.805-.81-2.048 0-.438-.25-2.992.19-2.992h12.81c1.68 0 .452-4.113.573-4.113h-16.5c-1.24 0-2.36-.56-2.36.788v22.82m33.32-5.618c-1.648-5.67-3.31-11.357-4.954-17.027-.21-.718-.07-.928-.823-.928h-5.495c-.37 0-1.93-.263-1.93.21v22.96c0 1.19 5.076.245 5.076.315V76.422l3.15 11.165 1.835 6.528c.524 1.855.857 1.365 2.905 1.365 1.523 0 2.836.63 3.256-.893.612-2.17 1.208-4.357 1.82-6.527 1.085-3.868 2.15-7.752 3.237-11.62v17.85c0 .7-.28 1.19.473 1.19.77 0 4.11.49 4.6 0 .17-.175 0-1.47 0-1.697v-4.708c0-1.4.15-17.203-.14-17.203-.86 0-7.78-.402-7.9.07-.77 2.66-1.52 5.32-2.29 7.998-.945 3.255-1.89 6.562-2.836 9.87z"/></svg>