<svg xmlns="http://www.w3.org/2000/svg" width="252" height="252" viewBox="0 0 252 252"><path opacity=".75" fill="#535236" d="M125.475-.21c-47.897 0-92.627 28.263-113.383 71.4-21.07 43.768-14.42 97.142 16.555 134.505 30.888 37.258 81.725 53.795 128.607 41.545 45.955-12.006 82.18-50.33 91.524-96.915 9.52-47.443-9.78-97.143-48.632-125.913C178.623 8.487 152.25-.21 125.476-.21c-69.336 0 69.335 0 0 0zm122.01 120.855c.017.612.052 1.225.052 1.837-1.925.053-1.872.28-1.94-1.82.155-.14 1.887-.052 1.887-.017 0 .07 0-.018 0 0zm-.105-1.942c-1.242.07-1.854.56-1.942-.823-.088-1.4.578-.98 1.82-1.067.053.63.088 1.26.122 1.89 0 0-.034-.63 0 0zm-.402-5.355c.052.525.104 1.05.14 1.592-1.225.105-1.838.63-1.96-.77-.104-1.19-.14-.927.858-1.015.437-.052.91-.315.962.193 0 0-.018-.105 0 0zm-.473-4.043l.157 1.19c0 .175.053.367.07.56.053.105-1.645.472-1.855.35-.262-2.083-.28-1.872 1.628-2.1 0 .017 0 0 0 0zm-.56-3.693c.104.613.192 1.19.28 1.803-1.226.175-1.786.735-2.013-.647-.193-1.19-.193-.91.787-1.067.1 0 .92-.21.94-.08 0 0 0-.01 0 0zm-.666-3.71c0 .035.52 1.768.19 1.82-1.84.333-1.68.472-2.07-1.522.14-.158 1.85-.35 1.87-.298 0 0 0-.017 0 0zm-.56-2.677c0 .21.14.612.15.77-1.21.262-1.75.84-2.05-.508-.3-1.365.43-1.05 1.62-1.33.1.35.17.7.26 1.068 0 0-.09-.368 0 0zm-.9-3.78c0 .018.33 1.313.21.858-1.21.297-1.72.91-2.07-.455-.35-1.348.4-1.068 1.59-1.383l.26.98s-.09-.333 0 0zm-1.28-4.603c.26.542.35 1.208.52 1.803-1.19.333-1.68.962-2.09-.385-.6-2.1 1.56-.42 1.56-1.418 0 .018 0 0 0 0zm-1.09-3.447c.24.49.36 1.103.52 1.627-1.18.368-1.67 1.015-2.09-.315-.37-1.138-.34-.875.61-1.172.26-.105.84-.472.94-.14.01 0-.02-.053 0 0zm-1.14-3.325c0 .438.31.928.47 1.365-1.18.402-1.63 1.05-2.1-.263-.41-1.12-.37-.857.57-1.208.61-.21.82-.542 1.05.106 0 .017-.05-.14 0 0zm-29.73 117.653c-1.16-.228-3.68-1.277-4.76-.945-1.16.367-2.66 2.607-3.56 3.482-.13-1.662-.27-3.324-.39-4.987-.06-.647-3.47-2.17-4.12-2.572 1-.43 3.57-1.03 4.18-1.87.67-.91.51-3.53.68-4.69.84.88 2.28 3.17 3.38 3.54 1.12.37 3.66-.61 4.85-.8-.6 1.09-2.35 3.15-2.38 4.36-.04 1.21 1.57 3.36 2.1 4.5zm5.43-135.083c-1.67-.158-3.33-.333-4.99-.49-.65-.07-2.75 3.01-3.26 3.57-.26-1.085-.37-3.658-1.09-4.463-.74-.805-3.43-1.137-4.5-1.487.99-.665 3.51-1.663 4.07-2.695.56-1.033.05-3.71.07-4.917.96.787 2.67 2.87 3.86 3.132s3.58-.945 4.79-1.26c-.42 1.085-1.91 3.395-1.77 4.515.14 1.19 2.08 3.08 2.78 4.095zm16.53 39.288c-1.45-.805-2.89-1.593-4.34-2.398-.56-.315-3.71 1.715-4.38 2.03.16-1.067 1.07-3.553.68-4.533-.4-1.05-2.72-2.345-3.59-3.097 1.19-.228 3.88-.193 4.79-.928s1.49-3.395 1.96-4.498c.59 1.103 1.38 3.658 2.38 4.357 1 .7 3.69.51 4.92.69-.82.84-3.06 2.38-3.37 3.48-.34 1.19.7 3.68.94 4.9zm-6.31-20.458c-1.58-.49-3.17-.998-4.75-1.488-.62-.192-3.29 2.415-3.89 2.87-.05-1.085.35-3.675-.21-4.567-.61-.963-3.14-1.768-4.15-2.345 1.12-.455 3.78-.945 4.53-1.837.75-.893.77-3.623 1.01-4.795.8.962 2.08 3.325 3.2 3.815 1.12.473 3.71-.228 4.95-.315-.63.998-2.54 2.94-2.63 4.077-.09 1.19 1.42 3.43 1.91 4.585zm-16.13 95.813c.91-.648 3.27-1.68 3.74-2.643.49-.98-.2-3.605-.27-4.726.99.7 2.83 2.643 4.01 2.8 1.17.158 3.48-1.295 4.63-1.715-.39 1.18-1.7 3.53-1.51 4.72.19 1.19 2.19 2.99 2.92 4.01-1.18 0-3.87-.55-4.87 0-1.05.59-2.08 3.08-2.79 4.11l-1.37-4.83c-.18-.63-3.82-1.47-4.54-1.73zm9.04-17.517c.77-.806 2.89-2.293 3.17-3.326.28-1.05-.9-3.482-1.19-4.584 1.1.473 3.29 2.012 4.46 1.94 1.17-.086 3.17-1.958 4.2-2.59-.14 1.244-.96 3.8-.54 4.937.43 1.137 2.73 2.502 3.65 3.342-1.16.23-3.9.23-4.76.963-.93.787-1.44 3.447-1.91 4.586-.77-1.488-1.54-2.976-2.3-4.463-.3-.59-4.05-.68-4.8-.8zm13.4-15.226c-1.05-1.295-2.1-2.607-3.15-3.902-.4-.508-4.08.14-4.83.175.59-.945 2.36-2.817 2.43-3.902.07-1.1-1.57-3.23-2.06-4.27 1.17.25 3.64 1.33 4.78 1.02 1.14-.31 2.7-2.55 3.57-3.37.12 1.24-.19 3.92.46 4.96.65 1.02 3.2 1.91 4.25 2.54-1.07.46-3.78 1-4.46 1.89-.77.97-.75 3.68-.98 4.89zm2.17-21.315c-1.3-1.067-2.59-2.135-3.87-3.202-.51-.42-3.98.945-4.71 1.138.37-1.01 1.77-3.27 1.59-4.3-.19-1.12-2.18-2.83-2.9-3.76 1.21.02 3.84.58 4.89.04 1.05-.54 2.14-3.02 2.84-4.02.37 1.19.61 3.87 1.45 4.74s3.52 1.25 4.69 1.67c-.96.67-3.5 1.73-4 2.73-.56 1.1.01 3.76.03 4.99zm4.09-47.093c.14.49.49 1.243.68 1.75-1.16.438-1.6 1.103-2.1-.192-.44-1.12-.39-.84.54-1.225 0 .017.86-.35.87-.333 0 .018 0 0 0 0zm-.72-1.75c-1.14.473-1.56 1.155-2.1-.123-.55-1.28.22-1.12 1.36-1.61l.73 1.73s-.25-.58 0 0zm-1.86-4.2c.1.246.22.49.33.736-1.12.507-1.52 1.208-2.12-.052s.19-1.12 1.31-1.663c.16.332.31.665.47.98 0 .017-.16-.315 0 0zm-1.3-2.677c-1.11.542-1.49 1.26-2.12 0-.63-1.242.16-1.137 1.26-1.697.3.577.58 1.137.86 1.697 0 0-.28-.56 0 0zm-2.05-3.955c0 .123.28.508.31.595-1.09.578-1.44 1.295-2.1.07-.67-1.225.12-1.137 1.21-1.732.19.35.38.7.57 1.067 0 0-.2-.35 0 0zm-2.17-3.833c.14.245.28.508.44.753.21.35.24.35-.21.612-1.47.84-1.25.63-2.16-.91.12-.315 1.31-.77 1.63-.962.08.175.19.332.29.507 0 0-.108-.175 0 0zm-1.27-2.117c-1.05.647-1.37 1.382-2.1.21-.74-1.172.05-1.138 1.1-1.803.31.508.66 1.05.99 1.593 0 0-.33-.542 0 0zm-3.08-4.725c.38.385.75 1.12 1.03 1.54-1.04.683-1.32 1.417-2.1.263-.67-.998-.56-.735.26-1.313.05-.017.75-.56.8-.49 0 0 0-.018 0 0zm-1.96-2.8c.21.438.59.822.86 1.208-1.02.717-1.28 1.47-2.09.333-.81-1.138-.02-1.138.98-1.873.09.122.17.227.24.332 0 .017-.07-.105 0 0zm-2.05-2.747c.14.28.52.7.68.893-1 .76-1.23 1.51-2.07.41-.85-1.1-.05-1.14.93-1.89.14.19.3.4.46.6 0 .02-.16-.19 0 0zm-2.73-3.43c.29.384.59.77.93 1.137.25.315-.89 1.4-1.29 1.4-.47-.595-1.52-1.155-.8-1.75.21-.175.97-1.033 1.18-.788 0 0-.03-.035 0 0zm-1.54-1.838c.07.087.15.175.23.262-.94.805-1.13 1.575-2.04.525-.91-1.05-.12-1.138.81-1.943.33.386.67.77 1.02 1.156 0 0-.35-.385 0 0zm-3.56-3.955c.456.438.86.928 1.28 1.382-.91.823-1.086 1.61-2.03.578-.945-.998-.157-1.103.752-1.96 0 .018 0 0 0 0zm-2.624-2.712c.44.438.875.893 1.33 1.348-.893.86-1.03 1.65-2.013.65-.98-1-.19-1.12.684-1.99.103.12 0 0 0 0zm-2.71-2.643c.455.438.91.857 1.365 1.313 0 .123-.597.612-.667.683-.7.717-.457.857-1.33.035-1-.98-.23-1.12.63-2.03.313.32 0 0 0 0zm-2.8-2.538c.472.42.944.84 1.4 1.26-.84.91-.93 1.697-1.96.77-1.03-.927-.26-1.102.56-2.03.3.246 0 0 0 0zm-2.85-2.467c.49.402.97.805 1.44 1.225-.8.945-.87 1.732-1.94.822-1.07-.91-.3-1.102.51-2.047.09.07 0 0 0 0zm-6.35 18.97c-.82 1.383-1.62 2.765-2.45 4.147-.45-1.015-1.05-3.535-1.9-4.182-.87-.665-3.58-.455-4.7-.613.86-.84 3.12-2.31 3.48-3.43.35-1.12-.66-3.658-.87-4.848 1.46.77 2.89 1.52 4.34 2.29.6.31 3.8-1.79 4.5-2.14-.21 1.15-1.224 3.71-.87 4.78.38 1.15 2.66 2.6 3.55 3.48-1.68.17-3.36.35-5.06.51zm-2.92 166.145c-1.08-.46-3.34-1.96-4.48-1.84-1.22.12-3.13 1.98-4.18 2.66.21-1.63.42-3.256.61-4.884.09-.63-2.99-2.818-3.53-3.31 1.05-.243 3.71-.313 4.48-1.03.82-.772 1.18-3.397 1.54-4.498.65 1.014 1.63 3.534 2.65 4.11s3.69.105 4.9.14c-.79.964-2.89 2.644-3.16 3.833-.28 1.19.89 3.61 1.19 4.82zm-68.47.592c-22.45-12.81-44.92-25.62-67.37-38.43-1.43-.805-4.08-1.436-4.09-3.238-.02-4.234-.02-8.452-.035-12.67-.05-16.258-.105-32.515-.14-48.772l-.11-37.222c0-2.764.33-5.407 1.364-7.997 3.22-8.103 10.73-9.712 18.64-9.695 34.79.104 69.6.63 104.39.646 8.522 0 15.77 4.41 17.814 12.95.505 2.1.42 4.13.42 6.265.03 13.77.085 27.54.12 41.31.053 15.49.09 30.97.14 46.48 0 3.01.02 6.03.036 9.05 0 .82-6.758 3.95-7.457 4.35-21.27 12.3-42.49 24.62-63.72 36.96zM55.44 37.622c1.085.458 3.343 1.96 4.48 1.84 1.225-.123 3.133-1.995 4.2-2.66-.21 1.627-.42 3.27-.613 4.9-.087.63 2.975 2.8 3.518 3.307-1.05.24-3.692.31-4.462 1.03-.822.77-1.172 3.39-1.558 4.5-.647-1.02-1.61-3.54-2.643-4.12-1.015-.58-3.71-.11-4.917-.14.805-.96 2.905-2.65 3.185-3.84.28-1.19-.893-3.62-1.19-4.83zm18.935-11.67c.98.648 2.888 2.556 4.025 2.66 1.225.124 3.465-1.33 4.638-1.784-.525 1.557-1.05 3.097-1.575 4.655-.192.595 2.38 3.325 2.817 3.92-1.085.035-3.692-.385-4.567.158-.962.6-1.802 3.12-2.38 4.13-.438-1.12-.91-3.78-1.785-4.55-.893-.77-3.605-.82-4.777-1.08.97-.79 3.35-2.05 3.84-3.15.51-1.12-.17-3.71-.23-4.95zm98.314 4.76c1.19.368 3.55 1.66 4.74 1.45s2.96-2.24 3.95-2.972c.01 1.172-.49 3.885.07 4.865.59 1.05 3.11 2.047 4.16 2.73-1.61.472-3.21.962-4.82 1.435-.62.192-1.42 3.833-1.67 4.55-.65-.91-1.72-3.272-2.68-3.728-.98-.473-3.59.228-4.71.297.68-1 2.59-2.87 2.73-4.03.12-1.17-1.37-3.47-1.8-4.6zm27.93-1.35c.29.248.91.56 1.06.84.52.42.28.51-.18 1.07-.88 1.067-.98.42-2.05-.42-.04-.332.93-1.19 1.15-1.487 0 .017 0 0 0 0zm-3.03-2.272c.51.368 1.01.752 1.52 1.138-.76.98-.77 1.785-1.89.945-1.12-.858-.35-1.103.36-2.083.33.227 0 0 0 0zm-3.08-2.205c.52.35 1.03.718 1.54 1.085-.72 1.015-.72 1.802-1.86.997-1.14-.787-.39-1.05.31-2.082.35.245 0 0 0 0zm-3.13-2.082c.52.332 1.05.682 1.57 1.032-.69 1.033-.65 1.82-1.82 1.067-1.17-.77-.44-1.067.24-2.1.36.228 0 0 0 0zm-3.22-1.995c.54.333 1.08.647 1.61.98-.65 1.05-.6 1.837-1.79 1.12-1.19-.736-.46-1.05.17-2.1.54.315 0 0 0 0zm-3.28-1.908c.54.315 1.1.613 1.64.945-.62 1.067-.55 1.855-1.75 1.172-1.21-.7-.49-1.032.1-2.117.35.192 0 0 0 0zm-3.33-1.785c.56.28 1.12.577 1.66.892-.58 1.085-.49 1.873-1.72 1.225-1.23-.665-.51-1.032.05-2.117.07.035 0 0 0 0zm-3.38-1.698c.56.28 1.14.542 1.7.84-.56 1.103-.42 1.89-1.68 1.278-1.26-.613-.56-.997-.02-2.118.45.228 0 0 0 0zm-3.43-1.592l1.71.787c-.53 1.12-.37 1.908-1.65 1.33-1.26-.577-.58-.98-.07-2.117zm-3.49-1.47c.57.245 1.17.473 1.75.717-.49 1.138-.32 1.908-1.6 1.383-1.3-.525-.63-.945-.16-2.1.57.245 0 0 0 0zm-3.52-1.365c.59.227 1.17.438 1.77.665-.46 1.155-.25 1.925-1.56 1.435s-.65-.945-.21-2.1c.58.21 0 0 0 0zm-3.57-1.26c.59.192 1.19.402 1.78.612-.41 1.173-.2 1.925-1.51 1.47-1.31-.437-.68-.91-.28-2.082.17.052 0 0 0 0zm-3.61-1.138c.61.175 1.2.368 1.8.56-.37 1.173-.13 1.943-1.46 1.522-1.33-.42-.7-.91-.35-2.082.61.176 0 0 0 0zm-3.64-1.032c.61.175 1.2.333 1.82.507-.34 1.19-.07 1.942-1.42 1.575-1.33-.385-.72-.892-.4-2.082.03 0 0 0 0 0zm-3.66-.928c.59.14 1.19.28 1.78.438.17.245-.28 1.365-.37 1.715-.06.228-1.87-.193-1.81-.438.12-.577.25-1.137.39-1.715zm4.48 17.22c1.1-1.224 2.2-2.467 3.31-3.69.24 1.154.26 3.9.99 4.776.79.91 3.45 1.417 4.59 1.89-1.47.788-2.96 1.557-4.43 2.345-.58.298-.63 4.042-.74 4.795-.81-.77-2.31-2.887-3.36-3.15-1.07-.28-3.48.928-4.57 1.225.45-1.085 2.01-3.342 1.91-4.48-.13-1.208-1.96-3.132-2.63-4.183 1.63.14 3.27.298 4.92.473zM149.59 5.83c.613.123 1.242.262 1.855.385-.263 1.208.053 1.942-1.313 1.645-1.382-.28-.786-.823-.542-2.03zm-3.728-.683c.63.105 1.243.228 1.854.333-.227 1.208.123 1.942-1.26 1.697-1.364-.245-.804-.805-.594-2.03.542.087 0 0 0 0zm-3.727-.578c.63.08 1.242.17 1.873.28-.193 1.22.175 1.92-1.208 1.73-1.382-.21-.84-.79-.665-2.02.613.09 0 0 0 0zm-3.762-.46l1.872.21c-.14 1.22.228 1.92-1.155 1.77-1.365-.14-.84-.74-.717-1.98.63.07 0 0 0 0zm.997 11.16c.455 1.06 1.015 3.78 1.907 4.46.963.75 3.676.7 4.9.94-1.295 1.05-2.607 2.1-3.902 3.16-.508.4.175 4.09.21 4.85-.945-.6-2.835-2.37-3.92-2.42-1.103-.05-3.237 1.59-4.253 2.08.245-1.18 1.33-3.64.998-4.78-.315-1.14-2.556-2.7-3.396-3.57 1.243-.13 3.92.17 4.935-.48 1.01-.67 1.89-3.21 2.52-4.27zm-4.76-11.5l1.89.16c-.105 1.22.297 1.92-1.103 1.8-1.38-.12-.875-.72-.788-1.96.52.03 0 0 0 0zm-3.762-.23c.63.01 1.26.05 1.89.08-.07 1.24.35 1.9-1.032 1.83-1.42-.05-.93-.68-.858-1.93.314.02 0 0 0 0zm-3.78-.11c.63 0 1.26.02 1.89.03-.036 1.24.42 1.89-.98 1.87-1.4-.04-.928-.67-.91-1.91.63.02 0 0 0 0zm-3.448 0c.63 0 1.242-.02 1.873-.02 0 1.26.42 2.06-1.068 1.89-.647-.07-.805.24-.805-.47 0-.11-.035-1.4 0-1.4zm-3.78.12c.63 0 1.243-.05 1.873-.07.035 1.24.525 1.87-.875 1.92-1.19.05-.927.08-.98-.91 0-.04-.07-.95-.018-.95zm-3.657.22c.577 0 1.172-.09 1.75-.12.07 1.24.577 1.85-.823 1.94-1.19.08-.927.12-.998-.88-.017-.23-.227-.93.07-.95.018 0-.035 0 0 0zm-3.256.28c.28 0 .578-.09.858-.09.175-.04.367-.09.385.1.105 1.21.595 1.7-.77 1.84-1.382.14-.998-.56-1.12-1.79.21-.02.437-.06.647-.07 0 0-.21.01 0 0zm2.573 15.19c.542-1.56 1.103-3.11 1.645-4.67.647.96 1.715 3.5 2.73 4.01 1.085.54 3.728-.04 4.97-.04-1.068 1.29-2.135 2.57-3.22 3.86-.42.51.945 3.97 1.138 4.71-1.05-.38-3.238-1.77-4.305-1.61-1.085.16-2.87 2.21-3.763 2.91.018-1.21.595-3.84.07-4.89-.525-1.05-3.028-2.14-4.008-2.84 1.576-.49 3.168-.98 4.743-1.46zm-6.79-14.68l1.172-.16c.175-.04.333-.04.508-.07.035 0 .123.91.14.94.123 1 .385.89-.805 1.05-1.19.16-.91.17-1.05-.81-.052-.26-.315-.91.035-.96 0 0-.07.01 0 0zm-3.71.58c.542 0 1.138-.19 1.663-.26.192 1.22.752 1.78-.63 2.01-1.173.19-.91.21-1.068-.77-.07-.33-.35-.91.035-.98 0 0-.07 0 0 0zm-1.89 24.2c-1.067-.18-3.552-1.11-4.515-.74-1.068.4-2.363 2.71-3.133 3.6-.21-1.19-.157-3.89-.875-4.82-.717-.93-3.377-1.51-4.48-2 1.103-.6 3.675-1.37 4.375-2.37.7-1 .542-3.68.735-4.92.84.82 2.345 3.08 3.448 3.39 1.172.35 3.64-.662 4.882-.872-.805 1.44-1.61 2.87-2.432 4.29-.315.58 1.68 3.747 1.995 4.41zm-1.995-23.48c.42 0 1.417-.28 1.82-.35.228 1.22.805 1.76-.56 2.03-1.172.22-.91.22-1.103-.76-.017-.04-.245-.91-.157-.93 0 0-.017 0 0 0zm-3.622.8c.577-.14 1.155-.27 1.75-.41.262 1.21.857 1.73-.508 2.05-1.172.26-.893.26-1.12-.72-.052-.16-.35-.88-.122-.93 0-.02-.035 0 0 0zm-3.168.79c.385-.13.875-.23 1.225-.32.298 1.21.91 1.71-.438 2.06-1.347.35-1.067-.4-1.382-1.59.192-.06.385-.11.595-.16 0 0-.21.05 0 0zM90.598 8.5c.438-.09.875-.266 1.313-.39.34 1.19.97 1.68-.36 2.085-1.33.4-1.08-.37-1.43-1.54.14-.07.32-.108.49-.16 0 0-.17.052 0 0zm-3.553 1.12c.42-.14.823-.265 1.243-.404.385 1.18 1.015 1.65-.315 2.09s-1.085-.33-1.488-1.483c.193-.07.368-.14.56-.194 0 0-.192.05 0 0zm-3.815 1.33c.49-.16.98-.37 1.47-.544.42 1.18 1.067 1.63-.245 2.1-1.313.49-1.103-.28-1.522-1.43.087-.05.192-.09.297-.12 0 0-.105.04 0 0zm-3.29 1.275c.175 0 1.803-.72 1.225-.49.455 1.152 1.12 1.59-.175 2.1-1.295.522-1.103-.265-1.575-1.4.157-.07.333-.14.525-.21 0 0-.192.07 0 0zm-3.36 1.414c.245-.14 1.208-.53 1.085-.48.49 1.14 1.172 1.56-.105 2.1-1.277.56-1.12-.23-1.627-1.35.21-.09.42-.19.647-.28 0 0-.227.09 0 0zm-3.99 1.84c.49 0 1.225-.58 1.627-.77.525 1.12 1.208 1.5-.052 2.12-1.085.5-.823.45-1.243-.46-.07-.14-.525-.81-.332-.9 0 0-.035 0 0 0zm-2.887 1.43c.315-.21.945-.48 1.103-.56.56 1.1 1.26 1.47.017 2.11-1.242.63-1.137-.16-1.697-1.24.19-.13.384-.21.577-.32 0 0-.193.1 0 0zm-3.71 1.99c.438 0 1.137-.63 1.47-.81.595 1.08 1.313 1.43.087 2.1-1.05.57-.787.5-1.277-.37-.175-.3-.63-.74-.28-.93 0 0-.07.03 0 0zm-2.748 1.6c.297-.2.612-.37.91-.55.63 1.07 1.348 1.4.158 2.1-1.208.72-1.138-.09-1.768-1.14.227-.14.455-.28.7-.42.018-.02-.245.14 0 0zm-3.868 2.4c.49-.35 1.033-.67 1.558-.98.647 1.05 1.382 1.35.21 2.1-1.015.65-.752.54-1.295-.3-.053-.07-.578-.77-.473-.83 0-.01-.017 0 0 0zm-3.15 2.1c.474-.32.946-.63 1.418-.96.28-.16.91 1.12 1.085 1.38 0 0-1.138 1.62-1.732.75-.105-.13-.858-1.11-.77-1.18 0 0-.018 0 0 0zm-2.52 1.78c.176-.18.44-.32.63-.46.193-.06.21-.32.37-.09.716 1 1.364 1.15.26 1.98-1.136.82-1.136.01-1.87-.98.208-.16.418-.32.61-.46 0 0-.192.14 0 0zm-2.1 1.57c.752.98 1.505 1.2.402 2.06-1.11.85-1.14.05-1.91-.91.49-.39 1-.77 1.5-1.16 0 0-.51.38 0 0zM33.705 187.84c1.663.156 3.325.332 4.987.49.647.07 2.748-3.01 3.255-3.57.263 1.084.368 3.656 1.103 4.462s3.43 1.138 4.498 1.487c-.998.66-3.5 1.66-4.06 2.69-.577 1.03-.07 3.72-.087 4.93-.96-.79-2.67-2.87-3.85-3.14-1.19-.27-3.58.94-4.79 1.26.44-1.09 1.93-3.4 1.79-4.52-.17-1.21-2.13-3.08-2.83-4.11zM36.12 80.57c-.998-.682-2.835-2.642-4.008-2.782-1.172-.158-3.482 1.295-4.62 1.715.367-1.19 1.697-3.535 1.505-4.725s-2.188-2.992-2.922-3.99c1.172 0 3.867.542 4.847 0 1.05-.595 2.083-3.098 2.783-4.13.455 1.61.927 3.22 1.382 4.83.175.613 3.815 1.453 4.515 1.715-.91.63-3.29 1.68-3.763 2.643-.48.98.21 3.604.28 4.724zm-5.565 10.15c-.77.805-2.888 2.275-3.167 3.325-.28 1.05.91 3.5 1.19 4.585-1.103-.472-3.308-2.03-4.48-1.942-1.173.087-3.167 1.942-4.2 2.59.14-1.225.962-3.797.542-4.935-.42-1.12-2.748-2.502-3.657-3.325 1.155-.228 3.902-.228 4.777-.962.927-.788 1.435-3.448 1.925-4.585.77 1.49 1.522 2.98 2.292 4.47.298.58 4.043.68 4.778.79zm-13.388 15.225c1.05 1.313 2.1 2.608 3.167 3.92.402.507 4.078-.14 4.83-.175-.595.91-2.415 2.835-2.433 3.885-.03 1.137 1.58 3.22 2.09 4.252-1.17-.245-3.64-1.33-4.77-1.015-1.14.315-2.69 2.555-3.58 3.377-.12-1.25.2-3.92-.45-4.96-.64-1.03-3.18-1.91-4.25-2.56 1.07-.46 3.78-1 4.47-1.88.75-.95.72-3.66.96-4.87zm-2.187 21.297l3.885 3.203c.507.42 3.955-.928 4.69-1.12-.368 1.015-1.75 3.255-1.575 4.287.192 1.12 2.188 2.835 2.905 3.763-1.207-.018-3.832-.578-4.882-.035-1.05.543-2.135 3.027-2.835 4.025-.368-1.19-.612-3.867-1.453-4.76-.84-.875-3.518-1.243-4.69-1.646.962-.67 3.5-1.74 4.008-2.73.542-1.09-.035-3.75-.053-4.99zm3.132 26.197l-.945-4.89c1.453.8 2.905 1.61 4.357 2.39.56.31 3.71-1.72 4.393-2.05-.158 1.06-1.067 3.55-.7 4.51.403 1.05 2.73 2.34 3.605 3.1-1.19.22-3.885.19-4.813.92-.91.73-1.47 3.39-1.96 4.5-.6-1.11-1.39-3.66-2.38-4.36-1-.7-3.68-.53-4.92-.68 1.12-1.14 2.24-2.31 3.36-3.47zm5.373 15.59c1.575.49 3.15.98 4.725 1.48.612.19 3.29-2.42 3.885-2.87.052 1.08-.35 3.69.21 4.56.612.96 3.115 1.77 4.13 2.33-1.12.45-3.763.96-4.515 1.85s-.788 3.6-1.032 4.79c-.805-.97-2.065-3.33-3.185-3.8-1.12-.47-3.71.23-4.953.3.63-1 2.52-2.94 2.607-4.08.105-1.21-1.4-3.43-1.872-4.59zm23.607-104.7c-.84-.88-2.275-3.15-3.395-3.52-1.12-.37-3.657.61-4.847.8.595-1.09 2.345-3.14 2.38-4.34s-1.575-3.38-2.1-4.5c1.155.22 3.675 1.27 4.76.94 1.155-.37 2.66-2.61 3.552-3.49.123 1.66.245 3.32.385 4.99.052.64 3.465 2.17 4.095 2.57-1.015.45-3.535 1.01-4.2 1.87-.647.84-.472 3.53-.63 4.65zm.176-32.48c.455-.39.91-.76 1.365-1.14.788.96 1.54 1.17.473 2.06-.927.77-.683.63-1.33-.13-.124-.14-.7-.65-.508-.81 0 0-.036.01 0 0zm-1.54 1.29c.805.92 1.575 1.12.542 2.04-1.05.93-1.138.12-1.96-.79l1.418-1.26s-.473.42 0 0zm-3.815 3.44c.333-.32.647-.6.998-.93.84.91 1.61 1.06.6 2.03-1.01.94-1.12.16-1.98-.74.12-.13.26-.25.39-.37 0 0-.12.12 0 0zm-3.08 2.99c.438-.44.875-.88 1.33-1.32.857.89 1.645 1.01.665 2.01-.857.84-.613.7-1.33 0-.018-.04-.683-.69-.665-.7.017 0 0 0 0 0zm-2.118 2.2c.245-.3.542-.56.805-.84.893.85 1.68.98.717 1.97-.962 1.01-1.12.22-2.012-.62.14-.18.315-.35.49-.53 0 0-.175.17 0 0zm-2.345 2.54c.123-.2.402-.46.56-.62.07-.02.665.61.7.63.735.66.875.44.087 1.33-.927 1.03-1.102.26-2.03-.54.21-.28.456-.55.683-.81 0 0-.227.26 0 0zM31.22 48c.42-.472.805-.96 1.208-1.434.945.805 1.732.857.84 1.942-.77.925-.56.75-1.33.12 0-.034-.735-.594-.718-.63.017-.017 0 0 0 0zm-1.19 1.47c.963.77 1.768.807.893 1.91-.857 1.102-1.085.332-2.065-.42l1.172-1.488s-.385.49 0 0zm-3.115 4.08l.402-.56c.438-.63.508-.456 1.155.034 1.103.823.455.962-.35 2.065-.333.01-1.225-.9-1.522-1.11.105-.14.21-.28.315-.44 0 0-.105.15 0 0zm-2.485 3.534c.333-.525.717-1.032 1.067-1.558 1.015.718 1.802.7 1.015 1.855-.787 1.14-1.067.39-2.082-.29 0-.02 0 0 0 0zm-1.977 2.975c.175 0 .788-1.23.91-1.4 1.033.68 1.82.64 1.068 1.82-.64 1.01-.45.8-1.29.28-.28-.2-.89-.37-.68-.7.02 0-.03.05 0 0zm-1.103 1.78c1.05.64 1.855.59 1.12 1.78-.718 1.19-1.033.47-2.1-.16.315-.56.648-1.11.98-1.63 0 0-.332.52 0 0zm-2.31 3.9c.052-.18.35-.6.368-.65 1.067.61 1.872.52 1.172 1.75-.683 1.21-1.033.49-2.1-.11.192-.34.385-.67.56-1 .018-.02-.175.33 0 0zm-2.31 4.3c0-.33.735-1.42.857-1.65 1.085.57 1.873.47 1.243 1.71-.56 1.07-.385.86-1.277.4-.035-.04-.858-.4-.823-.47zm-1.592 3.22c0-.35.595-1.25.735-1.51 1.103.54 1.89.42 1.295 1.68-.525 1.08-.35.86-1.26.44-.298-.16-.946-.25-.77-.62 0 0-.035.07 0 0zm-1.523 3.34c.087-.21.192-.42.28-.63.56-1.12.42-.77 1.627-.21.962.44-.438 1.85-.438 1.83-.542-.23-1.067-.47-1.61-.7.053-.11.09-.21.14-.3 0 0-.05.09 0 0zm-1.347 3.19c.123-.37.367-.88.473-1.16 1.14.47 1.93.29 1.39 1.59-.52 1.29-.96.61-2.1.15.09-.19.16-.4.25-.6 0 0-.09.19 0 0zm-1.593 4.13c.228-.6.438-1.18.665-1.77 1.155.44 1.925.24 1.435 1.54-.648 1.75-1.837-.3-2.1.23 0-.02 0 0 0 0zM9.59 87.04c.123-.386.315-.963.455-1.35 1.172.404 1.925.176 1.488 1.506-.455 1.33-.91.685-2.1.3.052-.14.105-.3.157-.46 0 0-.052.16 0 0zm-.735 2.26c1.172.367 1.942.122 1.54 1.452s-.893.7-2.083.35c.175-.595.368-1.208.543-1.802 0 0-.175.594 0 0zm-1.54 5.442c.158-.613.315-1.208.49-1.82 1.19.333 1.942.053 1.575 1.4-.315 1.155-.192.91-1.155.665-.017 0-.928-.23-.91-.25 0-.016-.018 0 0 0zm-.91 3.657c.105-.61.315-1.21.42-1.82 1.208.3 1.942 0 1.61 1.35-.28 1.17-.158.91-1.138.7 0 0-.892-.18-.892-.23.017 0 0 0 0 0zm-.403 1.87c1.208.26 1.942-.07 1.663 1.29-.28 1.36-.823.79-2.03.54.105-.61.227-1.22.367-1.84 0 0-.122.61 0 0zm-.98 5.16c.087-.49.158-.98.245-1.46 1.225.21 1.942-.13 1.697 1.24-.228 1.38-.805.8-2.012.61.035-.13.053-.27.07-.41 0 0-.017.14 0 0zm-.612 4.13l.262-1.86c1.225.17 1.925-.19 1.732 1.19-.157 1.19-.07.93-1.067.8-.017 0-.927-.09-.927-.14 0-.02 0 0 0 0zm-.332 2.74c0-.26.07-.61.087-.84 1.225.14 1.925-.25 1.768 1.13-.158 1.38-.752.86-1.978.73.052-.35.087-.7.123-1.04 0 0-.036.33 0 0zm-.403 4.51c0-.53.088-1.12.123-1.61 1.225.1 1.908-.3 1.803 1.08-.08 1.19-.01.92-1.01.85-.4-.02-.94.16-.91-.33 0 0 0 .08 0 0zm-.21 4.04c.035-.63.053-1.25.088-1.88 1.242.07 1.907-.37 1.837 1.03-.07 1.38-.7.91-1.925.84 0-.02 0 0 0 0zm-.088 3.78c0-.63.018-1.26.035-1.89 1.242.03 1.89-.42 1.873.98-.035 1.2.035.92-.963.92 0 0-.945 0-.945-.02s0 .02 0 0zm.018 3.39c-.018-.47-.018-.96-.018-1.45.63 0 1.26-.02 1.89-.02-.63-.02-1.26-.02-1.89-.04.63 0 1.26-.02 1.89-.02-.63 0-1.26.02-1.89.02 1.225.02 1.873-.44 1.908.94.018 1.36-.665.923-1.873.94 0-.12-.017-.26-.017-.383 0 0 0 .13 0 0zm.158 4.13c0-.21-.07-1.63-.088-1.84 1.925-.07 1.855-.32 1.978 1.78-.158.12-1.89.07-1.89.05zm.21 3.08c0-.37-.07-.82-.088-1.16 1.243-.09 1.838-.59 1.96.81.105 1.38-.577.97-1.802 1.08-.036-.25-.053-.49-.07-.74 0 0 .017.24 0 0zm.367 3.97c-.087-.35-.07-.76-.123-1.12 0-.34 1.54-.65 1.855-.44.21 2.08.228 1.85-1.68 2.06 0-.16-.017-.34-.052-.51 0 0 .017.17 0 0zm.49 3.74c-.105-.42-.123-.91-.192-1.35 1.225-.16 1.802-.7 1.995.68.193 1.39-.507 1.02-1.732 1.19-.01-.17-.05-.35-.07-.52 0 0 .02.18 0 0zm.367 2.4c1.225-.19 1.785-.77 2.013.61.245 1.38-.49 1.03-1.697 1.24l-.316-1.86s.105.61 0 0zm.875 4.76c-.052-.24-.105-.49-.157-.75-.087-.37-.035-.32.42-.41 1.663-.34 1.365-.19 1.75 1.56-.21.26-1.487.31-1.855.38-.053-.24-.105-.5-.158-.78 0 0 .053.28 0 0zm1.015 4.5c-.157-.62-.297-1.23-.438-1.84 1.2-.28 1.73-.88 2.04.49.33 1.35-.42 1.05-1.61 1.35-.02-.07 0 0 0 0zm.473 1.89c-.035-.14 1.47-.44 1.68-.51.245-.07.718 1.73.49 1.8l-1.68.47c-.175-.6-.333-1.18-.49-1.77 0 0 .157.59 0 0zm1.487 5.19c-.175-.53-.333-1.07-.49-1.61 1.19-.35 1.68-.98 2.083.35.35 1.14.333.87-.63 1.17-.298.09-.84.46-.963.09 0-.02.018.05 0 0zm.648 1.99c1.173-.387 1.645-1.03 2.083.3.455 1.31-.315 1.1-1.487 1.502-.19-.613-.4-1.21-.59-1.8 0 0 .2.6 0 0zm1.243 3.57c1.155-.42 1.61-1.088 2.1.23s-.28 1.1-1.435 1.54c-.246-.6-.455-1.177-.665-1.77 0 0 .21.595 0 0zm1.82 4.71c-.14-.4-.316-.79-.473-1.19 1.155-.458 1.575-1.14 2.1.153.525 1.294-.245 1.12-1.382 1.592-.088-.18-.158-.37-.246-.56 0 0 .088.19 0 0zm1.75 4.022c-.263-.58-.508-1.155-.77-1.715 1.137-.49 1.54-1.19 2.1.09.577 1.28-.21 1.12-1.33 1.63-.228-.49 0 0 0 0zm1.627 3.41c-.28-.56-.56-1.135-.822-1.694 1.12-.52 1.505-1.22 2.118.04.6 1.26-.19 1.14-1.29 1.66-.23-.44 0 0 0 0zm.84 1.7c1.103-.56 1.47-1.28 2.117-.035s-.14 1.14-1.225 1.71l-.892-1.68s.298.56 0 0zm2.713 4.97c-.315-.54-.612-1.085-.928-1.645 1.085-.6 1.417-1.315 2.1-.106.595 1.05.508.788-.367 1.278.017.02-.805.49-.805.47-.018-.02 0 0 0 0zm1.312 2.26c-.105-.21-.245-.404-.368-.614 1.068-.63 1.383-1.36 2.1-.17.718 1.19-.07 1.14-1.12 1.784-.192-.33-.402-.66-.612-.994 0 0 .21.33 0 0zm2.502 3.97c-.21-.333-.438-.665-.647-1-.035-.05-.245-.313-.245-.37.018-.1.735-.47.805-.504.84-.546.647-.738 1.295.28.647.994.56.75-.28 1.29-.332.226-.665.68-.928.296 0 0 .053.07 0 0zm1.698 2.52c-.175-.175-.438-.65-.508-.735 1.015-.7 1.295-1.44 2.083-.3s0 1.14-1.015 1.856c-.175-.28-.367-.547-.56-.82 0 0 .193.28 0 0zm1.855 2.61c-.07-.16-.263-.18-.07-.335.98-.72 1.155-1.385 1.96-.28.823 1.12.035 1.14-.962 1.89-.298-.42-.613-.86-.928-1.28 0 0 .315.42 0 0zm3.185 4.16c-.42-.4-.735-.926-1.102-1.4.98-.75 1.207-1.52 2.065-.42.735.947.612.7-.158 1.315-.123.12-.647.7-.805.505 0 0 .035.037 0 0zm2.275 2.77c-.315-.42-.683-.805-1.015-1.21.945-.785 1.155-1.556 2.047-.49.893 1.07.105 1.14-.84 1.944-.052-.088-.122-.157-.192-.245 0 0 .07.09 0 0zm1.733 1.994c-.087-.088-.21-.228-.28-.315.928-.82 1.103-1.59 2.03-.54.927 1.03.14 1.14-.77 1.96-.333-.37-.665-.74-.98-1.11-.018-.014.315.37 0 0zm3.202 3.48c-.333-.34-.63-.67-.963-1.02.91-.84 1.05-1.63 2.013-.62s.175 1.12-.718 1.98c-.087-.106-.21-.23-.332-.35 0 0 .122.12 0 0zm3.028 3.04c-.455-.44-.893-.89-1.348-1.33.875-.88 1.015-1.66 1.995-.68.998 1 .21 1.13-.647 2.01-.368-.35 0 0 0 0zm2.73 2.61c-.473-.42-.928-.86-1.382-1.3.857-.89.962-1.68 1.977-.737 1.032.946.244 1.12-.595 2.03-.176-.174 0 0 0 0zm2.835 2.5c-.473-.42-.945-.827-1.417-1.247.822-.926.91-1.714 1.96-.787 1.032.91.262 1.1-.543 2.03-.088-.07 0 0 0 0zm2.904 2.43c-.507-.35-.98-.81-1.452-1.21.787-.947.857-1.75 1.925-.86s.297 1.1-.473 2.063c-.017-.017 0 0 0 0zm2.975 2.33c-.42-.32-1.05-.86-1.505-1.16.77-.964.805-1.77 1.908-.91 1.102.855.332 1.083-.403 2.063-.49-.366 0 0 0 0zM54.74 225c-.508-.37-1.015-.738-1.54-1.106.735-.998.735-1.786 1.872-.98 1.156.822.403 1.085-.332 2.083-.367-.265 0 0 0 0zm3.115 2.15c-.525-.35-1.05-.7-1.558-1.068.7-1.017.683-1.82 1.837-1.034 1.156.786.42 1.066-.28 2.1-.227-.16 0 0 0 0zm-3.272-16.818c-1.487.716-2.958 1.45-4.445 2.17.21-1.156 1.242-3.71.875-4.797-.385-1.154-2.66-2.607-3.553-3.48 1.663-.16 3.325-.334 4.987-.49.648-.07 2.135-3.5 2.52-4.166.473 1.01 1.05 3.53 1.908 4.18.875.65 3.587.46 4.708.61-.857.84-3.115 2.31-3.465 3.43-.368 1.12.647 3.65.857 4.86-1.47-.77-2.94-1.54-4.392-2.33zm6.457 18.86c-.542-.33-1.067-.665-1.593-1.015.665-1.033.63-1.84 1.803-1.086 1.172.75.438 1.05-.21 2.1-.035-.02 0 0 0 0zm3.237 1.96c-.542-.315-1.085-.63-1.627-.96.63-1.05.578-1.857 1.768-1.14 1.207.7.472 1.015-.14 2.1zm3.29 1.84c-.56-.28-1.12-.614-1.663-.91.613-1.087.508-1.874 1.733-1.19 1.243.663.526 1.013-.07 2.1-.017 0 0 0 0 0zm3.36 1.75c-.49-.28-1.19-.597-1.68-.86.58-1.1.456-1.89 1.698-1.24 1.243.63.525.995-.017 2.1-.018 0 0 0 0 0zm-2.59-9.47c-.018-1.17.508-3.885-.052-4.883-.595-1.05-3.115-2.05-4.147-2.73 1.61-.47 3.202-.96 4.813-1.44.62-.19 1.4-3.85 1.65-4.57.65.91 1.72 3.27 2.68 3.74.98.47 3.59-.25 4.73-.32-.66.98-2.62 2.9-2.73 4.04-.12 1.2 1.33 3.44 1.79 4.62-1.19-.37-3.55-1.67-4.74-1.46-1.2.21-2.99 2.24-3.97 2.98zm5.985 11.113c-.577-.265-1.137-.544-1.715-.807.542-1.12.402-1.89 1.663-1.294 1.277.576.578.98.052 2.1-.175-.09 0 0 0 0zm3.466 1.54c-.508-.21-1.015-.44-1.522-.666-.123-.21.105-1.6.542-1.82 1.924.85 1.732.7.98 2.48-.386-.18 0 0 0 0zm3.5 1.416c-.56-.22-1.19-.49-1.75-.7.472-1.13.28-1.92 1.575-1.4 1.295.53.612.95.175 2.1-.578-.22 0 0 0 0zm3.534 1.32c-.525-.17-1.277-.52-1.785-.65.438-1.15.228-1.92 1.54-1.45 1.313.49.666.94.245 2.1-.21-.07 0 0 0 0zm3.588 1.21c-.595-.19-1.208-.38-1.803-.59.402-1.17.158-1.92 1.488-1.5 1.33.46.682.93.315 2.1-.158-.05 0 0 0 0zm3.623 1.1l-1.82-.52c.35-1.19.105-1.94 1.435-1.54 1.347.39.717.88.385 2.07-.613-.17 0 0 0 0zm3.64.98l-1.838-.47c.315-1.19.035-1.94 1.382-1.59 1.366.35.77.86.455 2.07-.472-.12 0 0 0 0zm-3.71-13.33c-1.104 1.23-2.19 2.45-3.29 3.68-.246-1.15-.263-3.9-1-4.77-.786-.91-3.446-1.41-4.602-1.89 1.47-.78 2.96-1.56 4.43-2.34.58-.3.65-4.04.75-4.78.81.75 2.31 2.87 3.36 3.14 1.07.28 3.49-.92 4.57-1.22-.45 1.09-2.03 3.36-1.91 4.5.13 1.21 1.98 3.14 2.65 4.19-1.66-.14-3.3-.3-4.95-.47zm7.402 14.19c-1.977-.43-1.942 0-1.522-1.78.245-1.03 1.89.07 1.89.07-.123.58-.246 1.16-.368 1.72-.595-.12 0 0 0 0zm3.693.76c-.613-.12-1.243-.23-1.855-.37.245-1.21-.088-1.94 1.295-1.66 1.364.27.787.82.56 2.03-.613-.1 0 0 0 0zm3.727.63c-.63-.1-1.243-.19-1.873-.3.21-1.22-.14-1.92 1.242-1.71 1.384.23.824.81.63 2.02-.63-.09 0 0 0 0zm-3.22-12.41c1.295-1.05 2.59-2.12 3.885-3.17.507-.4-.158-4.1-.193-4.85.945.58 2.835 2.36 3.903 2.43 1.103.06 3.237-1.59 4.27-2.1-.245 1.18-1.313 3.66-.998 4.78.315 1.14 2.555 2.7 3.395 3.57-1.243.12-3.92-.17-4.953.47-1.015.65-1.89 3.21-2.52 4.27-.455-1.06-1.015-3.78-1.908-4.46-.96-.75-3.656-.7-4.88-.94zm6.965 12.93c-.63-.07-1.242-.15-1.872-.24.175-1.22-.21-1.92 1.19-1.75 1.382.18.84.77.682 2zm3.762.41c-.595-.14-1.277-.12-1.873-.19.14-1.22-.27-1.92 1.12-1.78 1.38.14.85.75.75 1.98zm3.763.28c-.63-.03-1.26-.08-1.89-.12.087-1.22-.315-1.91 1.067-1.82 1.4.09.91.72.823 1.94-.613-.03 0 0 0 0zm3.78.18c-.63-.02-1.26-.04-1.89-.07.053-1.24-.385-1.91 1.015-1.85s.91.69.875 1.93c-.018 0 0 0 0 0zm3.623.05c-.578 0-1.155 0-1.732-.02.035-1.83-.263-1.87 1.732-1.87.157.14.384 1.89 0 1.89-.018 0 .052 0 0 0zm3.937-.07l-1.89.05c-.018-1.24-.49-1.87.893-1.9 1.4-.03.96.63.997 1.86-.07.02 0 0 0 0zm3.763-.17c-.403 0-.806.07-1.19.07-.175.02-.368.02-.543.04-.157 0-.367-1.68-.21-1.89.752-.03 1.82-.56 1.89.39-.017.13.105 1.4.053 1.4-.017 0 0 0 0 0zm-.595-7.5c-.647-.96-1.732-3.5-2.73-4-1.084-.54-3.727.03-4.952.03 1.07-1.29 2.14-2.59 3.21-3.87.42-.5-.93-3.97-1.12-4.7 1.02.38 3.26 1.768 4.29 1.59 1.12-.19 2.86-2.19 3.78-2.9-.01 1.21-.59 3.83-.07 4.88.53 1.05 3.03 2.13 4.01 2.833-1.19.366-3.88.593-4.76 1.434-.85.88-1.22 3.54-1.64 4.71zm3.884 7.27c-.455 0-.928.09-1.383.12-.104-1.22-.61-1.83.788-1.96 1.382-.12.98.56 1.103 1.81-.176 0-.35.013-.508.03 0 0 .176-.02 0 0zm3.938-.42c-.508 0-1.05.12-1.557.17-.14-1.22-.666-1.82.717-1.98 1.19-.14.91-.15 1.033.83.07.495.35.915-.193.985 0 0 .105-.016 0 0zm4.043-.56c-.613.1-1.242.19-1.855.28-.175-1.23-.717-1.8.665-2.01 1.365-.21 1.05.52 1.19 1.73zm2.31-.39c-.123.06-.3.06-.44.07-.21-1.22-.77-1.78.596-2.03 1.365-.24 1.033.48 1.26 1.68-.454.11-.926.2-1.417.28 0 0 .49-.08 0 0zm3.29-.63c-.245-1.2-.84-1.75.524-2.04 1.365-.3 1.05.438 1.313 1.646-.613.155-1.224.28-1.838.4 0 0 .614-.12 0 0zm3.693-.8c-.28-1.21-.89-1.71.48-2.06 1.35-.33 1.07.408 1.37 1.61-.61.16-1.22.3-1.83.46 0 0 .61-.16 0 0zm4.96-1.29c-.42.14-.85.23-1.27.35-.31-1.19-.94-1.69.4-2.06 1.35-.364 1.07.37 1.42 1.56-.19.05-.37.1-.54.158-.02 0 .18-.05 0 0zm-3.43-11.65l-.73 4.917c-.84-.82-2.34-3.1-3.44-3.412-1.17-.33-3.65.67-4.88.9.81-1.435 1.63-2.853 2.44-4.29.32-.54-1.68-3.73-2.01-4.41 1.07.177 3.54 1.105 4.52.72 1.07-.4 2.38-2.71 3.15-3.59.21 1.17.14 3.89.88 4.81.72.93 3.38 1.51 4.48 1.98-1.45.81-2.92 1.59-4.38 2.38zm5.78 10.97c-.36-1.19-1-1.66.33-2.08s1.09.33 1.47 1.52c-.59.17-1.2.37-1.8.56 0 0 .6-.19 0 0zm3.99-1.3c-.12.057-.26.11-.38.14-.05-.013-.3-.87-.3-.89-.31-.94-.56-.8.58-1.19 1.32-.45 1.11.32 1.51 1.47-.47.14-.94.32-1.4.48 0 0 .46-.16 0 0zm.42-22.012c1.09-.037 3.69.384 4.57-.16.96-.594 1.8-3.11 2.38-4.13.44 1.12.91 3.78 1.79 4.55.9.77 3.61.824 4.78 1.086-.96.79-3.36 2.03-3.85 3.15s.18 3.73.25 4.99c-.99-.65-2.88-2.556-4.04-2.66-1.22-.105-3.46 1.33-4.64 1.767.53-1.555 1.06-3.094 1.58-4.65.23-.596-2.36-3.34-2.8-3.94zm4.41 20.25c-.56.19-1.1.42-1.66.63-.44-1.16-1.1-1.596.21-2.104 1.12-.42.84-.382 1.21.546.07.16.47.84.25.93-.02 0 .04-.02 0 0zm2.64-1.09c-.26.11-.52.23-.78.34-.47-1.134-1.14-1.554.14-2.1 1.3-.54 1.12.25 1.61 1.386-.33.12-.64.26-.96.384 0 0 .32-.127 0 0zm2.68-1.15c-.51-1.14-1.19-1.523.07-2.1 1.26-.58 1.12.21 1.65 1.33-.56.24-1.14.51-1.71.77 0 0 .58-.26 0 0zm5.13-2.43c-.56.277-1.12.56-1.69.84-.54-1.123-1.24-1.49.02-2.12 1.07-.524.81-.455 1.26.42 0 .017.42.86.42.86-.02 0 0 0 0 0zm3.34-1.75c-.54.295-1.1.59-1.66.89-.58-1.103-1.29-1.45-.05-2.12 1.05-.56.79-.49 1.28.388 0 0 .46.82.44.84-.01 0 0 0 0 0zm2.09-1.16c-.12.088-.28.158-.42.23-.61-1.09-1.33-1.42-.12-2.102 1.21-.7 1.14.1 1.75 1.17-.4.23-.8.478-1.21.7 0 0 .41-.222 0 0zm3.96-2.36c-.38.19-.72.488-1.1.68-.64-1.05-1.36-1.364-.19-2.1 1.19-.734 1.14.07 1.8 1.1-.17.1-.35.21-.5.316 0 0 .16-.11 0 0zm3.66-2.36c-.52.35-1.05.68-1.57 1.03-.67-1.04-1.42-1.33-.25-2.1 1-.67.74-.56 1.3.26.02.03.55.787.53.8 0 .02 0 0 0 0zm2.93-2.01c-.45.31-.89.645-1.35.94-.7-1.013-1.45-1.275-.31-2.08.98-.7.74-.58 1.31.222.21.297.7.646.35.91 0 0 .07-.053 0 0zm3.19-2.364c-.52.27-.98.76-1.47 1.11-.73-.996-1.48-1.24-.38-2.08.96-.72.72-.61 1.31.19.07.07.65.715.54.786 0 0 .02 0 0 0zm2.75-2.15c-.35.35-.82.668-1.21.966-.77-.964-1.54-1.19-.44-2.066 1.09-.88 1.14-.07 1.93.87l-.28.227c-.01 0 .09-.07 0 0zm1.72-1.42c-.78-.94-1.57-1.132-.51-2.042 1.07-.91 1.14-.1 1.95.827-.47.4-.94.82-1.43 1.22 0 0 .49-.42 0 0zm3.4-2.952c-.15.16-.36.337-.52.478-.82-.93-1.61-1.105-.57-2.03 1.03-.95 1.14-.14 1.98.77-.3.26-.58.52-.874.785 0 0 .3-.26 0 0zm2.68-2.5c-.14.14-.28.28-.42.4-.85-.89-1.62-1.05-.63-2.01 1-.963 1.12-.18 2 .7-.31.316-.63.61-.94.91-.032.05.317-.3 0 0zm2.73-2.69c-.1.17-.31.31-.45.47-.87-.874-1.66-1-.68-1.995.98-1 1.12-.21 2.02.644-.3.28-.59.58-.87.875 0 0 .28-.3 0 0zm3.15-3.33c-.35.337-.64.72-.98 1.07-.91-.84-1.69-.94-.75-1.975.95-1.036 1.11-.25 2.03.57-.1.11-.21.217-.29.34-.02 0 .09-.12 0 0zm2.63-2.99c-.3.46-.73.84-1.08 1.26-.93-.8-1.73-.89-.82-1.94.79-.91.56-.733 1.33-.103.28.23.86.46.58.79 0 0 .05-.07 0 0zm2.12-2.57c-.12.07-1.26 1.56-.75.93-.96-.79-1.75-.84-.87-1.93s1.1-.314 2.07.456c-.16.19-.3.363-.44.54 0 0 .14-.18 0 0zm2.73-3.52c-.37.51-.75 1-1.14 1.51-.98-.756-1.78-.79-.92-1.89 1.35-1.77 1.24.994 2.065.38 0 .02.02 0 0 0zm2.22-3.06c-.37.506-.72 1.03-1.08 1.54-1-.72-1.8-.74-1-1.874.81-1.12 1.11-.38 2.09.335 0 .018 0 0 0 0zm1.61-2.363c0 .18-.45.686-.54.81-1.02-.7-1.82-.665-1.05-1.837.77-1.15 1.07-.42 2.1.26l-.51.77s.17-.26 0 0zm2.33-3.62c-.28.4-.52.84-.79 1.26-1.05-.665-1.84-.61-1.1-1.803.74-1.19 1.05-.452 2.1.196-.07.125-.14.247-.21.35 0 0 .07-.103 0 0zm1.21-1.995s-1.57-.756-1.64-.93c1.07-1.8.91-1.63 2.58-.666-.315.523-.612 1.07-.93 1.59 0 0 .318-.54 0 0zm2.68-4.78c0 .365-.66 1.223-.82 1.52-1.08-.596-1.87-.508-1.2-1.73.578-1.05.385-.84 1.277-.387.21.12.91.31.75.59 0 0 .018-.05 0 0zm1.65-3.22c-.23.47-.48.93-.7 1.4-1.11-.56-1.89-.44-1.26-1.7.63-1.24.99-.54 2.11 0-.07.105-.1.21-.15.3 0 0 .055-.09 0 0zm.96-1.998c-1.12-.52-1.91-.38-1.31-1.64.57-1.26.98-.578 2.12-.07-.26.58-.545 1.154-.806 1.714 0 0 .26-.56 0 0zm1.75-3.865c-.35.7-.79.176-1.47-.12-.98-.42.4-1.85.4-1.85.54.224 1.08.452 1.61.66-.18.44-.35.876-.54 1.314 0 0 .19-.44 0 0zm1.42-3.45l-.16.387c-1.16-.45-1.93-.26-1.42-1.554s.95-.63 2.1-.19l-.52 1.364s.174-.454 0 0zm1.8-4.9c-.23.58-.4 1.175-.61 1.77-1.18-.42-1.93-.21-1.47-1.52.63-1.79 1.84.24 2.08-.25 0 0 .02-.016 0 0zm1.12-3.393c-.16.49-.28 1.02-.47 1.51-.036.09-1.7-.317-1.82-.51.227-.72.12-1.91 1.03-1.63.37.11 1.4.18 1.26.63 0 0 .02-.07 0 0zm1.12-3.78c-.21.546-.33 1.176-.49 1.736-1.19-.35-1.94-.09-1.56-1.42.33-1.15.19-.91 1.17-.645.11.034.93.157.88.333-.02.015 0-.02 0 0zm.59-2.254c-.05.05-.07.28-.09.37-1.19-.315-1.94-.02-1.59-1.38.35-1.37.86-.756 2.07-.46-.14.49-.267.98-.39 1.47 0 0 .123-.505 0 0zm1.12-4.76l-.31 1.436c-1.203-.28-1.94.033-1.64-1.33.26-1.17.14-.93 1.12-.72.595.14.96-.02.84.61 0 0 .017-.14 0 0zm.81-4.11c-.104.61-.23 1.24-.35 1.854-1.21-.23-1.94.105-1.68-1.276.245-1.36.82-.8 2.03-.58-.12.63 0 0 0 0zm.49-2.975c.017.28-.16 1.05-.175 1.105-1.226-.19-1.94.16-1.716-1.223.21-1.38.79-.82 2.01-.642-.058.26-.09.522-.13.77 0 0 .04-.248 0 0zm.595-4.495c-.09.61-.16 1.24-.23 1.87-1.224-.16-1.92.23-1.766-1.17.172-1.38.79-.86 1.992-.7 0 .018 0 0 0 0zm.37-3.73c0 .61-.107 1.24-.177 1.84-1.23-.12-1.93.28-1.79-1.102.11-1.19.02-.93 1.02-.84.06-.02.97.02.95.11 0 0 0-.02 0 0zm.243-3.5c0 .528-.07 1.05-.09 1.56-1.25-.09-1.91.33-1.82-1.05.07-1.19 0-.93.99-.874.48.034.93-.176.91.37 0 .015 0-.11 0 0zm.1-2.2c-.36-.02-1.62.15-1.89-.07.07-2.1.02-1.86 1.95-1.82l-.057 1.89s.02-.63 0 0zm.07-3.78c-.57 0-1.17 0-1.75-.02-.01 0-.71-1.855.35-1.87 1.82 0 1.42-.07 1.4 1.89 0 0 0-.56 0 0z"/><path opacity=".75" fill="#535236" d="M68.757 169.418l19.058 10.604v-72.835c0-.91.473-7.91-.385-7.91H68.565c.07 23.048.123 46.113.192 69.16v.98zm31.395 16.73c6.545 3.64 13.09 7.28 19.635 10.937V98.98c-5.985.087-11.97.192-17.938.28-1.12.018-1.68-.385-1.68.718v45.675c-.02 13.492-.02 27-.02 40.494zm63.946-6.126c5.32-2.976 10.657-5.933 15.978-8.907.612-.35 3.063-1.173 3.063-1.995 0-1.383 0-2.782.01-4.165.03-14.28.09-28.578.12-42.857.01-7.613.03-15.225.07-22.82h-18.02c-1.24 0-1.21-.192-1.21.963v47.66c-.02 10.71-.02 21.42-.02 32.13zm-31.99 17.063c5.337-2.976 10.675-5.933 15.994-8.907.473-.263 3.64-1.575 3.64-2.152V99.873c0-1.085-.98-.613-1.977-.63-5.88-.088-11.778-.175-17.676-.28v72.38c.01 8.593.01 17.167.01 25.742zM79.92 71.837h-9.065c-.157 0-2.607-.018-2.607.018v22.61c0 .647-.228.98.438.98h4.882c.105 0 .053-7.455.053-8.26 0-.28 7.2-.105 8.26-.245 6.01-.752 8.93-8.925 4.27-13.195-1.66-1.505-4.04-1.908-6.23-1.908 0 0 2.73 0 0 0zm2.048 10.116c-1.698 1.435-5.495.805-7.56.805-.928 0-.735-.052-.735-.98v-4.48c0-.7-.315-1.347.455-1.347h3.903c1.21 0 2.49-.08 3.56.56 1.68 1 1.91 4.17.39 5.45-.65.54.65-.54 0 0z"/><path opacity=".75" fill="#535236" d="M109.428 92.155c0-3.115.192-6.895-3.343-8.067 3.167-.857 4.235-3.99 3.78-7-.438-2.853-2.503-4.48-5.233-5.005-3.237-.63-6.86-.263-10.15-.263-1.12 0-5.617-.752-5.617.613v22.802c0 .473 2.502.21 2.94.21.787 0 2.467.49 2.467-.472v-5.285c0-.525-.368-3.027 0-3.413.455-.472 3.92 0 4.62 0 1.942 0 4.217-.123 4.76 2.188.49 2.1-.105 4.393.63 6.422.42 1.173 3.657.543 4.76.543.315 0 1.382.192 1.382-.193.018-.98-.944-1.82-.996-3.08 0-.035.052 1.4 0 0zm-5.81-10.762c-1.82 1.417-5.828.752-7.98.752-.945 0-1.365.333-1.365-.647v-4.252c0-.91-.315-1.348.63-1.348h4.235c1.172 0 2.485-.123 3.605.28 1.977.717 2.625 3.867.875 5.215-.648.49.647-.508 0 0z"/><path opacity=".75" fill="#535236" d="M122.868 71.208c-7.385 0-12.792 4.953-12.792 12.442 0 7.49 5.407 12.442 12.792 12.442 7.384 0 12.81-4.97 12.81-12.442s-5.444-12.442-12.81-12.442c-3.92 0 3.902 0 0 0zm5.425 18.497c-2.625 2.94-8.19 2.958-10.798 0-2.712-3.027-2.73-9.083 0-12.11 2.607-2.958 8.208-2.94 10.798.017 2.747 3.01 2.73 9.066 0 12.093-1.277 1.435 1.295-1.435 0 0zm27.65 5.74v-4.13c0-.525-1.82-.245-2.24-.245h-10.868c-.962 0-1.26.298-1.26-.7v-5.18c0-.402 7.175-.192 7.944-.192h4.23c.82 0 .37-2.433.37-3.115 0-1.208-.2-.91-1.37-.91h-10.37c-1.3 0-.81-.805-.81-2.048 0-.438-.25-2.992.19-2.992h12.81c1.68 0 .45-4.113.57-4.113h-16.5c-1.24 0-2.36-.56-2.36.788v22.82m33.32-5.618c-1.65-5.67-3.31-11.357-4.96-17.027-.21-.718-.07-.928-.83-.928h-5.5c-.37 0-1.93-.263-1.93.21v22.96c0 1.19 5.07.245 5.07.315V76.422l3.15 11.165 1.83 6.528c.52 1.855.85 1.365 2.9 1.365 1.52 0 2.83.63 3.25-.893.61-2.17 1.206-4.357 1.82-6.527 1.083-3.868 2.15-7.752 3.235-11.62v17.85c0 .7-.28 1.19.47 1.19.77 0 4.11.49 4.6 0 .17-.175 0-1.47 0-1.697v-4.708c0-1.4.15-17.203-.14-17.203-.86 0-7.78-.402-7.9.07-.77 2.66-1.52 5.32-2.29 7.998-.944 3.255-1.89 6.562-2.835 9.87z"/></svg>