<svg xmlns="http://www.w3.org/2000/svg" viewBox="0 0 252 252"><path fill="#535236" d="M126.338 239.25l102.986-54.757V23.53c0-5.99-4.858-10.847-10.848-10.847H33.523c-5.99 0-10.848 4.857-10.848 10.848v161.6l101.927 54.2h1.77l-.034-.06z"/><path fill="#F0B514" d="M47.56 45.08v6.167h-3.95v-20.96c3.26 0 6.614-.032 9.878-.032 10.304 0 10.332 14.73 0 14.82h-5.92l-.008.004zm0-3.623h5.93c5.06 0 5.034-7.426 0-7.426h-5.922v7.43h-.008zm49.495 9.787h-4.52l-6.08-7.003h-4.01v7.01h-3.95V30.26c3.32 0 6.644.03 9.967.03 4.94.03 7.544 3.322 7.544 6.945 0 2.874-1.318 5.778-5.298 6.588l6.346 7.153v.268zm-14.608-17.27v6.707h6.016c2.516 0 3.594-1.67 3.594-3.35s-1.11-3.35-3.594-3.35h-6.016zm85.487 17.27h-15.69V30.29h15.69v3.834H156.17v4.818h11.344v3.68h-11.35v4.728h11.766v3.893h.004zm36.5-15.175l-6.823 9.09h-.77l-6.67-9.13v15.24h-3.95V30.31h4.55l6.56 9.015 6.56-9.01h4.52v20.96h-3.956V36.07zm-70.405 2.32c-1.07-4.57-1.61-8.52-10.85-8.52-9.61 0-9.15 2.86-10.72 7.43.61 1.87.42 4.04-.58 5.73.1.81.25 1.61.5 2.38 4.11.04 6.1 2.09 5.98 5.3.06.02.13.04.21.07l-.24.42.8.45.09-.167.49.333.375-.58c.153.037.31.082.47.11l-.16.216.73.6.5-.67c.216.023.442.033.67.045l-.21.236.696.67.655-.75-.14-.136c.165 0 .314-.02.47-.022l-.18.176.657.753.693-.68-.27-.307c.21-.028.414-.07.622-.1l.595.8.73-.608-.307-.41c.164-.046.32-.09.48-.14l.51.795.49-.337.09.167.81-.45-.404-.73c.034-.01.07-.02.104-.038-.167-3.1 1.65-5.057 5.43-5.38.173-.607.305-1.225.394-1.846-.627-1.51-.695-3.264-.2-4.83v.01-.02zm-17.52 5.76l-1.39-.41-.38-2.44 1.26-1.45 1.99-.16 3.7 2.75-2.16 2.215h-1.12l-1.89-.515h-.02zM123.6 49l-.48-2.08-.515 2.08-1.275-1.553.445-1.4.822-1.69 1.093 1.12 1.248 2.362L123.62 49v.01l-.017-.006zm7.756-5.27l-1.393.414-1.89.524h-1.11l-2.16-2.215L128.5 39.7l1.98.155 1.257 1.445-.38 2.44.01-.01-.01.002z"/><g fill="#F0B514"><path d="M195.522 152.256c-.978-.958-1.882-1.974-2.71-3.043-.83-1.067-1.222-2.764-1.18-5.09 1.893-.557 4.01.052 6.35 1.822-.814-1.5-1.978-2.856-3.488-4.077-1.516-1.217-2.986-1.67-4.423-1.356-.31.055-.66-.04-1.03-.283-.37-.24-.57-.53-.63-.87-.13-.84.17-1.31.89-1.43 1.29-.21 2.72.1 4.3.92 1.578.82 2.94 1.99 4.09 3.52-.813-2.53-2.04-5.08-3.69-7.65-1.643-2.568-3.514-4.765-5.612-6.57-1.05 2.22-2.033 4.57-2.962 7.03-.92 2.46-1.636 4.98-2.142 7.55.257.56.475 1.1.637 1.634.17.53.31 1.13.417 1.8.175 1.082.22 2.26.128 3.515-.09 1.255-.043 2.43.13 3.516.144.923.467 1.77.957 2.55.496.78 1.29.994 2.395.646.95.28 1.45.84 1.5 1.69-.85 1.934-1.836 3.337-2.976 4.204-1.14.87-2.432 1.418-3.883 1.647-.405 3.157-.95 6.2-1.64 9.143-.23.985-.5 1.96-.752 2.94v5.777c.135-.014.27-.02.4-.037 3.877-10.396 8.87-20.24 14.98-29.54l-.024.02zm-.377-42.15c2.187-2.836 4-5.312 5.438-7.43 1.438-2.115 1.962-4.386 1.572-6.815-.278-1.75-1.156-3.35-2.62-4.79-1.464-1.44-3.453-1.96-5.94-1.56-1.608.26-2.956 1.13-4.04 2.63-1.08 1.5-1.524 3.39-1.327 5.68.038.76-.01 1.63-.145 2.6-.134.968-.596 1.555-1.388 1.764-.31.136-.692-.062-1.147-.593-.455-.53-.71-.96-.765-1.295-.132-.836.19-1.64.978-2.41.79-.77 1.07-1.603.85-2.51-.25-1.074-.19-2.073.21-2.99.39-.92.93-1.716 1.6-2.38.68-.666 1.48-1.22 2.4-1.67.92-.447 1.78-.73 2.59-.86 3.454-.554 6.022.18 7.703 2.18 1.68 2.01 2.694 4.14 3.054 6.4.318 2.01-.145 4.29-1.387 6.85-1.25 2.56-2.825 5.36-4.73 8.41 3.67 1.51 7.02 3.59 10.07 6.22V67.96h-27.98v39.896c.9-.008 1.81-.007 2.71.022 4.27.135 8.363.875 12.29 2.224l.02.003zm1.406 24.872c1.93 3.554 3.21 7.04 3.83 10.457.75-.977 1.52-1.96 2.32-2.942.79-.983 1.57-1.966 2.32-2.944-1.14-4.11-2.82-7.77-5.012-10.98-2.2-3.21-4.713-5.92-7.537-8.14l-1.53 2.81-1.533 2.81c2.85 2.38 5.24 5.34 7.16 8.9v.02zm-10.59-8.697c-1.96-1.24-3.9-2-5.81-2.3v13.84c.74.82 1.42 1.7 2.01 2.68 1-5.64 2.27-10.38 3.81-14.21zm14.86 22.69c.41 5.17-.44 9.94-2.55 14.31-2.11 4.37-5.4 8.54-9.89 12.52l-1.42-.41c2.847-2.848 5.26-5.85 7.23-8.995 1.98-3.15 3.337-6.537 4.078-10.17-.306-.897-.67-1.61-1.073-2.14-3.026 4.263-5.775 8.665-8.224 13.21-2.45 4.558-4.485 9.275-6.105 14.166l.606-.09c4.17-.75 7.804-2.422 10.896-5.016 3.09-2.6 5.597-5.68 7.5-9.24 1.91-3.568 3.227-7.38 3.94-11.44.72-4.06.785-7.93.2-11.614l-.24-1.51-2.46 3.222c-.814 1.078-1.64 2.15-2.454 3.227l-.01-.02zm-20.67 14.78v1.13c.05-.35.11-.7.15-1.05-.05-.02-.09-.05-.14-.07zm1.34-41.54c1.89.47 3.65 1.18 5.29 2.12.494-1.023.956-2.02 1.38-2.987.42-.97.896-1.88 1.42-2.74-3.087-1.88-6.23-3.14-9.42-3.79v7.136c.447.066.89.15 1.333.26zM141.568 89c2.62.484 5.1 1.4 7.44 2.74 2.344 1.343 4.38 3.08 6.11 5.203 1.733 2.13 2.79 4.664 3.17 7.604.145 1.44.09 2.883-.17 4.34-.263 1.458-.48 2.93-.66 4.416 1.87-1.13 3.83-2.07 5.886-2.828v-42.5h-27.99v20.71c1.95-.188 4.02-.1 6.22.307h-.01zm21.765 56.936v-8.297c-1.15.36-2.246.85-3.27 1.49 1.27 2.27 2.356 4.53 3.27 6.81v-.006zm-5.8-27.44c-3.453 1.626-6.354 3.868-8.705 6.73 1.712 1.428 3.3 3 4.77 4.708 1.46 1.71 2.792 3.45 3.98 5.224 1.57-1.03 3.23-1.807 4.986-2.34-.295-.38-.612-.77-.95-1.184-.34-.418-.706-.84-1.09-1.284l.688-.11c.448.342.9.722 1.356 1.11.274.233.514.46.764.686v-15.69c-2.174.633-4.11 1.347-5.8 2.143zm-3.98 42.004c-.412-2.59-1.4-5.437-2.962-8.534-.97 3.243-1.24 6.204-.816 8.88.4 2.51 1.05 4.77 1.94 6.77.9 2.004 2 3.758 3.31 5.26-.17-2.112-.38-4.202-.62-6.27-.25-2.06-.522-4.096-.842-6.105zm-17.01 39.383c-.3-1.89-.704-3.64-1.202-5.27v14.376l.7-.37c.046-.18.1-.34.145-.51.66-2.89.776-5.64.37-8.23h-.013zm2.26-6.023c-.68-4.598-1.834-8.655-3.462-12.17v7.952c1.397 2.802 2.396 6.074 2.993 9.825.357 2.26.396 4.44.11 6.545-.072.49-.154.97-.244 1.45l.37-.2c.344-1.437.542-2.92.59-4.46.097-3.275-.03-6.257-.37-8.95h.014z"/><path d="M140.564 100.918c2.075.872 3.3 2.477 3.67 4.82.136.838-.04 1.68-.524 2.528-.483.85-.694 1.742-.628 2.674.04.766.344 1.255.914 1.462.57.21 1.047.5 1.435.866-1.09.17-2.03.026-2.82-.443-.78-.47-1.24-1.076-1.36-1.827-.15-.994.06-1.898.63-2.71.57-.815.75-1.628.54-2.45-.322-1.565-1.252-2.605-2.78-3.128-1.527-.52-2.93-.678-4.22-.47-.02.003-.037.01-.063.018v15.268c1.04.374 2.06.772 3.056 1.224 2.936 1.334 5.62 2.923 8.053 4.764 2.43-3.39 5.323-6.21 8.678-8.46.32-1.677.67-3.324 1.08-4.933.41-1.6.52-3.25.336-4.94-.253-2.1-.85-3.94-1.78-5.5-.935-1.56-2.087-2.92-3.446-4.08l.08.5c.347.63.676 1.27.98 1.9.31.64.53 1.38.66 2.21.13.84.08 1.79-.164 2.86l-1.348-.68c.343-.48.44-1.14.31-1.98-.08-.506-.2-.995-.354-1.474-.16-.48-.35-.89-.562-1.22-.17.485-.433.914-.784 1.29-.354.38-.705.73-1.066 1.066-.95-2.364-2.426-3.824-4.405-4.375-.58-1.553-.61-2.804-.1-3.76-3.045-1.03-6.11-1.42-9.19-1.18v9.31c1.61-.214 3.358.06 5.23.845l-.03.023zm-.08 91.896c.717 4.003.732 8.118.04 12.348-.063.4-.152.797-.233 1.188l1.47-.768c.31-.77.59-1.546.83-2.342 1.49-4.907 1.77-10.594.83-17.05-.57-3.596-1.52-7.22-2.84-10.868-1.32-3.65-3.05-7.022-5.18-10.114-.01-.01-.023-.02-.03-.023v12.42c2.414 4.2 4.14 9.267 5.15 15.227l-.02-.018zm14.933-13.448c-2.125-1.977-3.974-4.405-5.543-7.287-1.572-2.89-2.684-6.38-3.332-10.48-.717-4.52-.213-9.15 1.508-13.88-1.713-2.47-3.69-4.82-5.937-7.03-2.117-2.08-4.38-3.92-6.78-5.54v9.21c.69.48 1.434.96 2.27 1.42 1.083.6 1.66 1.36 1.724 2.3.012 1.11-.212 2.31-.667 3.58-.46 1.27-.917 2.54-1.374 3.81 2.796 3.59 5.297 7.413 7.51 11.48s3.81 8.68 4.795 13.84c1.01 5.324 1.17 10.09.47 14.272-.41 2.505-1.01 4.83-1.75 6.997l4.15-2.2c.91-2.585 1.57-5.206 2-7.874.66-4.14.98-8.353.96-12.638v.01z"/><path d="M147.115 180.818c-.715-5.034-2.304-9.585-4.763-13.652-2.067-3.422-4.417-6.778-7.02-10.083v4.7c.587.724 1.156 1.465 1.698 2.232l.66 1.05c4.025 6.137 6.5 12.646 7.43 19.533.808 6.13.482 12.15-.973 18.044-.164.65-.35 1.293-.546 1.934l1.9-1.012c1-2.667 1.71-5.615 2.09-8.877.46-3.887.3-8.522-.47-13.89v.02zm-30.04-77.893c-1.338 1.97-2.362 4.604-3.078 7.89l-.122.02c-.176.972-.246 1.84-.205 2.607-.03.352-.036.696-.02 1.04.012.342.05.722.117 1.138l.242-.036c1.2-.19 2.4-.335 3.59-.434v-12.9c-.19.216-.36.452-.53.687v-.012zm-4.782 95.797c-2.158 1.202-4.323 1.977-6.495 2.323-3.632.493-7.05.267-10.25-.684-.323-.09-.628-.21-.944-.32l22.19 11.8c.26-.11.528-.22.806-.31v-17.09c-1.546 1.74-3.31 3.18-5.307 4.29zm-.797-82.618l-.28-1.758c-.437-2.76-.158-5.55.838-8.37.994-2.816 2.543-5.402 4.645-7.753.28-.32.59-.615.9-.922V67.97H89.61v57.38c2.292-1.497 4.74-2.975 7.37-4.423 3.827-2.107 8.665-3.716 14.51-4.818l.003-.01z"/><path d="M94.057 176.148c-.03.862-.01 1.503.058 1.92.207 1.34 1.002 2.566 2.37 3.676 1.363 1.112 2.494 1.6 3.38 1.456 1.12-.182 2.44-.063 3.95.334 1.5.407 2.34 1.157 2.512 2.242.092.587.036 1.266-.172 2.024-.208.76-.795 1.22-1.762 1.375.252-.47.364-.932.334-1.402-.036-.46-.082-.904-.15-1.33-.08-.495-.52-.658-1.315-.495-.8.17-1.48.307-2.042.396-1.128.183-2.21-.01-3.245-.578-1.04-.56-1.96-1.312-2.772-2.26-.812-.94-1.492-1.988-2.044-3.146-.55-1.154-.92-2.278-1.09-3.366l-.08-.502c-.81.162-1.6.342-2.4.525v17.46c1.83 1.477 3.88 2.652 6.16 3.48 2.71.984 5.634 1.223 8.77.722 1.69-.27 3.525-.9 5.514-1.91-.388-.36-.736-.74-1.043-1.12-.307-.38-.5-.82-.58-1.32-.2-1.26-.155-2.4.134-3.43.29-1.03.52-2.08.68-3.13 3.13 3.1 5.127 4.24 5.986 3.42.07-.61.097-1.22.084-1.82-.017-.6-.067-1.19-.16-1.78-.12-.75-.615-1.148-1.485-1.178-.87-.035-1.39-.55-1.547-1.56-.067-.418.02-.797.252-1.134.235-.338.55-.544.955-.606.724-.11 1.357.237 1.9 1.05.544.813.88 1.646 1.013 2.478.267 1.68.285 3.347.055 5.016.48-.62.9-1.296 1.29-1.998v-12.42c-3.49-1.15-7.128-1.76-10.92-1.81-4.466-.06-8.675.18-12.628.723l.02-.015zm9.322-16.09c-4.71-.69-9.29-1.02-13.77-1.026v15.686c.76-.146 1.52-.292 2.29-.415.14-2.767 1.15-5.073 3.04-6.918 1.9-1.848 4.33-3.005 7.302-3.48 3.22-.514 5.993-.46 8.316.153 2.326.618 4.296 1.57 5.896 2.856.397.32.777.657 1.14 1.007v-3.58c-4.395-2.1-9.13-3.53-14.22-4.28h-.01zm-10.16-16.46c-.44-2.248-.29-4.16.45-5.738.74-1.574 2.31-2.555 4.73-2.94 1.2-.19 2.4-.062 3.58.393 1.18.456 2.38.63 3.6.52.483-.07.805-.252.965-.532.154-.28.27-.62.326-1.02.057-.39.13-.72.21-.99.083-.27.28-.42.606-.48.643-.1 1.25-.02 1.827.22.57.25.903.66.993 1.24.1 1.17-.31 2.08-1.235 2.73-.93.66-1.824 1.1-2.696 1.32-1.514.33-2.807.11-3.876-.65-1.074-.76-2.208-1.04-3.417-.85-1.77.28-2.85 1.11-3.25 2.49-.4 1.38-.496 2.72-.286 4.04.23 1.428.618 2.59 1.17 3.486.557.9 1.21 1.628 1.96 2.198.47-.162.946-.28 1.43-.356l1.33-.213c5.855-.94 11.17-.66 15.937.807v-14.53c-1.186-1.82-2.34-3.694-3.434-5.67l-.606.098c-3.377.54-6.594 1.31-9.65 2.31-3.057 1-6.144 2.07-9.26 3.21-1.655.6-3.335 1.21-5.035 1.81v16.57c2.158-1.305 4.43-2.366 6.837-3.163-1.65-1.54-2.72-3.64-3.23-6.307h.028z"/><path d="M117.6 161.77v-5.52c-.642-.164-1.28-.327-1.914-.468-3.25-.726-6.314-1.332-9.194-1.818-2.88-.484-5.357-1.29-7.432-2.417-1.753.364-3.49 1.004-5.198 1.922-1.482.79-2.893 1.73-4.24 2.8v.5c5.235-.06 10.514.38 15.856 1.3 4.284.74 8.325 1.98 12.13 3.72l-.008-.02zm-4.05 5.868c-2.717-2.313-6.21-3.128-10.47-2.45-1.84.38-3.568 1.427-5.192 3.146-1.625 1.716-2.772 3.573-3.446 5.566 3.807-.434 7.87-.547 12.192-.335 3.805.188 7.458.817 10.965 1.887v-2.938c-1.01-1.8-2.35-3.427-4.06-4.88l.01.004zm-9.988-16.555c1.542.357 3.236.646 5.085.864 1.848.22 3.858.542 6.028.97.943.184 1.92.417 2.923.683v-1.406c-4.136-1.238-8.81-1.608-14.035-1.103zm-54.997-4.81c2.045.146 3.97.587 5.778 1.332 1.806.74 3.387 1.862 4.738 3.36 1.36 1.502 2.23 3.51 2.63 6.017l.08.498c1.92.118 3.83.2 5.73.244 1.44.027 2.9.018 4.37 0v-.462c-1.49-.523-2.86-1.237-4.1-2.15-1.63-1.2-2.58-2.64-2.85-4.313-.13-.85-.08-1.81.16-2.92.238-1.12.76-1.74 1.56-1.87.24-.04.596-.04 1.06.02.46.052.74.37.84.96.108.67-.235 1.21-1.04 1.642-.795.424-1.12 1.102-.976 2.015.1.59.31 1.11.625 1.574.4-.062.805-.107 1.22-.13.41-.02.915.05 1.52.21.724.27 1.393.66 2.016 1.16v-12.32c-1.335.132-2.71.18-4.134.126-2.41-.085-4.704-.536-6.894-1.35-2.19-.806-4.07-2.005-5.644-3.6s-2.564-3.69-2.97-6.283c-.333-2.088.127-4.268 1.375-6.524 1.25-2.26 3.61-3.63 7.08-4.1 2.02-.248 4.124-.24 6.31.02 1.68.203 3.31.2 4.88.01V67.97h-28v78.376c1.467-.16 3.02-.19 4.66-.072l.004-.002z"/><path d="M59.152 157.26l-.1-.625c-.2-1.255-.846-2.46-1.934-3.616-1.092-1.16-2.385-2.18-3.885-3.05s-3.086-1.53-4.76-1.95c-1.632-.41-3.156-.51-4.57-.3v6.1c1.094.41 2.21.8 3.384 1.14 3.715 1.08 7.67 1.84 11.865 2.29zm5.908-32.147c-2.03-.32-3.977-.373-5.84-.162-1.62.18-2.925.79-3.91 1.85-.988 1.06-1.348 2.17-1.08 3.33.317 1.49.93 2.75 1.832 3.76.904 1.02 1.957 1.81 3.164 2.39 1.204.58 2.477.94 3.817 1.07 1.337.13 2.57.11 3.7-.07 1.826-.29 3.535-.704 5.143-1.23v-11.08c-.326.063-.65.136-1.004.19-1.853.29-3.792.28-5.822-.046v.013zm-3.5 34.853c-.365 1.345-1.092 2.47-2.188 3.37-1.092.905-2.205 1.685-3.338 2.337-1.133.66-2.125 1.156-2.978 1.51-.85.352-1.257.65-1.218.902.02.606.308 1.113.868 1.536.56.43 1.05.87 1.447 1.33-2.91.38-4.51-.35-4.8-2.19-.145-.91.188-1.68 1.003-2.28.813-.593 1.77-1.2 2.865-1.81 1.11-.6 2.2-1.26 3.28-2 1.08-.73 1.86-1.68 2.33-2.872-5.62-.555-10.57-1.64-14.9-3.22v16.54l16.36 8.697c1.62-.076 3.18-.234 4.68-.48 1.93-.306 3.83-.693 5.69-1.16.42-.103.83-.22 1.25-.33v-19.73c-.57.02-1.14.04-1.7.048-3 .057-5.87-.005-8.62-.17l-.02-.01zm3.783 23.847c-.335.053-.678.083-1.015.13l7.558 4.015v-5.624c-.288.083-.578.173-.864.252-1.857.513-3.75.92-5.68 1.227z"/></g></svg>