<svg xmlns="http://www.w3.org/2000/svg" viewBox="0 0 252 252"><path fill="#535236" d="M191.094 125.107c-.23-16.496-.478-32.99-.703-49.485-.03-2.558.05-4.992-.58-7.5-2.56-10.2-11.3-15.384-21.51-15.268-41.67.45-83.364.292-125.035.636-9.473.087-18.443 2.116-22.19 11.866-1.202 3.115-1.564 6.284-1.527 9.597l.628 44.583c.265 19.47.547 38.94.83 58.416.08 5.05.135 10.102.213 15.175.043 2.155 3.22 2.878 4.95 3.82 27.062 15.04 54.15 30.077 81.214 45.118 25.26-15.064 50.52-30.108 75.816-45.13.833-.494 8.882-4.337 8.872-5.32-.064-3.604-.127-7.23-.167-10.837-.274-18.573-.526-37.122-.8-55.67z"/><g fill="#F0B514"><path opacity=".75" d="M55.227 149.353c-1.688-.208-3.303-.2-4.844.016-1.342.18-2.41.71-3.208 1.59-.8.88-1.075 1.79-.832 2.72.292 1.2.824 2.2 1.593 3 .77.8 1.657 1.42 2.667 1.86s2.072.69 3.186.76c1.11.07 2.13.02 3.06-.16 1.44-.27 2.78-.626 4.05-1.064l-.108-9.02c-.247.057-.487.117-.755.167-1.53.283-3.137.323-4.826.115zm-4.28 26.192l-.095-.506c-.19-1.02-.748-1.98-1.673-2.89-.93-.91-2.02-1.7-3.28-2.37-1.26-.67-2.59-1.16-3.99-1.46-1.35-.288-2.61-.327-3.77-.128l.07 4.94c.92.307 1.86.593 2.842.84 3.102.784 6.395 1.303 9.88 1.56zm7.938 20.858l2.473 1.34-.023-2.005-.06.02c-.787.237-1.585.45-2.39.645zm-5.89-18.73c-.275 1.1-.857 2.03-1.747 2.79-.89.76-1.797 1.42-2.725 1.974-.927.558-1.738.99-2.44 1.293-.698.308-1.03.56-.99.762.022.484.27.893.744 1.223.474.33.883.672 1.223 1.027-2.403.38-3.745-.17-4.022-1.655-.138-.742.124-1.365.784-1.874.663-.508 1.443-1.02 2.342-1.538.9-.518 1.79-1.084 2.672-1.704.88-.61 1.505-1.41 1.873-2.39-4.69-.31-8.84-1.06-12.46-2.24l.12 8.79.01 1.18 17.71 9.59c.04 0 .08-.01.12-.02 1.59-.29 3.16-.66 4.69-1.08.134-.04.27-.085.4-.12l-.18-16.13c-.33.02-.66.04-.984.057-2.49.117-4.87.143-7.15.08z"/><path opacity=".75" d="M46.774 167.843c1.51.556 2.844 1.425 3.993 2.604 1.15 1.183 1.913 2.783 2.292 4.807l.07.404c1.59.052 3.17.07 4.75.055 1.06-.01 2.13-.047 3.22-.094l-.01-.54c-1.09-.38-2.11-.87-3.047-1.5-1.378-.93-2.19-2.07-2.444-3.42-.127-.68-.104-1.47.07-2.37.175-.91.594-1.42 1.26-1.55.2-.036.49-.04.874-.006.386.032.62.285.71.757.1.54-.174.996-.83 1.36-.65.37-.91.92-.77 1.66.09.478.27.896.546 1.26.33-.06.668-.103 1.008-.133.34-.026.76.016 1.262.132.464.152.903.37 1.323.64l-.11-9.716c-1.03.12-2.094.184-3.19.177-1.998-.01-3.91-.315-5.74-.915-1.834-.6-3.416-1.525-4.75-2.778-1.334-1.25-2.196-2.923-2.587-5.014-.313-1.687.025-3.46 1.017-5.32.995-1.86 2.925-3.028 5.794-3.5 1.67-.244 3.416-.29 5.233-.14 1.39.12 2.73.08 4.025-.116 0 0 .074-42.578-.953-42.568l-22.595.254c.313 21.927.617 42.862.926 64.79 1.2-.16 2.473-.22 3.822-.166 1.7.064 3.305.374 4.817.93zm52.656 9.845l-.05-4.447c-.53-.11-1.063-.23-1.59-.33-2.71-.5-5.26-.91-7.657-1.23-2.398-.32-4.468-.91-6.21-1.77-1.45.34-2.873.91-4.272 1.69-1.32.75-2.58 1.63-3.76 2.63v.15c4.44-.2 8.93.01 13.48.64 3.55.49 6.9 1.388 10.07 2.68zm-18.604 5.148c1.532-1.544 3.527-2.545 5.986-3.004 2.657-.498 4.956-.525 6.894-.087 1.94.44 3.585 1.162 4.942 2.165.295.218.57.45.84.687l-.033-2.842c-3.66-1.57-7.588-2.595-11.787-3.068-4.027-.453-7.942-.597-11.762-.47.046 4.267.09 8.53.14 12.798.793-.18 1.59-.35 2.39-.498.058-2.244.855-4.138 2.39-5.68zm6.822-13.423c1.284.25 2.694.438 4.23.57 1.537.13 3.21.343 5.018.632.793.128 1.616.293 2.46.484l-.012-1.14c-3.463-.91-7.358-1.1-11.696-.55zm2.815 40.413c-1.61.265-3.17.347-4.686.27 4.703 2.548 9.405 5.092 14.107 7.65l-.148-13.145c-1.157 1.26-2.46 2.33-3.932 3.18-1.767 1.03-3.547 1.71-5.34 2.05z"/><path opacity=".75" d="M78.932 163.61c-.408-1.81-.32-3.36.263-4.66.583-1.293 1.87-2.128 3.864-2.5.99-.186 1.99-.11 2.98.227.99.34 1.99.45 3 .33.4-.074.66-.228.79-.462.12-.232.21-.51.25-.833.04-.322.09-.594.16-.814.06-.222.22-.356.49-.407.53-.09 1.04-.05 1.52.13.48.19.76.51.85.98.1.94-.22 1.69-.978 2.25-.756.56-1.494.94-2.21 1.14-1.25.306-2.326.16-3.227-.43-.9-.585-1.85-.79-2.846-.602-1.46.274-2.345.973-2.65 2.097-.305 1.125-.358 2.217-.16 3.28.215 1.147.56 2.078 1.037 2.79.48.713 1.033 1.29 1.666 1.73.39-.14.78-.25 1.18-.325l1.098-.205c4.87-.91 9.3-.813 13.3.274l-.13-11.467c-1.093-1.54-2.16-3.13-3.17-4.81l-.5.09c-2.79.52-5.44 1.23-7.956 2.12-2.514.887-5.054 1.834-7.615 2.837-1.39.544-2.808 1.088-4.24 1.63.044 4.52.098 9.044.146 13.566 1.84-1.19 3.794-2.167 5.872-2.91-1.4-1.205-2.33-2.88-2.8-5.028zm8.588 17.24c-1.518.355-2.93 1.247-4.244 2.68-1.314 1.434-2.23 2.965-2.75 4.597 3.147-.448 6.514-.642 10.1-.58 3.094.053 6.066.475 8.93 1.22l-.028-2.61c-.842-1.326-1.93-2.524-3.283-3.585-2.297-1.807-5.207-2.38-8.726-1.72zm10.403-50.79c-1.07 1.632-1.87 3.788-2.4 6.47l-.1.02c-.126.79-.168 1.496-.12 2.115-.017.283-.016.563 0 .837.018.276.06.583.123.92l.2-.037c1.137-.214 2.26-.362 3.377-.48l-.124-10.982c-.36.34-.69.718-.96 1.137zM82.1 207.57c2.266.727 4.697.85 7.287.365 1.396-.262 2.906-.822 4.532-1.687-.33-.287-.63-.58-.89-.88s-.43-.655-.51-1.06c-.19-1.012-.18-1.938.04-2.783.22-.842.384-1.694.5-2.554 2.653 2.44 4.33 3.31 5.027 2.62.045-.49.056-.98.036-1.47-.023-.48-.078-.96-.166-1.43-.112-.6-.53-.91-1.253-.91-.723-.004-1.16-.412-1.31-1.22-.065-.34-.004-.646.185-.926.19-.28.45-.45.78-.513.6-.11 1.13.155 1.597.8.463.648.76 1.31.885 1.98.25 1.35.3 2.7.14 4.06.25-.33.482-.68.7-1.037l-.12-10.73c-2.85-.804-5.807-1.187-8.87-1.13-3.7.06-7.185.363-10.45.905-.01.7.02 1.215.082 1.55.202 1.08.88 2.054 2.042 2.92 1.154.866 2.1 1.23 2.83 1.092.93-.178 2.02-.117 3.28.17 1.255.29 1.97.87 2.13 1.744.09.474.055 1.02-.103 1.644-.16.62-.638 1.005-1.436 1.155.205-.385.287-.767.25-1.145-.033-.374-.083-.73-.15-1.07-.07-.404-.44-.527-1.1-.37-.655.16-1.22.28-1.68.366-.93.175-1.832.048-2.702-.383-.876-.43-1.65-1.016-2.34-1.76-.69-.743-1.278-1.576-1.76-2.498-.48-.923-.805-1.82-.97-2.7l-.076-.404c-.84.19-1.67.393-2.49.61.05 4.49.094 8.982.144 13.473 1.722 1.43 3.68 2.5 5.89 3.21zm11.452-66.694l-.266-1.416c-.416-2.226-.238-4.492.534-6.802.77-2.307 2.005-4.44 3.702-6.4.415-.477.853-.937 1.313-1.385l-.28-23.63c-7.167.185-14.334.39-21.48.576-1.34.03-2.018-.44-2.002.88l.534 46.21c1.867-1.27 3.862-2.53 6.01-3.76 3.13-1.81 7.11-3.24 11.935-4.28zm58.762 17.56c.095.133.194.26.285.4.72-4.6 1.68-8.47 2.88-11.605-1.12-.64-2.23-1.1-3.31-1.4l.14 12.4v.21zm13.932 12.716c-.272-.716-.585-1.286-.938-1.71-2.435 3.527-4.627 7.166-6.57 10.915-1.946 3.75-3.54 7.625-4.786 11.627l.497-.093c3.44-.71 6.41-2.16 8.93-4.34 2.51-2.18 4.52-4.73 6.04-7.67 1.51-2.93 2.52-6.05 3.04-9.36.51-3.3.49-6.44-.06-9.41l-.23-1.21-1.98 2.672-1.974 2.673c.435 4.18-.18 8.064-1.845 11.654-1.66 3.592-4.315 7.053-7.954 10.39l-1.19-.3c2.305-2.39 4.245-4.88 5.82-7.48 1.58-2.6 2.64-5.38 3.187-8.345zm-7.924-24.172c2.41 1.855 4.447 4.196 6.11 7.025 1.664 2.83 2.785 5.622 3.37 8.374.604-.81 1.226-1.63 1.862-2.45.638-.82 1.26-1.63 1.865-2.45-1.03-3.296-2.49-6.218-4.38-8.763-1.89-2.544-4.02-4.674-6.41-6.394l-1.216 2.322-1.216 2.32zm4.463-13.084c1.76-2.353 3.214-4.405 4.365-6.157 1.15-1.75 1.544-3.61 1.178-5.57-.265-1.42-1.018-2.69-2.26-3.82-1.243-1.13-2.896-1.5-4.953-1.118-1.33.25-2.428.995-3.294 2.24-.86 1.243-1.19 2.79-.99 4.633.05.62.03 1.322-.06 2.106-.09.788-.46 1.277-1.12 1.467-.25.116-.57-.03-.96-.45-.38-.416-.6-.76-.65-1.03-.125-.67.13-1.33.766-1.975.635-.646.85-1.33.646-2.06-.23-.865-.193-1.675.113-2.43.306-.754.73-1.41 1.28-1.968.55-.553 1.2-1.024 1.95-1.41.756-.385 1.464-.64 2.128-.764 2.856-.534 5-.01 6.43 1.57 1.433 1.585 2.318 3.287 2.658 5.107.3 1.62-.04 3.48-1.02 5.58-.983 2.104-2.235 4.415-3.757 6.934 3.394 1.25 6.482 3.065 9.265 5.44.183.156.36.325.536.488-.04-4.55-.074-9.105-.114-13.656-.08-9.12-.164-17.24-.226-26.334l-21.59.242c-1.49.015-1.45-.216-1.434 1.17l.354 30.265c.18 0 .355-.014.534-.014 3.54.003 6.95.5 10.23 1.49zm-6.678 11.72c.392-.84.755-1.66 1.09-2.455.33-.79.706-1.54 1.125-2.25-2.058-1.14-4.137-1.96-6.234-2.48l.063 5.72c1.4.34 2.73.82 3.96 1.47zm7.803 22.414c-.83-.753-1.598-1.552-2.306-2.397-.71-.844-1.066-2.208-1.074-4.092 1.557-.5 3.322-.06 5.3 1.32-.707-1.19-1.697-2.26-2.975-3.21-1.276-.94-2.506-1.27-3.69-.98-.266.05-.553-.02-.862-.204-.31-.185-.49-.413-.54-.683-.127-.673.108-1.07.707-1.18 1.062-.2 2.253.016 3.574.64 1.32.63 2.472 1.548 3.454 2.76-.723-2.03-1.79-4.064-3.203-6.104-1.413-2.04-3.008-3.765-4.784-5.177-.82 1.83-1.6 3.752-2.32 5.77-.72 2.02-1.26 4.075-1.63 6.17.22.445.41.88.56 1.31.15.425.28.91.38 1.446.165.88.22 1.824.17 2.845-.05 1.02.01 1.974.17 2.85.14.74.42 1.425.85 2.04.425.62 1.09.776 1.995.467.793.2 1.22.643 1.28 1.33-.667 1.59-1.463 2.75-2.392 3.48-.93.734-1.99 1.21-3.184 1.434-.196 1.826-.475 3.59-.79 5.33l.08 7.527c2.93-7.922 6.673-15.485 11.25-22.676zm-49.603 21.75c2.18 3.395 3.772 7.554 4.755 12.5.67 3.225.762 6.558.27 10-.147 1.043-.407 2.057-.75 3.047l.795-.456c.662-1.36 1.202-2.76 1.612-4.21 1.13-4.01 1.25-8.62.35-13.83-.54-2.9-1.4-5.81-2.56-8.73-1.17-2.92-2.67-5.61-4.5-8.06-.03-.02-.06-.04-.09-.07l.07 6.78c.01 1.02.02 2.03.032 3.04zm3.053-61.942c1.736.652 2.783 1.924 3.135 3.81.126.676-.003 1.362-.388 2.064-.385.7-.542 1.427-.468 2.18.04.62.3 1.008.78 1.164.47.155.87.377 1.2.663-.9.16-1.688.07-2.35-.29-.67-.36-1.06-.84-1.17-1.44-.15-.8 0-1.54.46-2.21.46-.67.59-1.34.4-2-.304-1.258-1.093-2.08-2.367-2.46-1.074-.326-2.067-.43-2.99-.34l.144 12.57c.725.242 1.44.5 2.14.79 2.455 1.004 4.71 2.223 6.766 3.652 1.95-2.808 4.296-5.165 7.03-7.074.228-1.366.49-2.71.797-4.02.306-1.316.365-2.65.18-4.016-.25-1.697-.777-3.168-1.585-4.415-.807-1.247-1.786-2.32-2.936-3.22l.073.402c.3.5.583 1.01.85 1.516.267.51.464 1.1.59 1.774.126.675.1 1.447-.083 2.32l-1.126-.52c.27-.4.34-.938.213-1.61-.078-.407-.188-.8-.326-1.185-.14-.38-.304-.707-.49-.97-.132.397-.34.75-.626 1.066-.288.316-.577.61-.867.888-.835-1.89-2.08-3.032-3.735-3.43-.51-1.245-.56-2.26-.16-3.04-2.32-.69-4.636-.953-6.954-.792l.088 7.54c1.165-.09 2.42.11 3.76.616zm16.884 30.452c1.326 2.18 2.426 4.373 3.32 6.577l-.09-8.06c-1.158.338-2.235.83-3.23 1.483zm-2.496-16.652c-2.83 1.403-5.194 3.294-7.086 5.67 1.446 1.115 2.792 2.347 4.042 3.692 1.247 1.35 2.382 2.725 3.4 4.13 1.282-.867 2.646-1.54 4.09-2.022-.25-.294-.52-.605-.812-.93-.29-.325-.6-.663-.924-1.015l.57-.106c.375.272.755.563 1.142.868.385.308.74.602 1.07.884l.186-.04-.148-13.25c-2.1.63-3.95 1.33-5.53 2.11z"/><path opacity=".75" d="M124.167 120.177c1.968 1.03 3.688 2.382 5.163 4.06 1.474 1.68 2.4 3.707 2.775 6.078.147 1.16.127 2.333-.063 3.52s-.346 2.387-.463 3.594c1.76-1.12 3.65-2.03 5.64-2.75l-.38-32.81c-.02-1.3-1.18-.72-2.38-.73-7.05-.03-14.11-.05-21.18-.1l.2 16.92c1.407-.115 2.89-.06 4.455.17 2.177.33 4.25 1.003 6.22 2.03zm3.706 61.397c.78 1.6 1.728 2.994 2.845 4.18-.184-1.71-.396-3.398-.638-5.062-.244-1.665-.515-3.308-.818-4.927-.39-2.09-1.266-4.37-2.62-6.838-.74 2.65-.91 5.057-.507 7.213.38 2.024.958 3.84 1.738 5.434zm-2.887 22.058c.3-3.16.083-6.907-.658-11.238-.692-4.06-2.096-7.705-4.212-10.938-1.774-2.708-3.782-5.363-5.996-7.97l.042 3.756c.512.584 1.01 1.18 1.48 1.804l.57.837c3.453 4.87 5.63 10.08 6.534 15.637.786 4.947.634 9.826-.46 14.64-.29 1.28-.674 2.51-1.14 3.7.466-.266.93-.53 1.393-.796.14-.313.29-.618.42-.938 1.04-2.5 1.72-5.33 2.02-8.494zm-9.064 4.47c-.358-1.912-.85-3.646-1.458-5.222.058 4.898.122 9.803.177 14.7.14-.077.27-.152.4-.23.3-.823.56-1.674.74-2.573.49-2.36.54-4.584.15-6.674z"/><path opacity=".75" d="M117.68 203.167c-.685-3.9-1.803-7.293-3.335-10.193.027 2.114.05 4.227.077 6.34 1.367 2.347 2.365 5.14 2.976 8.408.34 1.82.413 3.587.218 5.298-.13 1.125-.356 2.2-.664 3.238l.18-.104c.667-1.815 1.01-3.73 1.025-5.748.02-2.654-.14-5.067-.477-7.24zm13.504-12.16c-1.802-1.547-3.38-3.467-4.738-5.762-1.356-2.294-2.344-5.094-2.963-8.4-.68-3.64-.352-7.4.984-11.28-1.466-1.96-3.153-3.81-5.06-5.547-1.72-1.566-3.553-2.948-5.485-4.164l.083 7.404c.543.342 1.118.678 1.76 1.002.912.457 1.403 1.063 1.476 1.818.03.902-.13 1.875-.48 2.917l-1.06 3.13c2.39 2.837 4.54 5.872 6.45 9.107 1.91 3.24 3.32 6.938 4.24 11.093.94 4.29 1.16 8.144.67 11.55-.417 2.86-1.117 5.448-2.065 7.794l3.39-1.94c1.09-2.77 1.86-5.59 2.26-8.46.467-3.37.653-6.79.554-10.27z"/></g><path fill="#F0B514" d="M41.16 83.672v5.15h-3.298V71.325c2.724 0 5.523-.025 8.248-.025 8.598 0 8.623 12.298 0 12.373h-4.95zm0-3.024h4.95c4.224 0 4.2-6.2 0-6.2h-4.95v6.2zm41.323 8.172H78.71l-5.075-5.848h-3.35v5.85h-3.298V71.3c2.774 0 5.548.024 8.323.024 4.124.025 6.298 2.774 6.298 5.798 0 2.4-1.1 4.824-4.424 5.5l5.3 5.972v.225zM70.286 74.4V80h5.024c2.1 0 3-1.4 3-2.8s-.925-2.8-3-2.8h-5.024zm71.372 14.42H128.56V71.326h13.098v3.2h-9.822v4.023h9.473v3.07h-9.48v3.95h9.82v3.25zm30.475-12.67l-5.7 7.597h-.648l-5.573-7.623v12.722h-3.3V71.35h3.8l5.474 7.524 5.474-7.523h3.773v17.5h-3.3v-12.7zm-58.78 1.938c-.89-3.81-1.35-7.113-9.063-7.113-8.023 0-7.636 2.39-8.95 6.207.514 1.565.35 3.378-.488 4.784.08.68.207 1.35.41 1.99 3.433.04 5.097 1.746 4.997 4.426.05.02.11.038.17.058l-.2.353.67.374.073-.14.407.275.315-.488c.13.03.255.067.39.09l-.133.18.61.5.417-.558c.18.018.37.026.56.036l-.174.197.58.56.55-.63-.118-.12c.132 0 .26-.017.39-.02l-.15.143.55.63.58-.566-.225-.257c.18-.02.35-.057.522-.085l.5.67.612-.503-.258-.34c.134-.037.267-.07.4-.11l.424.66.407-.278.075.134.675-.374-.34-.61c.027-.01.06-.02.085-.033-.132-2.583 1.38-4.216 4.54-4.49.146-.502.254-1.02.33-1.54-.523-1.255-.58-2.722-.167-4.026zM98.727 82.9l-1.158-.344-.32-2.037 1.04-1.21 1.65-.13 3.09 2.3-1.806 1.85h-.93l-1.578-.43zm5.92 4.054l-.4-1.737-.436 1.737-1.06-1.295.37-1.17.69-1.41.91.93 1.04 1.97-1.102.96zm6.473-4.397l-1.16.344-1.576.44h-.932l-1.803-1.85 3.08-2.3 1.65.13 1.046 1.21-.32 2.04z"/></svg>