<svg xmlns="http://www.w3.org/2000/svg" width="252" height="252" viewBox="0 0 252 252"><path opacity=".75" fill="#535236" d="M125.475-.21c-47.897 0-92.627 28.263-113.383 71.4-21.07 43.768-14.42 97.142 16.555 134.505 30.888 37.258 81.725 53.795 128.607 41.545 45.955-12.006 82.18-50.33 91.524-96.915 9.52-47.443-9.78-97.143-48.632-125.913C178.623 8.487 152.25-.21 125.476-.21c-69.336 0 69.335 0 0 0zm122.01 120.855c.017.612.052 1.225.052 1.837-1.925.053-1.872.28-1.94-1.82.155-.14 1.887-.052 1.887-.017 0 .07 0-.018 0 0zm-.105-1.942c-1.242.07-1.854.56-1.942-.823-.088-1.4.578-.98 1.82-1.067.053.63.088 1.26.122 1.89 0 0-.034-.63 0 0zm-.402-5.355c.052.525.104 1.05.14 1.592-1.225.105-1.838.63-1.96-.77-.104-1.19-.14-.927.858-1.015.437-.052.91-.315.962.193 0 0-.018-.105 0 0zm-.473-4.043l.157 1.19c0 .175.053.367.07.56.053.105-1.645.472-1.855.35-.262-2.083-.28-1.872 1.628-2.1 0 .017 0 0 0 0zm-.56-3.693c.104.613.192 1.19.28 1.803-1.226.175-1.786.735-2.013-.647-.193-1.19-.193-.91.787-1.067.1 0 .92-.21.94-.08 0 0 0-.016 0 0zm-.666-3.71c0 .035.52 1.768.19 1.82-1.84.333-1.68.472-2.07-1.522.14-.158 1.854-.35 1.87-.298 0 0 0-.017 0 0zm-.56-2.677c0 .21.14.612.15.77-1.21.262-1.75.84-2.05-.508-.3-1.365.438-1.05 1.627-1.33.106.35.176.7.263 1.068 0 0-.087-.368 0 0zm-.9-3.78c0 .018.33 1.313.21.858-1.21.297-1.717.91-2.066-.455-.35-1.348.402-1.068 1.592-1.383l.262.98s-.09-.333 0 0zm-1.28-4.603c.263.542.35 1.208.525 1.803-1.19.333-1.68.962-2.083-.385-.595-2.1 1.56-.42 1.56-1.418 0 .018 0 0 0 0zm-1.085-3.447c.245.49.367 1.103.525 1.627-1.173.368-1.662 1.015-2.082-.315-.37-1.138-.334-.875.61-1.172.264-.105.84-.472.946-.14.017 0-.018-.053 0 0zm-1.137-3.325c0 .438.314.928.472 1.365-1.174.402-1.63 1.05-2.1-.263-.404-1.12-.37-.857.576-1.208.613-.21.822-.542 1.05.106 0 .017-.05-.14 0 0zm-29.73 117.653c-1.156-.228-3.676-1.277-4.76-.945-1.156.367-2.66 2.607-3.553 3.482-.125-1.662-.266-3.324-.388-4.987-.053-.647-3.466-2.17-4.113-2.572 1-.43 3.57-1.03 4.183-1.87.67-.91.51-3.53.687-4.69.84.88 2.275 3.17 3.378 3.54 1.12.37 3.658-.61 4.848-.803-.595 1.086-2.345 3.15-2.38 4.357-.035 1.208 1.575 3.36 2.1 4.498zm5.43-135.083c-1.663-.158-3.325-.333-4.987-.49-.647-.07-2.747 3.01-3.255 3.57-.262-1.085-.367-3.658-1.085-4.463-.735-.805-3.43-1.137-4.497-1.487.997-.665 3.518-1.663 4.077-2.695.56-1.033.053-3.71.07-4.917.962.787 2.677 2.87 3.867 3.132s3.586-.945 4.794-1.26c-.42 1.085-1.906 3.395-1.767 4.515.14 1.19 2.083 3.08 2.783 4.095zm16.537 39.288c-1.452-.805-2.888-1.593-4.34-2.398-.56-.315-3.71 1.715-4.376 2.03.16-1.067 1.07-3.553.684-4.533-.402-1.05-2.713-2.345-3.588-3.097 1.19-.228 3.885-.193 4.795-.928s1.49-3.395 1.96-4.498c.596 1.103 1.384 3.658 2.38 4.357 1 .7 3.694.51 4.92.69-.82.84-3.06 2.38-3.37 3.48-.335 1.19.7 3.68.944 4.9zM226.24 85.47c-1.575-.49-3.168-.998-4.742-1.488-.613-.192-3.29 2.415-3.886 2.87-.052-1.085.35-3.675-.21-4.567-.612-.963-3.133-1.768-4.147-2.345 1.12-.455 3.78-.945 4.532-1.837.753-.893.77-3.623 1.016-4.795.805.962 2.082 3.325 3.202 3.815 1.12.473 3.71-.228 4.952-.315-.63.998-2.537 2.94-2.625 4.077-.087 1.19 1.418 3.43 1.908 4.585zm-16.135 95.813c.91-.648 3.27-1.68 3.744-2.643.49-.98-.2-3.605-.27-4.726.995.7 2.832 2.643 4.01 2.8 1.17.158 3.48-1.295 4.634-1.715-.385 1.18-1.697 3.53-1.505 4.72.192 1.19 2.19 2.99 2.923 4.01-1.175 0-3.87-.55-4.867 0-1.05.59-2.08 3.08-2.784 4.11l-1.363-4.83c-.175-.63-3.816-1.47-4.533-1.73zm9.047-17.517c.77-.806 2.888-2.293 3.168-3.326.28-1.05-.893-3.482-1.19-4.584 1.103.473 3.29 2.012 4.462 1.94 1.174-.086 3.168-1.958 4.2-2.59-.14 1.244-.962 3.8-.542 4.937.438 1.137 2.73 2.502 3.657 3.342-1.155.23-3.902.23-4.76.963-.928.787-1.435 3.447-1.907 4.586-.77-1.488-1.54-2.976-2.293-4.463-.297-.59-4.043-.68-4.795-.8zm13.406-15.226c-1.05-1.295-2.1-2.607-3.15-3.902-.402-.508-4.077.14-4.83.175.595-.945 2.362-2.817 2.433-3.902.07-1.1-1.57-3.23-2.06-4.27 1.17.25 3.64 1.33 4.78 1.02 1.14-.31 2.698-2.55 3.57-3.373.12 1.24-.19 3.92.458 4.953.646 1.015 3.2 1.907 4.25 2.537-1.065.456-3.78 1-4.46 1.89-.77.963-.754 3.675-.98 4.883zm2.17-21.315c-1.295-1.067-2.59-2.135-3.868-3.202-.507-.42-3.972.945-4.707 1.138.367-1.01 1.768-3.27 1.593-4.3-.192-1.12-2.188-2.83-2.905-3.76 1.21.02 3.84.58 4.89.037 1.05-.542 2.138-3.027 2.838-4.025.367 1.19.61 3.867 1.45 4.74s3.52 1.244 4.69 1.664c-.96.663-3.5 1.73-4.006 2.73-.56 1.1.017 3.76.035 4.985zm4.094-47.093c.14.49.49 1.243.683 1.75-1.155.438-1.593 1.103-2.1-.192-.44-1.12-.386-.84.542-1.225 0 .017.858-.35.875-.333 0 .018 0 0 0 0zm-.717-1.75c-1.14.473-1.56 1.155-2.1-.123-.543-1.28.227-1.12 1.364-1.61l.73 1.73s-.25-.58 0 0zm-1.855-4.2c.105.246.228.49.332.736-1.12.507-1.52 1.208-2.117-.052-.595-1.26.193-1.12 1.313-1.663.158.332.314.665.472.98 0 .017-.158-.315 0 0zm-1.295-2.677c-1.103.542-1.488 1.26-2.117 0-.63-1.242.157-1.137 1.26-1.697.297.577.577 1.137.857 1.697 0 0-.28-.56 0 0zm-2.047-3.955c0 .123.28.508.314.595-1.085.578-1.436 1.295-2.1.07-.666-1.225.122-1.137 1.207-1.732.19.35.38.7.57 1.067 0 0-.194-.35 0 0zm-2.17-3.833c.14.245.28.508.437.753.21.35.245.35-.21.612-1.47.84-1.242.63-2.152-.91.123-.315 1.313-.77 1.627-.962.087.175.193.332.297.507 0 0-.104-.175 0 0zM229.46 61.6c-1.05.647-1.364 1.382-2.1.21-.735-1.172.052-1.138 1.103-1.803.314.508.664 1.05.997 1.593 0 0-.333-.542 0 0zm-3.08-4.725c.386.385.753 1.12 1.032 1.54-1.032.683-1.313 1.417-2.1.263-.665-.998-.56-.735.263-1.313.052-.017.753-.56.805-.49 0 0 0-.018 0 0zm-1.96-2.8c.21.438.596.822.857 1.208-1.015.717-1.277 1.47-2.082.333-.805-1.138-.018-1.138.98-1.873.088.122.175.227.245.332 0 .017-.07-.105 0 0zm-2.047-2.747c.14.28.524.7.682.893-.997.76-1.225 1.51-2.064.41-.85-1.1-.05-1.14.93-1.89.14.19.3.4.46.597 0 .017-.16-.193 0 0zm-2.73-3.43c.297.384.595.77.928 1.137.25.315-.89 1.4-1.29 1.4-.47-.595-1.52-1.155-.8-1.75.21-.175.963-1.033 1.173-.788 0 0-.036-.035 0 0zm-1.54-1.838c.07.087.157.175.228.262-.94.805-1.13 1.575-2.04.525-.91-1.05-.12-1.138.808-1.943.33.386.663.77 1.014 1.156 0 0-.35-.385 0 0zm-3.553-3.955c.455.438.858.928 1.278 1.382-.91.823-1.086 1.61-2.03.578-.945-.998-.157-1.103.752-1.96 0 .018 0 0 0 0zm-2.625-2.712c.438.438.875.893 1.33 1.348-.893.86-1.032 1.65-2.013.65-.98-1-.192-1.12.683-1.99.104.12 0 0 0 0zm-2.712-2.643c.455.438.91.857 1.365 1.313 0 .123-.596.612-.666.683-.7.717-.455.857-1.33.035-.997-.98-.227-1.12.63-2.03.315.32 0 0 0 0zm-2.8-2.538c.472.42.944.84 1.4 1.26-.84.91-.93 1.697-1.96.77-1.033-.927-.263-1.102.56-2.03.297.246 0 0 0 0zm-2.852-2.467c.49.402.97.805 1.44 1.225-.8.945-.87 1.732-1.94.822-1.07-.91-.3-1.102.51-2.047.087.07 0 0 0 0zm-6.35 18.97c-.82 1.383-1.62 2.765-2.45 4.147-.45-1.015-1.05-3.535-1.9-4.182-.875-.665-3.587-.455-4.707-.613.857-.84 3.115-2.31 3.48-3.43.35-1.12-.664-3.658-.874-4.848 1.453.77 2.89 1.52 4.34 2.29.596.31 3.8-1.79 4.5-2.14-.21 1.152-1.228 3.71-.877 4.78.383 1.15 2.66 2.603 3.55 3.48-1.68.174-3.36.35-5.06.51zm-2.92 166.145c-1.08-.46-3.34-1.96-4.48-1.84-1.22.12-3.13 1.98-4.18 2.66.21-1.63.42-3.256.61-4.884.09-.63-2.99-2.818-3.53-3.31 1.05-.243 3.71-.313 4.48-1.03.82-.772 1.173-3.397 1.54-4.498.647 1.014 1.628 3.534 2.643 4.11s3.69.105 4.9.14c-.79.964-2.89 2.644-3.167 3.833-.28 1.19.89 3.61 1.19 4.82zm-68.472.592c-22.453-12.81-44.922-25.62-67.375-38.43-1.435-.805-4.08-1.436-4.095-3.238-.02-4.234-.02-8.452-.037-12.67-.052-16.258-.104-32.515-.14-48.772l-.11-37.222c0-2.764.333-5.407 1.365-7.997 3.22-8.103 10.728-9.712 18.638-9.695 34.79.104 69.6.63 104.388.646 8.524 0 15.77 4.41 17.816 12.95.507 2.1.42 4.13.42 6.265.034 13.77.087 27.54.122 41.31.053 15.49.088 30.974.14 46.48 0 3.01.02 6.036.036 9.05 0 .82-6.755 3.952-7.454 4.355-21.27 12.304-42.49 24.624-63.72 36.962zM55.44 37.622c1.085.458 3.343 1.96 4.48 1.84 1.225-.123 3.133-1.995 4.2-2.66-.21 1.627-.42 3.27-.613 4.9-.087.63 2.975 2.8 3.518 3.307-1.05.24-3.692.31-4.462 1.03-.822.77-1.172 3.39-1.558 4.5-.647-1.02-1.61-3.54-2.643-4.12-1.015-.58-3.71-.106-4.917-.14.805-.96 2.905-2.644 3.185-3.834.28-1.19-.893-3.62-1.19-4.83zm18.935-11.67c.98.648 2.888 2.556 4.025 2.66 1.225.124 3.465-1.33 4.638-1.784-.525 1.557-1.05 3.097-1.575 4.655-.192.595 2.38 3.325 2.817 3.92-1.085.035-3.692-.385-4.567.158-.962.6-1.802 3.12-2.38 4.13-.438-1.12-.91-3.78-1.785-4.55-.893-.77-3.605-.82-4.777-1.08.97-.79 3.35-2.05 3.84-3.15.51-1.12-.173-3.71-.23-4.95zm98.314 4.76c1.19.368 3.55 1.66 4.74 1.45s2.96-2.24 3.95-2.972c.015 1.172-.49 3.885.07 4.865.593 1.05 3.112 2.047 4.163 2.73-1.61.472-3.203.962-4.813 1.435-.613.192-1.42 3.833-1.663 4.55-.647-.91-1.715-3.272-2.677-3.728-.98-.473-3.59.228-4.71.297.685-1 2.59-2.87 2.73-4.03.126-1.17-1.362-3.47-1.8-4.6zm27.93-1.35c.29.248.91.56 1.06.84.523.42.28.51-.177 1.07-.875 1.067-.98.42-2.048-.42-.035-.332.93-1.19 1.155-1.487 0 .017 0 0 0 0zm-3.03-2.272c.51.368 1.01.752 1.52 1.138-.757.98-.77 1.785-1.89.945-1.12-.858-.35-1.103.363-2.083.333.227 0 0 0 0zm-3.08-2.205c.52.35 1.03.718 1.54 1.085-.72 1.015-.72 1.802-1.86.997-1.138-.787-.386-1.05.314-2.082.35.245 0 0 0 0zm-3.13-2.082c.52.332 1.05.682 1.57 1.032-.687 1.033-.65 1.82-1.82 1.067-1.17-.77-.44-1.067.24-2.1.368.228 0 0 0 0zm-3.22-1.995c.54.333 1.08.647 1.61.98-.65 1.05-.6 1.837-1.79 1.12-1.19-.736-.46-1.05.17-2.1.543.315 0 0 0 0zm-3.28-1.908c.54.315 1.1.613 1.644.945-.613 1.067-.543 1.855-1.75 1.172-1.21-.7-.49-1.032.104-2.117.35.192 0 0 0 0zm-3.327-1.785c.56.28 1.12.577 1.662.892-.578 1.085-.49 1.873-1.716 1.225-1.226-.665-.51-1.032.052-2.117.07.035 0 0 0 0zm-3.377-1.698c.56.28 1.138.542 1.698.84-.56 1.103-.42 1.89-1.68 1.278-1.26-.613-.56-.997-.015-2.118.455.228 0 0 0 0zm-3.43-1.592c.577.262 1.138.525 1.716.787-.526 1.12-.37 1.908-1.647 1.33-1.26-.577-.578-.98-.07-2.117zm-3.483-1.47c.577.245 1.173.473 1.75.717-.49 1.138-.315 1.908-1.593 1.383-1.294-.525-.63-.945-.157-2.1.577.245 0 0 0 0zm-3.517-1.365c.595.227 1.173.438 1.768.665-.454 1.155-.244 1.925-1.557 1.435s-.647-.945-.21-2.1c.58.21 0 0 0 0zm-3.57-1.26c.595.192 1.19.402 1.786.612-.403 1.173-.193 1.925-1.506 1.47-1.313-.437-.682-.91-.28-2.082.174.052 0 0 0 0zm-3.605-1.138c.61.175 1.205.368 1.8.56-.366 1.173-.122 1.943-1.452 1.522-1.33-.42-.7-.91-.35-2.082.61.176 0 0 0 0zm-3.64-1.032c.61.175 1.205.333 1.82.507-.335 1.19-.07 1.942-1.42 1.575-1.33-.385-.717-.892-.4-2.082.033 0 0 0 0 0zm-3.66-.928c.595.14 1.19.28 1.785.438.173.245-.28 1.365-.37 1.715-.053.228-1.872-.193-1.803-.438.124-.577.247-1.137.387-1.715zm4.48 17.22c1.104-1.224 2.205-2.467 3.31-3.69.244 1.154.26 3.9.997 4.776.79.91 3.45 1.417 4.586 1.89-1.47.788-2.957 1.557-4.428 2.345-.578.298-.63 4.042-.735 4.795-.803-.77-2.31-2.887-3.36-3.15-1.065-.28-3.48.928-4.565 1.225.454-1.085 2.012-3.342 1.907-4.48-.123-1.208-1.96-3.132-2.625-4.183 1.626.14 3.27.298 4.916.473zM149.59 5.83c.613.123 1.242.262 1.855.385-.263 1.208.053 1.942-1.313 1.645-1.382-.28-.786-.823-.542-2.03zm-3.728-.683c.63.105 1.243.228 1.854.333-.227 1.208.123 1.942-1.26 1.697-1.364-.245-.804-.805-.594-2.03.542.087 0 0 0 0zm-3.727-.578c.63.08 1.242.17 1.873.28-.193 1.22.175 1.92-1.208 1.73-1.382-.21-.84-.79-.665-2.02.613.09 0 0 0 0zm-3.762-.46l1.872.21c-.14 1.22.228 1.92-1.155 1.77-1.365-.14-.84-.74-.717-1.98.63.07 0 0 0 0zm.997 11.16c.455 1.068 1.015 3.78 1.907 4.463.963.75 3.676.7 4.9.944-1.295 1.05-2.607 2.1-3.902 3.167-.508.402.175 4.095.21 4.85-.945-.597-2.835-2.365-3.92-2.417-1.103-.05-3.237 1.594-4.253 2.085.245-1.173 1.33-3.64.998-4.778-.315-1.138-2.556-2.696-3.396-3.57 1.243-.124 3.92.174 4.935-.474 1.01-.665 1.89-3.202 2.52-4.27zm-4.76-11.5l1.89.16c-.105 1.225.297 1.925-1.103 1.803-1.38-.12-.875-.718-.788-1.96.52.035 0 0 0 0zm-3.762-.226c.63.017 1.26.052 1.89.087-.07 1.243.35 1.908-1.032 1.838-1.42-.05-.93-.68-.858-1.924.314.02 0 0 0 0zm-3.78-.106c.63 0 1.26.02 1.89.035-.036 1.242.42 1.89-.98 1.872-1.4-.036-.928-.666-.91-1.91.63.02 0 0 0 0zm-3.448 0c.63 0 1.242-.017 1.873-.017 0 1.26.42 2.066-1.068 1.89-.647-.07-.805.246-.805-.47 0-.105-.035-1.4 0-1.4zm-3.78.123c.63 0 1.243-.05 1.873-.07.035 1.244.525 1.874-.875 1.926-1.19.05-.927.086-.98-.91 0-.037-.07-.947-.018-.947zm-3.657.228c.577 0 1.172-.085 1.75-.12.07 1.242.577 1.854-.823 1.942-1.19.088-.927.124-.998-.874-.017-.228-.227-.928.07-.946.018 0-.035 0 0 0zm-3.256.28c.28 0 .578-.084.858-.084.175-.035.367-.088.385.104.105 1.207.595 1.697-.77 1.837-1.382.14-.998-.56-1.12-1.785.21-.02.437-.054.647-.07 0 0-.21.016 0 0zm2.573 15.19c.542-1.555 1.103-3.112 1.645-4.67.647.96 1.715 3.5 2.73 4.008 1.085.544 3.728-.033 4.97-.033-1.068 1.295-2.135 2.573-3.22 3.868-.42.508.945 3.974 1.138 4.71-1.05-.383-3.238-1.766-4.305-1.61-1.085.16-2.87 2.207-3.763 2.907.018-1.21.595-3.835.07-4.884-.525-1.05-3.028-2.135-4.008-2.835 1.576-.49 3.168-.98 4.743-1.456zm-6.79-14.68l1.172-.156c.175-.035.333-.035.508-.07.035 0 .123.91.14.945.123 1 .385.892-.805 1.05-1.19.16-.91.175-1.05-.805-.052-.263-.315-.91.035-.963 0 0-.07.017 0 0zm-3.71.58c.542 0 1.138-.19 1.663-.26.192 1.224.752 1.784-.63 2.012-1.173.197-.91.21-1.068-.77-.07-.33-.35-.91.035-.98 0 0-.07 0 0 0zm-1.89 24.204c-1.067-.175-3.552-1.103-4.515-.735-1.068.4-2.363 2.71-3.133 3.603-.21-1.19-.157-3.885-.875-4.813-.717-.926-3.377-1.504-4.48-1.994 1.103-.595 3.675-1.365 4.375-2.363.7-.998.542-3.675.735-4.917.84.823 2.345 3.08 3.448 3.395 1.172.35 3.64-.663 4.882-.873-.805 1.435-1.61 2.87-2.432 4.288-.315.578 1.68 3.745 1.995 4.41zM101.115 5.88c.42 0 1.417-.28 1.82-.35.228 1.225.805 1.767-.56 2.03-1.172.228-.91.228-1.103-.752-.017-.036-.245-.91-.157-.928 0 0-.017 0 0 0zm-3.622.805c.577-.14 1.155-.263 1.75-.403.262 1.208.857 1.733-.508 2.048-1.172.263-.893.263-1.12-.718-.052-.157-.35-.875-.122-.927 0-.018-.035 0 0 0zm-3.168.788c.385-.123.875-.228 1.225-.316.298 1.208.91 1.715-.438 2.065-1.347.35-1.067-.403-1.382-1.593.192-.06.385-.11.595-.16 0 0-.21.05 0 0zm-3.727 1.05c.438-.088.875-.264 1.313-.386.34 1.19.97 1.68-.36 2.083-1.33.402-1.083-.368-1.433-1.54.14-.07.314-.105.49-.158 0 0-.176.053 0 0zm-3.553 1.12c.42-.14.823-.263 1.243-.402.385 1.18 1.015 1.65-.315 2.09s-1.085-.33-1.488-1.485c.193-.07.368-.14.56-.193 0 0-.192.05 0 0zm-3.815 1.33c.49-.158.98-.368 1.47-.542.42 1.18 1.067 1.63-.245 2.1-1.313.49-1.103-.28-1.522-1.43.087-.05.192-.09.297-.12 0 0-.105.036 0 0zm-3.29 1.277c.175 0 1.803-.717 1.225-.49.455 1.155 1.12 1.593-.175 2.1-1.295.525-1.103-.262-1.575-1.4.157-.07.333-.14.525-.21 0 0-.192.07 0 0zm-3.36 1.417c.245-.14 1.208-.525 1.085-.473.49 1.138 1.172 1.558-.105 2.1-1.277.56-1.12-.228-1.627-1.348.21-.086.42-.19.647-.28 0 0-.227.09 0 0zm-3.99 1.838c.49 0 1.225-.577 1.627-.77.525 1.12 1.208 1.505-.052 2.118-1.085.507-.823.455-1.243-.455-.07-.14-.525-.806-.332-.893 0 0-.035 0 0 0zm-2.887 1.435c.315-.21.945-.473 1.103-.56.56 1.103 1.26 1.47.017 2.118-1.242.63-1.137-.158-1.697-1.243.19-.123.384-.21.577-.315 0 0-.193.105 0 0zm-3.71 1.995c.438 0 1.137-.63 1.47-.805.595 1.085 1.313 1.435.087 2.1-1.05.578-.787.507-1.277-.368-.175-.297-.63-.735-.28-.927 0 0-.07.035 0 0zm-2.748 1.592c.297-.192.612-.367.91-.542.63 1.068 1.348 1.4.158 2.1-1.208.718-1.138-.087-1.768-1.138.227-.14.455-.28.7-.42.018-.017-.245.14 0 0zm-3.868 2.398c.49-.35 1.033-.665 1.558-.98.647 1.05 1.382 1.348.21 2.1-1.015.647-.752.542-1.295-.297-.053-.07-.578-.77-.473-.823 0-.017-.017 0 0 0zm-3.15 2.1c.474-.315.946-.63 1.418-.962.28-.158.91 1.12 1.085 1.382 0 0-1.138 1.627-1.732.752-.105-.122-.858-1.102-.77-1.172 0 0-.018 0 0 0zm-2.52 1.785c.176-.175.44-.315.63-.455.193-.052.21-.315.37-.087.716.998 1.364 1.155.26 1.978-1.136.822-1.136.018-1.87-.98.208-.16.418-.316.61-.456 0 0-.192.14 0 0zm-2.1 1.575c.752.98 1.505 1.208.402 2.065-1.11.857-1.14.052-1.91-.91.49-.385 1-.77 1.5-1.155 0 0-.51.385 0 0zm-17.902 159.46c1.663.157 3.325.333 4.987.49.647.07 2.748-3.01 3.255-3.57.263 1.085.368 3.657 1.103 4.463s3.43 1.138 4.498 1.487c-.998.665-3.5 1.662-4.06 2.695-.577 1.032-.07 3.728-.087 4.936-.96-.788-2.67-2.87-3.85-3.133-1.19-.263-3.58.945-4.79 1.26.44-1.085 1.93-3.395 1.79-4.516-.175-1.207-2.135-3.08-2.835-4.11zM36.12 80.57c-.998-.682-2.835-2.642-4.008-2.782-1.172-.158-3.482 1.295-4.62 1.715.367-1.19 1.697-3.535 1.505-4.725s-2.188-2.992-2.922-3.99c1.172 0 3.867.542 4.847 0 1.05-.595 2.083-3.098 2.783-4.13.455 1.61.927 3.22 1.382 4.83.175.613 3.815 1.453 4.515 1.715-.91.63-3.29 1.68-3.763 2.643-.48.98.21 3.604.28 4.724zm-5.565 10.15c-.77.805-2.888 2.275-3.167 3.325-.28 1.05.91 3.5 1.19 4.585-1.103-.472-3.308-2.03-4.48-1.942-1.173.087-3.167 1.942-4.2 2.59.14-1.225.962-3.797.542-4.935-.42-1.12-2.748-2.502-3.657-3.325 1.155-.228 3.902-.228 4.777-.962.927-.788 1.435-3.448 1.925-4.585.77 1.49 1.522 2.98 2.292 4.47.298.58 4.043.68 4.778.79zm-13.388 15.225c1.05 1.313 2.1 2.608 3.167 3.92.402.507 4.078-.14 4.83-.175-.595.91-2.415 2.835-2.433 3.885-.03 1.137 1.58 3.22 2.09 4.252-1.17-.245-3.64-1.33-4.774-1.015-1.14.315-2.695 2.555-3.587 3.377-.123-1.25.192-3.92-.455-4.96-.647-1.03-3.185-1.91-4.252-2.558 1.068-.455 3.78-.998 4.463-1.873.752-.943.716-3.656.96-4.863zm-2.187 21.297l3.885 3.203c.507.42 3.955-.928 4.69-1.12-.368 1.015-1.75 3.255-1.575 4.287.192 1.12 2.188 2.835 2.905 3.763-1.207-.018-3.832-.578-4.882-.035-1.05.543-2.135 3.027-2.835 4.025-.368-1.19-.612-3.867-1.453-4.76-.84-.875-3.518-1.243-4.69-1.646.962-.67 3.5-1.74 4.008-2.73.542-1.09-.035-3.75-.053-4.99zm3.132 26.197l-.945-4.89c1.453.803 2.905 1.61 4.357 2.395.56.314 3.71-1.715 4.393-2.047-.158 1.066-1.067 3.552-.7 4.514.403 1.05 2.73 2.346 3.605 3.1-1.19.227-3.885.19-4.813.926-.91.737-1.47 3.397-1.96 4.5-.6-1.103-1.39-3.657-2.38-4.356-1-.7-3.68-.525-4.92-.684 1.12-1.135 2.24-2.307 3.36-3.464zm5.373 15.59c1.575.49 3.15.98 4.725 1.48.612.192 3.29-2.415 3.885-2.87.052 1.084-.35 3.69.21 4.566.612.963 3.115 1.77 4.13 2.33-1.12.454-3.763.962-4.515 1.854s-.788 3.604-1.032 4.795c-.805-.964-2.065-3.326-3.185-3.8-1.12-.472-3.71.23-4.953.3.63-.996 2.52-2.94 2.607-4.076.105-1.208-1.4-3.43-1.872-4.585zm23.607-104.7c-.84-.88-2.275-3.15-3.395-3.52-1.12-.37-3.657.61-4.847.8.595-1.085 2.345-3.133 2.38-4.34s-1.575-3.377-2.1-4.498c1.155.225 3.675 1.275 4.76.942 1.155-.37 2.66-2.608 3.552-3.483.123 1.664.245 3.327.385 4.99.052.646 3.465 2.17 4.095 2.572-1.015.455-3.535 1.015-4.2 1.872-.647.84-.472 3.535-.63 4.655zm.176-32.48c.455-.39.91-.76 1.365-1.14.788.96 1.54 1.17.473 2.06-.927.77-.683.63-1.33-.123-.124-.14-.7-.647-.508-.804 0 0-.036.017 0 0zm-1.54 1.29c.805.925 1.575 1.12.542 2.045-1.05.93-1.138.123-1.96-.788l1.418-1.26s-.473.42 0 0zm-3.815 3.445c.333-.315.647-.595.998-.927.84.91 1.61 1.067.6 2.03-1.01.945-1.12.16-1.98-.735.12-.125.26-.247.39-.37 0 0-.122.123 0 0zm-3.08 2.993c.438-.438.875-.875 1.33-1.313.857.895 1.645 1.017.665 2.015-.857.84-.613.7-1.33 0-.018-.035-.683-.682-.665-.7.017 0 0 0 0 0zm-2.118 2.205c.245-.3.542-.56.805-.84.893.855 1.68.98.717 1.976-.962 1.015-1.12.227-2.012-.613.14-.176.315-.35.49-.526 0 0-.175.175 0 0zM34.37 44.32c.123-.192.402-.454.56-.612.07-.02.665.612.7.63.735.664.875.44.087 1.33-.927 1.032-1.102.262-2.03-.54.21-.28.456-.545.683-.807 0 0-.227.264 0 0zM31.22 48c.42-.472.805-.96 1.208-1.434.945.805 1.732.857.84 1.942-.77.925-.56.75-1.33.12 0-.034-.735-.594-.718-.63.017-.017 0 0 0 0zm-1.19 1.47c.963.77 1.768.807.893 1.91-.857 1.102-1.085.332-2.065-.42l1.172-1.488s-.385.49 0 0zm-3.115 4.08l.402-.56c.438-.63.508-.456 1.155.034 1.103.823.455.962-.35 2.065-.333.01-1.225-.9-1.522-1.11.105-.14.21-.28.315-.437 0 0-.105.157 0 0zm-2.485 3.534c.333-.525.717-1.032 1.067-1.558 1.015.718 1.802.7 1.015 1.855-.787 1.14-1.067.39-2.082-.29 0-.02 0 0 0 0zm-1.977 2.975c.175 0 .788-1.23.91-1.4 1.033.68 1.82.64 1.068 1.82-.64 1.01-.45.8-1.29.28-.28-.2-.89-.37-.68-.7.02 0-.034.05 0 0zm-1.103 1.78c1.05.644 1.855.592 1.12 1.782-.718 1.19-1.033.472-2.1-.158.315-.56.648-1.104.98-1.63 0 0-.332.526 0 0zm-2.31 3.9c.052-.175.35-.595.368-.647 1.067.614 1.872.527 1.172 1.75-.683 1.21-1.033.49-2.1-.103.192-.332.385-.665.56-.997.018-.02-.175.33 0 0zm-2.31 4.305c0-.332.735-1.417.857-1.644 1.085.578 1.873.473 1.243 1.716-.56 1.07-.385.86-1.277.403-.035-.035-.858-.4-.823-.47zm-1.592 3.22c0-.35.595-1.243.735-1.505 1.103.543 1.89.42 1.295 1.68-.525 1.086-.35.86-1.26.44-.298-.157-.946-.245-.77-.613 0 0-.035.07 0 0zm-1.523 3.343c.087-.21.192-.42.28-.63.56-1.12.42-.77 1.627-.21.962.44-.438 1.855-.438 1.837-.542-.227-1.067-.47-1.61-.7.053-.103.09-.21.14-.296 0 0-.05.09 0 0zm-1.347 3.19c.123-.368.367-.876.473-1.156 1.14.473 1.93.297 1.39 1.592-.523 1.295-.96.613-2.1.158.09-.192.16-.402.247-.595 0 0-.09.192 0 0zm-1.593 4.13c.228-.596.438-1.174.665-1.77 1.155.44 1.925.246 1.435 1.54-.648 1.75-1.837-.296-2.1.23 0-.018 0 0 0 0zM9.59 87.044c.123-.385.315-.962.455-1.348 1.172.403 1.925.175 1.488 1.505-.455 1.33-.91.683-2.1.298.052-.14.105-.3.157-.46 0 0-.052.16 0 0zm-.735 2.258c1.172.367 1.942.122 1.54 1.452s-.893.7-2.083.35c.175-.595.368-1.208.543-1.802 0 0-.175.594 0 0zm-1.54 5.442c.158-.613.315-1.208.49-1.82 1.19.333 1.942.053 1.575 1.4-.315 1.155-.192.91-1.155.665-.017 0-.928-.228-.91-.246 0-.017-.018 0 0 0zm-.91 3.657c.105-.61.315-1.207.42-1.82 1.208.298 1.942 0 1.61 1.35-.28 1.17-.158.91-1.138.7 0 0-.892-.176-.892-.23.017 0 0 0 0 0zm-.403 1.874c1.208.263 1.942-.07 1.663 1.295-.28 1.364-.823.787-2.03.54.105-.61.227-1.223.367-1.836 0 0-.122.613 0 0zm-.98 5.163c.087-.49.158-.98.245-1.453 1.225.21 1.942-.123 1.697 1.243-.228 1.382-.805.805-2.012.612.035-.124.053-.263.07-.403 0 0-.017.14 0 0zm-.612 4.13l.262-1.856c1.225.176 1.925-.19 1.732 1.19-.157 1.19-.07.93-1.067.806-.017 0-.927-.087-.927-.14 0-.017 0 0 0 0zm-.332 2.747c0-.262.07-.612.087-.84 1.225.14 1.925-.245 1.768 1.137-.158 1.384-.752.86-1.978.736.052-.35.087-.7.123-1.032 0 0-.036.332 0 0zm-.403 4.515c0-.526.088-1.12.123-1.61 1.225.104 1.908-.3 1.803 1.084-.08 1.19-.01.927-1.01.857-.4-.016-.94.16-.91-.33 0 0 0 .086 0 0zm-.21 4.042c.035-.63.053-1.243.088-1.873 1.242.07 1.907-.37 1.837 1.032-.07 1.382-.7.91-1.925.84 0-.018 0 0 0 0zm-.088 3.78c0-.63.018-1.26.035-1.89 1.242.034 1.89-.42 1.873.98-.035 1.207.035.926-.963.926 0 0-.945 0-.945-.02s0 .02 0 0zm.018 3.394c-.018-.472-.018-.962-.018-1.45.63 0 1.26-.02 1.89-.02-.63-.017-1.26-.017-1.89-.034.63 0 1.26-.018 1.89-.018-.63 0-1.26.018-1.89.018 1.225.018 1.873-.438 1.908.944.018 1.365-.665.928-1.873.945 0-.12-.017-.26-.017-.384 0 0 0 .123 0 0zm.158 4.13c0-.21-.07-1.627-.088-1.837 1.925-.07 1.855-.315 1.978 1.784-.158.123-1.89.07-1.89.053zm.21 3.08c0-.366-.07-.82-.088-1.154 1.243-.087 1.838-.595 1.96.806.105 1.38-.577.97-1.802 1.08-.036-.25-.053-.49-.07-.74 0 0 .017.244 0 0zm.367 3.973c-.087-.35-.07-.754-.123-1.12 0-.334 1.54-.648 1.855-.44.21 2.083.228 1.855-1.68 2.065 0-.156-.017-.332-.052-.506 0 0 .017.173 0 0zm.49 3.744c-.105-.42-.123-.91-.192-1.348 1.225-.156 1.802-.7 1.995.684.193 1.39-.507 1.02-1.732 1.19-.01-.17-.05-.35-.07-.52 0 0 .02.178 0 0zm.367 2.398c1.225-.193 1.785-.77 2.013.61.245 1.384-.49 1.034-1.697 1.244l-.316-1.854s.105.61 0 0zm.875 4.76c-.052-.245-.105-.49-.157-.753-.087-.368-.035-.316.42-.403 1.663-.333 1.365-.192 1.75 1.558-.21.262-1.487.314-1.855.385-.053-.24-.105-.5-.158-.78 0 0 .053.28 0 0zm1.015 4.497c-.157-.613-.297-1.226-.438-1.838 1.2-.28 1.73-.875 2.04.49.33 1.347-.42 1.05-1.61 1.347-.02-.07 0 0 0 0zm.473 1.89c-.035-.14 1.47-.44 1.68-.508.245-.07.718 1.732.49 1.802l-1.68.473c-.175-.596-.333-1.173-.49-1.768 0 0 .157.594 0 0zm1.487 5.197c-.175-.525-.333-1.067-.49-1.61 1.19-.35 1.68-.98 2.083.35.35 1.14.333.875-.63 1.173-.298.09-.84.46-.963.09 0-.02.018.05 0 0zm.648 1.995c1.173-.385 1.645-1.033 2.083.297.455 1.312-.315 1.102-1.487 1.505-.19-.614-.4-1.208-.59-1.803 0 0 .197.595 0 0zm1.243 3.57c1.155-.42 1.61-1.086 2.1.227.49 1.312-.28 1.102-1.435 1.54-.246-.596-.455-1.174-.665-1.768 0 0 .21.594 0 0zm1.82 4.707c-.14-.403-.316-.788-.473-1.19 1.155-.455 1.575-1.14 2.1.156.525 1.295-.245 1.12-1.382 1.593-.088-.176-.158-.368-.246-.56 0 0 .088.192 0 0zm1.75 4.025c-.263-.578-.508-1.156-.77-1.716 1.137-.49 1.54-1.19 2.1.087.577 1.277-.21 1.12-1.33 1.628-.228-.49 0 0 0 0zm1.627 3.412c-.28-.56-.56-1.138-.822-1.697 1.12-.52 1.505-1.22 2.118.04.6 1.26-.19 1.14-1.29 1.66-.23-.44 0 0 0 0zm.84 1.697c1.103-.56 1.47-1.277 2.117-.035s-.14 1.137-1.225 1.714l-.892-1.68s.298.56 0 0zm2.713 4.97c-.315-.542-.612-1.085-.928-1.645 1.085-.596 1.417-1.314 2.1-.105.595 1.05.508.787-.367 1.277.017.018-.805.49-.805.473-.018-.018 0 0 0 0zm1.312 2.258c-.105-.21-.245-.402-.368-.612 1.068-.63 1.383-1.36 2.1-.17.718 1.19-.07 1.14-1.12 1.788-.192-.33-.402-.663-.612-.996 0 0 .21.333 0 0zm2.502 3.972c-.21-.333-.438-.665-.647-.997-.035-.053-.245-.315-.245-.368.018-.105.735-.474.805-.508.84-.543.647-.735 1.295.28.647.997.56.75-.28 1.294-.332.228-.665.683-.928.298 0 0 .053.07 0 0zm1.698 2.52c-.175-.175-.438-.647-.508-.735 1.015-.7 1.295-1.436 2.083-.298s0 1.138-1.015 1.855c-.175-.28-.367-.543-.56-.822 0 0 .193.28 0 0zm1.855 2.608c-.07-.158-.263-.176-.07-.333.98-.72 1.155-1.384 1.96-.28.823 1.12.035 1.137-.962 1.89-.298-.42-.613-.858-.928-1.278 0 0 .315.42 0 0zm3.185 4.164c-.42-.402-.735-.928-1.102-1.4.98-.752 1.207-1.52 2.065-.42.735.945.612.7-.158 1.313-.123.12-.647.7-.805.506 0 0 .035.035 0 0zm2.275 2.766c-.315-.42-.683-.805-1.015-1.208.945-.787 1.155-1.558 2.047-.49.893 1.067.105 1.138-.84 1.942-.052-.087-.122-.156-.192-.244 0 0 .07.088 0 0zm1.733 1.994c-.087-.087-.21-.227-.28-.314.928-.822 1.103-1.592 2.03-.543.927 1.032.14 1.14-.77 1.96-.333-.37-.665-.736-.98-1.104-.018-.018.315.368 0 0zm3.202 3.482c-.333-.34-.63-.67-.963-1.02.91-.84 1.05-1.63 2.013-.616s.175 1.12-.718 1.98c-.087-.107-.21-.23-.332-.35 0 0 .122.12 0 0zm3.028 3.04c-.455-.44-.893-.89-1.348-1.33.875-.878 1.015-1.66 1.995-.68.998 1 .21 1.132-.647 2.01-.368-.35 0 0 0 0zm2.73 2.61c-.473-.42-.928-.86-1.382-1.3.857-.89.962-1.68 1.977-.735 1.032.945.244 1.12-.595 2.03-.176-.175 0 0 0 0zm2.835 2.5c-.473-.42-.945-.825-1.417-1.245.822-.927.91-1.715 1.96-.788 1.032.91.262 1.102-.543 2.03-.088-.07 0 0 0 0zm2.904 2.43c-.507-.35-.98-.806-1.452-1.208.787-.946.857-1.75 1.925-.858s.297 1.1-.473 2.063c-.017-.017 0 0 0 0zm2.975 2.33c-.42-.318-1.05-.86-1.505-1.158.77-.963.805-1.77 1.908-.91 1.102.856.332 1.084-.403 2.064-.49-.367 0 0 0 0zm3.028 2.24c-.508-.37-1.015-.738-1.54-1.106.735-.997.735-1.785 1.872-.98 1.156.823.403 1.086-.332 2.084-.367-.264 0 0 0 0zm3.115 2.15c-.525-.35-1.05-.7-1.558-1.068.7-1.016.683-1.82 1.837-1.033 1.156.787.42 1.067-.28 2.1-.227-.158 0 0 0 0zm-3.272-16.818c-1.487.717-2.958 1.452-4.445 2.17.21-1.155 1.242-3.71.875-4.796-.385-1.154-2.66-2.607-3.553-3.48 1.663-.16 3.325-.334 4.987-.49.648-.07 2.135-3.5 2.52-4.166.473 1.015 1.05 3.535 1.908 4.18.875.65 3.587.457 4.708.615-.857.84-3.115 2.31-3.465 3.43-.368 1.12.647 3.656.857 4.863-1.47-.77-2.94-1.54-4.392-2.33zm6.457 18.864c-.542-.33-1.067-.665-1.593-1.015.665-1.033.63-1.84 1.803-1.086 1.172.752.438 1.05-.21 2.1-.035-.018 0 0 0 0zm3.237 1.96c-.542-.315-1.085-.63-1.627-.96.63-1.05.578-1.857 1.768-1.14 1.207.7.472 1.015-.14 2.1zm3.29 1.84c-.56-.28-1.12-.614-1.663-.91.613-1.087.508-1.874 1.733-1.19 1.243.663.526 1.013-.07 2.1-.017 0 0 0 0 0zm3.36 1.75c-.49-.28-1.19-.597-1.68-.86.58-1.1.456-1.89 1.698-1.24 1.243.63.525.995-.017 2.1-.018 0 0 0 0 0zm-2.59-9.47c-.018-1.17.508-3.885-.052-4.883-.595-1.05-3.115-2.046-4.147-2.73 1.61-.47 3.202-.96 4.813-1.433.62-.193 1.4-3.85 1.65-4.568.65.91 1.72 3.27 2.68 3.743.98.472 3.59-.246 4.727-.316-.665.98-2.625 2.907-2.73 4.044-.123 1.207 1.33 3.447 1.785 4.62-1.19-.37-3.553-1.663-4.743-1.452-1.206.21-2.99 2.24-3.97 2.977zm5.985 11.113c-.577-.264-1.137-.543-1.715-.806.542-1.12.402-1.89 1.663-1.294 1.277.577.578.98.052 2.1-.175-.088 0 0 0 0zm3.466 1.54c-.508-.21-1.015-.44-1.522-.665-.123-.21.105-1.596.542-1.82 1.924.855 1.732.7.98 2.482-.386-.175 0 0 0 0zm3.5 1.417c-.56-.226-1.19-.49-1.75-.7.472-1.136.28-1.923 1.575-1.4 1.295.527.612.947.175 2.1-.578-.225 0 0 0 0zm3.534 1.315c-.525-.177-1.277-.526-1.785-.65.438-1.154.228-1.924 1.54-1.45 1.313.487.666.94.245 2.098-.21-.07 0 0 0 0zm3.588 1.206c-.595-.19-1.208-.385-1.803-.595.402-1.173.158-1.925 1.488-1.505 1.33.455.682.93.315 2.1-.158-.053 0 0 0 0zm3.623 1.102l-1.82-.524c.35-1.19.105-1.944 1.435-1.54 1.347.384.717.873.385 2.063-.613-.173 0 0 0 0zm3.64.98l-1.838-.472c.315-1.19.035-1.94 1.382-1.59 1.366.35.77.86.455 2.067-.472-.122 0 0 0 0zm-3.71-13.334c-1.104 1.224-2.19 2.45-3.29 3.674-.246-1.155-.263-3.902-1-4.777-.786-.91-3.446-1.417-4.602-1.89 1.47-.787 2.96-1.56 4.43-2.345.58-.297.65-4.043.75-4.777.81.752 2.31 2.87 3.36 3.133 1.07.28 3.49-.927 4.57-1.225-.45 1.086-2.03 3.36-1.91 4.498.13 1.21 1.98 3.134 2.65 4.185-1.66-.14-3.304-.298-4.95-.473zm7.402 14.19c-1.977-.437-1.942 0-1.522-1.784.245-1.033 1.89.07 1.89.07-.123.577-.246 1.155-.368 1.714-.595-.12 0 0 0 0zm3.693.754c-.613-.123-1.243-.23-1.855-.368.245-1.21-.088-1.943 1.295-1.664 1.364.264.787.823.56 2.03-.613-.104 0 0 0 0zm3.727.63c-.63-.105-1.243-.192-1.873-.298.21-1.226-.14-1.927 1.242-1.716 1.384.23.824.808.63 2.015-.63-.088 0 0 0 0zm-3.22-12.408c1.295-1.05 2.59-2.118 3.885-3.168.507-.405-.158-4.1-.193-4.85.945.576 2.835 2.36 3.903 2.43 1.103.055 3.237-1.59 4.27-2.1-.245 1.175-1.313 3.66-.998 4.78.315 1.14 2.555 2.694 3.395 3.57-1.243.122-3.92-.176-4.953.472-1.015.648-1.89 3.204-2.52 4.27-.455-1.065-1.015-3.78-1.908-4.46-.96-.753-3.656-.7-4.88-.945zm6.965 12.93c-.63-.07-1.242-.156-1.872-.244.175-1.225-.21-1.925 1.19-1.75 1.382.175.84.77.682 1.995zm3.762.404c-.595-.14-1.277-.12-1.873-.19.14-1.225-.27-1.924 1.12-1.783 1.38.138.85.75.75 1.976zm3.763.28c-.63-.032-1.26-.084-1.89-.12.087-1.225-.315-1.91 1.067-1.82 1.4.09.91.717.823 1.94-.613-.032 0 0 0 0zm3.78.178c-.63-.02-1.26-.037-1.89-.07.053-1.244-.385-1.91 1.015-1.856s.91.684.875 1.926c-.018 0 0 0 0 0zm3.623.05c-.578 0-1.155 0-1.732-.02.035-1.836-.263-1.87 1.732-1.87.157.14.384 1.89 0 1.89-.018 0 .052 0 0 0zm3.937-.07l-1.89.05c-.018-1.24-.49-1.87.893-1.905 1.4-.034.96.63.997 1.855-.07.02 0 0 0 0zm3.763-.176c-.403 0-.806.07-1.19.07-.175.017-.368.017-.543.034-.157 0-.367-1.68-.21-1.89.752-.033 1.82-.56 1.89.387-.017.124.105 1.4.053 1.4-.017 0 0 0 0 0zm-.595-7.506c-.647-.962-1.732-3.5-2.73-4.007-1.084-.546-3.727.032-4.952.032 1.07-1.296 2.14-2.59 3.21-3.87.42-.506-.93-3.97-1.12-4.706 1.018.382 3.257 1.764 4.29 1.59 1.12-.193 2.854-2.188 3.78-2.905-.017 1.21-.594 3.834-.07 4.884.525 1.05 3.028 2.133 4.008 2.834-1.19.365-3.884.592-4.76 1.433-.857.873-1.225 3.533-1.644 4.706zm3.884 7.262c-.455 0-.928.087-1.383.122-.104-1.224-.61-1.836.788-1.96 1.382-.12.98.56 1.103 1.804-.176 0-.35.018-.508.035 0 0 .176-.018 0 0zm3.938-.42c-.508 0-1.05.122-1.557.175-.14-1.225-.666-1.82.717-1.98 1.19-.14.91-.155 1.033.824.07.494.35.914-.193.984 0 0 .105-.017 0 0zm4.043-.56c-.613.104-1.242.192-1.855.28-.175-1.226-.717-1.803.665-2.014 1.365-.21 1.05.524 1.19 1.73zm2.31-.386c-.123.053-.3.053-.44.07-.21-1.225-.77-1.785.596-2.03 1.365-.245 1.033.473 1.26 1.68-.454.105-.926.193-1.417.28 0 0 .49-.087 0 0zm3.29-.63c-.245-1.207-.84-1.75.524-2.048 1.365-.3 1.05.436 1.313 1.644-.613.155-1.224.28-1.838.4 0 0 .614-.122 0 0zm3.693-.804c-.28-1.21-.89-1.717.48-2.067 1.35-.33 1.07.403 1.367 1.61-.613.16-1.226.3-1.837.456 0 0 .61-.16 0 0zm4.96-1.297c-.42.14-.856.23-1.276.35-.314-1.19-.944-1.696.4-2.064 1.35-.367 1.07.368 1.42 1.56-.194.05-.368.1-.544.155-.02 0 .175-.052 0 0zm-3.43-11.655l-.733 4.918c-.84-.822-2.346-3.098-3.447-3.413-1.173-.33-3.658.666-4.883.894.806-1.436 1.628-2.854 2.433-4.288.314-.544-1.68-3.73-2.013-4.41 1.068.174 3.536 1.102 4.516.717 1.068-.4 2.38-2.71 3.15-3.587.21 1.17.14 3.883.876 4.81.72.93 3.38 1.506 4.48 1.98-1.455.804-2.925 1.59-4.378 2.38zm5.777 10.973c-.367-1.19-1-1.66.33-2.08s1.088.33 1.47 1.52c-.593.175-1.206.37-1.8.56 0 0 .594-.19 0 0zm3.99-1.295c-.123.053-.263.105-.385.14-.053-.017-.3-.875-.3-.892-.314-.944-.56-.805.578-1.19 1.313-.454 1.103.316 1.506 1.47-.474.14-.947.315-1.4.473 0 0 .453-.16 0 0zm.42-22.016c1.085-.036 3.69.385 4.567-.158.96-.595 1.8-3.114 2.38-4.13.438 1.12.91 3.78 1.785 4.55.894.77 3.606.823 4.78 1.085-.965.787-3.36 2.03-3.85 3.15s.173 3.727.242 4.986c-.995-.65-2.885-2.557-4.04-2.66-1.226-.106-3.465 1.33-4.64 1.766.527-1.554 1.053-3.093 1.577-4.65.23-.595-2.36-3.34-2.8-3.94zm4.41 20.25c-.56.19-1.104.42-1.663.63-.44-1.157-1.103-1.595.21-2.103 1.12-.42.84-.386 1.207.542.07.16.47.84.246.93-.02 0 .033-.02 0 0zm2.64-1.087c-.262.104-.523.228-.786.333-.472-1.137-1.14-1.557.14-2.1 1.295-.54 1.12.246 1.61 1.383-.333.123-.647.263-.962.386 0 0 .317-.123 0 0zm2.68-1.156c-.51-1.138-1.19-1.523.07-2.1 1.26-.58 1.12.21 1.645 1.33-.56.244-1.14.51-1.715.77 0 0 .574-.26 0 0zm5.127-2.43c-.56.277-1.12.56-1.697.84-.545-1.123-1.244-1.49.016-2.12 1.066-.524.805-.455 1.26.42 0 .017.42.86.42.86-.02 0 0 0 0 0zm3.34-1.75c-.54.295-1.1.592-1.66.89-.578-1.103-1.296-1.45-.054-2.117 1.05-.56.787-.49 1.276.386 0 0 .456.823.438.84-.017 0 0 0 0 0zm2.084-1.16c-.12.088-.28.158-.42.23-.61-1.087-1.33-1.42-.12-2.102 1.207-.7 1.137.104 1.75 1.173-.402.23-.806.477-1.21.7 0 0 .404-.223 0 0zm3.957-2.36c-.386.19-.72.488-1.103.68-.646-1.05-1.364-1.364-.19-2.1 1.19-.734 1.14.07 1.802 1.104-.173.103-.35.21-.506.314 0 0 .158-.11 0 0zm3.655-2.36c-.524.35-1.05.684-1.573 1.034-.667-1.037-1.42-1.33-.247-2.1.997-.67.734-.56 1.294.26.018.033.544.785.526.803 0 .018 0 0 0 0zm2.924-2.01c-.458.313-.896.645-1.35.943-.7-1.015-1.454-1.277-.317-2.083.98-.7.735-.58 1.313.227.21.298.7.647.35.91 0 0 .07-.052 0 0zm3.182-2.364c-.524.266-.98.756-1.47 1.106-.734-.997-1.486-1.242-.384-2.083.96-.718.718-.61 1.313.192.07.07.647.716.54.787 0 0 .02 0 0 0zm2.75-2.15c-.35.35-.823.665-1.208.963-.77-.964-1.54-1.19-.437-2.066 1.085-.878 1.138-.07 1.925.872l-.28.228c-.016 0 .09-.07 0 0zm1.714-1.42c-.788-.94-1.576-1.135-.51-2.045 1.068-.91 1.138-.103 1.943.824-.473.4-.945.82-1.435 1.223 0 0 .49-.42 0 0zm3.393-2.955c-.156.16-.366.334-.523.475-.823-.93-1.61-1.104-.577-2.03 1.03-.945 1.137-.14 1.977.77-.298.26-.578.524-.876.786 0 0 .3-.26 0 0zm2.68-2.5c-.14.14-.28.28-.42.403-.858-.893-1.628-1.05-.63-2.013.996-.964 1.12-.176 1.994.7-.313.315-.63.613-.944.91-.035.052.314-.297 0 0zm2.73-2.694c-.106.172-.316.31-.456.47-.874-.875-1.66-1-.682-1.996.98-.997 1.12-.21 2.014.647-.3.28-.597.578-.877.876 0 0 .28-.3 0 0zm3.15-3.328c-.35.334-.648.72-.98 1.068-.91-.84-1.697-.943-.753-1.976.945-1.033 1.103-.246 2.03.576-.106.11-.21.216-.297.338-.02 0 .087-.122 0 0zm2.625-2.992c-.298.457-.735.84-1.085 1.26-.93-.803-1.732-.89-.822-1.94.79-.91.56-.734 1.33-.104.28.227.86.455.58.787 0 0 .05-.07 0 0zm2.118-2.57c-.123.07-1.26 1.56-.753.928-.962-.79-1.75-.84-.875-1.927s1.103-.314 2.065.456c-.16.192-.298.367-.438.542 0 0 .14-.176 0 0zm2.73-3.52c-.368.51-.754 1-1.14 1.508-.978-.755-1.784-.79-.927-1.89 1.35-1.77 1.242.995 2.064.382 0 .02.018 0 0 0zm2.222-3.06c-.368.505-.718 1.03-1.085 1.54-1-.72-1.803-.737-1-1.875.807-1.12 1.105-.382 2.084.334 0 .015 0 0 0 0zm1.61-2.364c0 .175-.455.683-.543.806-1.016-.7-1.82-.664-1.05-1.836.77-1.155 1.067-.42 2.1.262-.157.245-.332.506-.507.77 0 0 .175-.264 0 0zm2.328-3.622c-.28.4-.524.84-.788 1.26-1.05-.666-1.837-.613-1.102-1.804.734-1.19 1.05-.456 2.1.192-.07.123-.14.245-.21.35 0 0 .07-.105 0 0zm1.208-1.996s-1.573-.754-1.643-.93c1.07-1.8.91-1.627 2.575-.664-.316.526-.613 1.07-.927 1.593 0 0 .315-.542 0 0zm2.68-4.778c0 .365-.666 1.223-.823 1.52-1.082-.596-1.87-.508-1.205-1.73.577-1.05.384-.84 1.276-.387.21.122.91.314.753.595 0 0 .017-.053 0 0zm1.645-3.22c-.23.47-.476.926-.7 1.4-1.106-.56-1.89-.44-1.26-1.7.63-1.243.994-.54 2.114 0-.07.105-.103.21-.156.3 0 0 .052-.09 0 0zm.96-1.998c-1.12-.524-1.907-.385-1.31-1.645.575-1.26.98-.577 2.116-.07-.26.58-.542 1.155-.803 1.715 0 0 .26-.56 0 0zm1.75-3.867c-.35.7-.787.175-1.47-.123-.98-.42.402-1.854.402-1.854.54.226 1.083.454 1.61.663-.176.438-.35.875-.54 1.313 0 0 .19-.44 0 0zm1.42-3.45c-.054.124-.105.264-.158.386-1.156-.454-1.927-.26-1.42-1.556s.946-.63 2.1-.195l-.524 1.365s.174-.454 0 0zm1.8-4.9c-.227.58-.4 1.174-.61 1.77-1.175-.42-1.927-.21-1.47-1.52.63-1.79 1.836.24 2.08-.25 0 0 .02-.017 0 0zm1.122-3.394c-.16.49-.28 1.017-.474 1.506-.036.09-1.698-.313-1.82-.505.227-.72.122-1.91 1.03-1.63.368.107 1.4.177 1.26.63 0 0 .018-.07 0 0zm1.12-3.78c-.21.544-.334 1.174-.49 1.734-1.19-.35-1.94-.09-1.56-1.42.333-1.155.193-.91 1.173-.647.104.033.926.156.874.332-.018.016 0-.018 0 0zm.593-2.256c-.054.05-.07.28-.09.365-1.19-.314-1.94-.02-1.59-1.383.35-1.365.856-.752 2.063-.455-.14.49-.264.98-.386 1.47 0 0 .124-.506 0 0zm1.12-4.76l-.315 1.434c-1.206-.28-1.94.035-1.644-1.33.263-1.17.14-.927 1.12-.717.595.14.963-.02.84.612 0 0 .017-.14 0 0zm.804-4.115c-.104.613-.228 1.24-.35 1.855-1.208-.23-1.94.105-1.68-1.276.245-1.367.822-.807 2.03-.58-.12.63 0 0 0 0zm.49-2.974c.017.28-.157 1.05-.175 1.104-1.225-.19-1.942.156-1.715-1.227.21-1.38.79-.82 2.014-.644-.055.26-.09.524-.126.77 0 0 .035-.246 0 0zm.595-4.496c-.09.61-.16 1.24-.23 1.87-1.223-.16-1.922.227-1.765-1.173.177-1.38.79-.857 1.997-.7 0 .018 0 0 0 0zm.368-3.73c0 .61-.105 1.24-.175 1.837-1.227-.12-1.926.28-1.786-1.102.106-1.19.02-.927 1.017-.84.054-.016.964.02.946.107 0 0 0-.02 0 0zm.245-3.5c0 .524-.07 1.05-.088 1.557-1.246-.087-1.91.333-1.82-1.05.07-1.19 0-.926.994-.874.474.036.93-.174.91.37 0 .017 0-.106 0 0zm.104-2.205c-.365-.02-1.625.155-1.89-.07.07-2.1.02-1.856 1.944-1.82l-.053 1.89s.02-.63 0 0zm.07-3.78c-.575 0-1.17 0-1.75-.02-.016 0-.715-1.854.35-1.872 1.82 0 1.42-.07 1.4 1.89 0 0 0-.56 0 0z"/><path opacity=".75" fill="#535236" d="M68.757 169.418l19.058 10.604v-72.835c0-.91.473-7.91-.385-7.91H68.565c.07 23.048.123 46.113.192 69.16v.98zm31.395 16.73c6.545 3.64 13.09 7.28 19.635 10.937V98.98c-5.985.087-11.97.192-17.938.28-1.12.018-1.68-.385-1.68.718v45.675c-.02 13.492-.02 27-.02 40.494zm63.946-6.126c5.32-2.976 10.657-5.933 15.978-8.907.612-.35 3.063-1.173 3.063-1.995 0-1.383 0-2.782.01-4.165.032-14.28.09-28.578.12-42.857.017-7.613.034-15.225.07-22.82h-18.02c-1.24 0-1.207-.192-1.207.963v47.66c-.02 10.71-.02 21.42-.02 32.13zm-31.99 17.063c5.337-2.976 10.675-5.933 15.994-8.907.473-.263 3.64-1.575 3.64-2.152V99.873c0-1.085-.98-.613-1.977-.63-5.88-.088-11.778-.175-17.676-.28v72.38c.01 8.593.01 17.167.01 25.742zM79.92 71.837h-9.065c-.157 0-2.607-.018-2.607.018v22.61c0 .647-.228.98.438.98h4.882c.105 0 .053-7.455.053-8.26 0-.28 7.2-.105 8.26-.245 6.01-.752 8.93-8.925 4.27-13.195-1.66-1.505-4.04-1.908-6.23-1.908 0 0 2.73 0 0 0zm2.048 10.116c-1.698 1.435-5.495.805-7.56.805-.928 0-.735-.052-.735-.98v-4.48c0-.7-.315-1.347.455-1.347h3.903c1.21 0 2.49-.08 3.56.56 1.68 1 1.91 4.17.386 5.45-.65.54.648-.54 0 0z"/><path opacity=".75" fill="#535236" d="M109.428 92.155c0-3.115.192-6.895-3.343-8.067 3.167-.857 4.235-3.99 3.78-7-.438-2.853-2.503-4.48-5.233-5.005-3.237-.63-6.86-.263-10.15-.263-1.12 0-5.617-.752-5.617.613v22.802c0 .473 2.502.21 2.94.21.787 0 2.467.49 2.467-.472v-5.285c0-.525-.368-3.027 0-3.413.455-.472 3.92 0 4.62 0 1.942 0 4.217-.123 4.76 2.188.49 2.1-.105 4.393.63 6.422.42 1.173 3.657.543 4.76.543.315 0 1.382.192 1.382-.193.018-.98-.944-1.82-.996-3.08 0-.035.052 1.4 0 0zm-5.81-10.762c-1.82 1.417-5.828.752-7.98.752-.945 0-1.365.333-1.365-.647v-4.252c0-.91-.315-1.348.63-1.348h4.235c1.172 0 2.485-.123 3.605.28 1.977.717 2.625 3.867.875 5.215-.648.49.647-.508 0 0z"/><path opacity=".75" fill="#535236" d="M122.868 71.208c-7.385 0-12.792 4.953-12.792 12.442 0 7.49 5.407 12.442 12.792 12.442 7.384 0 12.81-4.97 12.81-12.442s-5.444-12.442-12.81-12.442c-3.92 0 3.902 0 0 0zm5.425 18.497c-2.625 2.94-8.19 2.958-10.798 0-2.712-3.027-2.73-9.083 0-12.11 2.607-2.958 8.208-2.94 10.798.017 2.747 3.01 2.73 9.066 0 12.093-1.277 1.435 1.295-1.435 0 0zm27.65 5.74v-4.13c0-.525-1.82-.245-2.24-.245h-10.868c-.962 0-1.26.298-1.26-.7v-5.18c0-.402 7.175-.192 7.944-.192h4.23c.82 0 .37-2.433.37-3.115 0-1.208-.2-.91-1.37-.91h-10.37c-1.297 0-.807-.805-.807-2.048 0-.438-.245-2.992.192-2.992h12.81c1.68 0 .456-4.113.577-4.113H138.65c-1.24 0-2.36-.56-2.36.788v22.82m33.32-5.618c-1.647-5.67-3.31-11.357-4.953-17.027-.21-.718-.07-.928-.823-.928h-5.495c-.37 0-1.927-.263-1.927.21v22.96c0 1.19 5.075.245 5.075.315V76.422l3.15 11.165 1.836 6.528c.524 1.855.857 1.365 2.905 1.365 1.522 0 2.835.63 3.255-.893.612-2.17 1.208-4.357 1.82-6.527 1.085-3.868 2.15-7.752 3.237-11.62v17.85c0 .7-.28 1.19.473 1.19.77 0 4.11.49 4.602 0 .17-.175 0-1.47 0-1.697v-4.708c0-1.4.15-17.203-.14-17.203-.86 0-7.78-.402-7.9.07-.77 2.66-1.52 5.32-2.29 7.998-.946 3.255-1.89 6.562-2.837 9.87z"/></svg>