<svg xmlns="http://www.w3.org/2000/svg" viewBox="0 0 252 252"><path fill="#535236" d="M191.094 125.107c-.23-16.496-.478-32.99-.703-49.485-.03-2.558.05-4.992-.584-7.5-2.566-10.2-11.305-15.384-21.515-15.268-41.67.45-83.366.292-125.037.636-9.473.087-18.443 2.116-22.19 11.866-1.202 3.115-1.564 6.284-1.527 9.597l.628 44.583c.264 19.47.546 38.94.83 58.416.078 5.05.134 10.102.212 15.175.046 2.155 3.22 2.878 4.95 3.82 27.065 15.04 54.15 30.077 81.217 45.118 25.26-15.064 50.518-30.108 75.815-45.13.833-.494 8.882-4.337 8.872-5.32-.064-3.604-.127-7.23-.167-10.837-.273-18.573-.525-37.122-.798-55.67z"/><g fill="#F0B514"><path opacity=".75" d="M55.227 149.353c-1.688-.208-3.303-.2-4.844.016-1.342.18-2.41.71-3.208 1.592-.8.88-1.075 1.79-.832 2.72.292 1.2.824 2.202 1.593 3 .77.8 1.657 1.42 2.667 1.858s2.072.695 3.186.765c1.11.072 2.13.02 3.06-.153 1.44-.27 2.786-.627 4.056-1.065l-.103-9.02c-.247.057-.487.117-.755.167-1.53.284-3.137.324-4.826.116zm-4.28 26.192l-.095-.506c-.19-1.016-.748-1.975-1.673-2.885-.93-.908-2.02-1.7-3.28-2.37-1.26-.672-2.59-1.156-3.988-1.455-1.35-.286-2.603-.325-3.764-.126l.07 4.94c.92.307 1.86.593 2.845.84 3.102.784 6.395 1.303 9.88 1.56zm7.938 20.858l2.473 1.34-.023-2.005-.06.02c-.787.237-1.585.45-2.39.645zm-5.89-18.73c-.275 1.1-.857 2.03-1.747 2.79-.89.76-1.797 1.42-2.725 1.974-.927.558-1.738.99-2.44 1.293-.698.308-1.03.56-.99.762.022.484.27.893.744 1.223.474.33.883.672 1.223 1.027-2.403.38-3.745-.17-4.022-1.655-.138-.742.124-1.365.784-1.874.663-.508 1.443-1.02 2.342-1.538.9-.518 1.79-1.084 2.672-1.704.88-.613 1.505-1.41 1.873-2.39-4.69-.31-8.836-1.063-12.46-2.243l.123 8.79.012 1.177 17.707 9.592c.04-.006.08-.01.118-.02 1.596-.297 3.16-.66 4.696-1.087.137-.04.268-.085.403-.12l-.18-16.13c-.33.02-.66.04-.984.057-2.49.116-4.872.142-7.152.08z"/><path opacity=".75" d="M46.774 167.843c1.51.556 2.844 1.425 3.993 2.604 1.15 1.183 1.913 2.783 2.292 4.807l.072.404c1.59.052 3.174.07 4.753.055 1.06-.01 2.135-.047 3.22-.094l-.007-.54c-1.09-.374-2.11-.866-3.044-1.497-1.378-.93-2.192-2.067-2.444-3.417-.126-.675-.103-1.464.072-2.37.174-.904.593-1.42 1.258-1.544.2-.037.49-.04.875-.007.384.032.62.285.71.757.1.54-.176.993-.83 1.36-.653.366-.91.92-.77 1.66.087.475.27.893.544 1.26.33-.062.666-.106 1.006-.136.338-.026.76.016 1.262.132.465.153.904.372 1.324.642l-.11-9.716c-1.03.12-2.092.182-3.188.175-1.997-.01-3.91-.316-5.74-.916-1.833-.6-3.415-1.525-4.75-2.778-1.333-1.25-2.195-2.923-2.586-5.014-.312-1.685.026-3.46 1.018-5.32.993-1.86 2.923-3.026 5.792-3.497 1.67-.246 3.415-.293 5.232-.14 1.39.118 2.73.077 4.024-.118 0 0 .074-42.578-.953-42.568l-22.594.255c.313 21.927.617 42.862.926 64.79 1.202-.16 2.474-.22 3.823-.166 1.7.064 3.305.374 4.817.93zm52.656 9.845l-.05-4.447c-.53-.113-1.063-.23-1.59-.33-2.71-.502-5.26-.915-7.657-1.235-2.398-.32-4.468-.91-6.21-1.77-1.45.34-2.873.903-4.272 1.688-1.325.745-2.58 1.628-3.763 2.63v.15c4.434-.2 8.927.01 13.48.64 3.544.487 6.898 1.384 10.067 2.68zm-18.604 5.148c1.532-1.544 3.527-2.545 5.986-3.004 2.657-.498 4.956-.525 6.894-.087 1.94.44 3.585 1.162 4.942 2.165.295.218.57.45.84.687l-.033-2.842c-3.66-1.57-7.588-2.595-11.787-3.068-4.027-.453-7.942-.597-11.762-.47.046 4.267.09 8.53.14 12.798.793-.18 1.59-.35 2.39-.498.058-2.244.855-4.138 2.39-5.68zm6.822-13.423c1.284.25 2.694.438 4.23.57 1.537.13 3.21.343 5.018.632.793.128 1.616.293 2.46.484l-.012-1.138c-3.463-.906-7.358-1.098-11.696-.552zm2.815 40.413c-1.61.265-3.17.347-4.686.27 4.703 2.548 9.405 5.092 14.107 7.65l-.148-13.145c-1.157 1.26-2.46 2.33-3.932 3.18-1.767 1.03-3.547 1.71-5.34 2.05z"/><path opacity=".75" d="M78.932 163.61c-.408-1.81-.32-3.36.263-4.66.583-1.293 1.87-2.128 3.864-2.5.992-.186 1.99-.11 2.98.227.99.34 1.99.45 3 .33.4-.074.66-.228.79-.462.125-.232.212-.51.255-.833.043-.322.096-.594.158-.814.062-.222.225-.356.49-.407.532-.095 1.038-.052 1.52.13.48.187.766.51.853.98.105.94-.22 1.69-.974 2.243-.756.556-1.494.935-2.21 1.137-1.25.304-2.326.16-3.227-.43-.902-.587-1.85-.79-2.846-.604-1.46.274-2.345.973-2.65 2.097-.305 1.125-.358 2.217-.16 3.28.215 1.147.56 2.078 1.037 2.79.48.713 1.033 1.29 1.666 1.73.386-.14.78-.25 1.177-.325.4-.075.765-.144 1.098-.205 4.868-.91 9.3-.814 13.3.273l-.13-11.465c-1.094-1.54-2.16-3.13-3.17-4.81l-.5.092c-2.79.52-5.442 1.228-7.957 2.118-2.513.888-5.053 1.835-7.614 2.838-1.39.543-2.807 1.087-4.238 1.628.044 4.522.098 9.045.146 13.567 1.84-1.19 3.795-2.166 5.873-2.91-1.398-1.204-2.33-2.88-2.798-5.027zm8.588 17.24c-1.518.355-2.93 1.247-4.244 2.68-1.314 1.434-2.23 2.965-2.75 4.597 3.147-.448 6.514-.642 10.1-.58 3.094.053 6.066.475 8.93 1.22l-.028-2.61c-.842-1.326-1.93-2.524-3.283-3.585-2.297-1.807-5.207-2.38-8.726-1.72zm10.403-50.79c-1.07 1.632-1.87 3.788-2.4 6.47l-.1.02c-.126.79-.168 1.496-.12 2.115-.017.283-.016.563 0 .837.018.276.06.583.123.92l.2-.037c1.137-.214 2.26-.362 3.377-.48l-.124-10.982c-.36.34-.685.718-.96 1.137zM82.1 207.57c2.266.727 4.697.85 7.287.365 1.396-.262 2.906-.822 4.532-1.687-.33-.287-.63-.58-.89-.88s-.43-.655-.508-1.06c-.188-1.012-.174-1.938.047-2.783.22-.842.386-1.694.502-2.554 2.654 2.44 4.332 3.31 5.028 2.62.045-.492.056-.982.036-1.47-.023-.48-.078-.962-.166-1.434-.114-.607-.53-.912-1.255-.917-.722-.005-1.16-.413-1.31-1.22-.064-.34-.003-.647.186-.927.19-.28.45-.45.78-.513.6-.11 1.13.154 1.598.8.464.647.76 1.31.886 1.98.252 1.35.3 2.7.14 4.058.25-.33.483-.678.7-1.036l-.12-10.73c-2.85-.802-5.806-1.185-8.872-1.13-3.7.063-7.183.365-10.45.907-.007.7.02 1.216.084 1.552.202 1.08.88 2.053 2.042 2.918 1.157.867 2.102 1.23 2.833 1.093.93-.176 2.023-.115 3.28.172 1.257.29 1.97.87 2.133 1.747.09.472.055 1.02-.103 1.642-.16.624-.637 1.008-1.435 1.158.202-.386.284-.768.25-1.146-.036-.375-.086-.73-.15-1.07-.074-.405-.442-.528-1.1-.37-.658.16-1.22.28-1.683.365-.932.175-1.833.048-2.703-.383-.874-.43-1.65-1.017-2.34-1.762-.69-.743-1.276-1.576-1.76-2.498-.48-.923-.803-1.82-.967-2.698l-.076-.405c-.837.192-1.667.396-2.49.613.05 4.49.096 8.982.146 13.473 1.722 1.427 3.68 2.5 5.888 3.21zm11.452-66.694l-.266-1.416c-.416-2.226-.238-4.492.534-6.802.77-2.307 2.005-4.44 3.702-6.4.415-.477.853-.937 1.313-1.385l-.28-23.63c-7.167.185-14.334.39-21.48.576-1.34.033-2.018-.44-2.002.88l.534 46.21c1.867-1.27 3.862-2.524 6.01-3.76 3.13-1.81 7.11-3.235 11.935-4.277zm58.762 17.56c.095.133.194.26.285.4.72-4.6 1.68-8.47 2.88-11.605-1.12-.643-2.225-1.104-3.31-1.4l.14 12.397v.212zm13.932 12.716c-.272-.716-.585-1.286-.938-1.71-2.435 3.527-4.627 7.166-6.57 10.915-1.946 3.75-3.54 7.625-4.786 11.627l.497-.093c3.44-.71 6.414-2.16 8.93-4.34 2.515-2.18 4.528-4.734 6.043-7.67 1.513-2.937 2.527-6.058 3.043-9.365.515-3.307.496-6.444-.06-9.413l-.228-1.214-1.976 2.673-1.975 2.673c.435 4.18-.18 8.064-1.845 11.654-1.664 3.595-4.318 7.056-7.957 10.39l-1.19-.3c2.303-2.386 4.243-4.88 5.82-7.477 1.58-2.6 2.64-5.38 3.185-8.345zm-7.924-24.172c2.41 1.855 4.447 4.196 6.11 7.025 1.664 2.83 2.785 5.622 3.37 8.374.604-.81 1.226-1.63 1.862-2.446.638-.815 1.26-1.63 1.865-2.443-1.03-3.295-2.49-6.217-4.376-8.762-1.886-2.544-4.02-4.674-6.404-6.394l-1.214 2.322-1.216 2.32zm4.463-13.084c1.76-2.353 3.214-4.405 4.365-6.157 1.15-1.75 1.544-3.607 1.178-5.565-.265-1.416-1.018-2.688-2.26-3.816-1.243-1.13-2.896-1.5-4.953-1.116-1.33.25-2.428.995-3.294 2.24-.863 1.243-1.194 2.788-.99 4.633.05.62.028 1.322-.065 2.106-.094.787-.467 1.276-1.118 1.466-.253.117-.572-.03-.96-.45-.387-.415-.606-.76-.656-1.03-.126-.67.128-1.33.765-1.974.635-.644.85-1.328.646-2.06-.23-.863-.193-1.673.113-2.43.306-.752.732-1.41 1.282-1.966.55-.553 1.2-1.024 1.952-1.41.754-.385 1.462-.64 2.126-.764 2.855-.534 5-.01 6.43 1.572 1.432 1.583 2.317 3.285 2.657 5.105.3 1.62-.04 3.48-1.02 5.582-.984 2.104-2.236 4.415-3.758 6.934 3.396 1.25 6.484 3.063 9.267 5.44.183.154.36.323.536.486-.038-4.553-.074-9.107-.114-13.658-.08-9.12-.164-17.238-.226-26.334l-21.59.244c-1.488.016-1.448-.215-1.432 1.17l.354 30.266c.18 0 .355-.012.534-.012 3.54.003 6.95.5 10.23 1.49zm-6.678 11.72c.392-.84.755-1.66 1.09-2.455.33-.79.706-1.54 1.125-2.25-2.058-1.145-4.137-1.96-6.234-2.48l.063 5.72c1.4.337 2.726.82 3.96 1.47zm7.803 22.414c-.83-.753-1.598-1.552-2.306-2.397-.71-.844-1.066-2.208-1.074-4.092 1.557-.5 3.322-.06 5.3 1.317-.707-1.192-1.697-2.264-2.975-3.214-1.276-.945-2.506-1.273-3.69-.983-.266.05-.553-.02-.862-.206-.31-.185-.49-.413-.54-.683-.127-.673.108-1.07.707-1.18 1.062-.2 2.253.016 3.574.64 1.32.63 2.472 1.548 3.454 2.76-.723-2.028-1.79-4.064-3.203-6.104-1.413-2.04-3.008-3.765-4.784-5.177-.823 1.83-1.6 3.753-2.32 5.772-.722 2.02-1.266 4.076-1.63 6.17.22.446.405.883.554 1.31.15.426.275.91.376 1.447.163.88.22 1.825.17 2.846-.05 1.022.008 1.973.17 2.85.14.742.42 1.424.848 2.04.425.62 1.09.775 1.995.466.793.2 1.22.644 1.28 1.33-.667 1.59-1.463 2.75-2.392 3.483-.93.733-1.99 1.21-3.185 1.433-.195 1.824-.474 3.59-.79 5.33l.08 7.525c2.932-7.922 6.674-15.485 11.25-22.676zm-49.603 21.75c2.18 3.395 3.772 7.554 4.755 12.5.67 3.225.762 6.558.27 10-.147 1.043-.407 2.057-.75 3.047l.795-.456c.662-1.36 1.202-2.76 1.612-4.21 1.135-4.012 1.253-8.623.35-13.83-.54-2.9-1.398-5.81-2.56-8.734-1.17-2.924-2.668-5.61-4.5-8.06-.03-.024-.06-.045-.09-.068l.077 6.78c.013 1.014.022 2.023.036 3.035zm3.053-61.942c1.736.652 2.783 1.924 3.135 3.81.126.676-.003 1.362-.388 2.064-.385.7-.542 1.427-.468 2.18.042.62.304 1.008.78 1.164.477.155.878.377 1.208.663-.9.165-1.685.072-2.35-.29-.668-.36-1.057-.84-1.17-1.44-.15-.8.004-1.535.463-2.21.46-.67.59-1.336.4-1.992-.303-1.255-1.092-2.076-2.366-2.46-1.074-.323-2.067-.428-2.99-.338l.144 12.572c.725.242 1.44.5 2.138.787 2.457 1.006 4.713 2.225 6.768 3.654 1.95-2.807 4.294-5.164 7.03-7.073.226-1.366.49-2.71.795-4.022.306-1.314.365-2.65.18-4.014-.25-1.696-.777-3.167-1.585-4.414-.808-1.245-1.787-2.318-2.937-3.22l.074.404c.3.502.584 1.01.852 1.518.267.51.464 1.1.59 1.773.126.675.1 1.447-.083 2.318l-1.126-.52c.27-.4.34-.936.215-1.61-.076-.405-.186-.8-.324-1.183-.142-.382-.305-.707-.49-.97-.133.397-.342.752-.627 1.066-.288.314-.577.61-.867.886-.835-1.89-2.08-3.033-3.735-3.43-.51-1.246-.56-2.26-.16-3.04-2.32-.692-4.637-.954-6.955-.793l.085 7.54c1.166-.09 2.42.11 3.76.614zm16.884 30.452c1.326 2.18 2.426 4.373 3.32 6.577l-.09-8.06c-1.158.338-2.235.83-3.23 1.483zm-2.496-16.652c-2.83 1.403-5.194 3.294-7.086 5.67 1.446 1.115 2.792 2.347 4.042 3.692 1.247 1.35 2.382 2.725 3.4 4.13 1.282-.867 2.646-1.54 4.09-2.022-.25-.294-.52-.605-.812-.93-.29-.325-.6-.663-.924-1.015l.57-.106c.375.272.755.563 1.142.868.385.308.74.602 1.07.884l.186-.04-.148-13.25c-2.1.63-3.95 1.333-5.53 2.115z"/><path opacity=".75" d="M124.167 120.177c1.968 1.03 3.688 2.382 5.163 4.06 1.474 1.68 2.4 3.707 2.775 6.078.147 1.16.127 2.333-.063 3.52s-.346 2.387-.463 3.594c1.762-1.12 3.65-2.028 5.64-2.745l-.38-32.808c-.017-1.3-1.18-.72-2.376-.728-7.045-.027-14.11-.05-21.175-.1l.203 16.92c1.406-.113 2.89-.06 4.454.17 2.177.328 4.25 1.005 6.22 2.033zm3.706 61.397c.78 1.6 1.728 2.994 2.845 4.18-.184-1.71-.396-3.398-.638-5.062-.244-1.665-.515-3.308-.818-4.927-.39-2.09-1.266-4.37-2.62-6.838-.74 2.65-.91 5.057-.507 7.213.38 2.024.958 3.84 1.738 5.434zm-2.887 22.058c.3-3.16.083-6.907-.658-11.238-.692-4.06-2.096-7.705-4.212-10.938-1.774-2.708-3.782-5.363-5.996-7.97l.042 3.756c.512.584 1.01 1.18 1.48 1.804l.57.837c3.453 4.87 5.63 10.08 6.534 15.637.786 4.947.634 9.826-.46 14.64-.29 1.28-.674 2.51-1.14 3.7.466-.266.93-.53 1.393-.796.14-.313.29-.618.422-.938 1.044-2.5 1.718-5.33 2.02-8.494zm-9.064 4.47c-.358-1.912-.85-3.646-1.458-5.222.058 4.898.122 9.803.177 14.7.136-.077.27-.152.4-.23.298-.823.556-1.674.74-2.573.49-2.36.536-4.584.145-6.674z"/><path opacity=".75" d="M117.68 203.167c-.685-3.9-1.803-7.293-3.335-10.193.027 2.114.05 4.227.077 6.34 1.367 2.347 2.365 5.14 2.976 8.408.34 1.82.413 3.587.218 5.298-.13 1.125-.356 2.2-.664 3.238l.18-.104c.667-1.815 1.01-3.73 1.025-5.748.02-2.654-.14-5.067-.477-7.24zm13.504-12.16c-1.802-1.547-3.38-3.467-4.738-5.762-1.356-2.294-2.344-5.094-2.963-8.4-.68-3.64-.352-7.4.984-11.28-1.466-1.96-3.153-3.81-5.06-5.547-1.72-1.566-3.553-2.948-5.485-4.164l.083 7.404c.543.342 1.118.678 1.76 1.002.912.457 1.403 1.063 1.476 1.818.03.902-.13 1.875-.48 2.917l-1.066 3.13c2.388 2.837 4.537 5.872 6.45 9.107 1.91 3.24 3.322 6.938 4.24 11.093.94 4.29 1.16 8.144.665 11.55-.418 2.86-1.118 5.448-2.066 7.794l3.39-1.94c1.09-2.77 1.86-5.59 2.26-8.46.467-3.37.653-6.79.554-10.265z"/></g><path fill="#F0B514" d="M41.16 83.672v5.15h-3.298V71.325c2.724 0 5.523-.025 8.248-.025 8.598 0 8.623 12.298 0 12.373h-4.95zm0-3.024h4.95c4.224 0 4.2-6.2 0-6.2h-4.95v6.2zm41.323 8.172H78.71l-5.075-5.848h-3.35v5.85h-3.298V71.3c2.774 0 5.548.024 8.323.024 4.124.025 6.298 2.774 6.298 5.798 0 2.4-1.1 4.824-4.424 5.5l5.3 5.972v.225zM70.286 74.4V80h5.024c2.1 0 3-1.4 3-2.8s-.925-2.8-3-2.8h-5.024zm71.372 14.42H128.56V71.326h13.098v3.2h-9.822v4.023h9.473v3.07h-9.477v3.95h9.822v3.25zm30.475-12.67l-5.7 7.597h-.648l-5.573-7.623v12.722h-3.3V71.35h3.8l5.474 7.524 5.474-7.523h3.773v17.5h-3.3v-12.7zm-58.78 1.938c-.89-3.81-1.35-7.113-9.063-7.113-8.023 0-7.636 2.39-8.95 6.207.514 1.565.35 3.378-.488 4.784.08.68.207 1.35.41 1.99 3.433.04 5.097 1.746 4.997 4.426.05.02.11.038.17.058l-.198.353.675.374.077-.14.407.275.315-.488c.13.03.255.067.39.09l-.133.18.612.5.416-.558c.183.018.37.026.56.036l-.172.197.58.56.55-.628-.118-.114c.134 0 .26-.014.39-.02l-.148.146.548.628.58-.565-.223-.257c.18-.02.35-.056.523-.084l.5.67.613-.503-.257-.342c.134-.034.267-.07.4-.11l.424.663.408-.278.075.135.676-.375-.34-.61c.027-.01.06-.02.085-.033-.133-2.585 1.378-4.218 4.538-4.49.147-.504.255-1.02.33-1.54-.522-1.257-.578-2.724-.166-4.028zM98.727 82.9l-1.158-.344-.32-2.037 1.044-1.21 1.656-.13 3.09 2.3-1.804 1.85h-.932l-1.577-.43zm5.92 4.054l-.4-1.737-.436 1.737-1.066-1.295.37-1.17.687-1.41.91.933 1.04 1.974-1.104.963zm6.473-4.397l-1.16.344-1.576.438h-.932l-1.803-1.85 3.085-2.3 1.655.13 1.048 1.206-.32 2.037z"/></svg>