<?xml version="1.0" encoding="utf-8"?>
<!-- Generator: Adobe Illustrator 15.1.0, SVG Export Plug-In . SVG Version: 6.00 Build 0)  -->
<!DOCTYPE svg PUBLIC "-//W3C//DTD SVG 1.1//EN" "http://www.w3.org/Graphics/SVG/1.1/DTD/svg11.dtd">
<svg version="1.1" id="Capa_1" xmlns="http://www.w3.org/2000/svg" xmlns:xlink="http://www.w3.org/1999/xlink" x="0px" y="0px"
	 width="234px" height="234px" viewBox="149.667 149.667 234 234" enable-background="new 149.667 149.667 234 234"
	 xml:space="preserve">
<path fill="#D51007" d="M327.243,323.439c-20.921-0.082-32.067-10.313-39.813-28.342l-2.216-4.919l-19.097-43.541
	c-6.333-15.413-22.049-25.824-39.781-25.824c-23.993,0-43.458,19.466-43.458,43.477c0,24.009,19.465,43.474,43.458,43.474
	c16.737,0,31.291-9.463,38.555-23.339l7.723,17.815c-10.966,13.37-27.63,21.885-46.278,21.885
	c-33.049,0-59.836-26.772-59.836-59.836c0-33.049,26.788-59.853,59.835-59.853c24.941,0,45.078,13.321,55.308,36.921
	c0.776,1.831,10.818,25.317,19.579,45.306c5.426,12.372,10.053,20.577,25.056,21.084c14.743,0.508,24.861-8.466,24.861-19.81
	c0-11.081-7.715-13.745-20.741-18.076c-23.414-7.715-35.499-15.461-35.499-34.028c0-18.11,12.322-30.188,32.344-30.188
	c13.042,0,22.458,5.802,28.979,17.374l-12.798,6.538c-4.823-6.75-10.142-9.415-16.901-9.415c-9.396,0-16.106,6.538-16.106,15.232
	c0,12.341,11.04,14.204,26.479,19.271c20.781,6.766,30.44,14.497,30.44,33.799C367.335,308.713,349.944,323.472,327.243,323.439z"/>
</svg>
