<?xml version="1.0" encoding="utf-8"?>
<!-- Generator: Adobe Illustrator 15.1.0, SVG Export Plug-In . SVG Version: 6.00 Build 0)  -->
<!DOCTYPE svg PUBLIC "-//W3C//DTD SVG 1.1//EN" "http://www.w3.org/Graphics/SVG/1.1/DTD/svg11.dtd">
<svg version="1.1" id="Capa_1" xmlns="http://www.w3.org/2000/svg" xmlns:xlink="http://www.w3.org/1999/xlink" x="0px" y="0px"
	 width="234px" height="234px" viewBox="0 0 234 234" enable-background="new 0 0 234 234" xml:space="preserve">
<path fill="#D51007" d="M-6.5-5.5v246h247v-246H-6.5z M163.301,165.208c-34.394,0-46.318-15.505-52.681-34.788l-6.361-19.879
	c-4.772-14.514-10.34-25.846-27.83-25.846c-12.13,0-24.452,8.748-24.452,33.2c0,19.086,9.741,31.014,23.458,31.014
	c15.503,0,25.843-11.531,25.843-11.531l6.361,17.298c0,0-10.733,10.534-33.198,10.534c-27.832,0-43.341-16.301-43.341-46.52
	c0-31.41,15.509-49.896,44.73-49.896c26.441,0,39.764,9.541,48.113,35.384l6.555,19.878c4.77,14.514,13.12,25.049,33.205,25.049
	c13.515,0,20.668-2.98,20.668-10.336c0-5.767-3.379-9.938-13.512-12.326l-13.523-3.18c-16.494-3.976-23.059-12.525-23.059-26.045
	c0-21.669,17.498-28.426,35.386-28.426c20.278,0,32.603,7.354,34.194,25.246l-19.877,2.387c-0.797-8.549-5.961-12.126-15.506-12.126
	c-8.75,0-14.111,3.976-14.111,10.738c0,5.962,2.58,9.543,11.334,11.53l12.718,2.785c17.097,3.976,26.242,12.324,26.242,28.426
	C204.65,157.654,187.956,165.208,163.301,165.208z"/>
</svg>
