<?xml version="1.0" encoding="iso-8859-1"?>
<!-- Generator: Adobe Illustrator 16.0.0, SVG Export Plug-In . SVG Version: 6.00 Build 0)  -->
<!DOCTYPE svg PUBLIC "-//W3C//DTD SVG 1.1//EN" "http://www.w3.org/Graphics/SVG/1.1/DTD/svg11.dtd">
<svg version="1.1" id="Capa_1" xmlns="http://www.w3.org/2000/svg" xmlns:xlink="http://www.w3.org/1999/xlink" x="0px" y="0px"
	 width="533.334px" height="533.334px" viewBox="0 0 533.334 533.334" style="enable-background:new 0 0 533.334 533.334;"
	 xml:space="preserve">
<g>
	<path d="M426.865,423.766c-55.555-0.218-85.155-27.387-105.725-75.263l-5.885-13.063l-50.713-115.625
		c-16.819-40.93-58.553-68.579-105.643-68.579c-63.715,0-115.408,51.694-115.408,115.455c0,63.758,51.692,115.451,115.408,115.451
		c44.447,0,83.095-25.131,102.387-61.979l20.508,47.309c-29.121,35.506-73.373,58.118-122.893,58.118
		C71.136,425.588,0,354.493,0,266.69c0-87.763,71.136-158.944,158.898-158.944c66.232,0,119.706,35.374,146.875,98.048
		c2.061,4.862,28.729,67.231,51.993,120.312c14.41,32.855,26.697,54.646,66.539,55.992c39.15,1.345,66.019-22.483,66.019-52.608
		c0-29.427-20.487-36.501-55.078-48.002c-62.178-20.487-94.273-41.06-94.273-90.365c0-48.092,32.725-80.166,85.893-80.166
		c34.634,0,59.639,15.409,76.958,46.138l-33.987,17.361c-12.807-17.924-26.932-25-44.881-25c-24.954,0-42.774,17.362-42.774,40.451
		c0,32.772,29.32,37.72,70.317,51.174c55.186,17.969,80.837,38.5,80.837,89.757C533.334,384.659,487.15,423.853,426.865,423.766z"/>
</g>
<g>
</g>
<g>
</g>
<g>
</g>
<g>
</g>
<g>
</g>
<g>
</g>
<g>
</g>
<g>
</g>
<g>
</g>
<g>
</g>
<g>
</g>
<g>
</g>
<g>
</g>
<g>
</g>
<g>
</g>
</svg>
