<?xml version="1.0" encoding="utf-8"?>
<!-- Generator: Adobe Illustrator 15.1.0, SVG Export Plug-In . SVG Version: 6.00 Build 0)  -->
<!DOCTYPE svg PUBLIC "-//W3C//DTD SVG 1.1//EN" "http://www.w3.org/Graphics/SVG/1.1/DTD/svg11.dtd">
<svg version="1.1" id="Capa_1" xmlns="http://www.w3.org/2000/svg" xmlns:xlink="http://www.w3.org/1999/xlink" x="0px" y="0px"
	 width="234px" height="234px" viewBox="-68.125 -68.125 234 234" enable-background="new -68.125 -68.125 234 234"
	 xml:space="preserve">
<path fill="#D51007" d="M50.125-65C-13.455-65-65-13.457-65,50.125S-13.455,165.25,50.125,165.25
	c63.581,0,115.125-51.543,115.125-115.125S113.706-65,50.125-65z M95.551,98.333c-34.394,0-46.318-15.505-52.681-34.788
	l-6.361-19.879C31.737,29.152,26.169,17.82,8.679,17.82c-12.13,0-24.452,8.748-24.452,33.2c0,19.086,9.741,31.013,23.458,31.013
	c15.503,0,25.843-11.531,25.843-11.531l6.361,17.298c0,0-10.733,10.534-33.198,10.534c-27.832,0-43.341-16.301-43.341-46.52
	c0-31.409,15.509-49.896,44.73-49.896c26.441,0,39.764,9.541,48.114,35.384l6.554,19.878c4.769,14.513,13.12,25.048,33.205,25.048
	c13.515,0,20.668-2.98,20.668-10.335c0-5.767-3.379-9.939-13.511-12.327l-13.524-3.179c-16.494-3.976-23.059-12.525-23.059-26.045
	c0-21.669,17.498-28.426,35.386-28.426c20.278,0,32.602,7.354,34.194,25.246l-19.877,2.387c-0.796-8.549-5.96-12.126-15.505-12.126
	c-8.75,0-14.111,3.976-14.111,10.738c0,5.962,2.58,9.543,11.333,11.53l12.718,2.785c17.096,3.976,26.242,12.324,26.242,28.427
	C136.901,90.78,120.206,98.333,95.551,98.333z"/>
</svg>
