<?xml version="1.0" encoding="utf-8"?>
<!-- Generator: Adobe Illustrator 15.1.0, SVG Export Plug-In . SVG Version: 6.00 Build 0)  -->
<svg version="1.2" baseProfile="tiny" id="Layer_1" xmlns="http://www.w3.org/2000/svg" xmlns:xlink="http://www.w3.org/1999/xlink"
	 x="0px" y="0px" width="234px" height="198px" viewBox="0 0 234 198" xml:space="preserve">
<g>
	<path fill-rule="evenodd" d="M77.89,4.16c24.108-1.552,44.087,8.413,56.677,20.508c12.128,11.651,22.981,28.949,24.237,52.576
		c1.264,23.77-8.587,43.168-20.881,55.932c-12.835,13.324-29.545,23.271-52.204,24.609c-22.577,1.335-43.411-8.318-56.305-20.508
		C15.777,124.383,6.881,109.26,5.179,84.702C3.533,60.973,13.475,41.242,25.314,28.77c5.859-6.172,12.814-12.268,21.627-16.779
		C55.419,7.65,66.664,4.882,77.89,4.16z M127.482,43.312c-5.576,1.229-10.354,2.204-15.288,4.102
		c-9.355,3.598-17.73,8.96-23.864,15.661c-3.275,3.577-5.28,7.915-8.576,11.186c-1.954-8.484-13.405-9.894-24.237-8.949
		c-10.624,0.926-20.508,6.463-20.508,16.407c0,9.142,7.158,12.357,14.542,15.288c3.961,1.572,10.394,3.187,10.813,8.204
		c0.577,6.9-5.642,10.432-11.932,10.067c-2.756-4.984-3.995-12.639-9.695-14.169c-5.854-1.571-10.115,1.406-10.441,5.966
		c-0.56,7.838,9.547,10.666,16.407,11.187c11.397,0.864,23.504-1.302,28.712-8.949c1.424-2.091,1.512-4.218,3.355-6.339
		c3.271,9.809,13.377,16.046,24.237,16.033c17.614-0.02,35.339-14.187,33.932-32.067c-0.694-8.829-7.632-15.589-16.034-16.407
		c-7.761-0.756-13.963,3.001-20.881,5.22c4.103-14.103,13.63-23.784,27.221-27.593c1.833-0.514,4.445-0.329,5.965-2.237
		C131.23,42.477,129.268,42.919,127.482,43.312z"/>
	<path fill-rule="evenodd" d="M59.992,68.668c3.228,2.759,3.272,8.532,6.712,11.186c2.667,2.058,6.899,2.258,10.813,0.746
		c-0.397,4.823-1.367,9.074-1.864,13.796c0.271,1.226-0.741,0.571-0.746,0c-2.888-2.811-6.614-5.846-11.559-7.831
		c-4.644-1.864-10.358-2.307-11.932-6.339C48.986,74.003,54.155,69.195,59.992,68.668z"/>
	<path fill-rule="evenodd" d="M103.992,77.617c21.111-3.871,10.765,35.194,0.373,37.288c-11.925,2.402-12.093-15.238-10.067-25.355
		C95.61,82.985,97.173,78.867,103.992,77.617z"/>
</g>
</svg>
