<?xml version="1.0" encoding="utf-8"?>
<!-- Generator: Adobe Illustrator 15.1.0, SVG Export Plug-In . SVG Version: 6.00 Build 0)  -->
<!DOCTYPE svg PUBLIC "-//W3C//DTD SVG 1.1//EN" "http://www.w3.org/Graphics/SVG/1.1/DTD/svg11.dtd">
<svg version="1.1" id="Layer_1" xmlns="http://www.w3.org/2000/svg" xmlns:xlink="http://www.w3.org/1999/xlink" x="0px" y="0px"
	 width="234px" height="234px" viewBox="0 0 234 234" enable-background="new 0 0 234 234" xml:space="preserve">
<g>
	<path d="M-6-6.296v246h248v-246H-6z M105.043,158.008c-7.897,11.597-26.258,14.884-43.542,13.572
		c-10.404-0.79-25.732-5.079-24.882-16.966c0.495-6.914,6.956-11.43,15.834-9.047c8.645,2.318,10.524,13.928,14.704,21.485
		c9.539,0.554,18.97-4.801,18.095-15.266c-0.635-7.609-10.39-10.058-16.398-12.442c-11.198-4.445-22.054-9.32-22.054-23.185
		c0-15.081,14.99-23.479,31.102-24.882c16.427-1.433,33.793,0.705,36.756,13.571c4.998-4.96,8.039-11.539,13.006-16.963
		c9.301-10.163,22.002-18.294,36.19-23.751c7.483-2.878,14.729-4.357,23.187-6.221c2.707-0.597,5.684-1.266,5.65,3.962
		c-2.305,2.893-6.266,2.613-9.046,3.393c-20.61,5.776-35.06,20.457-41.281,41.845c10.491-3.365,19.896-9.063,31.666-7.916
		c12.743,1.24,23.263,11.491,24.318,24.881c2.133,27.115-24.748,48.6-51.461,48.631c-16.47,0.02-31.796-9.438-36.756-24.313
		C107.336,151.612,107.204,154.839,105.043,158.008z"/>
	<path d="M94.868,113.331c-5.217-4.025-5.283-12.78-10.179-16.964c-8.853,0.799-16.692,8.091-13.007,17.527
		c2.388,6.115,11.053,6.787,18.096,9.614c7.499,3.011,13.15,7.612,17.53,11.876c0.007,0.865,1.542,1.859,1.131,0
		c0.754-7.162,2.225-13.607,2.827-20.922C105.33,116.755,98.912,116.452,94.868,113.331z"/>
	<path d="M151.981,166.485c15.761-3.174,31.452-62.417-0.565-56.546c-10.342,1.896-12.711,8.14-14.703,18.096
		C133.642,143.378,133.896,170.13,151.981,166.485z"/>
</g>
</svg>
