<?xml version="1.0" encoding="utf-8"?>
<!-- Generator: Adobe Illustrator 15.1.0, SVG Export Plug-In . SVG Version: 6.00 Build 0)  -->
<!DOCTYPE svg PUBLIC "-//W3C//DTD SVG 1.1//EN" "http://www.w3.org/Graphics/SVG/1.1/DTD/svg11.dtd">
<svg version="1.1" id="Layer_1" xmlns="http://www.w3.org/2000/svg" xmlns:xlink="http://www.w3.org/1999/xlink" x="0px" y="0px"
	 width="234px" height="234px" viewBox="0 -18 234 234" enable-background="new 0 -18 234 234" xml:space="preserve">
<path d="M111.101-17.758c36.561-2.354,66.859,12.759,85.953,31.101c18.394,17.669,34.851,43.903,36.758,79.734
	c1.917,36.048-13.023,65.466-31.669,84.823c-19.464,20.207-44.806,35.292-79.169,37.321c-34.239,2.022-65.834-12.615-85.389-31.101
	C16.903,164.565,3.412,141.63,0.832,104.388c-2.496-35.986,12.581-65.909,30.535-84.824C40.252,10.204,50.8,0.959,64.165-5.882
	C77.022-12.465,94.076-16.663,111.101-17.758z M186.311,41.618c-8.457,1.864-15.704,3.343-23.187,6.221
	c-14.188,5.457-26.889,13.588-36.19,23.751c-4.967,5.424-8.008,12.003-13.006,16.963c-2.963-12.866-20.329-15.004-36.756-13.571
	c-16.112,1.404-31.102,9.801-31.102,24.882c0,13.864,10.856,18.74,22.054,23.185c6.008,2.385,15.763,4.833,16.398,12.442
	c0.875,10.465-8.556,15.819-18.095,15.266c-4.18-7.558-6.059-19.167-14.704-21.486c-8.878-2.383-15.339,2.133-15.834,9.048
	c-0.85,11.886,14.478,16.175,24.882,16.965c17.284,1.311,35.645-1.975,43.542-13.572c2.16-3.169,2.293-6.395,5.088-9.611
	c4.96,14.875,20.286,24.333,36.756,24.313c26.713-0.031,53.594-21.515,51.461-48.631c-1.055-13.39-11.575-23.641-24.318-24.881
	c-11.77-1.147-21.175,4.551-31.666,7.916c6.222-21.388,20.67-36.069,41.281-41.845c2.781-0.78,6.741-0.5,9.046-3.393
	C191.994,40.352,189.018,41.021,186.311,41.618z M83.958,80.071c4.896,4.184,4.962,12.939,10.179,16.964
	c4.044,3.121,10.462,3.424,16.398,1.131c-0.602,7.314-2.073,13.76-2.827,20.922c0.411,1.859-1.124,0.865-1.131,0
	c-4.38-4.264-10.031-8.866-17.53-11.876c-7.043-2.827-15.708-3.499-18.096-9.614C67.266,88.162,75.105,80.87,83.958,80.071z
	 M150.686,93.643c32.017-5.871,16.325,53.372,0.565,56.547c-18.085,3.644-18.34-23.108-15.268-38.451
	C137.974,101.783,140.344,95.539,150.686,93.643z"/>
</svg>
