<?xml version="1.0" encoding="utf-8"?>
<!-- Generator: Adobe Illustrator 15.1.0, SVG Export Plug-In . SVG Version: 6.00 Build 0)  -->
<!DOCTYPE svg PUBLIC "-//W3C//DTD SVG 1.1//EN" "http://www.w3.org/Graphics/SVG/1.1/DTD/svg11.dtd">
<svg version="1.1" id="Capa_1" xmlns="http://www.w3.org/2000/svg" xmlns:xlink="http://www.w3.org/1999/xlink" x="0px" y="0px"
	 width="234px" height="234px" viewBox="139 139 234 234" enable-background="new 139 139 234 234" xml:space="preserve">
<path fill="#FF3300" d="M337.793,246.017c-3.727,0-7.285,0.725-10.522,2.031C325.106,224.483,304.545,206,279.466,206
	c-6.138,0-12.091,1.16-17.374,3.125c-2.053,0.763-2.592,1.549-2.592,3.074v82.981c0,1.6,1.286,2.933,2.91,3.089
	c0.069,0.008,74.908,0.044,75.394,0.044c15.022,0,27.196-11.707,27.196-26.147C365,257.726,352.815,246.017,337.793,246.017z
	 M236.422,298.313h6.594l3.297-46.201L243.016,206h-6.594l-3.297,46.111L236.422,298.313z M216.641,298.313h-6.594l-3.297-33.535
	l3.297-32.402h6.594l3.297,32.969L216.641,298.313z M183.672,298.313h6.594l3.297-26.375l-3.297-26.375h-6.594l-3.297,26.375
	L183.672,298.313z M157.297,285.125h6.594l3.297-13.188l-3.297-13.188h-6.594L154,271.938L157.297,285.125z"/>
</svg>
