<?xml version="1.0" encoding="utf-8"?>
<!-- Generator: Adobe Illustrator 15.1.0, SVG Export Plug-In . SVG Version: 6.00 Build 0)  -->
<!DOCTYPE svg PUBLIC "-//W3C//DTD SVG 1.1//EN" "http://www.w3.org/Graphics/SVG/1.1/DTD/svg11.dtd">
<svg version="1.1" id="Capa_1" xmlns="http://www.w3.org/2000/svg" xmlns:xlink="http://www.w3.org/1999/xlink" x="0px" y="0px"
	 width="234px" height="234px" viewBox="0 0 234 234" enable-background="new 0 0 234 234" xml:space="preserve">
<path fill="#FF3300" d="M-3.5-2.5V239H238V-2.5H-3.5z M33.794,149.89c-1.86,0-3.368-5.915-3.368-13.21
	c0-7.296,1.508-13.211,3.368-13.211c1.859,0,3.367,5.915,3.367,13.211C37.162,143.975,35.654,149.89,33.794,149.89z M50.631,157.661
	c-1.86,0-3.368-11.135-3.368-24.868c0-13.73,1.508-24.864,3.368-24.864c1.859,0,3.367,11.135,3.367,24.864
	C53.998,146.526,52.49,157.661,50.631,157.661z M66.885,157.661c-1.861,0-3.368-13.977-3.368-31.213
	c0-17.238,1.507-31.212,3.368-31.212c1.859,0,3.367,13.974,3.367,31.212C70.251,143.687,68.745,157.661,66.885,157.661z
	 M83.981,157.661c-1.861,0-3.367-13.586-3.367-30.342c0-16.757,1.507-30.341,3.367-30.341c1.858,0,3.367,13.583,3.367,30.341
	C87.348,144.075,85.838,157.661,83.981,157.661z M100.298,157.661c-1.86,0-3.368-15.307-3.368-34.19
	c0-18.884,1.506-34.191,3.368-34.191c1.86,0,3.367,15.307,3.367,34.191C103.665,142.354,102.157,157.661,100.298,157.661z
	 M194.581,151.703c-7.25,3.886-15.799,4.662-15.799,4.662h-66.05V81.509c0,0,26.679-9.066,42.738,6.215
	c16.062,15.283,13.47,27.975,13.47,27.975s19.688-7.512,30.046,5.18C209.345,133.571,201.834,147.818,194.581,151.703z"/>
</svg>
