<?xml version="1.0" encoding="iso-8859-1"?>
<!-- Generator: Adobe Illustrator 16.0.0, SVG Export Plug-In . SVG Version: 6.00 Build 0)  -->
<!DOCTYPE svg PUBLIC "-//W3C//DTD SVG 1.1//EN" "http://www.w3.org/Graphics/SVG/1.1/DTD/svg11.dtd">
<svg version="1.1" id="Capa_1" xmlns="http://www.w3.org/2000/svg" xmlns:xlink="http://www.w3.org/1999/xlink" x="0px" y="0px"
	 width="512px" height="512px" viewBox="0 0 512 512" style="enable-background:new 0 0 512 512;" xml:space="preserve">
<g>
	<path d="M445.98,241.102c-9.043,0-17.676,1.76-25.533,4.928c-5.252-57.179-55.145-102.03-116-102.03
		c-14.893,0-29.34,2.815-42.158,7.582c-4.98,1.851-6.289,3.76-6.289,7.458v201.356c0,3.883,3.12,7.117,7.062,7.498
		C263.23,367.912,444.83,368,446.008,368C482.459,368,512,339.592,512,304.553S482.434,241.102,445.98,241.102z M200,368h16
		l8-112.109L216,144h-16l-8,111.891L200,368z M152,368h-16l-8-81.375L136,208h16l8,80L152,368z M72,368h16l8-64l-8-64H72l-8,64
		L72,368z M8,336h16l8-32l-8-32H8l-8,32L8,336z"/>
</g>
<g>
</g>
<g>
</g>
<g>
</g>
<g>
</g>
<g>
</g>
<g>
</g>
<g>
</g>
<g>
</g>
<g>
</g>
<g>
</g>
<g>
</g>
<g>
</g>
<g>
</g>
<g>
</g>
<g>
</g>
</svg>
