<?xml version="1.0" encoding="utf-8"?>
<!-- Generator: Adobe Illustrator 15.1.0, SVG Export Plug-In . SVG Version: 6.00 Build 0)  -->
<!DOCTYPE svg PUBLIC "-//W3C//DTD SVG 1.1//EN" "http://www.w3.org/Graphics/SVG/1.1/DTD/svg11.dtd">
<svg version="1.1" id="Capa_1" xmlns="http://www.w3.org/2000/svg" xmlns:xlink="http://www.w3.org/1999/xlink" x="0px" y="0px"
	 width="234px" height="234px" viewBox="0 -18 234 234" enable-background="new 0 -18 234 234" xml:space="preserve">
<path fill="#FF3300" d="M0-18v234h234V-18H0z M36.136,129.657c-1.802,0-3.263-5.731-3.263-12.8s1.461-12.8,3.263-12.8
	s3.263,5.731,3.263,12.8S37.938,129.657,36.136,129.657z M52.45,137.187c-1.802,0-3.263-10.788-3.263-24.095
	c0-13.305,1.461-24.093,3.263-24.093s3.263,10.789,3.263,24.093C55.712,126.398,54.251,137.187,52.45,137.187z M68.199,137.187
	c-1.803,0-3.263-13.542-3.263-30.244c0-16.702,1.46-30.242,3.263-30.242c1.802,0,3.263,13.54,3.263,30.242
	C71.461,123.646,70.001,137.187,68.199,137.187z M84.764,137.187c-1.803,0-3.262-13.163-3.262-29.399
	c0-16.237,1.46-29.399,3.262-29.399c1.801,0,3.263,13.162,3.263,29.399C88.027,124.023,86.564,137.187,84.764,137.187z
	 M100.574,137.187c-1.802,0-3.263-14.832-3.263-33.129s1.46-33.129,3.263-33.129c1.803,0,3.263,14.832,3.263,33.129
	C103.837,122.355,102.376,137.187,100.574,137.187z M191.93,131.414c-7.026,3.766-15.309,4.518-15.309,4.518h-63.999V63.4
	c0,0,25.851-8.785,41.411,6.022c15.562,14.808,13.051,27.106,13.051,27.106s19.076-7.279,29.113,5.02
	C206.235,113.845,198.957,127.65,191.93,131.414z"/>
</svg>
