<?xml version="1.0" encoding="utf-8"?>
<!-- Generator: Adobe Illustrator 15.1.0, SVG Export Plug-In . SVG Version: 6.00 Build 0)  -->
<!DOCTYPE svg PUBLIC "-//W3C//DTD SVG 1.1//EN" "http://www.w3.org/Graphics/SVG/1.1/DTD/svg11.dtd">
<svg version="1.1" id="Layer_1" xmlns="http://www.w3.org/2000/svg" xmlns:xlink="http://www.w3.org/1999/xlink" x="0px" y="0px"
	 width="234px" height="234px" viewBox="0 0 234 234" enable-background="new 0 0 234 234" xml:space="preserve">
<g>
	<path d="M0,234h234V0H0V234z"/>
	<path fill="#FFFFFF" d="M158.178,65.585c-9.912-10.563-21.515-24.326-32.695-26.633c-31.687-6.549-53.528,18.167-48.441,47.222
		c2.438,13.943,27.852,35.117,27.852,35.117s27.625,22.88,25.432,36.335c-3.641,22.344-44.216,7.117-25.432-13.325
		c-18.362-23.709-47.856-34.271-43.583-73.856c3.705-34.483,44.281-61.165,81.136-41.178c7.021,3.803,23.904,20.184,23.904,20.184
		s17.923,16.217,17.273,27.039C182.032,102.879,138.125,84.906,158.178,65.585z M102.473,76.488
		c-1.479,13.651,16.591,25.059,26.649,35.117c10.141,10.14,24.359,22.132,26.635,35.116c5.086,29.038-16.738,53.771-48.442,47.222
		c-11.018-2.274-22.831-16.038-32.695-26.634c20.069-19.305-23.839-37.277-25.431-10.903c-0.732,12.058,15.242,25.447,22.994,33.199
		c11.261,11.26,24.034,18.557,38.772,20.085c31.769,3.283,57.493-18.883,60.548-47.223c4.257-39.602-25.237-50.164-43.6-73.873
		C146.672,67.616,105.073,52.65,102.473,76.488z"/>
</g>
</svg>
