<?xml version="1.0" encoding="utf-8"?>
<!-- Generator: Adobe Illustrator 15.1.0, SVG Export Plug-In . SVG Version: 6.00 Build 0)  -->
<!DOCTYPE svg PUBLIC "-//W3C//DTD SVG 1.1//EN" "http://www.w3.org/Graphics/SVG/1.1/DTD/svg11.dtd">
<svg version="1.1" id="Capa_1" xmlns="http://www.w3.org/2000/svg" xmlns:xlink="http://www.w3.org/1999/xlink" x="0px" y="0px"
	 width="234px" height="234px" viewBox="0 0 234 234" enable-background="new 0 0 234 234" xml:space="preserve">
<circle cx="118" cy="117" r="117"/>
<path fill="#2EBD59" d="M-6.5-3.5v242.634H240V-3.5H-6.5z M198.959,99.25c-1.849,3.657-5.519,6.872-9.361,6.872
	c-1.551,0-3.144-0.355-4.639-1.095C157.996,91.581,128.957,84.78,98.666,84.78c-15.793,0-31.53,1.921-46.796,5.69
	c-5.605,1.38-11.255-2.02-12.634-7.612c-1.395-5.578,2.02-12.335,7.612-13.716c16.89-4.197,34.318-6.317,51.805-6.317
	c33.563,0,65.747,7.556,95.613,22.438C199.429,87.84,201.534,94.099,198.959,99.25z M52.226,114.631
	c15.083-4.112,30.704-6.203,46.412-6.203c28.158,0,56.158,6.83,81,19.748c4.482,2.305,6.232,7.795,3.912,12.277
	c-1.62,3.145-4.807,8.21-8.094,8.21c-1.437,0-2.86-0.313-4.197-1.039c-22.596-11.723-47.024-17.67-72.621-17.67
	c-14.1,0-28.1,1.85-41.618,5.578c-4.879,1.322-9.889-1.523-11.212-6.403C44.499,124.249,47.358,115.954,52.226,114.631z
	 M61.858,176.609c-4.125,1.28-8.508-1.025-9.774-5.165c-1.28-4.112,1.025-12.849,5.165-14.144c13.362-4.141,27.29-6.23,41.39-6.23
	c23.534,0,46.853,5.976,67.383,17.286c3.786,2.063,5.164,11.197,3.061,14.969c-1.424,2.603-4.085,4.054-6.844,4.054
	c-1.28,0-2.561-0.3-3.77-0.951c-18.227-10.047-38.928-15.354-59.845-15.354C86.089,171.073,73.71,172.938,61.858,176.609z"/>
</svg>
