<?xml version="1.0" encoding="utf-8"?>
<!-- Generator: Adobe Illustrator 15.1.0, SVG Export Plug-In . SVG Version: 6.00 Build 0)  -->
<!DOCTYPE svg PUBLIC "-//W3C//DTD SVG 1.1//EN" "http://www.w3.org/Graphics/SVG/1.1/DTD/svg11.dtd">
<svg version="1.1" id="Capa_1" xmlns="http://www.w3.org/2000/svg" xmlns:xlink="http://www.w3.org/1999/xlink" x="0px" y="0px"
	 width="234px" height="234px" viewBox="0 -18 234 234" enable-background="new 0 -18 234 234" xml:space="preserve">
<circle fill="#2EBD59" cx="118" cy="100" r="117"/>
<path fill="#010002" d="M118.25-17.5C53.223-17.5,0.5,35.223,0.5,100.25S53.223,218,118.25,218S236,165.277,236,100.25
	S183.277-17.5,118.25-17.5z M172.636,169.267c-1.472,2.693-4.225,4.194-7.079,4.194c-1.324,0-2.649-0.31-3.9-0.985
	c-18.855-10.392-40.271-15.883-61.908-15.883c-12.967,0-25.772,1.928-38.033,5.727c-4.268,1.324-8.802-1.06-10.112-5.344
	c-1.324-4.253,1.061-13.291,5.343-14.63c13.822-4.284,28.231-6.446,42.817-6.446c24.346,0,48.468,6.182,69.707,17.882
	C173.386,155.917,174.813,165.366,172.636,169.267z M187.604,124.918c-1.677,3.253-4.973,8.493-8.374,8.493
	c-1.486,0-2.958-0.323-4.342-1.075c-23.374-12.127-48.646-18.279-75.124-18.279c-14.586,0-29.069,1.913-43.053,5.77
	c-5.048,1.368-10.23-1.575-11.599-6.624c-1.354-5.048,1.604-13.63,6.639-14.998c15.602-4.254,31.763-6.417,48.012-6.417
	c29.129,0,58.095,7.065,83.794,20.43C188.193,114.601,190.004,120.281,187.604,124.918z M193.859,89.402
	c-1.604,0-3.251-0.368-4.798-1.133c-27.893-13.909-57.933-20.945-89.269-20.945c-16.338,0-32.617,1.988-48.41,5.887
	c-5.799,1.428-11.643-2.089-13.07-7.874c-1.443-5.77,2.089-12.761,7.874-14.189c17.472-4.342,35.501-6.535,53.591-6.535
	c34.721,0,68.015,7.816,98.91,23.211c5.343,2.665,7.521,9.14,4.857,14.469C201.632,86.076,197.835,89.402,193.859,89.402z"/>
</svg>
