<?xml version="1.0" encoding="utf-8"?>
<!-- Generator: Adobe Illustrator 15.1.0, SVG Export Plug-In . SVG Version: 6.00 Build 0)  -->
<!DOCTYPE svg PUBLIC "-//W3C//DTD SVG 1.1//EN" "http://www.w3.org/Graphics/SVG/1.1/DTD/svg11.dtd">
<svg version="1.1" id="Capa_1" xmlns="http://www.w3.org/2000/svg" xmlns:xlink="http://www.w3.org/1999/xlink" x="0px" y="0px"
	 width="234px" height="234px" viewBox="0 -18 234 234" enable-background="new 0 -18 234 234" xml:space="preserve">
<path fill="#55ACEE" d="M216,37.613c-7.287,3.229-15.107,5.419-23.322,6.397c8.389-5.023,14.811-12.991,17.854-22.457
	c-7.869,4.652-16.555,8.03-25.81,9.861c-7.411-7.906-17.952-12.831-29.646-12.831c-22.432,0-40.619,18.188-40.619,40.607
	c0,3.18,0.359,6.285,1.052,9.255C81.756,66.75,51.827,50.58,31.795,26.007c-3.501,5.988-5.493,12.966-5.493,20.415
	c0,14.092,7.176,26.527,18.064,33.802c-6.656-0.222-12.917-2.054-18.398-5.097v0.507c0,19.672,14.006,36.09,32.577,39.828
	c-3.403,0.915-6.991,1.423-10.703,1.423c-2.623,0-5.159-0.26-7.646-0.755c5.171,16.146,20.167,27.888,37.935,28.21
	c-13.895,10.889-31.414,17.359-50.443,17.359c-3.278,0-6.508-0.199-9.688-0.557c17.978,11.543,39.32,18.273,62.259,18.273
	c74.719,0,115.561-61.888,115.561-115.561l-0.137-5.258C203.664,52.905,210.568,45.754,216,37.613z"/>
</svg>
