<?xml version="1.0" encoding="utf-8"?>
<!-- Generator: Adobe Illustrator 15.1.0, SVG Export Plug-In . SVG Version: 6.00 Build 0)  -->
<!DOCTYPE svg PUBLIC "-//W3C//DTD SVG 1.1//EN" "http://www.w3.org/Graphics/SVG/1.1/DTD/svg11.dtd">
<svg version="1.1" id="Capa_1" xmlns="http://www.w3.org/2000/svg" xmlns:xlink="http://www.w3.org/1999/xlink" x="0px" y="0px"
	 width="234px" height="234px" viewBox="0 0 234 234" enable-background="new 0 0 234 234" xml:space="preserve">
<path fill="#55ACEE" d="M0,238.5h238.5V0H0V238.5z M64.025,131.484c1.905,0.358,3.857,0.562,5.864,0.562
	c2.837,0,5.593-0.384,8.208-1.095c-14.253-2.864-25-15.458-25-30.562c0-0.133,0-0.26,0.006-0.391
	c4.197,2.333,9.007,3.735,14.113,3.9c-8.363-5.59-13.86-15.127-13.86-25.943c0-5.709,1.533-11.058,4.215-15.664
	c15.368,18.855,38.334,31.26,64.234,32.563c-0.534-2.282-0.807-4.662-0.807-7.104c0-17.211,13.953-31.161,31.162-31.161
	c8.962,0,17.062,3.784,22.743,9.84c7.1-1.398,13.771-3.989,19.793-7.562c-2.33,7.275-7.27,13.387-13.701,17.24
	c6.306-0.755,12.31-2.426,17.9-4.905c-4.176,6.245-9.461,11.736-15.556,16.128c0.067,1.337,0.092,2.684,0.092,4.034
	c0,41.181-31.349,88.668-88.667,88.668c-17.596,0-33.975-5.163-47.765-14.007c2.433,0.294,4.912,0.438,7.43,0.438
	c14.604,0,28.039-4.979,38.706-13.344C79.501,152.875,67.99,143.862,64.025,131.484z"/>
</svg>
