<?xml version="1.0" encoding="utf-8"?>
<!-- Generator: Adobe Illustrator 15.1.0, SVG Export Plug-In . SVG Version: 6.00 Build 0)  -->
<!DOCTYPE svg PUBLIC "-//W3C//DTD SVG 1.1//EN" "http://www.w3.org/Graphics/SVG/1.1/DTD/svg11.dtd">
<svg version="1.1" id="Capa_1" xmlns="http://www.w3.org/2000/svg" xmlns:xlink="http://www.w3.org/1999/xlink" x="0px" y="0px"
	 width="234px" height="234px" viewBox="0 -18 234 234" enable-background="new 0 -18 234 234" xml:space="preserve">
<path fill="#55ACEE" d="M117-18.5C52.101-18.5-0.5,34.105-0.5,99c0,64.896,52.601,117.5,117.5,117.5
	c64.894,0,117.5-52.604,117.5-117.5C234.5,34.105,181.894-18.5,117-18.5z M157.262,81.102c0.041,0.837,0.057,1.679,0.057,2.524
	c0,25.767-19.615,55.479-55.478,55.479c-11.01,0-21.258-3.23-29.886-8.764c1.522,0.184,3.073,0.274,4.649,0.274
	c9.137,0,17.543-3.116,24.218-8.349c-8.533-0.155-15.735-5.794-18.216-13.539c1.192,0.225,2.413,0.352,3.669,0.352
	c1.776,0,3.5-0.24,5.136-0.686c-8.918-1.792-15.642-9.671-15.642-19.121c0-0.083,0-0.163,0.004-0.244
	c2.626,1.46,5.635,2.337,8.83,2.44c-5.232-3.498-8.672-9.465-8.672-16.232c0-3.572,0.959-6.919,2.638-9.801
	c9.615,11.797,23.985,19.559,40.19,20.374c-0.334-1.428-0.504-2.917-0.504-4.445c0-10.769,8.729-19.497,19.497-19.497
	c5.608,0,10.675,2.368,14.231,6.157c4.442-0.875,8.617-2.496,12.383-4.731c-1.458,4.552-4.548,8.376-8.572,10.787
	c3.944-0.473,7.702-1.518,11.2-3.069C164.382,74.918,161.074,78.354,157.262,81.102z"/>
</svg>
